<?xml version="1.0" standalone="no"?>
<!DOCTYPE svg PUBLIC "-//W3C//DTD SVG 20010904//EN"
 "http://www.w3.org/TR/2001/REC-SVG-20010904/DTD/svg10.dtd">
<svg version="1.0" xmlns="http://www.w3.org/2000/svg"
 width="588.000000pt" height="588.000000pt" viewBox="0 0 588.000000 588.000000"
 preserveAspectRatio="xMidYMid meet">
<metadata>
Created by potrace 1.11, written by Peter Selinger 2001-2013
</metadata>
<g transform="translate(0.000000,588.000000) scale(0.100000,-0.100000)"
fill="#000000" stroke="none">
<path d="M20 2940 l0 -2940 2925 0 2925 0 0 2940 0 2940 -2925 0 -2925 0 0
-2940z m4487 1348 c-2 -18 -17 -131 -33 -250 l-28 -218 -436 -2 -435 -3 -5
-1046 -5 -1047 -243 -186 c-134 -102 -245 -186 -247 -186 -3 0 -6 593 -7 1318
l-3 1317 -120 0 -120 0 -3 -717 -2 -718 -250 0 -250 0 -2 633 -3 632 -435 3
-436 2 -28 218 c-16 119 -31 232 -33 250 l-6 32 1568 0 1568 0 -6 -32z"/>
</g>
</svg>
