<svg width="1440" height="1837" viewBox="0 0 1440 1837" fill="none" xmlns="http://www.w3.org/2000/svg">
<path d="M1588.13 1006.14C1547.66 981.706 1494.74 987.389 1452.5 965.974C1446.99 963.128 1441.7 959.91 1436.66 956.346C1414.81 941.164 1396.52 920.847 1373.79 906.656C1331.17 880.019 1281.8 878.462 1231.57 886.036C1193.63 891.806 1155.27 902.857 1119.13 912.37C1027.09 936.561 926.54 948.337 834.674 916.814C773.421 895.785 720.188 856.948 661.048 830.64C601.907 804.333 529.238 791.983 476.175 824.606C419.216 859.614 403.334 934.141 350.988 974.975C294.807 1018.79 209.086 1014.68 150.11 1055.2C75.1771 1106.68 67.8956 1209.67 20.9967 1285.54C-1.51883 1321.98 -33.3974 1352.19 -57.7831 1387.47C-84.8932 1426.78 -102.256 1471.65 -108.621 1518.87C-110.751 1534.97 -111.407 1552.39 -103.086 1567.02C-95.882 1579.64 -83.0041 1588.44 -70.1891 1596.08C-22.5988 1624.42 35.1232 1648.04 56.7852 1697.13C76.7696 1742.41 65.0396 1806 110.281 1829.93C137.513 1844.34 170.538 1834.13 198.02 1822.25C254.698 1797.76 308.83 1766.88 369.585 1752.73C413.08 1742.63 461.96 1742.7 503.646 1758.71C520.395 1765.01 535.878 1774.19 549.296 1785.77C570.349 1804.15 589.363 1830.33 617.411 1831.62C629.569 1832.19 641.13 1827.63 651.612 1822.17C691.123 1801.57 720.67 1767.69 757.265 1742.83C769.774 1734.28 783.442 1727.33 797.939 1722.13C826.733 1711.94 858.183 1710.08 885.174 1724.5C900.99 1732.96 914.557 1746.62 932.235 1749.66C962.155 1754.87 988.726 1740.19 1011.49 1718.49C1039.66 1691.63 1062.08 1653.93 1078.06 1629.43L1079.67 1627C1100.42 1595.72 1131.15 1572.48 1164.97 1552.43C1201.39 1530.71 1241.28 1512.75 1276.1 1492.23C1279.38 1490.31 1282.6 1488.36 1285.77 1486.38C1310.58 1470.93 1333.98 1453.58 1355.73 1434.47C1386.43 1407.55 1413.76 1377.36 1437.21 1344.44C1449.12 1327.75 1459.97 1310.39 1469.73 1292.44C1472.59 1287.16 1475.38 1281.84 1478.1 1276.48C1493.99 1245.36 1508.4 1213.33 1530.43 1186.04C1532.04 1184.11 1533.66 1182.16 1535.28 1180.22C1562.68 1148.55 1598.95 1122.49 1613.68 1083.78C1620.35 1066.16 1621.81 1045.48 1611.86 1028.7C1606.31 1019.36 1597.65 1011.9 1588.13 1006.14Z" fill="#EDEDED"/>
<path d="M-246.814 699.552C-199.227 721.795 -139.173 712.575 -89.7406 731.628C-83.2943 734.167 -77.0678 737.098 -71.1111 740.399C-45.2979 754.43 -23.2619 773.921 3.50178 786.888C53.6698 811.23 110.087 809.609 166.955 798.64C209.91 790.305 253.04 776.567 293.718 764.539C397.329 733.944 511.368 715.43 618.008 741.549C689.112 758.973 752.096 795.044 821.096 817.978C890.096 840.912 973.722 848.763 1032.37 812.117C1095.33 772.789 1109.14 695.91 1166.5 650.954C1228.06 602.713 1326.1 601.33 1391.04 556.263C1473.55 499.004 1475.9 393.715 1525.01 313.455C1548.59 274.912 1583.21 242.095 1608.99 204.602C1637.65 162.839 1654.86 116.042 1659.39 67.5785C1660.88 51.0531 1660.62 33.2741 1650.28 18.9272C1641.33 6.55201 1626.13 -1.56216 1611.07 -8.51219C1555.13 -34.2638 1487.9 -54.5583 1460.34 -103.108C1434.92 -147.894 1444.62 -213.377 1391.62 -234.795C1359.71 -247.693 1322.62 -235.154 1291.96 -221.283C1228.71 -192.674 1168.74 -157.731 1100.24 -139.387C1051.2 -126.289 995.424 -123.182 946.936 -136.766C927.461 -142.091 909.264 -150.428 893.284 -161.347C868.199 -178.686 844.99 -204.096 812.914 -203.59C799.009 -203.374 786.083 -197.983 774.44 -191.747C730.553 -168.219 698.803 -131.82 658.49 -104.146C644.714 -94.6316 629.522 -86.6647 613.282 -80.4386C581.021 -68.1927 545.246 -64.2548 513.615 -77.18C495.081 -84.7607 478.809 -97.7904 458.464 -99.7366C424.026 -103.097 394.56 -86.4263 369.848 -62.8601C339.254 -33.6943 315.863 6.12892 299.048 32.0923L297.353 34.677C275.485 67.8556 241.778 93.5035 204.354 116.106C164.052 140.58 119.586 161.441 81.04 184.586C77.4173 186.757 73.852 188.95 70.3441 191.167C42.9317 208.5 17.2461 227.685 -6.467 248.538C-39.9352 277.931 -69.3665 310.436 -94.221 345.456C-106.832 363.213 -118.213 381.588 -128.306 400.489C-131.266 406.046 -134.14 411.643 -136.929 417.28C-153.257 449.986 -167.844 483.516 -191.395 512.715C-193.126 514.791 -194.866 516.878 -196.596 518.953C-226.026 552.97 -265.9 581.849 -280.458 622.195C-287.048 640.561 -287.517 661.699 -275.192 678.133C-268.322 687.282 -258.009 694.31 -246.814 699.552Z" fill="#EDEDED"/>
</svg>
