<svg width="602" height="626" viewBox="0 0 602 626" fill="none" xmlns="http://www.w3.org/2000/svg">
<path d="M664.209 154.704C650.099 143.497 629.908 143.639 614.991 133.551C613.05 132.214 611.205 130.74 609.472 129.14C601.944 122.308 595.997 113.598 588.091 107.121C573.273 94.9651 554.755 92.4012 535.491 93.3926C520.938 94.1604 505.981 96.9878 491.935 99.2986C456.159 105.169 417.752 105.823 384.616 89.799C362.521 79.1111 344.27 61.7394 323.215 49.0598C302.161 36.3802 275.367 28.6524 253.879 39.3784C230.814 50.8882 221.391 79.5563 199.794 93.5384C176.614 108.541 144.525 103.536 120.446 117.133C89.8517 134.407 82.3529 174.604 61.1885 202.574C51.0273 216.006 37.6278 226.622 26.8155 239.528C14.7916 253.907 6.18091 270.86 1.60338 289.168C0.0576766 295.413 -0.994232 302.238 1.46329 308.317C3.59334 313.562 8.03644 317.528 12.5089 321.041C29.1205 334.062 49.765 345.631 55.6549 365.782C61.0888 384.372 53.7345 408.907 69.6653 420.102C79.2541 426.844 92.1617 424.135 103.059 420.553C125.533 413.165 147.343 403.166 170.874 400.006C187.718 397.757 206.122 399.716 221.079 407.656C227.096 410.795 232.502 415.016 237.019 420.1C244.098 428.157 250.049 439.2 260.551 440.817C265.103 441.519 269.667 440.184 273.866 438.453C289.696 431.918 302.387 419.768 317.315 411.444C322.42 408.577 327.888 406.383 333.587 404.915C344.9 402.046 356.829 402.557 366.327 409.293C371.892 413.243 376.369 419.152 382.886 421.046C393.912 424.277 404.595 419.555 414.168 411.924C426.02 402.479 436.202 388.546 443.351 379.55L444.069 378.656C453.329 367.182 465.971 359.26 479.632 352.715C494.352 345.616 510.2 340.136 524.262 333.446C525.583 332.819 526.887 332.18 528.174 331.529C538.23 326.437 547.841 320.539 556.914 313.89C569.718 304.521 581.403 293.732 591.756 281.721C597.008 275.631 601.898 269.235 606.401 262.565C607.722 260.604 609.018 258.622 610.289 256.621C617.71 245.015 624.616 232.995 634.171 223.14C634.868 222.443 635.57 221.742 636.267 221.044C648.049 209.676 662.911 200.865 670.243 186.233C673.568 179.57 675.073 171.5 672.102 164.51C670.444 160.617 667.528 157.343 664.209 154.704Z" fill="#B2CDC4"/>
<path d="M334.236 562.02C341.713 567.958 352.412 567.883 360.316 573.229C361.345 573.937 362.322 574.718 363.241 575.566C367.23 579.186 370.381 583.801 374.57 587.234C382.422 593.675 392.235 595.034 402.443 594.508C410.155 594.102 418.08 592.603 425.523 591.379C444.481 588.268 464.832 587.922 482.391 596.413C494.099 602.076 503.77 611.281 514.927 618C526.084 624.719 540.282 628.814 551.668 623.13C563.891 617.031 568.884 601.84 580.328 594.431C592.611 586.481 609.614 589.133 622.374 581.929C638.586 572.775 642.559 551.475 653.774 536.653C659.159 529.536 666.259 523.911 671.989 517.072C678.36 509.452 682.923 500.469 685.348 490.768C686.167 487.458 686.725 483.842 685.423 480.621C684.294 477.841 681.94 475.74 679.57 473.878C670.767 466.978 659.828 460.848 656.707 450.17C653.827 440.319 657.724 427.318 649.283 421.386C644.201 417.814 637.362 419.249 631.588 421.147C619.679 425.062 608.122 430.36 595.652 432.035C586.727 433.226 576.975 432.189 569.049 427.981C565.861 426.318 562.996 424.081 560.602 421.387C556.851 417.118 553.698 411.266 548.133 410.409C545.721 410.037 543.302 410.745 541.077 411.662C532.689 415.125 525.964 421.563 518.054 425.974C515.349 427.493 512.451 428.656 509.431 429.434C503.436 430.954 497.115 430.683 492.082 427.114C489.134 425.021 486.761 421.889 483.308 420.886C477.465 419.174 471.804 421.676 466.731 425.72C460.451 430.724 455.056 438.108 451.268 442.874L450.887 443.348C445.98 449.428 439.281 453.626 432.042 457.094C424.242 460.856 415.845 463.76 408.393 467.305C407.693 467.637 407.002 467.976 406.32 468.321C400.992 471.019 395.899 474.144 391.091 477.667C384.306 482.632 378.114 488.349 372.628 494.714C369.845 497.941 367.254 501.33 364.868 504.864C364.168 505.904 363.481 506.954 362.808 508.014C358.875 514.164 355.216 520.534 350.153 525.756C349.783 526.125 349.412 526.497 349.042 526.866C342.799 532.89 334.924 537.559 331.038 545.312C329.276 548.843 328.479 553.12 330.053 556.824C330.932 558.886 332.477 560.621 334.236 562.02Z" fill="#B2CDC4"/>
<path d="M312.108 298.718C312.108 298.718 293.853 222.309 321.984 168.624C333.931 146.176 338.386 120.263 334.682 94.7773C332.834 82.6955 329.912 70.7969 325.951 59.2308" stroke="#7FB7A2" stroke-width="1.3165" stroke-miterlimit="10"/>
<path d="M343.479 25.2913C343.065 34.493 325.595 60.1752 325.595 60.1752C325.595 60.1752 310.502 32.4906 310.916 23.2889C311.171 18.9136 313.099 14.841 316.284 11.952C319.469 9.06297 323.654 7.58979 327.935 7.85109C332.215 8.11238 336.246 10.0872 339.157 13.3483C342.067 16.6094 343.623 20.8947 343.487 25.2773L343.479 25.2913Z" fill="#7FB7A2"/>
<path d="M368.12 77.9106C362.883 85.3088 334.448 96.9762 334.448 96.9762C334.448 96.9762 336.362 65.5499 341.593 58.1295C342.816 56.3116 344.386 54.7673 346.208 53.5871C348.031 52.4069 350.071 51.6145 352.208 51.2565C354.345 50.8984 356.536 50.9819 358.653 51.5021C360.77 52.0222 362.771 52.9685 364.537 54.2855C366.303 55.6025 367.799 57.2636 368.938 59.1715C370.077 61.0793 370.836 63.1956 371.17 65.396C371.503 67.5965 371.405 69.8369 370.882 71.9859C370.358 74.1349 369.419 76.1491 368.12 77.9106Z" fill="#7FB7A2"/>
<path d="M363.051 164.945C354.837 168.591 324.346 163.862 324.346 163.862C324.346 163.862 341.507 137.942 349.709 134.251C353.635 132.617 358.052 132.629 362.014 134.285C365.976 135.942 369.17 139.111 370.911 143.116C372.653 147.12 372.804 151.641 371.333 155.713C369.862 159.784 366.885 163.081 363.039 164.9L363.051 164.945Z" fill="#7FB7A2"/>
<path d="M344.717 229.697C337.242 234.727 306.48 235.32 306.48 235.32C306.48 235.32 319.075 206.751 326.547 201.71C328.324 200.463 330.33 199.594 332.449 199.155C334.568 198.716 336.757 198.715 338.889 199.153C341.02 199.591 343.05 200.458 344.861 201.705C346.672 202.951 348.227 204.551 349.435 206.412C350.643 208.272 351.48 210.355 351.897 212.539C352.314 214.724 352.302 216.965 351.863 219.132C351.423 221.299 350.564 223.349 349.337 225.161C348.109 226.973 346.538 228.512 344.714 229.686L344.717 229.697Z" fill="#7FB7A2"/>
<path d="M300.16 96.6392C306.328 103.441 336.084 111.925 336.084 111.925C336.084 111.925 330.088 80.9368 323.927 74.1212C322.461 72.5025 320.702 71.1908 318.751 70.2611C316.799 69.3314 314.693 68.8019 312.553 68.7028C310.413 68.6036 308.28 68.9368 306.277 69.6834C304.275 70.4299 302.441 71.5752 300.88 73.0537C299.319 74.5323 298.063 76.3151 297.182 78.3006C296.301 80.2861 295.813 82.4352 295.747 84.6253C295.68 86.8154 296.035 89.0036 296.792 91.065C297.549 93.1263 298.694 95.0204 300.16 96.6392Z" fill="#7FB7A2"/>
<path d="M279.677 172.69C287.526 177.326 318.271 176.332 318.271 176.332C318.271 176.332 303.523 148.469 295.674 143.834C291.912 141.692 287.5 141.138 283.388 142.292C279.276 143.446 275.795 146.216 273.696 150.003C271.596 153.79 271.047 158.291 272.166 162.536C273.285 166.78 275.982 170.427 279.677 172.69Z" fill="#7FB7A2"/>
<path d="M269.701 249.524C276.681 255.435 307.229 259.779 307.229 259.779C307.229 259.779 297.256 229.82 290.256 223.879C288.597 222.449 286.683 221.366 284.623 220.692C282.563 220.018 280.399 219.766 278.256 219.952C276.113 220.138 274.033 220.758 272.136 221.775C270.239 222.792 268.563 224.186 267.205 225.878C265.847 227.57 264.833 229.525 264.223 231.63C263.612 233.736 263.417 235.951 263.648 238.146C263.879 240.342 264.532 242.474 265.569 244.422C266.607 246.369 268.008 248.092 269.692 249.49L269.701 249.524Z" fill="#7FB7A2"/>
<path d="M426.48 330.815C426.48 330.815 430.544 252.36 472.69 208.804C490.489 190.643 502.081 167.043 505.723 141.548C507.363 129.436 507.92 117.197 507.386 104.983" stroke="#7FB7A2" stroke-width="1.3165" stroke-miterlimit="10"/>
<path d="M533.785 77.3745C530.789 86.0846 506.778 105.788 506.778 105.788C506.778 105.788 500.116 74.9684 503.112 66.2583C504.592 62.133 507.592 58.7707 511.463 56.8986C515.334 55.0265 519.765 54.7951 523.797 56.2544C527.83 57.7138 531.139 60.7466 533.011 64.6968C534.882 68.6471 535.164 73.1973 533.796 77.3632L533.785 77.3745Z" fill="#7FB7A2"/>
<path d="M542.564 134.81C535.451 140.429 504.879 143.592 504.879 143.592C504.879 143.592 515.589 113.985 522.702 108.343C524.389 106.945 526.33 105.907 528.412 105.289C530.494 104.672 532.675 104.488 534.826 104.748C536.977 105.008 539.056 105.707 540.94 106.803C542.824 107.9 544.475 109.373 545.798 111.135C547.12 112.897 548.086 114.913 548.64 117.065C549.194 119.217 549.324 121.461 549.023 123.666C548.722 125.871 547.995 127.993 546.886 129.907C545.777 131.82 544.308 133.487 542.564 134.81Z" fill="#7FB7A2"/>
<path d="M513.124 216.871C504.215 218.049 476.3 204.902 476.3 204.902C476.3 204.902 500.082 184.884 508.993 183.659C513.221 183.2 517.454 184.459 520.787 187.167C524.12 189.875 526.289 193.817 526.829 198.15C527.369 202.483 526.237 206.863 523.676 210.353C521.115 213.843 517.328 216.166 513.125 216.825L513.124 216.871Z" fill="#7FB7A2"/>
<path d="M477.252 273.811C468.66 276.525 438.983 268.407 438.983 268.407C438.983 268.407 459.133 244.558 467.725 241.832C469.781 241.137 471.951 240.87 474.107 241.048C476.264 241.225 478.365 241.842 480.286 242.864C482.206 243.886 483.909 245.291 485.295 246.998C486.68 248.705 487.72 250.68 488.353 252.805C488.987 254.931 489.202 257.166 488.985 259.379C488.768 261.592 488.123 263.739 487.09 265.694C486.056 267.649 484.654 269.372 482.964 270.764C481.275 272.156 479.333 273.188 477.252 273.799L477.252 273.811Z" fill="#7FB7A2"/>
<path d="M472.081 133.586C476.078 141.853 502.227 158.394 502.227 158.394C502.227 158.394 505.225 126.974 501.24 118.696C500.291 116.729 498.974 114.974 497.364 113.531C495.754 112.088 493.883 110.986 491.858 110.286C489.833 109.587 487.693 109.304 485.561 109.455C483.429 109.605 481.346 110.186 479.432 111.164C477.517 112.141 475.808 113.497 474.403 115.153C472.997 116.809 471.922 118.733 471.24 120.815C470.557 122.897 470.28 125.096 470.424 127.288C470.569 129.479 471.132 131.619 472.081 133.586Z" fill="#7FB7A2"/>
<path d="M430.956 200.758C437.177 207.421 466.951 215.15 466.951 215.15C466.951 215.15 460.672 184.256 454.451 177.593C451.447 174.476 447.37 172.699 443.1 172.645C438.83 172.591 434.708 174.265 431.625 177.305C428.541 180.345 426.743 184.508 426.618 188.896C426.493 193.283 428.051 197.544 430.956 200.758Z" fill="#7FB7A2"/>
<path d="M399.69 271.647C404.717 279.289 432.795 292.082 432.795 292.082C432.795 292.082 431.688 260.527 426.65 252.851C425.463 251.01 423.932 249.431 422.146 248.202C420.361 246.974 418.356 246.122 416.248 245.695C414.139 245.268 411.969 245.275 409.862 245.715C407.755 246.155 405.754 247.02 403.973 248.259C402.192 249.498 400.668 251.088 399.487 252.935C398.307 254.783 397.494 256.852 397.096 259.024C396.698 261.195 396.722 263.426 397.167 265.586C397.613 267.747 398.47 269.795 399.69 271.613L399.69 271.647Z" fill="#7FB7A2"/>
<path d="M196.119 419.981C191.989 412.831 185.523 407.34 177.874 404.487C170.226 401.633 161.89 401.601 154.353 404.398C146.816 407.194 140.567 412.637 136.719 419.757C132.871 426.876 131.674 435.21 133.342 443.273C135.01 451.336 139.434 458.605 145.826 463.785C152.218 468.964 160.162 471.718 168.244 471.555C176.326 471.393 184.021 468.325 189.957 462.897C195.892 457.47 199.684 450.035 200.657 441.919C201.563 434.356 199.967 426.643 196.119 419.981Z" fill="#BFDBD1"/>
<path d="M191.773 442.267L185.015 430.562" stroke="#7FB7A2" stroke-width="0.658252" stroke-miterlimit="10"/>
<path d="M163.845 444.166L171.078 429.231" stroke="#7FB7A2" stroke-width="0.658252" stroke-miterlimit="10"/>
<path d="M186.101 455.25L168.727 457.299" stroke="#7FB7A2" stroke-width="0.658252" stroke-miterlimit="10"/>
<path d="M151.255 448.659L141.498 430.012" stroke="#7FB7A2" stroke-width="0.658252" stroke-miterlimit="10"/>
<path d="M146.947 419.575L167.297 418.584" stroke="#7FB7A2" stroke-width="0.658252" stroke-miterlimit="10"/>
<path d="M174.646 412.601L168.774 402.43" stroke="#7FB7A2" stroke-width="0.658252" stroke-miterlimit="10"/>
<path d="M184.979 417.048L193.622 416.216" stroke="#7FB7A2" stroke-width="0.658252" stroke-miterlimit="10"/>
<path d="M160.724 463.314L166.159 471.519" stroke="#7FB7A2" stroke-width="0.658252" stroke-miterlimit="10"/>
<path d="M150.458 456.052L140.53 458.463" stroke="#7FB7A2" stroke-width="0.658252" stroke-miterlimit="10"/>
<path d="M170.932 457.099L161.494 464.881L148.516 457.183L148.908 444.965L163.659 444.501L170.932 457.099Z" fill="#7FB7A2" stroke="#7FB7A2" stroke-width="0.658252"/>
<path d="M190.687 446.375C191.378 445.013 191.912 443.684 192.091 442.568L200.282 442.262C199.239 450.163 195.493 457.377 189.694 462.653L184.492 455.734C184.536 455.678 184.589 455.611 184.649 455.533C184.849 455.276 185.135 454.903 185.48 454.443C186.17 453.522 187.094 452.248 188.034 450.834C188.974 449.42 189.932 447.862 190.687 446.375Z" fill="#7FB7A2" stroke="#7FB7A2" stroke-width="0.658252"/>
<path d="M184.96 430.109L170.25 431.211L162.833 418.365L173.03 410.136L185.942 417.171L184.96 430.109Z" fill="#7FB7A2" stroke="#7FB7A2" stroke-width="0.658252"/>
<path d="M133.046 433.539C133.374 429.173 134.529 424.93 136.448 421.042C138.365 417.156 141.009 413.698 144.234 410.857L149.515 420.004L142.796 432.317L133.046 433.539Z" fill="#7FB7A2" stroke="#7FB7A2" stroke-width="0.658252"/>
<path d="M305.113 540.83C307.398 548.764 312.349 555.651 319.085 560.265C325.82 564.878 333.902 566.918 341.891 566.02C349.88 565.123 357.257 561.347 362.708 555.364C368.158 549.382 371.328 541.583 371.653 533.355C371.978 525.128 369.436 517.007 364.481 510.44C359.526 503.872 352.48 499.285 344.597 497.494C336.714 495.704 328.507 496.827 321.438 500.664C314.369 504.501 308.897 510.802 305.997 518.444C303.294 525.566 302.984 533.437 305.113 540.83Z" fill="#BFDBD1"/>
<path d="M314.702 520.248L318.439 533.237" stroke="#7FB7A2" stroke-width="0.658252" stroke-miterlimit="10"/>
<path d="M342.264 525.137L331.644 537.888" stroke="#7FB7A2" stroke-width="0.658252" stroke-miterlimit="10"/>
<path d="M323.336 509.014L340.692 511.214" stroke="#7FB7A2" stroke-width="0.658252" stroke-miterlimit="10"/>
<path d="M355.566 523.811L360.541 544.259" stroke="#7FB7A2" stroke-width="0.658252" stroke-miterlimit="10"/>
<path d="M352.737 553.076L332.749 549.132" stroke="#7FB7A2" stroke-width="0.658252" stroke-miterlimit="10"/>
<path d="M324.174 553.168L327.422 564.454" stroke="#7FB7A2" stroke-width="0.658252" stroke-miterlimit="10"/>
<path d="M315.217 546.361L306.628 545.086" stroke="#7FB7A2" stroke-width="0.658252" stroke-miterlimit="10"/>
<path d="M349.908 507.305L346.611 498.032" stroke="#7FB7A2" stroke-width="0.658252" stroke-miterlimit="10"/>
<path d="M358.122 516.828L368.338 516.88" stroke="#7FB7A2" stroke-width="0.658252" stroke-miterlimit="10"/>
<path d="M338.504 510.877L349.539 505.599L360.279 516.198L356.953 527.962L342.526 524.857L338.504 510.877Z" fill="#7FB7A2" stroke="#7FB7A2" stroke-width="0.658252"/>
<path d="M316.746 516.523C315.747 517.678 314.908 518.839 314.466 519.879L306.443 518.202C309.359 510.785 314.734 504.687 321.633 500.964L325.014 508.933C324.958 508.977 324.891 509.029 324.814 509.09C324.557 509.292 324.19 509.584 323.744 509.948C322.853 510.675 321.649 511.689 320.395 512.835C319.143 513.98 317.837 515.262 316.746 516.523Z" fill="#7FB7A2" stroke="#7FB7A2" stroke-width="0.658252"/>
<path d="M318.384 533.689L332.926 536.166L337.028 550.421L325.148 555.949L314.312 546.009L318.384 533.689Z" fill="#7FB7A2" stroke="#7FB7A2" stroke-width="0.658252"/>
<path d="M369.594 542.874C368.223 547.032 366.08 550.872 363.281 554.183C360.483 557.492 357.084 560.21 353.269 562.191L350.348 552.041L359.837 541.71L369.594 542.874Z" fill="#7FB7A2" stroke="#7FB7A2" stroke-width="0.658252"/>
<path d="M244.588 428.907L229.203 461.44C229.203 461.44 205.498 480.671 222.809 482.453C240.121 484.235 250.03 476.794 250.03 476.794L264.512 464.965L262.74 433.396L244.588 428.907Z" fill="#409374"/>
<path d="M220.251 412.374L230.368 433.148C230.368 433.148 234.3 441.877 230.984 444.129C227.669 446.38 218.754 459.273 225.008 460.299C226.264 460.472 227.534 460.527 228.8 460.462C233.948 460.26 239.003 459.018 243.658 456.812C248.314 454.605 252.475 451.48 255.892 447.623L261.143 441.747C261.143 441.747 239.62 398.929 239.903 399.24C240.185 399.55 220.251 412.374 220.251 412.374Z" fill="#409374"/>
<path d="M250.393 90.8911C265.365 90.0504 276.863 78.0001 276.076 63.9759C275.288 49.9518 262.513 39.2644 247.541 40.1051C232.57 40.9457 221.071 52.996 221.858 67.0202C222.646 81.0444 235.421 91.7317 250.393 90.8911Z" fill="#006F46"/>
<path d="M178.925 228.121L172.602 238.115C172.602 238.115 140.045 246.827 152.976 256.428C165.907 266.029 182.634 245.124 182.634 245.124L191.548 232.232L178.925 228.121Z" fill="#BFDBD1"/>
<path d="M208.486 116.996C208.486 116.996 199.564 117.497 198.198 129.966C196.833 142.435 197.086 183.728 197.086 183.728C197.086 183.728 170.381 223.093 175.455 227.627C180.529 232.162 186.52 240.775 189.875 239.21C193.229 237.645 220.466 195.496 220.466 195.496L208.486 116.996Z" fill="#409374"/>
<path d="M233.972 80.4535C233.972 80.4535 234.789 107.258 226.63 109.093C218.472 110.928 221.718 119.695 221.718 119.695C221.718 119.695 249.37 133.977 266.327 117.191L269.296 108.762C269.296 108.762 256.442 100.534 261.239 87.8725L233.972 80.4535Z" fill="#BFDBD1"/>
<path d="M197.239 247.747C197.239 247.747 160.986 325.513 177.395 347.999C193.804 370.486 219.149 417.255 222.58 417.062C226.012 416.869 244.689 406.182 242.969 400.083C241.25 393.983 218.079 349.157 212.357 345.348C206.636 341.538 208.764 330.403 209.412 329.678C210.06 328.954 230.665 291.308 230.665 291.308C230.665 291.308 233.216 348.996 236.462 357.763C239.708 366.531 239.861 430.549 243.446 433.102C247.032 435.654 263.086 439.572 265.6 435.3C268.114 431.028 272.843 368.113 266.544 354.009L271.289 254.604L197.239 247.747Z" fill="#006F46"/>
<path d="M252.055 95.9612C264.942 95.2376 274.802 84.204 274.078 71.3169C273.355 58.4299 262.321 48.5694 249.434 49.293C236.547 50.0166 226.687 61.0502 227.41 73.9373C228.134 86.8244 239.168 96.6848 252.055 95.9612Z" fill="#BFDBD1"/>
<path d="M265.957 104.475L259.156 112.086C259.156 112.086 237.657 121.554 226.9 113.897C226.9 113.897 230.231 105.792 230.27 106.479C230.308 107.165 200.705 113.302 198.653 125.81C196.602 138.317 202.601 159.323 202.601 159.323C202.601 159.323 188.471 250.993 196.136 252.628C203.801 254.263 275.453 267.451 274.034 254.45C272.616 241.449 275.787 187.571 275.787 187.571L297.225 140.24C297.225 140.24 292.946 125.334 284.441 120.993C275.935 116.651 265.957 104.475 265.957 104.475Z" fill="#409374"/>
<path d="M242.951 240.361L234.337 246.352C234.337 246.352 201.332 271.613 219.407 274.729C237.482 277.845 246.621 256.678 246.621 256.678L253.021 248.057L242.951 240.361Z" fill="#BFDBD1"/>
<path d="M290.702 134.41L297.225 140.24C297.225 140.24 304.58 197.658 296.999 209.788C289.419 221.917 253.445 255.606 251.271 253.663C249.096 251.719 235.478 242.157 238.147 240.63C240.815 239.104 275.173 198.917 275.173 198.917L269.318 145.938L290.702 134.41Z" fill="#409374"/>
<path d="M239.233 40.0244C239.233 40.0244 231.139 37.5855 220.667 44.322L226.516 45.4402C226.516 45.4402 217.904 46.6472 217.47 58.2452L221.436 58.0225C221.436 58.0225 219.479 68.2593 222.165 71.0019L223.615 67.8462L228.828 76.9571L229.647 72.2094L231.851 72.809L232.868 65.1567C232.868 65.1567 236.777 70.3623 239.681 70.5609L239.418 65.8739C239.418 65.8739 247.856 74.442 250.36 73.9398L246.471 69.0946L251.579 69.8928L249.213 66.4089L262.395 69.2855L259.309 65.8421L268.484 68.2203L272.912 69.7801C272.912 69.7801 278.251 55.3748 269.052 46.1261C259.852 36.8774 247.112 35.4227 239.233 40.0244Z" fill="#006F46"/>
<path d="M368.338 289.317C368.338 289.317 369.429 250.096 359.262 259.204C349.095 268.313 355.049 285.387 355.049 285.387L360.429 295.207L368.057 291.062L368.338 289.317Z" fill="#BFDBD1"/>
<path d="M386.833 304.303C386.833 304.303 372.819 282.581 368.85 285.481C364.881 288.382 354.363 288.459 354.959 295.634C355.556 302.809 387.79 331.002 387.79 331.002L386.833 304.303Z" fill="#409374"/>
<path d="M484.933 318.382L482.731 332.069C482.731 332.069 479.511 363.144 469.369 359.757C459.228 356.369 468.566 331.545 468.566 331.545L472.78 316.427L484.933 318.382Z" fill="#BFDBD1"/>
<path d="M463.973 416.512C463.973 416.512 475.532 443.108 480.401 445.659C485.27 448.209 510.223 468.127 511.159 484.18L530.186 519.046L515.684 532.614C515.684 532.614 470.213 465.222 455.605 457.57C440.998 449.919 429.716 421.6 429.716 421.6L463.973 416.512Z" fill="#BFDBD1"/>
<path d="M348.333 358.138C348.333 358.138 314.89 358.04 316.724 379.473C318.557 400.905 361.428 451.841 361.428 451.841L361.487 462.42L379.816 468.892L389.78 461.688L388.892 456.261C388.892 456.261 371.334 434.059 370.722 426.915C370.111 419.771 355.651 389.26 347.344 386.162L360.465 381.228L348.333 358.138Z" fill="#BFDBD1"/>
<path d="M525.008 518.012C525.008 518.012 519.83 506.603 529.808 509.971C539.787 513.34 546.347 516.158 545.241 523.03C544.135 529.903 527.848 576.634 518.145 571.548C508.443 566.461 519.478 552.374 519.478 552.374C519.478 552.374 516.562 537.804 513.42 535.535C510.278 533.267 511.661 524.677 515.079 525.227C518.498 525.777 526.164 521.723 525.008 518.012Z" fill="#409374"/>
<path d="M385.583 457.006C385.583 457.006 386.97 448.39 392.431 458.108C397.893 467.826 400.208 475.27 392.528 479.337C384.848 483.405 358.938 491.61 358.938 491.61C358.938 491.61 332.426 492.646 337.791 481.135C337.791 481.135 356.298 475.275 357.407 468.382C358.516 461.489 360.457 449.427 365.039 453.7C369.62 457.973 384.751 462.176 385.583 457.006Z" fill="#409374"/>
<path d="M438.5 333.931C438.5 333.931 461.907 341.191 454.716 374.967C454.716 374.967 480.585 410.57 470.385 419.409C460.185 428.247 438.349 443.947 432.327 437.737C426.304 431.528 412.073 389.065 412.073 389.065C412.073 389.065 361.421 398.38 354.236 388.49C347.05 378.601 341.782 356.793 341.782 356.793L388.122 341.544L438.5 333.931Z" fill="#006F46"/>
<path d="M387.029 225.192C375.762 223.379 368.099 212.776 369.912 201.509C371.725 190.242 382.328 182.579 393.595 184.392C404.861 186.205 412.525 196.808 410.712 208.075C408.899 219.341 398.295 227.005 387.029 225.192Z" fill="#BFDBD1"/>
<path d="M405.987 209.407C405.987 209.407 414.921 229.863 418.055 232.096C421.188 234.329 391.238 246.798 391.238 246.798C391.238 246.798 394.763 224.89 387.065 218.464L405.987 209.407Z" fill="#BFDBD1"/>
<path d="M404.748 227.628C404.748 227.628 433.295 223.396 436.172 237.981C439.05 252.566 446.78 280.288 442.313 297.221C437.846 314.154 435.005 310.167 439.267 316.148C443.529 322.13 447.478 319.235 444.673 325.844C441.868 332.454 440.17 332.18 441.314 335.895C442.458 339.609 418.45 348.102 399.5 346.818L380.549 345.533C380.549 345.533 385.533 314.562 383.245 307.133C380.958 299.704 376.382 284.846 377.213 279.684L379.411 266.026C380.874 256.935 384.652 248.378 390.372 241.202C390.372 241.202 403.05 227.355 404.748 227.628Z" fill="#409374"/>
<path d="M423.384 238.367C423.384 238.367 486.231 253.774 490.347 272.08C494.464 290.386 492.37 325.336 485.486 324.228C478.602 323.12 469.444 325.175 468.276 321.458C467.109 317.742 465.76 282.238 464.039 281.961C462.318 281.684 411.518 268.216 411.518 268.216C411.518 268.216 393.573 237.098 423.384 238.367Z" fill="#409374"/>
<path d="M390.541 199.385C390.541 199.385 386.544 189.086 378.339 196.153C370.134 203.22 361.344 186.392 363.58 183.463C365.816 180.534 371.353 184.861 382.304 183.192C393.255 181.523 414.41 177.936 414.192 200.706C413.974 223.476 406.348 219.858 406.348 219.858C406.348 219.858 405.851 199.57 401.626 204.695L397.401 209.819L394.414 210.052L390.541 199.385Z" fill="#006F46"/>
</svg>
