<svg width="817" height="673" viewBox="0 0 817 673" fill="none" xmlns="http://www.w3.org/2000/svg">
<path d="M767.052 129.118C744.76 119.969 718.012 125.539 695.006 117.896C692.004 116.874 689.086 115.667 686.276 114.285C674.111 108.42 663.448 99.9652 650.893 94.6099C627.359 84.5552 601.97 86.5558 576.724 92.8573C557.656 97.6398 538.71 104.906 520.806 111.332C475.203 127.683 424.447 138.721 375.372 129.109C342.651 122.695 312.9 107.543 280.923 98.5541C248.946 89.565 210.931 87.8246 185.833 105.951C158.891 125.404 155.517 160.997 131.311 182.908C105.33 206.421 61.1557 209.24 33.5329 231.371C-1.56351 259.489 1.28662 307.866 -17.8907 345.798C-27.0968 364.013 -41.4969 379.847 -51.7346 397.629C-63.111 417.436 -69.1382 439.298 -69.3824 461.642C-69.4447 469.26 -68.6672 477.414 -63.4703 483.769C-58.9734 489.249 -51.8145 492.635 -44.7612 495.489C-18.5716 506.062 12.5069 513.879 26.7399 535.548C39.8703 555.537 37.9246 585.808 62.6295 594.458C77.5003 599.667 93.7655 593.086 107.084 586.036C134.554 571.496 160.311 554.123 190.53 544.177C212.166 537.073 237.21 534.404 259.587 539.559C268.57 541.569 277.088 544.99 284.702 549.646C296.661 557.045 308.074 568.19 322.524 567.244C328.789 566.835 334.42 564.073 339.44 560.951C358.365 549.174 371.336 531.761 388.494 518.162C394.356 513.488 400.913 509.493 408.008 506.273C422.107 499.934 438.098 497.33 452.847 502.557C461.489 505.624 469.313 511.242 478.562 511.682C494.222 512.457 506.896 504.149 517.169 492.782C529.887 478.714 538.961 459.916 545.583 447.624L546.251 446.4C554.885 430.685 569.139 418.163 585.182 406.955C602.454 394.824 621.738 384.259 638.267 372.777C639.821 371.7 641.348 370.614 642.848 369.519C654.571 360.952 665.445 351.575 675.368 341.476C689.375 327.24 701.445 311.665 711.358 295.038C716.388 286.607 720.839 277.92 724.691 269.02C725.82 266.404 726.909 263.771 727.958 261.122C734.11 245.747 739.446 230.032 748.986 216.106C749.689 215.115 750.397 214.118 751.1 213.127C763.114 196.859 780.029 182.715 785.099 163.874C787.39 155.297 786.817 145.585 780.648 138.317C777.209 134.271 772.296 131.275 767.052 129.118Z" fill="#B2CDC4"/>
<path d="M263.732 380.652C263.732 380.652 282.836 288.854 247.395 225.79C232.356 199.428 226.133 168.669 229.66 138.134C231.441 123.655 234.511 109.357 238.831 95.4194" stroke="#7FB7A2" stroke-width="1.3165" stroke-miterlimit="10"/>
<path d="M216.731 55.542C217.548 66.5054 239.29 96.5337 239.29 96.5337C239.29 96.5337 256.327 62.9763 255.511 52.0129C255.053 46.8018 252.61 42.0106 248.709 38.6754C244.809 35.3402 239.764 33.7292 234.666 34.1908C229.569 34.6524 224.828 37.1495 221.47 41.142C218.112 45.1346 216.406 50.3016 216.722 55.5255L216.731 55.542Z" fill="#7FB7A2"/>
<path d="M189.176 119.182C195.683 127.825 230.016 140.749 230.016 140.749C230.016 140.749 226.632 103.323 220.132 94.6532C218.609 92.5273 216.682 90.7397 214.466 89.3955C212.25 88.0513 209.789 87.1774 207.227 86.8251C204.665 86.4728 202.054 86.6491 199.546 87.3438C197.038 88.0384 194.685 89.2375 192.624 90.8705C190.563 92.5035 188.836 94.5377 187.544 96.8538C186.252 99.1698 185.421 101.721 185.1 104.358C184.779 106.995 184.974 109.664 185.674 112.21C186.374 114.755 187.565 117.126 189.176 119.182Z" fill="#7FB7A2"/>
<path d="M198.271 222.839C208.199 226.902 244.41 220.192 244.41 220.192C244.41 220.192 223.028 189.87 213.114 185.754C208.373 183.941 203.104 184.11 198.435 186.225C193.766 188.34 190.067 192.233 188.129 197.072C186.192 201.91 186.17 207.31 188.067 212.115C189.965 216.921 193.632 220.751 198.284 222.786L198.271 222.839Z" fill="#7FB7A2"/>
<path d="M222.412 299.449C231.506 305.189 268.227 304.819 268.227 304.819C268.227 304.819 252.2 271.177 243.109 265.424C240.946 263.998 238.522 263.032 235.979 262.582C233.435 262.133 230.823 262.208 228.296 262.805C225.769 263.402 223.377 264.508 221.26 266.059C219.143 267.609 217.344 269.573 215.967 271.834C214.591 274.096 213.666 276.611 213.245 279.231C212.824 281.852 212.917 284.525 213.517 287.096C214.117 289.666 215.214 292.081 216.741 294.2C218.269 296.319 220.198 298.099 222.415 299.436L222.412 299.449Z" fill="#7FB7A2"/>
<path d="M270.912 139.146C263.79 147.477 228.587 158.641 228.587 158.641C228.587 158.641 234.656 121.46 241.767 113.113C243.46 111.131 245.512 109.504 247.808 108.327C250.104 107.149 252.598 106.444 255.148 106.251C257.698 106.057 260.253 106.38 262.669 107.201C265.085 108.021 267.313 109.324 269.227 111.033C271.14 112.742 272.702 114.825 273.822 117.163C274.942 119.501 275.6 122.048 275.756 124.658C275.913 127.269 275.565 129.892 274.734 132.378C273.903 134.864 272.604 137.163 270.912 139.146Z" fill="#7FB7A2"/>
<path d="M298.011 229.161C288.809 234.966 252.095 234.857 252.095 234.857C252.095 234.857 268.714 201.099 277.916 195.294C282.329 192.607 287.574 191.792 292.52 193.024C297.465 194.257 301.716 197.44 304.353 201.884C306.99 206.329 307.804 211.68 306.617 216.783C305.431 221.886 302.34 226.332 298.011 229.161Z" fill="#7FB7A2"/>
<path d="M312.604 320.477C304.482 327.774 268.19 334.026 268.19 334.026C268.19 334.026 279.039 297.935 287.182 290.601C289.111 288.837 291.358 287.478 293.791 286.602C296.225 285.725 298.798 285.35 301.361 285.497C303.925 285.643 306.428 286.309 308.726 287.456C311.025 288.603 313.073 290.209 314.753 292.179C316.433 294.15 317.71 296.447 318.513 298.938C319.315 301.428 319.625 304.064 319.426 306.691C319.228 309.318 318.523 311.886 317.354 314.245C316.184 316.605 314.573 318.709 312.613 320.437L312.604 320.477Z" fill="#7FB7A2"/>
<path d="M129.363 520.329C129.363 520.329 134.441 426.702 89.9161 369.687C71.0827 345.887 60.3035 316.414 59.1975 285.695C58.78 271.114 59.6641 256.517 61.8387 242.088" stroke="#7FB7A2" stroke-width="1.3165" stroke-miterlimit="10"/>
<path d="M33.9915 205.989C36.4481 216.704 62.4595 243.12 62.4595 243.12C62.4595 243.12 74.2552 207.382 71.7986 196.666C70.5626 191.583 67.4264 187.214 63.0683 184.504C58.7102 181.793 53.4806 180.959 48.5105 182.182C43.5405 183.406 39.2296 186.587 36.5102 191.04C33.7909 195.492 32.8817 200.857 33.9793 205.974L33.9915 205.989Z" fill="#7FB7A2"/>
<path d="M16.3232 273.049C24.0561 280.615 59.9422 288.227 59.9422 288.227C59.9422 288.227 50.9673 251.736 43.2368 244.143C41.4109 242.271 39.2377 240.793 36.8447 239.798C34.4517 238.802 31.8872 238.308 29.3012 238.345C26.7153 238.383 24.16 238.95 21.7855 240.014C19.4109 241.078 17.265 242.617 15.4731 244.541C13.6813 246.466 12.2797 248.737 11.3508 251.221C10.4218 253.705 9.98413 256.352 10.0633 259.007C10.1425 261.663 10.7371 264.272 11.812 266.684C12.8869 269.095 14.4206 271.259 16.3232 273.049Z" fill="#7FB7A2"/>
<path d="M40.9078 374.159C51.3336 376.682 86.1234 364.601 86.1234 364.601C86.1234 364.601 60.4236 337.841 50.0025 335.263C45.0427 334.184 39.8596 335.144 35.5618 337.937C31.264 340.731 28.1928 345.136 27.0051 350.211C25.8175 355.285 26.6077 360.627 29.2067 365.092C31.8058 369.557 36.0073 372.792 40.9126 374.104L40.9078 374.159Z" fill="#7FB7A2"/>
<path d="M76.2977 446.266C86.1522 450.572 122.399 444.683 122.399 444.683C122.399 444.683 101.494 413.834 91.6412 409.514C89.2886 408.43 86.7468 407.839 84.1646 407.778C81.5825 407.716 79.0117 408.183 76.6029 409.154C74.194 410.124 71.9956 411.577 70.136 413.428C68.2764 415.28 66.7931 417.491 65.7728 419.935C64.7525 422.378 64.2158 425.003 64.194 427.657C64.1723 430.311 64.6659 432.94 65.646 435.391C66.6262 437.841 68.0732 440.064 69.9023 441.929C71.7315 443.794 73.9061 445.264 76.2989 446.252L76.2977 446.266Z" fill="#7FB7A2"/>
<path d="M100.132 280.491C94.3445 289.798 61.2214 306.131 61.2214 306.131C61.2214 306.131 61.628 268.461 67.4029 259.139C68.7778 256.924 70.5624 255.008 72.655 253.498C74.7476 251.989 77.1071 250.916 79.5988 250.341C82.0906 249.767 84.6658 249.702 87.1774 250.149C89.6889 250.597 92.0877 251.549 94.2367 252.951C96.3857 254.353 98.2427 256.178 99.702 258.321C101.161 260.463 102.194 262.882 102.742 265.44C103.289 267.997 103.34 270.642 102.892 273.225C102.445 275.808 101.506 278.277 100.132 280.491Z" fill="#7FB7A2"/>
<path d="M140.464 365.405C132.239 372.528 95.9265 377.943 95.9265 377.943C95.9265 377.943 107.278 342.07 115.503 334.946C119.461 331.626 124.524 330.031 129.599 330.506C134.674 330.981 139.354 333.488 142.63 337.485C145.906 341.482 147.515 346.65 147.11 351.873C146.704 357.097 144.317 361.957 140.464 365.405Z" fill="#7FB7A2"/>
<path d="M168.626 453.487C161.695 461.922 126.756 473.562 126.756 473.562C126.756 473.562 132.052 436.25 139 427.775C140.642 425.741 142.658 424.059 144.932 422.827C147.206 421.595 149.693 420.836 152.25 420.596C154.806 420.355 157.381 420.637 159.826 421.425C162.271 422.214 164.538 423.492 166.495 425.188C168.452 426.883 170.06 428.962 171.228 431.304C172.396 433.646 173.099 436.204 173.298 438.832C173.496 441.459 173.186 444.103 172.385 446.612C171.584 449.12 170.308 451.443 168.63 453.446L168.626 453.487Z" fill="#7FB7A2"/>
<path d="M396.519 527.82C398.73 535.5 403.523 542.167 410.042 546.632C416.562 551.097 424.385 553.072 432.118 552.203C439.851 551.334 446.991 547.679 452.267 541.889C457.543 536.099 460.611 528.549 460.925 520.585C461.24 512.622 458.78 504.761 453.984 498.404C449.187 492.047 442.367 487.607 434.737 485.874C427.107 484.141 419.163 485.229 412.32 488.942C405.478 492.656 400.181 498.755 397.374 506.152C394.759 513.045 394.458 520.664 396.519 527.82Z" fill="#BFDBD1"/>
<path d="M405.801 507.899L409.418 520.471" stroke="#7FB7A2" stroke-width="0.658252" stroke-miterlimit="10"/>
<path d="M432.479 512.631L422.2 524.973" stroke="#7FB7A2" stroke-width="0.658252" stroke-miterlimit="10"/>
<path d="M414.158 497.025L430.957 499.154" stroke="#7FB7A2" stroke-width="0.658252" stroke-miterlimit="10"/>
<path d="M445.354 511.347L450.17 531.14" stroke="#7FB7A2" stroke-width="0.658252" stroke-miterlimit="10"/>
<path d="M442.616 539.674L423.269 535.857" stroke="#7FB7A2" stroke-width="0.658252" stroke-miterlimit="10"/>
<path d="M414.969 539.763L418.112 550.687" stroke="#7FB7A2" stroke-width="0.658252" stroke-miterlimit="10"/>
<path d="M406.299 533.174L397.986 531.94" stroke="#7FB7A2" stroke-width="0.658252" stroke-miterlimit="10"/>
<path d="M439.878 495.371L436.687 486.395" stroke="#7FB7A2" stroke-width="0.658252" stroke-miterlimit="10"/>
<path d="M447.828 504.588L457.717 504.639" stroke="#7FB7A2" stroke-width="0.658252" stroke-miterlimit="10"/>
<path d="M428.852 498.833L439.519 493.732L449.905 503.982L446.69 515.352L432.741 512.35L428.852 498.833Z" fill="#7FB7A2" stroke="#7FB7A2" stroke-width="0.658252"/>
<path d="M407.771 504.286C406.807 505.401 405.996 506.523 405.566 507.529L397.821 505.91C400.642 498.743 405.837 492.849 412.505 489.248L415.769 496.943C415.716 496.984 415.653 497.033 415.582 497.09C415.333 497.285 414.978 497.568 414.546 497.92C413.684 498.624 412.518 499.606 411.304 500.715C410.092 501.824 408.828 503.064 407.771 504.286Z" fill="#7FB7A2" stroke="#7FB7A2" stroke-width="0.658252"/>
<path d="M409.371 520.921L423.432 523.315L427.398 537.098L415.913 542.442L405.435 532.83L409.371 520.921Z" fill="#7FB7A2" stroke="#7FB7A2" stroke-width="0.658252"/>
<path d="M458.919 529.808C457.591 533.827 455.519 537.538 452.813 540.738C450.109 543.937 446.824 546.565 443.137 548.481L440.315 538.675L449.492 528.683L458.919 529.808Z" fill="#7FB7A2" stroke="#7FB7A2" stroke-width="0.658252"/>
</svg>
