<svg width="1440" height="1189" viewBox="0 0 1440 1189" fill="none" xmlns="http://www.w3.org/2000/svg">
<g opacity="0.5">
<path d="M-203.146 108.809C-197.454 158.516 -157.538 197.876 -148.068 246.97C-146.881 253.406 -146.155 259.923 -145.895 266.469C-144.534 294.664 -149.965 323.441 -147.165 351.683C-141.948 404.646 -110.63 446.034 -70.867 481.903C-40.7884 508.966 -5.8752 532.774 26.2382 555.811C107.998 614.513 184.679 688.625 218.261 785.146C240.644 849.509 242.358 919.454 258.789 985.688C275.221 1051.92 312.643 1119.7 375.891 1140.82C443.774 1163.49 518.573 1125.69 588.43 1140.63C663.397 1156.67 716.562 1229.49 790.535 1250.06C884.519 1276.19 978.182 1211.97 1074.66 1198.59C1120.99 1192.16 1168.14 1197.62 1214.71 1193.5C1266.55 1188.86 1316.75 1172.47 1361.69 1145.5C1376.99 1136.27 1392.46 1124.93 1399.57 1108.17C1405.69 1093.69 1404.76 1077.18 1402.88 1061.5C1395.84 1003.32 1378.03 940.07 1406.05 888.932C1431.89 841.756 1494.51 808.01 1485.22 754.749C1479.64 722.686 1448.98 702.668 1420.55 688.311C1361.92 658.7 1299.47 635.521 1247.07 595.533C1209.59 566.881 1177.3 526.908 1163.53 481.95C1157.89 463.975 1155.56 445.074 1156.68 426.22C1158.61 396.5 1168.61 363.131 1151.17 339.339C1143.61 329.023 1132.03 322.686 1120.39 317.843C1076.48 299.602 1027.71 298.548 982.053 285.591C966.401 281.199 951.357 274.773 937.287 266.469C909.442 249.895 887.028 225.474 881.612 193.599C878.445 174.918 881.26 154.522 872.188 138.011C856.888 110.02 826.641 98.3206 792.86 94.5151C751.047 89.7975 703.696 97.1726 671.995 100.805L668.828 101.151C628.117 105.507 587.741 96.2448 548.07 82.281C505.232 67.3264 463.357 46.9781 422.615 32.511C418.79 31.1482 414.976 29.843 411.171 28.5955C381.43 18.8543 350.979 11.5714 320.109 6.81619C276.574 0.0808033 232.445 -1.67015 188.534 1.59545C166.264 3.2447 144.105 6.20589 122.165 10.4644C115.719 11.7224 109.283 13.0695 102.858 14.5058C65.4965 22.73 28.3343 32.7783 -9.77655 33.3759C-12.5151 33.3759 -15.269 33.3759 -18.0076 33.3759C-63.4621 32.5739 -109.942 20.7015 -153.071 35.0427C-172.685 41.6001 -191.487 54.4947 -199.382 74.0567C-203.773 84.9542 -204.477 97.1097 -203.146 108.809Z" fill="#CCCDCD"/>
<path d="M-145.895 266.469H-106.622C-106.036 256.032 -102.486 246.001 -96.411 237.616C-90.3362 229.232 -82.0032 222.861 -72.4428 219.294C-79.5796 215.255 -85.207 208.892 -88.4391 201.205C-91.6711 193.519 -92.3244 184.946 -90.2959 176.836C-88.2674 168.726 -83.6724 161.54 -77.2343 156.409C-70.7962 151.277 -62.8807 148.493 -54.7337 148.493C-46.5868 148.493 -38.6712 151.277 -32.2331 156.409C-25.795 161.54 -21.2001 168.726 -19.1716 176.836C-17.1431 184.946 -17.7963 193.519 -21.0284 201.205C-24.2605 208.892 -29.8879 215.255 -37.0247 219.294C-27.4643 222.861 -19.1312 229.232 -13.0565 237.616C-6.98172 246.001 -3.43178 256.032 -2.84583 266.469H-2.50925C-1.64529 256.32 2.02206 246.635 8.06104 238.556C14.1 230.477 22.2592 224.339 31.5778 220.866C26.154 217.797 21.5732 213.369 18.2614 207.992C14.9496 202.615 13.0144 196.465 12.6356 190.113C12.2568 183.762 13.4468 177.415 16.0949 171.663C18.743 165.91 22.7632 160.94 27.7818 157.213C32.8003 153.486 38.6542 151.124 44.7991 150.347C50.9441 149.569 57.1806 150.402 62.9287 152.766C68.6767 155.131 73.7498 158.951 77.6761 163.871C81.6024 168.791 84.2545 174.652 85.3858 180.909C89.8852 177.135 94.9689 174.163 100.425 172.118C93.2883 168.08 87.6609 161.716 84.4288 154.03C81.1967 146.344 80.5435 137.771 82.572 129.661C84.6005 121.551 89.1954 114.365 95.6336 109.233C102.072 104.102 109.987 101.317 118.134 101.317C126.281 101.317 134.197 104.102 140.635 109.233C147.073 114.365 151.668 121.551 153.696 129.661C155.725 137.771 155.072 146.344 151.839 154.03C148.607 161.716 142.98 168.08 135.843 172.118C145.901 175.863 154.591 182.704 160.729 191.708C166.867 200.713 170.155 211.444 170.144 222.439V266.469H186.974V231.874C186.963 220.879 190.251 210.148 196.389 201.144C202.528 192.139 211.217 185.298 221.275 181.553C214.138 177.515 208.511 171.152 205.279 163.465C202.047 155.779 201.393 147.206 203.422 139.096C205.45 130.986 210.045 123.8 216.483 118.668C222.922 113.537 230.837 110.752 238.984 110.752C247.131 110.752 255.047 113.537 261.485 118.668C267.923 123.8 272.518 130.986 274.546 139.096C276.575 147.206 275.922 155.779 272.689 163.465C269.457 171.152 263.83 177.515 256.693 181.553C263.344 184.043 269.432 187.898 274.587 192.883C279.742 197.868 283.857 203.879 286.68 210.551C292.834 201.559 301.53 194.73 311.587 190.988C304.451 186.95 298.823 180.587 295.591 172.9C292.359 165.214 291.706 156.641 293.734 148.531C295.763 140.421 300.358 133.235 306.796 128.103C313.234 122.972 321.15 120.187 329.296 120.187C337.443 120.187 345.359 122.972 351.797 128.103C358.235 133.235 362.83 140.421 364.859 148.531C366.887 156.641 366.234 165.214 363.002 172.9C359.77 180.587 354.142 186.95 347.005 190.988C358.095 195.136 367.49 203.024 373.657 213.365V206.714C373.647 195.719 376.935 184.988 383.073 175.983C389.211 166.979 397.901 160.138 407.958 156.393C400.821 152.355 395.194 145.991 391.962 138.305C388.73 130.618 388.077 122.045 390.105 113.936C392.134 105.826 396.729 98.6394 403.167 93.5082C409.605 88.377 417.52 85.5922 425.667 85.5922C433.814 85.5922 441.73 88.377 448.168 93.5082C454.606 98.6394 459.201 105.826 461.229 113.936C463.258 122.045 462.605 130.618 459.373 138.305C456.141 145.991 450.513 152.355 443.376 156.393C453.434 160.138 462.124 166.979 468.262 175.983C474.4 184.988 477.688 195.719 477.678 206.714V266.469H496.037C498.897 259.957 502.995 254.099 508.089 249.238C513.184 244.377 519.172 240.612 525.702 238.164C518.566 234.125 512.938 227.762 509.706 220.075C506.474 212.389 505.821 203.816 507.849 195.706C509.878 187.596 514.473 180.41 520.911 175.279C527.349 170.148 535.265 167.363 543.412 167.363C551.558 167.363 559.474 170.148 565.912 175.279C572.35 180.41 576.945 187.596 578.974 195.706C581.002 203.816 580.349 212.389 577.117 220.075C573.885 227.762 568.257 234.125 561.121 238.164C564.748 239.518 568.217 241.285 571.463 243.432C572.755 233.769 576.595 224.654 582.565 217.073C588.536 209.493 596.41 203.735 605.336 200.424C598.199 196.385 592.572 190.022 589.34 182.335C586.107 174.649 585.454 166.076 587.483 157.966C589.511 149.856 594.106 142.67 600.544 137.538C606.982 132.407 614.898 129.622 623.045 129.622C631.192 129.622 639.107 132.407 645.545 137.538C651.984 142.67 656.578 149.856 658.607 157.966C660.635 166.076 659.982 174.649 656.75 182.335C653.518 190.022 647.891 196.385 640.754 200.424C648.418 203.301 655.317 207.987 660.898 214.105C666.478 220.223 670.583 227.602 672.883 235.648C678.624 228.989 685.892 223.908 694.026 220.866C686.89 216.828 681.262 210.464 678.03 202.778C674.798 195.091 674.145 186.518 676.173 178.408C678.202 170.299 682.797 163.112 689.235 157.981C695.673 152.85 703.588 150.065 711.735 150.065C719.882 150.065 727.798 152.85 734.236 157.981C740.674 163.112 745.269 170.299 747.298 178.408C749.326 186.518 748.673 195.091 745.441 202.778C742.209 210.464 736.581 216.828 729.444 220.866C735.057 222.971 740.275 226.057 744.866 229.987C747.662 223.18 751.795 217.04 757.008 211.953C762.221 206.866 768.401 202.94 775.159 200.424C768.022 196.385 762.395 190.022 759.163 182.335C755.931 174.649 755.277 166.076 757.306 157.966C759.334 149.856 763.929 142.67 770.368 137.538C776.806 132.407 784.721 129.622 792.868 129.622C801.015 129.622 808.931 132.407 815.369 137.538C821.807 142.67 826.402 149.856 828.43 157.966C830.459 166.076 829.805 174.649 826.573 182.335C823.341 190.022 817.714 196.385 810.577 200.424C820.635 204.168 829.325 211.009 835.463 220.014C841.601 229.018 844.889 239.749 844.878 250.744V266.469H937.287C951.353 274.766 966.391 281.187 982.037 285.575C1027.69 298.532 1076.47 299.586 1120.37 317.827C1132.02 322.671 1143.6 329.008 1151.16 339.323C1168.6 363.115 1158.59 396.484 1156.66 426.205C1155.54 445.044 1157.85 463.935 1163.47 481.903H-70.8669C-110.645 446.113 -141.948 404.645 -147.165 351.683C-149.888 323.457 -144.534 294.68 -145.895 266.469Z" fill="#AAA9A9"/>
<path d="M1316.86 121.043V731.162L1286.27 710.719V121.043H1267.91L1260.26 690.276L1231.19 668.261L1251.08 113.181" stroke="#F1F1F2" stroke-width="1.25" stroke-miterlimit="10"/>
<path d="M1355.13 165.074L1231.2 172.15" stroke="#F1F1F2" stroke-width="1.25" stroke-miterlimit="10"/>
<path d="M1347.48 196.524L1231.2 201.241" stroke="#F1F1F2" stroke-width="1.25" stroke-miterlimit="10"/>
<path d="M1347.48 234.264L1231.2 237.409" stroke="#F1F1F2" stroke-width="1.25" stroke-miterlimit="10"/>
<path d="M1347.48 268.859L1231.2 273.577" stroke="#F1F1F2" stroke-width="1.25" stroke-miterlimit="10"/>
<path d="M1347.48 308.172H1226.61" stroke="#F1F1F2" stroke-width="1.25" stroke-miterlimit="10"/>
<path d="M1347.48 347.485L1223.55 342.767" stroke="#F1F1F2" stroke-width="1.25" stroke-miterlimit="10"/>
<path d="M1347.48 383.653L1223.55 377.363" stroke="#F1F1F2" stroke-width="1.25" stroke-miterlimit="10"/>
<path d="M1347.48 422.965L1223.55 413.53" stroke="#F1F1F2" stroke-width="1.25" stroke-miterlimit="10"/>
<path d="M1350.54 457.561L1218.96 444.981" stroke="#F1F1F2" stroke-width="1.25" stroke-miterlimit="10"/>
<path d="M1350.54 496.873L1218.96 476.431" stroke="#F1F1F2" stroke-width="1.25" stroke-miterlimit="10"/>
<path d="M1350.54 542.476L1214.37 517.316" stroke="#F1F1F2" stroke-width="1.25" stroke-miterlimit="10"/>
<path d="M1350.54 594.369L1214.37 553.484" stroke="#F1F1F2" stroke-width="1.25" stroke-miterlimit="10"/>
<path d="M1353.6 647.834L1209.78 589.651" stroke="#F1F1F2" stroke-width="1.25" stroke-miterlimit="10"/>
<path d="M1353.6 696.582L1209.78 624.246" stroke="#F1F1F2" stroke-width="1.25" stroke-miterlimit="10"/>
<path d="M1197.53 119.471L1173.05 655.681H1140.92L1160.81 119.471H1125.62L1102.67 655.681H1067.48L1087.37 119.471H1044.54L1029.24 655.681H990.988L1007.82 124.188H968.039L958.859 655.681H923.67L934.38 119.471H899.191L891.542 655.681H857.883L865.533 119.471H825.754V655.681H785.976V119.471H749.257L755.377 655.681H723.248L714.069 119.471H677.35L689.59 655.681H657.461L642.161 119.471H610.033L622.272 655.681H593.203L570.254 119.471H539.655L564.135 655.681H533.536L499.877 119.471H463.158L505.997 655.681H476.928L435.62 119.471H406.551L449.389 655.681H417.26L375.952 113.181H346.883L394.311 655.681H363.712L314.754 113.181" stroke="#F1F1F2" stroke-width="1.25" stroke-miterlimit="10"/>
<path d="M245.907 121.043L291.805 665.116L268.856 683.986L233.667 121.043H209.188L233.667 704.429L198.479 728.016L184.725 113.181" stroke="#F1F1F2" stroke-width="1.25" stroke-miterlimit="10"/>
<path d="M151.066 182.371H291.82" stroke="#F1F1F2" stroke-width="1.25" stroke-miterlimit="10"/>
<path d="M151.066 221.684H291.82" stroke="#F1F1F2" stroke-width="1.25" stroke-miterlimit="10"/>
<path d="M151.066 265.714L291.82 260.997" stroke="#F1F1F2" stroke-width="1.25" stroke-miterlimit="10"/>
<path d="M151.066 303.454L297.94 295.592" stroke="#F1F1F2" stroke-width="1.25" stroke-miterlimit="10"/>
<path d="M151.066 345.912L297.94 339.622" stroke="#F1F1F2" stroke-width="1.25" stroke-miterlimit="10"/>
<path d="M151.066 391.515L304.06 383.652" stroke="#F1F1F2" stroke-width="1.25" stroke-miterlimit="10"/>
<path d="M151.066 435.545L304.06 419.82" stroke="#F1F1F2" stroke-width="1.25" stroke-miterlimit="10"/>
<path d="M151.066 485.865L304.06 448.125" stroke="#F1F1F2" stroke-width="1.25" stroke-miterlimit="10"/>
<path d="M151.066 529.896L310.18 474.858" stroke="#F1F1F2" stroke-width="1.25" stroke-miterlimit="10"/>
<path d="M151.066 575.499L310.18 512.598" stroke="#F1F1F2" stroke-width="1.25" stroke-miterlimit="10"/>
<path d="M146.476 619.529L304.871 551.203" stroke="#F1F1F2" stroke-width="1.25" stroke-miterlimit="10"/>
<path d="M146.476 669.849L310.18 584.934" stroke="#F1F1F2" stroke-width="1.25" stroke-miterlimit="10"/>
<path d="M146.476 715.452L314.77 619.529" stroke="#F1F1F2" stroke-width="1.25" stroke-miterlimit="10"/>
<path d="M1231.2 165.074L291.821 172.936" stroke="#F1F1F2" stroke-width="1.25" stroke-miterlimit="10"/>
<path d="M1230.44 193.379L291.056 201.241" stroke="#F1F1F2" stroke-width="1.25" stroke-miterlimit="10"/>
<path d="M1229.67 221.684L290.291 229.547" stroke="#F1F1F2" stroke-width="1.25" stroke-miterlimit="10"/>
<path d="M1228.91 249.989L289.526 257.852" stroke="#F1F1F2" stroke-width="1.25" stroke-miterlimit="10"/>
<path d="M1228.14 278.294L288.761 286.157" stroke="#F1F1F2" stroke-width="1.25" stroke-miterlimit="10"/>
<path d="M1227.38 306.599L300.235 314.462" stroke="#F1F1F2" stroke-width="1.25" stroke-miterlimit="10"/>
<path d="M1226.61 334.905L299.47 342.767" stroke="#F1F1F2" stroke-width="1.25" stroke-miterlimit="10"/>
<path d="M1225.85 363.21L298.705 371.073" stroke="#F1F1F2" stroke-width="1.25" stroke-miterlimit="10"/>
<path d="M1225.08 391.515L297.94 399.378" stroke="#F1F1F2" stroke-width="1.25" stroke-miterlimit="10"/>
<path d="M1224.32 419.82L306.355 427.683" stroke="#F1F1F2" stroke-width="1.25" stroke-miterlimit="10"/>
<path d="M1223.55 448.125L305.59 455.988" stroke="#F1F1F2" stroke-width="1.25" stroke-miterlimit="10"/>
<path d="M1222.79 476.431L304.825 484.293" stroke="#F1F1F2" stroke-width="1.25" stroke-miterlimit="10"/>
<path d="M1222.02 504.736L310.18 512.598" stroke="#F1F1F2" stroke-width="1.25" stroke-miterlimit="10"/>
<path d="M1221.26 533.041L309.415 540.904" stroke="#F1F1F2" stroke-width="1.25" stroke-miterlimit="10"/>
<path d="M1220.49 561.346L313.24 569.209" stroke="#F1F1F2" stroke-width="1.25" stroke-miterlimit="10"/>
<path d="M1219.73 589.651L312.475 597.514" stroke="#F1F1F2" stroke-width="1.25" stroke-miterlimit="10"/>
<path d="M1218.96 617.957L311.71 625.819" stroke="#F1F1F2" stroke-width="1.25" stroke-miterlimit="10"/>
<path d="M1353.58 757.894L1214.36 655.681H310.164L151.066 757.894" stroke="#F1F1F2" stroke-width="3.75" stroke-miterlimit="10"/>
<path d="M1362.23 647.299C1362.23 647.299 1365.76 539.96 1422.25 479.34C1446.11 454.059 1461.34 421.503 1465.67 386.562C1467.6 369.965 1468.04 353.221 1467 336.54" stroke="#B3B3B3" stroke-width="2.5" stroke-miterlimit="10"/>
<path d="M1477.72 489.325C1465.58 491.165 1427.08 473.914 1427.08 473.914C1427.08 473.914 1459.07 445.939 1471.22 444.037C1476.99 443.3 1482.81 444.911 1487.43 448.527C1492.06 452.142 1495.12 457.475 1495.97 463.384C1496.82 469.293 1495.39 475.309 1491.98 480.145C1488.57 484.981 1483.45 488.253 1477.72 489.262V489.325Z" fill="#BBBBBB"/>
<path d="M1430.16 568.077C1418.48 572.008 1377.71 561.677 1377.71 561.677C1377.71 561.677 1404.64 528.56 1416.31 524.613C1419.1 523.61 1422.06 523.189 1425.02 523.376C1427.97 523.562 1430.85 524.352 1433.51 525.699C1436.16 527.047 1438.52 528.924 1440.46 531.221C1442.4 533.519 1443.87 536.19 1444.79 539.08C1445.71 541.969 1446.06 545.018 1445.82 548.049C1445.58 551.079 1444.76 554.03 1443.39 556.729C1442.03 559.427 1440.16 561.82 1437.89 563.765C1435.61 565.711 1432.99 567.172 1430.16 568.061V568.077Z" fill="#BBBBBB"/>
<path d="M1419.48 376.545C1425.15 387.741 1461.32 409.678 1461.32 409.678C1461.32 409.678 1464.61 366.654 1458.95 355.442C1457.6 352.778 1455.76 350.413 1453.52 348.482C1451.28 346.551 1448.7 345.092 1445.91 344.188C1443.12 343.284 1440.19 342.953 1437.28 343.214C1434.37 343.475 1431.54 344.322 1428.95 345.708C1426.36 347.094 1424.06 348.99 1422.18 351.29C1420.3 353.589 1418.88 356.247 1418 359.11C1417.12 361.974 1416.8 364.987 1417.05 367.979C1417.31 370.97 1418.13 373.881 1419.48 376.545Z" fill="#BBBBBB"/>
<path d="M1365 469.417C1373.67 478.365 1414.57 488.162 1414.57 488.162C1414.57 488.162 1405.19 446.097 1396.51 437.149C1392.33 432.966 1386.71 430.642 1380.87 430.678C1375.03 430.715 1369.44 433.109 1365.31 437.343C1361.17 441.578 1358.82 447.315 1358.76 453.315C1358.7 459.315 1360.94 465.099 1365 469.417Z" fill="#BBBBBB"/>
<path d="M1324.09 567.117C1331.15 577.433 1369.86 594.196 1369.86 594.196C1369.86 594.196 1367.54 551.093 1360.45 540.731C1358.78 538.246 1356.65 536.126 1354.18 534.493C1351.7 532.861 1348.94 531.748 1346.05 531.218C1343.16 530.689 1340.19 530.754 1337.32 531.41C1334.45 532.066 1331.74 533.299 1329.34 535.039C1326.94 536.779 1324.89 538.99 1323.33 541.546C1321.76 544.102 1320.7 546.951 1320.22 549.929C1319.73 552.907 1319.82 555.956 1320.48 558.898C1321.15 561.84 1322.37 564.617 1324.09 567.07V567.117Z" fill="#BBBBBB"/>
<path d="M1385.18 743.223C1385.18 743.223 1388.71 635.883 1445.2 575.263C1469.06 549.982 1484.29 517.426 1488.62 482.485C1490.55 465.888 1490.99 449.144 1489.95 432.463" stroke="#B3B3B3" stroke-width="2.5" stroke-miterlimit="10"/>
<path d="M1453.11 664C1441.43 667.931 1400.66 657.599 1400.66 657.599C1400.66 657.599 1427.59 624.482 1439.26 620.535C1442.05 619.532 1445.01 619.112 1447.96 619.298C1450.92 619.485 1453.8 620.275 1456.46 621.622C1459.11 622.969 1461.47 624.847 1463.41 627.144C1465.35 629.442 1466.82 632.113 1467.74 635.003C1468.66 637.892 1469.01 640.941 1468.77 643.972C1468.53 647.002 1467.71 649.953 1466.34 652.652C1464.98 655.35 1463.11 657.742 1460.84 659.688C1458.56 661.634 1455.93 663.094 1453.11 663.984V664Z" fill="#BBBBBB"/>
<path d="M1442.43 472.468C1448.1 483.664 1484.27 505.601 1484.27 505.601C1484.27 505.601 1487.56 462.577 1481.9 451.365C1479.18 445.985 1474.49 441.937 1468.86 440.112C1463.23 438.286 1457.13 438.833 1451.9 441.631C1446.66 444.43 1442.72 449.251 1440.95 455.034C1439.17 460.817 1439.7 467.088 1442.43 472.468Z" fill="#BBBBBB"/>
<path d="M1387.95 565.34C1396.62 574.288 1437.52 584.085 1437.52 584.085C1437.52 584.085 1428.14 542.02 1419.46 533.072C1415.28 528.889 1409.66 526.565 1403.82 526.601C1397.98 526.638 1392.39 529.031 1388.26 533.266C1384.12 537.501 1381.77 543.238 1381.71 549.238C1381.65 555.238 1383.89 561.022 1387.95 565.34Z" fill="#BBBBBB"/>
<path d="M1347.04 663.04C1354.1 673.356 1392.81 690.119 1392.81 690.119C1392.81 690.119 1390.49 647.016 1383.4 636.654C1381.73 634.169 1379.6 632.049 1377.13 630.416C1374.65 628.784 1371.89 627.671 1369 627.142C1366.11 626.612 1363.14 626.678 1360.27 627.333C1357.4 627.989 1354.69 629.222 1352.29 630.962C1349.89 632.702 1347.84 634.913 1346.28 637.469C1344.71 640.025 1343.65 642.874 1343.17 645.852C1342.68 648.831 1342.77 651.879 1343.43 654.821C1344.1 657.763 1345.32 660.54 1347.04 662.993V663.04Z" fill="#BBBBBB"/>
<path d="M128.867 169.524C129.616 139.096 150.118 112.363 179.049 105.837L179.875 105.664C181.043 105.425 182.233 105.309 183.424 105.318H1328.43C1336.89 105.248 1345.22 107.429 1352.61 111.651C1360 115.873 1366.2 121.991 1370.61 129.409L1370.9 129.928C1372.59 132.964 1373.49 136.389 1373.53 139.882L1384.17 757.878H1347.45L1335.21 154.035C1335.21 154.035 1335.21 136.737 1319.91 135.165C1317.57 134.929 1289.17 134.756 1242.79 134.646L1215.89 657.254H1200.59L1230.5 134.63C1026.56 134.221 527.385 134.74 295.707 135.023L325.418 654.109H310.119L283.436 135.039L195.251 135.149C188.784 135.153 182.432 136.897 176.825 140.208C171.218 143.518 166.552 148.28 163.29 154.019L151.051 757.863H114.332L128.867 169.524Z" fill="#E3E3E4"/>
<path d="M114.133 770.616C114.133 770.616 109.176 687.493 148.45 636.418C165.058 615.104 174.49 588.828 175.331 561.535C175.628 548.566 174.767 535.596 172.761 522.788" stroke="#B3B3B3" stroke-width="2.5" stroke-miterlimit="10"/>
<path d="M197.332 490.489C195.205 500.034 172.225 523.747 172.225 523.747C172.225 523.747 161.516 492.109 163.704 482.579C164.206 480.308 165.139 478.16 166.448 476.259C167.758 474.358 169.419 472.741 171.337 471.499C173.255 470.258 175.392 469.417 177.626 469.025C179.86 468.633 182.148 468.697 184.358 469.213C186.568 469.729 188.657 470.688 190.507 472.034C192.357 473.38 193.93 475.088 195.138 477.059C196.345 479.03 197.163 481.227 197.545 483.523C197.927 485.819 197.865 488.17 197.362 490.442L197.332 490.489Z" fill="#BBBBBB"/>
<path d="M213.335 549.898C206.496 556.723 174.673 563.799 174.673 563.799C174.673 563.799 182.46 531.296 189.299 524.487C190.924 522.865 192.843 521.587 194.948 520.728C197.052 519.868 199.301 519.443 201.566 519.476C203.83 519.51 206.066 520.002 208.146 520.923C210.226 521.845 212.108 523.179 213.687 524.848C215.265 526.518 216.508 528.491 217.344 530.654C218.18 532.817 218.594 535.129 218.561 537.456C218.529 539.784 218.05 542.082 217.153 544.219C216.257 546.357 214.959 548.292 213.335 549.914V549.898Z" fill="#BBBBBB"/>
<path d="M191.992 639.94C182.812 642.283 151.8 631.873 151.8 631.873C151.8 631.873 174.459 607.861 183.73 605.518C188.171 604.392 192.866 605.125 196.781 607.557C200.696 609.988 203.511 613.918 204.606 618.483C205.702 623.048 204.988 627.873 202.623 631.897C200.257 635.921 196.433 638.814 191.992 639.94Z" fill="#BBBBBB"/>
<path d="M160.904 704.335C152.168 708.25 119.962 703.36 119.962 703.36C119.962 703.36 138.322 675.746 147.104 671.909C149.188 670.923 151.442 670.375 153.735 670.295C156.028 670.216 158.313 670.608 160.457 671.448C162.601 672.288 164.56 673.56 166.219 675.188C167.879 676.816 169.206 678.768 170.122 680.93C171.038 683.092 171.525 685.42 171.555 687.778C171.585 690.135 171.157 692.476 170.295 694.661C169.434 696.847 168.157 698.834 166.539 700.506C164.921 702.177 162.995 703.501 160.873 704.398L160.904 704.335Z" fill="#BBBBBB"/>
<path d="M138.964 557.383C144.135 565.608 173.632 579.792 173.632 579.792C173.632 579.792 173.097 546.329 167.911 538.104C165.423 534.159 161.513 531.391 157.04 530.409C152.567 529.427 147.897 530.311 144.059 532.868C140.22 535.425 137.527 539.444 136.572 544.041C135.616 548.639 136.477 553.438 138.964 557.383Z" fill="#BBBBBB"/>
<path d="M103.546 633.1C110.875 639.39 143.156 643.824 143.156 643.824C143.156 643.824 132.906 612.06 125.562 605.801C123.818 604.315 121.806 603.197 119.642 602.51C117.478 601.824 115.203 601.582 112.948 601.798C110.692 602.015 108.5 602.687 106.498 603.774C104.495 604.861 102.72 606.344 101.274 608.136C99.8286 609.929 98.7406 611.996 98.0725 614.221C97.4043 616.445 97.169 618.784 97.38 621.102C97.5909 623.42 98.2441 625.672 99.3021 627.731C100.36 629.79 101.802 631.614 103.546 633.1Z" fill="#BBBBBB"/>
<path d="M78.9599 711.615C85.1562 719.053 116.229 729.07 116.229 729.07C116.229 729.07 111.349 696.047 105.137 688.546C102.159 684.976 97.9227 682.769 93.3607 682.409C88.7987 682.049 84.2845 683.567 80.8111 686.628C77.3378 689.689 75.1898 694.043 74.8398 698.732C74.4897 703.421 75.9663 708.061 78.9446 711.631L78.9599 711.615Z" fill="#BBBBBB"/>
<path opacity="0.5" d="M197.332 490.489C195.205 500.034 172.225 523.747 172.225 523.747C172.225 523.747 161.516 492.109 163.704 482.579C164.206 480.308 165.139 478.16 166.448 476.259C167.758 474.358 169.419 472.741 171.337 471.499C173.255 470.258 175.392 469.417 177.626 469.025C179.86 468.633 182.148 468.697 184.358 469.213C186.568 469.729 188.657 470.688 190.507 472.034C192.357 473.38 193.93 475.088 195.138 477.059C196.345 479.03 197.163 481.227 197.545 483.523C197.927 485.819 197.865 488.17 197.362 490.442L197.332 490.489Z" fill="#BBBBBB"/>
<path opacity="0.5" d="M213.335 549.898C206.496 556.723 174.673 563.799 174.673 563.799C174.673 563.799 182.46 531.296 189.299 524.487C190.924 522.865 192.843 521.587 194.948 520.728C197.052 519.868 199.301 519.443 201.566 519.476C203.83 519.51 206.066 520.002 208.146 520.923C210.226 521.845 212.108 523.179 213.687 524.848C215.265 526.518 216.508 528.491 217.344 530.654C218.18 532.817 218.594 535.129 218.561 537.456C218.529 539.784 218.05 542.082 217.153 544.219C216.257 546.357 214.959 548.292 213.335 549.914V549.898Z" fill="#BBBBBB"/>
<path opacity="0.5" d="M191.992 639.94C182.812 642.283 151.8 631.873 151.8 631.873C151.8 631.873 174.459 607.861 183.73 605.518C188.171 604.392 192.866 605.125 196.781 607.557C200.696 609.988 203.511 613.918 204.606 618.483C205.702 623.048 204.988 627.873 202.623 631.897C200.257 635.921 196.433 638.814 191.992 639.94Z" fill="#BBBBBB"/>
<path opacity="0.5" d="M160.904 704.335C152.168 708.25 119.962 703.36 119.962 703.36C119.962 703.36 138.322 675.746 147.104 671.909C149.188 670.923 151.442 670.375 153.735 670.295C156.028 670.216 158.313 670.608 160.457 671.448C162.601 672.288 164.56 673.56 166.219 675.188C167.879 676.816 169.206 678.768 170.122 680.93C171.038 683.092 171.525 685.42 171.555 687.778C171.585 690.135 171.157 692.476 170.295 694.661C169.434 696.847 168.157 698.834 166.539 700.506C164.921 702.177 162.995 703.501 160.873 704.398L160.904 704.335Z" fill="#BBBBBB"/>
<path opacity="0.5" d="M138.964 557.383C144.135 565.608 173.632 579.792 173.632 579.792C173.632 579.792 173.097 546.329 167.911 538.104C165.423 534.159 161.513 531.391 157.04 530.409C152.567 529.427 147.897 530.311 144.059 532.868C140.22 535.425 137.527 539.444 136.572 544.041C135.616 548.639 136.477 553.438 138.964 557.383Z" fill="#BBBBBB"/>
<path opacity="0.5" d="M103.546 633.1C110.875 639.39 143.156 643.824 143.156 643.824C143.156 643.824 132.906 612.06 125.562 605.801C123.818 604.315 121.806 603.197 119.642 602.51C117.478 601.824 115.203 601.582 112.948 601.798C110.692 602.015 108.5 602.687 106.498 603.774C104.495 604.861 102.72 606.344 101.274 608.136C99.8286 609.929 98.7406 611.996 98.0725 614.221C97.4043 616.445 97.169 618.784 97.38 621.102C97.5909 623.42 98.2441 625.672 99.3021 627.731C100.36 629.79 101.802 631.614 103.546 633.1Z" fill="#BBBBBB"/>
<path opacity="0.5" d="M78.9599 711.615C85.1562 719.053 116.229 729.07 116.229 729.07C116.229 729.07 111.349 696.047 105.137 688.546C102.159 684.976 97.9227 682.769 93.3607 682.409C88.7987 682.049 84.2845 683.567 80.8111 686.628C77.3378 689.689 75.1898 694.043 74.8398 698.732C74.4897 703.421 75.9663 708.061 78.9446 711.631L78.9599 711.615Z" fill="#BBBBBB"/>
<g opacity="0.1">
<path opacity="0.1" d="M381.001 451.003C380.817 450.767 380.725 450.61 380.725 450.61L381.001 451.003Z" fill="url(#paint0_linear)"/>
</g>
<path d="M861.218 762.329L880.725 802.428C880.725 802.428 885.927 817.131 880.725 826.487C875.523 835.844 876.824 855.233 876.824 855.233C876.824 855.233 866.42 886.683 857.96 901.354C849.499 916.026 854.701 937.522 854.701 937.522L820.889 941.532C820.889 941.532 833.894 915.46 830.069 896.071C826.244 876.682 841.13 841.284 841.13 829.223C841.13 826.55 844.389 820.527 837.872 811.847C831.354 803.167 806.661 781.104 807.273 768.399L861.218 762.329Z" fill="#F1F1F2"/>
<path d="M688.886 752.972C688.886 752.972 676.401 770.742 674.948 788.039C674.511 793.44 673.484 798.772 671.888 803.937C669.967 809.941 669.797 816.391 671.399 822.493C672.686 827.377 673.536 832.372 673.938 837.416C674.74 847.143 676.979 856.687 680.578 865.721C686.53 880.77 694.348 901.307 694.807 905.443C695.465 912.126 698.708 928.165 698.708 928.165L724.717 938.198C724.717 938.198 716.914 918.809 716.914 900.096C716.914 881.383 722.116 862.67 707.735 831.912C707.735 831.912 707.077 823.892 712.324 811.863C717.572 799.833 737.691 768.414 737.691 768.414L688.886 752.972Z" fill="#F1F1F2"/>
<g opacity="0.1">
<path opacity="0.1" d="M729.827 665.415C729.169 670.133 710.963 706.866 704.461 712.873C698.494 718.393 687.035 756.621 685.199 762.816C684.021 763.052 682.858 763.319 681.695 763.665C681.695 763.665 694.7 718.88 701.202 712.858C707.704 706.835 725.91 670.07 726.568 665.399C726.691 664.471 730.5 664.141 736.482 664.236C732.443 664.314 729.949 664.66 729.827 665.415Z" fill="black"/>
<path opacity="0.1" d="M775.373 746.289C784.553 744.952 802.683 767.675 809.843 783.715C810.256 784.642 810.669 785.492 811.097 786.294C815.136 793.842 819.711 796.043 822.878 796.562C820.782 796.955 813.698 797.285 807.839 786.294C807.41 785.492 806.997 784.642 806.584 783.715C800.021 768.996 784.17 748.679 774.562 746.446L775.373 746.289Z" fill="black"/>
<path opacity="0.1" d="M730.928 775.475L730.821 775.365C728.725 773.792 712.462 762.785 694.638 762.108C713.686 761.432 731.847 773.651 734.08 775.365L734.187 775.475C736.069 777.582 727.777 789.627 725.742 792.458C724.527 792.742 723.295 792.947 722.055 793.071C722.055 793.071 733.07 777.865 730.928 775.475Z" fill="black"/>
</g>
<path d="M898.289 413.404C898.289 413.404 898.289 372.629 872.28 370.616C846.271 368.604 837.091 382.646 842.369 383.983C847.648 385.319 869.679 394.676 869.679 394.676L883.984 419.411L898.289 413.404Z" fill="#F1F1F2"/>
<path d="M662.862 422.761C662.862 422.761 662.862 381.986 688.871 379.973C714.88 377.96 724.059 392.003 718.781 393.339C713.503 394.676 691.471 404.032 691.471 404.032L677.167 428.768L662.862 422.761Z" fill="#F1F1F2"/>
<path d="M780.575 464.873C780.575 464.873 778.617 491.605 794.88 506.985C811.143 522.364 757.167 541.737 757.167 541.737L733.101 512.331C733.101 512.331 752.608 500.301 742.281 479.576L780.575 464.873Z" fill="#F1F1F2"/>
<path d="M785.807 495.002L786.068 495.363L785.807 495.002Z" fill="#D39999"/>
<path d="M751.644 497.974C769.245 497.974 783.513 483.309 783.513 465.219C783.513 447.128 769.245 432.463 751.644 432.463C734.043 432.463 719.775 447.128 719.775 465.219C719.775 483.309 734.043 497.974 751.644 497.974Z" fill="#F1F1F2"/>
<path d="M751.506 445.248C751.781 448.566 752.011 452.104 750.527 455.06C749.701 456.547 748.67 457.903 747.467 459.086L740.705 466.178C738.607 468.064 736.977 470.436 735.947 473.097C734.019 479.702 739.71 486.259 739.527 493.162C738.507 494.806 736.992 496.061 735.213 496.737C733.434 497.412 731.489 497.472 729.674 496.905C728.202 496.326 726.817 495.537 725.558 494.562L719.117 490.049C714.145 486.558 708.943 482.784 706.449 477.154C703.833 471.226 704.721 464.37 704.598 457.859C704.313 453.898 704.257 449.923 704.43 445.955C704.866 442.171 705.9 438.485 707.49 435.042C710.371 428.157 715.092 422.251 721.106 418.012C724.116 415.924 727.505 414.482 731.069 413.772C734.634 413.061 738.301 413.097 741.852 413.876C742.993 414.245 744.176 414.461 745.371 414.521C747.681 414.521 749.67 412.948 751.797 412.021C754.502 410.935 757.479 410.794 760.269 411.622C763.059 412.449 765.507 414.197 767.234 416.597C768.641 418.641 769.452 421.078 770.921 423.06C773.109 426.016 776.674 427.887 778.158 431.268C779.642 434.649 778.647 438.518 778.968 442.166C779.426 445.427 780.403 448.588 781.86 451.522C778.249 450.233 776.49 446.176 774.21 443.062C772.405 440.751 770.14 438.863 767.568 437.523C764.995 436.184 762.174 435.424 759.293 435.294C757.305 435.199 753.617 435.042 752.042 436.599C750.022 438.549 751.246 442.81 751.506 445.248Z" fill="#D5D6D7"/>
<g opacity="0.1">
<path opacity="0.1" d="M786.053 495.332C785.869 495.096 785.777 494.955 785.777 494.955L786.053 495.332Z" fill="black"/>
<path opacity="0.1" d="M675.927 424.994C678.067 425.039 680.142 424.24 681.726 422.761L681.098 425.465C679.366 425.823 677.571 425.659 675.927 424.994Z" fill="black"/>
<path opacity="0.1" d="M791.224 498.792C807.517 524.502 770.829 526.373 770.829 526.373C768.034 526.77 765.188 526.561 762.476 525.76C764.168 525.965 765.878 525.965 767.571 525.76C767.571 525.76 806.89 523.763 786.052 495.379C787.41 497.017 789.209 498.205 791.224 498.792Z" fill="black"/>
<path opacity="0.1" d="M724.656 498.304C722.019 498.372 719.385 498.049 716.838 497.345C718.353 497.615 719.892 497.716 721.428 497.644C725.478 497.467 729.533 497.886 733.468 498.886C730.563 498.343 727.605 498.148 724.656 498.304Z" fill="black"/>
<path opacity="0.1" d="M643.355 460.863L661.561 414.741C662.293 415.765 663.079 416.747 663.917 417.682L646.614 461.46C638.811 480.849 649.215 487.532 649.215 487.532L703.191 538.34C723.998 546.36 726.599 588.472 726.599 588.472C735.06 604.511 722.698 669.362 722.698 669.362C730.898 684.065 742.327 691.377 754.673 694.396C741.103 692.022 728.374 684.678 719.485 668.686C719.485 668.686 731.847 603.851 723.386 587.796C723.386 587.796 720.785 545.684 699.978 537.664L645.956 486.935C645.956 486.935 635.552 480.252 643.355 460.863Z" fill="black"/>
<path opacity="0.1" d="M877.482 410.731C878.816 411.259 880.193 411.664 881.597 411.942C888.727 418.373 891.129 471.556 891.129 471.556L857.317 487.595C857.317 487.595 823.505 487.595 809.185 496.291C802.178 500.553 797.206 500.474 793.886 499.295C796.945 499.483 800.877 498.65 805.865 495.631C820.17 486.935 853.997 486.935 853.997 486.935L887.809 470.895C887.809 470.895 885.284 413.404 877.482 410.731Z" fill="black"/>
<path opacity="0.1" d="M883.158 412.209C888.099 412.87 894.892 412.131 897.646 404.048L899.176 408.215C894.908 414.442 887.105 413.294 883.158 412.209Z" fill="black"/>
</g>
<path d="M714.834 286.141C714.828 300.111 719.648 313.629 728.435 324.287C737.222 334.945 749.405 342.05 762.813 344.337C776.221 346.625 789.984 343.945 801.649 336.776C813.314 329.607 822.125 318.414 826.51 305.192C830.896 291.969 830.572 277.576 825.596 264.576C820.621 251.576 811.316 240.814 799.341 234.207C787.365 227.6 773.497 225.577 760.206 228.499C746.915 231.421 735.065 239.098 726.767 250.162C719.034 260.473 714.839 273.123 714.834 286.141Z" fill="url(#paint1_linear)"/>
<path d="M716.945 286.141C716.926 299.603 721.559 312.635 730.018 322.914C738.477 333.192 750.212 340.05 763.132 342.264C776.051 344.477 789.316 341.904 800.562 335.002C811.807 328.1 820.303 317.317 824.534 304.577C828.766 291.836 828.458 277.965 823.666 265.436C818.874 252.907 809.909 242.534 798.369 236.166C786.829 229.798 773.464 227.848 760.656 230.665C747.848 233.482 736.429 240.882 728.435 251.546C721.001 261.461 716.961 273.623 716.945 286.141Z" fill="#D5D6D7"/>
<path d="M741.24 258.229V280.276" stroke="#B3B3B3" stroke-width="1.25" stroke-miterlimit="10"/>
<path d="M782.212 278.31L759.829 293.5" stroke="#B3B3B3" stroke-width="1.25" stroke-miterlimit="10"/>
<path d="M759.829 244.532L786.037 255.792" stroke="#B3B3B3" stroke-width="1.25" stroke-miterlimit="10"/>
<path d="M803.662 282.225L802.224 316.506" stroke="#B3B3B3" stroke-width="1.25" stroke-miterlimit="10"/>
<path d="M786.037 326.791L756.494 311.616" stroke="#B3B3B3" stroke-width="1.25" stroke-miterlimit="10"/>
<path d="M741.24 314.069V333.206" stroke="#B3B3B3" stroke-width="1.25" stroke-miterlimit="10"/>
<path d="M730.286 299.366L717.404 293.5" stroke="#B3B3B3" stroke-width="1.25" stroke-miterlimit="10"/>
<path d="M802.224 253.826L801.245 237.802" stroke="#B3B3B3" stroke-width="1.25" stroke-miterlimit="10"/>
<path d="M810.807 272.445L826.779 277.131" stroke="#B3B3B3" stroke-width="1.25" stroke-miterlimit="10"/>
<path d="M815.091 272.445L802.714 250.398L782.228 253.826V278.31L804.136 290.072L815.091 272.445Z" fill="#BBBBBB"/>
<path d="M728.435 251.483L741.256 258.229C745.539 252.348 763.164 245.492 763.164 245.492L761.328 230.443C748.251 233.141 736.566 240.615 728.435 251.483Z" fill="#BBBBBB"/>
<path d="M763.164 291.047L740.766 280.276L728.374 298.391L741.24 319.447L763.164 316.019V291.047Z" fill="#BBBBBB"/>
<path d="M782.212 323.85V341.949C789.387 340.593 796.23 337.789 802.346 333.7C808.462 329.611 813.729 324.318 817.845 318.126L802.224 311.537L782.212 323.85Z" fill="#BBBBBB"/>
<path d="M-35.9691 703.8C-35.9665 715.088 -32.0651 726.008 -24.96 734.615C-17.855 743.222 -8.00775 748.957 2.82724 750.798C13.6622 752.639 24.7812 750.466 34.2033 744.667C43.6253 738.869 50.7384 729.82 54.2753 719.134C57.8122 708.448 57.5431 696.818 53.516 686.316C49.4889 675.815 41.9653 667.124 32.2857 661.792C22.6061 656.461 11.3992 654.834 0.661598 657.202C-10.076 659.57 -19.6469 665.78 -26.3458 674.724C-32.588 683.059 -35.9716 693.282 -35.9691 703.8Z" fill="#D5D6D7"/>
<path d="M18.772 697.227L-0.015625 709.964" stroke="#B3B3B3" stroke-width="1.25" stroke-miterlimit="10"/>
<path d="M-0.015625 668.89L21.9696 678.341" stroke="#B3B3B3" stroke-width="1.25" stroke-miterlimit="10"/>
<path d="M36.7488 700.513L35.5554 729.275" stroke="#B3B3B3" stroke-width="1.25" stroke-miterlimit="10"/>
<path d="M21.9696 737.892L-2.81543 725.155" stroke="#B3B3B3" stroke-width="1.25" stroke-miterlimit="10"/>
<path d="M35.5555 676.69L34.7293 663.26" stroke="#B3B3B3" stroke-width="1.25" stroke-miterlimit="10"/>
<path d="M42.7463 692.305L56.1485 696.236" stroke="#B3B3B3" stroke-width="1.25" stroke-miterlimit="10"/>
<path d="M46.3417 692.305L35.9534 673.828L18.7722 676.69V697.227L37.1468 707.086L46.3417 692.305Z" fill="#BBBBBB"/>
<path d="M-26.3456 674.724L-15.6361 680.385C-12.0407 675.463 2.72322 669.708 2.72322 669.708L1.19328 657.128C-9.75008 659.389 -19.5301 665.638 -26.3456 674.724Z" fill="#BBBBBB"/>
<path d="M2.7843 707.904L-15.9881 698.878L-26.3917 714.068L-15.5903 731.728L2.7843 728.85V707.904Z" fill="#BBBBBB"/>
<path d="M18.7722 735.423V750.661C24.7898 749.522 30.5284 747.169 35.6568 743.739C40.7852 740.308 45.2018 735.868 48.6519 730.674L35.5557 725.155L18.7722 735.423Z" fill="#BBBBBB"/>
<path d="M-71.3105 763.256C-71.3078 774.544 -67.4064 785.464 -60.3014 794.071C-53.1964 802.678 -43.3491 808.413 -32.5141 810.254C-21.6791 812.095 -10.5601 809.922 -1.13805 804.124C8.28399 798.325 15.3971 789.276 18.934 778.59C22.4708 767.904 22.2017 756.274 18.1746 745.773C14.1475 735.271 6.62393 726.581 -3.05566 721.249C-12.7353 715.917 -23.9422 714.29 -34.6798 716.658C-45.4174 719.027 -54.9882 725.236 -61.6872 734.181C-67.9293 742.515 -71.313 752.738 -71.3105 763.256Z" fill="#D5D6D7"/>
<path d="M1.40746 759.97L0.214111 788.715" stroke="#B3B3B3" stroke-width="1.25" stroke-miterlimit="10"/>
<path d="M0.214097 736.146L-0.612061 722.717" stroke="#B3B3B3" stroke-width="1.25" stroke-miterlimit="10"/>
<path d="M7.40466 751.761L20.807 755.693" stroke="#B3B3B3" stroke-width="1.25" stroke-miterlimit="10"/>
<path d="M11.0001 751.762L0.611782 733.269L-16.5695 736.147V756.683L1.82043 766.543L11.0001 751.762Z" fill="#BBBBBB"/>
<path d="M-16.5695 794.832V810.07C-10.5543 808.935 -4.81719 806.587 0.311052 803.162C5.4393 799.737 9.85727 795.303 13.3103 790.115L0.213984 784.595L-16.5695 794.832Z" fill="#BBBBBB"/>
<path d="M645.956 486.935L699.932 537.743C720.739 545.763 723.34 587.875 723.34 587.875C731.801 603.914 719.439 668.764 719.439 668.764C750.038 723.582 825.448 676.784 825.448 676.784C825.448 676.784 825.601 674.866 825.846 671.485C826.06 668.529 826.351 664.44 826.672 659.581C827.101 653.291 827.59 645.696 828.049 637.456C829.074 619.451 830.008 598.473 830.008 581.868C830.008 545.102 853.416 530.399 853.416 530.399L893.913 504.83L907.407 496.307C921.712 490.285 923.671 474.921 923.671 474.921L897.662 404.064C893.408 416.55 879.501 411.533 877.696 410.826C885.346 414.379 887.901 470.911 887.901 470.911L854.089 486.951C854.089 486.951 820.277 486.951 805.957 495.647C793.717 503.038 787.735 497.377 786.205 495.505C806.768 523.81 767.586 525.713 767.586 525.713C746.779 528.386 742.22 501.654 742.22 501.654C742.22 501.654 731.158 496.936 721.412 497.644C711.667 498.352 692.145 488.209 692.145 488.209L671.338 468.159L681.741 422.698C672.562 430.718 661.577 414.678 661.577 414.678L643.37 460.8C635.552 480.252 645.956 486.935 645.956 486.935Z" fill="#BBBBBB"/>
<path d="M730.929 775.475C733.07 777.865 722.04 793.087 722.04 793.087C722.04 793.087 738.946 791.75 740.246 779.721C740.369 778.72 740.589 777.735 740.904 776.78C744.82 764.688 763.731 747.531 772.115 746.305C781.294 744.968 799.424 767.691 806.584 783.731C806.997 784.658 807.41 785.508 807.839 786.31C814.831 799.393 823.49 796.436 823.49 796.436C818.9 790.618 817.952 786.011 819.39 782.284C825.081 767.864 867.705 768.289 867.705 768.289C867.705 768.289 848.199 722.167 840.396 716.82C832.593 711.474 820.231 671.359 820.231 671.359C820.231 671.359 727.226 660.666 726.584 665.336C725.941 670.007 707.719 706.788 701.217 712.795C694.715 718.802 681.71 763.602 681.71 763.602C703.818 756.919 728.205 773.289 730.806 775.302L730.929 775.475Z" fill="#BBBBBB"/>
<path d="M853.094 926.435L870.979 957.524C870.979 957.524 879.44 965.544 885.942 964.207C892.444 962.871 898.946 982.92 872.28 978.91C845.613 974.9 814.402 960.197 814.402 960.197C814.402 960.197 811.48 933.119 826.427 927.174L853.094 926.435Z" fill="#BBBBBB"/>
<path d="M695.709 915.743L681.726 949.504C681.726 949.504 677.824 958.939 670.022 958.939C662.219 958.939 659.618 975.655 684.984 972.982C710.351 970.309 729.215 949.583 729.215 949.583C729.215 949.583 727.257 917.504 715.553 915.491C708.988 914.208 702.241 914.294 695.709 915.743Z" fill="#BBBBBB"/>
</g>
<defs>
<linearGradient id="paint0_linear" x1="380.802" y1="451.003" x2="380.802" y2="450.61" gradientUnits="userSpaceOnUse">
<stop stop-color="#808080" stop-opacity="0.25"/>
<stop offset="0.54" stop-color="#808080" stop-opacity="0.12"/>
<stop offset="1" stop-color="#808080" stop-opacity="0.1"/>
</linearGradient>
<linearGradient id="paint1_linear" x1="60187.4" y1="32071.8" x2="60187.4" y2="23226.4" gradientUnits="userSpaceOnUse">
<stop stop-color="#808080" stop-opacity="0.25"/>
<stop offset="0.54" stop-color="#808080" stop-opacity="0.12"/>
<stop offset="1" stop-color="#808080" stop-opacity="0.1"/>
</linearGradient>
</defs>
</svg>
