<svg width="1245" height="994" fill="none" xmlns="http://www.w3.org/2000/svg"><path d="M17.528 758.671c26.068 21.834 63.372 21.558 90.929 41.212a92.504 92.504 0 0110.198 8.595c13.908 13.31 24.893 30.279 39.5 42.899 27.377 23.683 61.589 28.679 97.178 26.747 26.888-1.496 54.52-7.004 80.471-11.507 66.095-11.437 137.051-12.711 198.272 18.509 40.818 20.823 74.538 54.668 113.436 79.372 38.899 24.704 88.4 39.762 128.099 18.863 42.613-22.425 60.022-78.279 99.923-105.521 42.823-29.23 102.108-19.479 146.596-45.969 56.52-33.656 70.37-111.972 109.48-166.466 18.77-26.17 43.52-46.853 63.5-71.997 22.21-28.015 38.12-61.046 46.58-96.714 2.86-12.168 4.8-25.465.26-37.308-3.94-10.22-12.15-17.947-20.41-24.791-30.69-25.369-68.83-47.908-79.71-87.17-10.04-36.218 3.55-84.019-25.88-105.832-17.72-13.135-41.57-7.856-61.7-.877-41.52 14.393-81.813 33.874-125.287 40.031-31.12 4.381-65.12.566-92.755-14.905-11.115-6.115-21.103-14.338-29.449-24.244-13.078-15.699-24.071-37.214-43.474-40.364-8.41-1.368-16.842 1.234-24.6 4.606-29.245 12.733-52.692 36.404-80.271 52.622a121.504 121.504 0 01-30.063 12.721c-20.902 5.59-42.94 4.594-60.487-8.53-10.281-7.696-18.554-19.209-30.592-22.899-20.371-6.295-40.109 2.905-57.795 17.774-21.895 18.401-40.706 45.547-53.914 63.073l-1.327 1.743c-17.108 22.355-40.465 37.788-65.703 50.54-27.195 13.831-56.474 24.509-82.453 37.542a306.289 306.289 0 00-7.227 3.735 378.011 378.011 0 00-53.098 34.366c-23.656 18.254-45.244 39.275-64.37 62.676a397.47 397.47 0 00-27.057 37.321 513.125 513.125 0 00-7.184 11.582c-13.71 22.612-26.469 46.03-44.12 65.23l-3.874 4.083c-21.766 22.149-49.224 39.316-62.77 67.823-6.144 12.982-8.924 28.705-3.434 42.324 3.062 7.584 8.45 13.962 14.582 19.105z" fill="#EDEDED"/><path d="M824.66 623.813c3.913 13.588 12.392 25.383 23.927 33.283 11.535 7.901 25.376 11.394 39.058 9.857 13.681-1.537 26.315-8.004 35.649-18.248 9.334-10.245 14.763-23.602 15.319-37.692a61.24 61.24 0 00-12.282-39.245c-8.485-11.247-20.553-19.103-34.053-22.169-13.5-3.066-27.555-1.143-39.661 5.428-12.106 6.571-21.477 17.361-26.444 30.45-4.627 12.195-5.16 25.675-1.513 38.336z" fill="#BFDBD1"/><path d="M841.082 588.566l6.4 22.244M888.284 596.938l-18.187 21.837M855.869 569.328l29.722 3.767M911.064 594.667l8.52 35.019M906.219 644.786l-34.231-6.754M857.303 644.942l5.562 19.329M841.964 633.286l-14.709-2.184M901.375 566.401l-5.646-15.881M915.44 582.708l17.496.091" stroke="#7FB7A2" stroke-width=".658" stroke-miterlimit="10"/><path d="M881.563 572.391l19.227-9.196 18.609 18.366-5.794 20.49-25.059-5.393-6.983-24.267zM844.76 582.34c-1.766 2.042-3.22 4.075-3.94 5.863l-14.201-2.969c5.021-12.949 14.394-23.587 26.449-30.021l5.96 14.05-.484.378a136.78 136.78 0 00-7.554 6.403c-2.141 1.958-4.37 4.145-6.23 6.296zM847.228 611.32l25.248 4.3 7.121 24.747-20.669 9.617-18.784-17.23 7.084-21.434zM935.4 627.114a58.469 58.469 0 01-10.946 19.719 56.83 56.83 0 01-17.471 13.901l-5.117-17.783 16.42-17.878 17.114 2.041z" fill="#7FB7A2" stroke="#7FB7A2" stroke-width=".658"/><path d="M932.936 193.082s1.869-67.167-15.543-51.568c-17.411 15.598-7.216 44.839-7.216 44.839l9.215 16.816 13.063-7.097.481-2.99z" fill="#BFDBD1"/><path d="M964.611 218.747s-24-37.2-30.797-32.233c-6.797 4.968-24.81 5.1-23.789 17.387 1.021 12.287 56.224 60.57 56.224 60.57l-1.638-45.724z" fill="#409374"/><path d="M1096.72 410.911s19.79 45.548 28.13 49.916c8.34 4.368 51.07 38.478 52.68 65.97l32.58 59.71-24.84 23.236s-77.87-115.413-102.88-128.516c-25.02-13.104-44.34-61.602-44.34-61.602l58.67-8.714zM898.676 310.942s-57.272-.167-54.132 36.538c3.14 36.705 76.559 123.935 76.559 123.935l.1 18.116 31.389 11.085 17.064-12.337-1.52-9.295s-30.07-38.022-31.117-50.256c-1.046-12.235-25.811-64.486-40.035-69.792l22.47-8.451-20.778-39.543z" fill="#BFDBD1"/><path d="M1201.24 584.736s-8.87-19.539 8.22-13.77c17.09 5.769 28.33 10.595 26.43 22.365-1.89 11.769-29.78 91.799-46.4 83.088-16.62-8.711 2.28-32.837 2.28-32.837s-4.99-24.951-10.37-28.836c-5.38-3.884-3.02-18.596 2.84-17.654 5.85.942 18.98-6 17-12.356z" fill="#409374"/><path d="M1053.09 269.487s40.09 12.434 27.77 70.277c0 0 44.31 60.972 26.84 76.109-17.47 15.136-54.87 42.022-65.18 31.388-10.31-10.633-34.69-83.354-34.69-83.354s-86.738 15.953-99.044-.984c-12.306-16.937-21.327-54.284-21.327-54.284l79.36-26.115 86.271-13.037z" fill="#006F46"/><path d="M964.945 83.265c-19.294-3.105-32.419-21.264-29.314-40.558 3.106-19.295 21.264-32.42 40.559-29.314 19.295 3.105 32.42 21.264 29.31 40.558-3.1 19.295-21.26 32.42-40.555 29.314z" fill="#BFDBD1"/><path d="M997.413 56.233s15.297 35.031 20.667 38.855c5.37 3.825-45.926 25.178-45.926 25.178s6.038-37.518-7.146-48.522l32.405-15.51z" fill="#BFDBD1"/><path d="M995.29 87.438s48.89-7.248 53.82 17.729c4.92 24.977 18.16 72.453 10.51 101.452-7.65 28.999-12.51 22.17-5.21 32.414s14.06 5.286 9.25 16.605c-4.8 11.319-7.71 10.851-5.75 17.212 1.96 6.362-39.15 20.906-71.608 18.706l-32.454-2.2s8.536-53.04 4.618-65.763c-3.918-12.722-11.753-38.167-10.331-47.008l3.764-23.39a91.564 91.564 0 0118.772-42.512s21.712-23.713 24.619-23.246z" fill="#409374"/><path d="M1027.2 105.829s107.63 26.385 114.68 57.735c7.05 31.35 3.47 91.203-8.32 89.306-11.79-1.897-27.47 1.622-29.47-4.743s-4.31-67.167-7.26-67.642c-2.95-.474-89.95-23.539-89.95-23.539s-30.728-53.29 20.32-51.117z" fill="#409374"/><path d="M970.96 39.07s-6.845-17.639-20.897-5.536-29.105-16.716-25.275-21.733c3.83-5.016 13.312 2.396 32.066-.463 18.754-2.859 54.986-9 54.606 29.994-.37 38.994-13.429 32.798-13.429 32.798s-.852-34.743-8.087-25.967l-7.236 8.776-5.115.398-6.633-18.267z" fill="#006F46"/><path d="M960.388 480.332s2.459-14.741 11.716 1.955c9.257 16.696 13.148 29.467-.045 36.356-13.192 6.89-57.644 20.685-57.644 20.685s-45.413 1.513-36.111-18.147c0 0 31.751-9.854 33.719-21.646 1.967-11.793 5.411-32.431 13.215-25.068 7.803 7.363 33.674 14.71 35.15 5.865z" fill="#409374"/><rect x="916.152" y="536.875" width="4.832" height="4.832" rx="1.5" transform="rotate(-18.672 916.152 536.875)" fill="#409374"/><rect x="906.435" y="537.731" width="4.832" height="4.832" rx="1.5" transform="rotate(1.674 906.435 537.731)" fill="#409374"/><rect x="896.182" y="536.842" width="4.832" height="4.832" rx="1.5" transform="rotate(5.944 896.182 536.842)" fill="#409374"/><rect x="886.244" y="534.146" width="4.832" height="4.832" rx="1.5" transform="rotate(11.376 886.244 534.146)" fill="#409374"/><rect x="925.308" y="533.781" width="4.832" height="4.832" rx="1.5" transform="rotate(-18.672 925.308 533.781)" fill="#409374"/><rect x="934.464" y="530.687" width="4.832" height="4.832" rx="1.5" transform="rotate(-18.672 934.464 530.687)" fill="#409374"/><rect x="943.62" y="527.593" width="4.832" height="4.832" rx="1.5" transform="rotate(-18.672 943.62 527.593)" fill="#409374"/><rect x="952.776" y="524.498" width="4.832" height="4.832" rx="1.5" transform="rotate(-18.672 952.776 524.498)" fill="#409374"/><rect x="961.932" y="521.404" width="4.832" height="4.832" rx="1.5" transform="rotate(-18.672 961.932 521.404)" fill="#409374"/><rect x="970.572" y="516.784" width="4.832" height="4.832" rx="1.5" transform="rotate(-18.672 970.572 516.784)" fill="#409374"/><path d="M514.524 510.622c-4.591-1.226-8.34-4.573-11.78-7.905a285.194 285.194 0 01-12.726-13.065c-1.103-1.204-2.25-2.546-2.398-4.175-.133-1.465.575-2.871 1.277-4.17a654.873 654.873 0 0110.479-18.913 45.087 45.087 0 014.5-6.789 44.3 44.3 0 015.079-4.826 713.485 713.485 0 0116.326-13.483c5.088-4.07 7.35-10.906 10.941-16.346a4.196 4.196 0 011.382-1.5 3.929 3.929 0 012.37-.213 26.26 26.26 0 019.96 3.303c2.12 1.214 4.242 3.044 4.392 5.506.168 2.65-2.024 4.784-4.056 6.526a27.431 27.431 0 01-4.567 3.448c-2.264 1.255-4.827 1.844-7.15 2.981a33.946 33.946 0 00-5.365 3.528c-2.444 1.848-4.917 3.722-6.775 6.162-1.684 2.217-2.789 4.81-3.876 7.37l-6.099 14.373-3.342 7.876a1.446 1.446 0 00.474 1.982 31.102 31.102 0 015.47 7.974 8.776 8.776 0 011.017 3.393 10.06 10.06 0 01-.642 3.357c-1.484 4.699-3.121 9.019-4.891 13.606zM573.742 493.914a3.658 3.658 0 01-.386 1.345 3.52 3.52 0 01-1.006.992 22.707 22.707 0 01-5.539 3.015c-.397.11-.762.316-1.061.6a2.184 2.184 0 00-.385.818c-1.507 4.994-.258 10.419 1.746 15.254a38.606 38.606 0 004.805 8.519 30.926 30.926 0 006.044 5.99c3.821 2.867 8.403 4.852 13.171 5.137 4.768.285 9.724-1.316 13.105-4.688 3.96-3.949 5.368-9.732 6.342-15.239.588-3.282 1.092-6.715.053-9.896a6.349 6.349 0 00-1.791-2.944c-1.25-1.072-3.008-1.388-4.266-2.449a4.573 4.573 0 01-1.226-1.667 4.573 4.573 0 01-.369-2.036c.036-.592.149-1.173-.187-1.647a1.914 1.914 0 00-.973-.571l-11.119-3.804c-4.017-1.366-8.109-2.75-12.363-3.107-1.412-.116-3.431-.588-4.096.956-.664 1.545-.262 3.82-.499 5.422z" fill="#BFDBD1"/><path d="M546.346 706.348c-2.233 2.679-5.229 4.605-7.544 7.204-1.405 1.568-2.592 3.674-2.094 5.731.414 1.721 1.913 2.965 3.379 3.928a27.629 27.629 0 0013.427 4.37c.871.07 1.748.028 2.608-.127 2.764-.574 4.775-2.959 6.217-5.383a13.99 13.99 0 011.806-2.671c1.403-1.442 3.432-2.028 5.254-2.846 1.822-.817 3.725-2.136 4.079-4.127.076-.877.063-1.76-.039-2.635-.036-1.617.414-3.202.638-4.801.262-1.83.234-3.69-.086-5.511a2.868 2.868 0 00-.638-1.559 2.962 2.962 0 00-1.193-.655 35.316 35.316 0 00-16.713-1.659c-1.116.159-3.206.197-4.122.862-.762.559-.832 1.428-1.089 2.308a22.246 22.246 0 01-3.89 7.571zM585.868 702.526c-1.828 5.931-3.665 11.89-6.492 17.412-.491.956-1.022 2.014-.754 3.051a3.62 3.62 0 00.954 1.497c3.62 3.918 9.432 5.002 14.752 4.658a35.297 35.297 0 008.983-1.772c.326-.092.632-.246.9-.453.309-.293.544-.655.687-1.056a31.597 31.597 0 00.945-22.661 9.414 9.414 0 00-1.674-3.219c-1.11-1.276-2.722-1.97-4.28-2.625-3.571-1.497-7.224-3.445-10.928-4.532-1.571 2.774-2.146 6.639-3.093 9.7z" fill="#006F46"/><path d="M574.679 626.612c8.528 1.693 16.602 5.253 25.152 6.841 4.069.752 8.398 1.014 12.103-.779 3.009-1.451 5.241-4.088 7.371-6.657 1.718-2.056 3.448-4.146 4.625-6.56 2.068-4.244 2.252-9.131 2.254-13.855-.001-3.677-.176-7.676-2.531-10.502-1.417-1.704-3.445-2.752-5.438-3.711-9.443-4.531-19.411-8.009-29.335-11.456-2.947-1.031-5.906-2.057-8.941-2.797a48.632 48.632 0 00-22.633-.089c-3.346.797-6.713 2.022-9.185 4.41-2.915 2.825-4.227 6.983-4.401 11.039-.175 4.055.675 8.068 1.52 12.038l2.703 12.83c.572 2.704.461 7.363 3.483 8.441 2.892 1.034 7.854-.423 10.928-.401a79.48 79.48 0 0112.325 1.208z" fill="#409374"/><path d="M588.693 500.922c12.91 2.101 25.079-6.662 27.179-19.573 2.101-12.91-6.662-25.079-19.572-27.18-12.911-2.1-25.08 6.663-27.18 19.573-2.101 12.911 6.662 25.08 19.573 27.18z" fill="#BFDBD1"/><path d="M586.169 527.106l-8.264-13.214a34.972 34.972 0 00-2.388-3.502c-1.227-1.511-2.741-2.883-3.355-4.738-.961-2.893.537-5.991 1.151-8.915a1.566 1.566 0 00-.489-1.559c-.609-.488-1.178-.119-1.762.049-1.396.408-2.936-.358-4.334-.011-1.029.252-1.828 1.038-2.703 1.633-.875.594-2.074 1.004-2.972.45-.473-.292-.774-.796-1.226-1.11-1.113-.779-2.641-.112-3.971-.328-1.167-.19-2.124-1.04-3.174-1.618a14.453 14.453 0 00-3.662-1.195l-11.353-2.656c-1.597 8.453-1.213 17.169-.511 25.739.712 8.727 1.446 17.571 4.411 25.814 1.295 3.595 3.01 7.077 2.989 11.074a9.668 9.668 0 01-.661 3.36 2.65 2.65 0 01-.797 1.218c-1.19 3.854-1.075 8.298.767 11.885 1.005 1.96 2.396 3.678 3.264 5.705.867 2.028 1.056 4.55-.336 6.257 3.416 1.754 7.501.424 11.324.076 8.509-.771 16.603 3.546 23.434 8.64 2.297 1.709 4.616 3.571 7.407 4.199 4.998 1.155 9.918-1.853 14.981-2.676 8.512-1.382 16.61 3.433 24.711 6.38 1.159.422 2.456.807 3.599.334 1.143-.473 1.833-1.768 2.165-3.001 1.244-4.589-.583-9.371-1.181-14.086a27.649 27.649 0 015.226-19.605 18.243 18.243 0 003.715-10.983c-.003-.24 0-.479.002-.712l.174-19.362a32.986 32.986 0 00-.398-6.754c-1.01-5.021-4.35-9.331-8.383-12.484-4.032-3.153-8.72-5.294-13.416-7.381a87.093 87.093 0 00-11.905-4.602c-.573-.159-1.282-.292-1.741.1-.258.262-.427.6-.48.964-.525 2.31.014 4.697-.263 7.029-.392 3.326-2.399 6.239-4.642 8.73-4.283 4.753-9.011 8.451-14.953 10.856z" fill="#409374"/><path d="M540.007 493.342c-1.042-1.655-2.989-2.457-4.806-3.177l-4.789-1.852a13.075 13.075 0 00-2.797-.844c-.7-.114-1.417-.087-2.115-.212a10.844 10.844 0 01-3.018-1.18l-8.292-4.242c2.258 4.524 1.748 9.866.985 14.85a58.386 58.386 0 01-1.272 6.38c-.605 2.249-1.447 4.478-1.491 6.812-.057 2.703.854 5.792-.884 7.862-.92 1.09-2.358 1.569-3.731 1.951a76.878 76.878 0 0123.091 14.021c1.619 1.425 3.203 2.946 5.147 3.885 1.268.561 2.591.99 3.947 1.283l4.278 1.085c2.43-10.222.882-20.911-.673-31.302-.41-2.708-.813-5.42-1.413-8.099-.53-2.41-.866-5.129-2.167-7.221zM580.695 591.518c-11.236-6.392-24.598-10.32-37.147-7.242-2.159.535-4.574 1.573-5.14 3.727-.257.994-.057 2.044-.02 3.068.139 3.233-1.288 6.3-2.018 9.457-.729 3.157-.536 6.979 2.054 8.945-.551 12.846.411 25.26 3.971 37.612a25.943 25.943 0 011.248 5.797c.101 1.992-.311 3.973-.549 5.952-.724 6.033.164 12.13 1.049 18.136.154 1.3.422 2.584.801 3.837.902 2.662 2.799 4.881 3.966 7.424 1.167 2.544 1.546 5.881-.395 7.912-1.14 1.192 1.978 2.568 3.606 2.863a185.32 185.32 0 0021.508 2.625 2.182 2.182 0 002.659-1.615c1.097-2.367 2.224-4.914 1.817-7.49-.221-1.365-.876-2.711-.631-4.072.19-1.167 1.086-2.147 1.555-3.263 1.439-3.436-1.09-7.1-2.856-10.381-3.674-6.862-4.267-14.923-4.731-22.705a2951.502 2951.502 0 01-1.676-30.478c1.576 1.718.999 4.055 2.492 5.843 1.769 2.084 5.389 1.548 7.286-.431 1.897-1.979 2.49-4.853 2.868-7.576 1.27-9.057.05-18.969-1.717-27.945zM596.013 597.405c4.035-6.613 11.703-11.084 19.422-10.499 7.72.585 14.916 6.703 15.98 14.373.2 1.83.229 3.676.085 5.511-.924 18.414-3.941 36.996-11.313 53.923-1.514 3.49-3.222 6.925-4.156 10.606-.935 3.68-1.031 7.731.615 11.16.443.958 1.068 1.899 1.189 2.96.143 1.221-.352 2.386-.845 3.504l-6.166 14.081a5.812 5.812 0 01-1.586 2.389c-1.293.987-3.116.744-4.717.316a35.318 35.318 0 01-11.729-5.603c-3.209-2.361-6.301-6.032-5.449-9.941.213-.977.671-1.951.474-2.917a6.234 6.234 0 00-1.092-1.974c-1.677-2.609-1.598-6.039-.555-8.953 1.043-2.915 2.951-5.437 4.824-7.898 1.874-2.462.698-6.276.715-9.286.055-10.423 5.074-20.552 3.829-30.899-2.397 1.484-5.908 2.194-7.754.073-1.65-1.897-.944-4.8-.145-7.209 2.66-7.957 4.012-16.558 8.374-23.717z" fill="#409374"/><path d="M513.902 441.092c-1.152-.277-1.298-1.918-.663-2.88.636-.963 1.726-1.516 2.558-2.327 2.322-2.233 2.266-5.865 2.608-9.067.515-4.827 2.276-9.427 4.019-13.958.881-2.287 1.795-4.63 3.447-6.463a10.411 10.411 0 017.643-3.469 5.67 5.67 0 014.519-3.924 10.64 10.64 0 016.298 1.294c.262.167.563.259.873.268.348-.07.669-.235.928-.478a5.83 5.83 0 017.37.601c3.861-11.546 7.839-22.93 11.948-34.387.689-1.912 1.678-3.871 3.24-5.186 1.265-1.082 2.911-1.922 4.55-1.613a7.034 7.034 0 011.867.741c1.342.697 2.748 1.513 3.408 2.866.367.853.548 1.774.531 2.703a25.28 25.28 0 01-.732 7.001c-.911 3.648-1.774 7.221-2.414 10.931-1.15 6.52-3.852 12.637-5.902 18.939-2.41 7.453-3.886 15.309-7.785 22.088-3.576 6.263-9.093 11.425-11.63 18.18-1.235 3.285-1.562 7.357.774 9.965-.235.968-1.593.777-2.572.612l-5.251-.855a60.726 60.726 0 01-7.11-1.498c-7.992-2.366-14.447-8.147-22.522-10.084z" fill="#006F46"/><path d="M641.981 557.137a123.693 123.693 0 01-.548 10.579c-.265 2.38-.656 4.719-.904 7.105-.918 8.873.226 17.952-1.315 26.661-1.303-1.694-2.885-2.656-4.566-2.773.837-2.56.197-5.796-1.025-7.432-1.222-1.636-2.856-2.078-4.439-2.372-4.409-.819-8.94-.909-13.4 1.158a.461.461 0 01-.309.113.442.442 0 01-.292-.14c-.215-.298-.114-.923-.039-1.414.682-4.251-1.34-7.991-1.302-12.304.031-3.111 1.118-6.007 2.019-8.831 3.399-10.616 4.555-22.645 6.818-34.037 1.282-6.448 3.218-13.214 6.642-16.507 1.56-1.37 3.265-1.97 4.922-1.731 1.656.239 3.197 1.307 4.447 3.083 5.742 8.096 3.573 26.953 3.291 38.842z" fill="#409374"/><path d="M398.764 625.188l14.018 20.677s4.058 7.738 1.921 13.341c-2.137 5.603.132 16.251.132 16.251s-3.258 18.269-6.778 27.08c-3.52 8.81 1.081 20.314 1.081 20.314l-18.428 4.923s5.129-15.495 1.46-25.94c-3.669-10.446 1.759-31.262.796-37.95-.213-1.482 1.113-5.082-3.194-9.374-4.307-4.293-19.76-14.555-20.435-21.649l29.427-7.673zM302.461 633.76s-5.504 10.85-4.929 20.557a41.484 41.484 0 01-.427 9.06 18.63 18.63 0 001.21 10.328 47.655 47.655 0 012.6 8.072 55.09 55.09 0 005.941 15.164c4.502 7.87 10.477 18.633 11.061 20.889.899 3.654 3.978 12.288 3.978 12.288l15.222 3.487s-5.874-10.128-7.368-20.504c-1.494-10.376-.104-21.168-10.534-37.075 0 0-1.005-4.394.944-11.483 1.95-7.09 10.597-26.117 10.597-26.117l-28.295-4.666z" fill="#BFDBD1"/><g opacity=".1" fill="#000"><path opacity=".1" d="M318.171 581.941c.012 2.668-7.15 24.491-10.276 28.341-2.868 3.536-6.17 25.648-6.693 29.23-.635.225-1.258.466-1.875.751 0 0 3.635-25.871 6.76-29.73 3.124-3.859 10.284-25.698 10.276-28.34-.006-.525 2.08-1.012 5.404-1.437-2.233.366-3.588.757-3.596 1.185zM349.883 623.148c4.983-1.474 16.85 9.678 22.101 18 .303.482.6.92.902 1.33 2.842 3.863 5.554 4.718 7.352 4.753-1.131.386-5.033 1.134-9.159-4.493-.302-.41-.599-.848-.902-1.329-4.814-7.638-15.225-17.638-20.731-18.109l.437-.152zM327.569 642.881l-.068-.053c-1.288-.704-11.184-5.509-21.121-4.461 10.507-1.896 21.553 3.429 22.928 4.201l.068.053c1.212 1.018-2.424 8.359-3.327 10.091-.651.254-1.317.466-1.995.634 0 0 4.894-9.311 3.515-10.465z"/></g><path d="M391.462 428.754s-3.256-22.609-17.838-21.649c-14.583.961-18.552 9.48-15.518 9.8 3.033.319 15.996 3.749 15.996 3.749l9.907 12.573 7.453-4.473zM261.666 452.741s-3.255-22.61 11.006-25.803c14.261-3.192 20.472 3.861 17.652 5.024-2.82 1.162-14.289 8.109-14.289 8.109l-5.957 14.858-8.412-2.188zM330.299 466.692s1.049 14.979 11.295 22.208c10.245 7.229-18.137 22.281-18.137 22.281l-15.692-14.384s9.855-8.228 2.474-18.895l20.06-11.21z" fill="#BFDBD1"/><path d="M335.606 482.979l.173.179-.173-.179z" fill="#D39999"/><path d="M316.901 487.356c9.76-1.405 16.5-10.676 15.056-20.707-1.445-10.03-10.527-17.023-20.286-15.618-9.759 1.406-16.5 10.676-15.056 20.707 1.445 10.031 10.527 17.024 20.286 15.618z" fill="#BFDBD1"/><path d="M312.614 458.131c.417 1.818.827 3.761.24 5.519a9.896 9.896 0 01-1.375 2.476l-3.183 4.473a10.104 10.104 0 00-2.086 4.216c-.542 3.816 3.138 6.998 3.587 10.84a4.894 4.894 0 01-2.107 2.327 4.75 4.75 0 01-3.058.535 9.357 9.357 0 01-2.469-.971l-3.931-1.988c-3.036-1.538-6.222-3.216-8.054-6.138-1.924-3.079-1.98-6.951-2.567-10.551a57.708 57.708 0 01-1.044-6.587c-.06-2.134.219-4.26.825-6.296a22.092 22.092 0 016.191-10.53 14.907 14.907 0 015.186-3.147 14.733 14.733 0 015.987-.803 7.638 7.638 0 002.003.077c1.281-.185 2.258-1.215 3.363-1.9a7.216 7.216 0 014.666-.897 7.412 7.412 0 014.259 2.202c.944 1.021 1.588 2.308 2.561 3.29 1.449 1.464 3.575 2.217 4.668 3.973 1.093 1.757.85 3.981 1.319 5.978a17.135 17.135 0 002.351 4.957c-2.105-.426-3.405-2.536-4.917-4.08a11.44 11.44 0 00-4.126-2.541 11.121 11.121 0 00-4.766-.575c-1.11.106-3.167.313-3.917 1.302-.964 1.243.055 3.508.394 4.839z" fill="#006F46"/><g opacity=".1" fill="#000"><path opacity=".1" d="M335.768 483.144c-.121-.116-.183-.187-.183-.187l.183.187zM269.09 452.934a4.616 4.616 0 003.037-1.701l-.132 1.55a5.014 5.014 0 01-2.905.151zM338.912 484.649c11.087 12.955-9.106 16.922-9.106 16.922a11.051 11.051 0 01-4.681.327 11.83 11.83 0 002.825-.407s21.643-4.246 7.822-18.321a5.918 5.918 0 003.14 1.479zM301.962 489.694c-1.457.248-2.943.28-4.412.092.862.029 1.723-.038 2.569-.2a23.257 23.257 0 016.776-.273 20.873 20.873 0 00-4.933.381zM253.892 475.424l6.413-27.028c.487.51 1.002.991 1.541 1.442l-6.099 25.657c-2.779 11.374 3.523 14.249 3.523 14.249l33.986 23.863c12.178 2.785 16.982 25.928 16.982 25.928 5.972 8.219 4.295 45.164 4.295 45.164 5.721 7.498 12.642 10.64 19.729 11.329-7.714-.233-15.359-3.289-21.564-11.447 0 0 1.678-36.937-4.295-45.164 0 0-4.805-23.143-16.982-25.929l-34.005-23.815s-6.303-2.875-3.524-14.249zM379.71 428.934c.782.186 1.578.301 2.379.343 4.466 2.997 10.044 32.294 10.044 32.294l-17.467 11.593s-18.749 2.7-25.995 8.665c-3.545 2.922-6.308 3.276-8.243 2.887 1.712-.14 3.825-.916 6.35-2.988 7.237-5.964 25.994-8.665 25.994-8.665l17.468-11.593s-5.99-31.677-10.53-32.536zM382.975 429.3c2.793-.028 6.501-.98 7.382-5.682l1.182 2.189c-1.87 3.793-6.288 3.78-8.564 3.493z"/></g><path d="M280.747 372.666c1.064 7.467 4.674 14.323 10.185 19.347 5.511 5.024 12.565 7.889 19.906 8.085 7.34.196 14.49-2.29 20.175-7.015 5.684-4.725 9.534-11.382 10.863-18.784a32.657 32.657 0 00-3.607-21.634c-3.657-6.565-9.456-11.601-16.363-14.21-6.908-2.61-14.474-2.624-21.351-.039-6.877 2.584-12.618 7.599-16.199 14.15-3.331 6.092-4.6 13.158-3.609 20.1z" fill="#BFDBD1"/><path d="M291.99 355.249l1.76 12.224M316.312 363.114l-11.198 10.21M301.204 346.171l15.431 4.15M328.518 363.572l1.939 19.123M322.304 389.69l-17.593-6.055M296.448 386.213l1.528 10.612M289.2 378.934l-7.611-2.224M325.453 347.94l-1.822-8.807M331.699 357.578l9.231 1.324" stroke="#7FB7A2" stroke-width=".284" stroke-miterlimit="10"/><path d="M334.075 357.234l-8.624-11.236-11.085 3.536 1.955 13.576 13.087 4.773 4.667-10.649zM284.351 352.531l7.647 2.717c1.906-3.603 11.132-8.812 11.132-8.812l-2.22-8.198c-7.036 2.54-12.918 7.618-16.559 14.293zM306.767 371.695l-13.28-4.184-5.425 11.034 8.816 10.648 11.883-3.651-1.994-13.847zM319.948 388.366l1.445 10.036a30.503 30.503 0 0010.506-6.182 31.38 31.38 0 007.35-9.873l-9.188-2.406-10.113 8.425z" fill="#7FB7A2"/><path d="M257.416 489.672l33.986 23.863c12.177 2.785 16.982 25.928 16.982 25.928 5.972 8.218 4.295 45.164 4.295 45.164 21.343 27.953 59.421-4.017 59.421-4.017s-.068-1.076-.202-2.97c-.118-1.656-.283-3.947-.493-6.667a985.98 985.98 0 00-1.003-12.378c-.869-10.065-2.026-21.771-3.352-30.979-2.935-20.386 8.87-30.408 8.87-30.408l20.414-17.411 6.802-5.803c7.451-4.482 7.31-13.157 7.31-13.157l-20.078-37.213c-1.362 7.263-9.474 5.592-10.531 5.344 4.525 1.359 10.455 32.502 10.455 32.502l-17.467 11.593s-18.749 2.7-25.995 8.665c-6.196 5.075-9.965 2.414-10.963 1.498 13.662 14.053-7.912 18.237-7.912 18.237-11.324 3.143-15.987-11.316-15.987-11.316s-6.51-1.732-11.857-.562c-5.348 1.171-16.982-2.895-16.982-2.895l-13.138-9.456 2.139-26.038c-4.45 5.18-11.822-2.837-11.822-2.837l-6.412 27.027c-2.782 11.411 3.52 14.286 3.52 14.286z" fill="#409374"/><path d="M327.569 642.882c1.379 1.154-3.522 10.475-3.522 10.475s9.267-2.091 9.028-8.865a8.538 8.538 0 01.13-1.683c1.206-7.018 10.322-18.041 14.873-19.39 4.983-1.474 16.85 9.678 22.101 18 .303.481.6.919.901 1.33 4.922 6.696 9.487 4.365 9.487 4.365-3.009-2.859-3.903-5.338-3.403-7.52 2.004-8.45 25.673-11.618 25.673-11.618s-14.499-24.016-19.252-26.358c-4.754-2.341-14.811-23.598-14.811-23.598s-52.424 1.497-52.407 4.138c.016 2.641-7.151 24.49-10.277 28.34-3.126 3.85-6.76 29.73-6.76 29.73 11.725-5.471 26.555 1.659 28.158 2.567l.081.087z" fill="#409374"/><path d="M407.362 716.834l12.399 15.81s5.331 3.772 8.83 2.511c3.499-1.26 8.705 9.338-6.402 9.244-15.106-.095-33.586-5.755-33.586-5.755s-3.782-14.782 4.031-19.271l14.728-2.539zM319.241 723.469l-5.059 19.837s-1.41 5.543-5.736 6.166c-4.327.623-4.434 10.1 9.418 6.592s22.657-16.506 22.657-16.506-3.647-17.631-10.298-17.813a27.202 27.202 0 00-10.982 1.724z" fill="#006F46"/><path d="M781.622 622.66c-12.717-8.701-30.916-8.591-44.36-16.424a44.155 44.155 0 01-4.975-3.425c-6.785-5.304-12.144-12.066-19.27-17.095-13.355-9.438-30.046-11.429-47.408-10.659-13.117.596-26.597 2.791-39.257 4.585-32.245 4.558-66.861 5.066-96.727-7.375-19.913-8.299-36.363-21.786-55.34-31.631-18.976-9.845-43.125-15.845-62.492-7.517-20.789 8.936-29.282 31.195-48.747 42.051-20.892 11.648-49.814 7.763-71.516 18.319-27.575 13.412-34.333 44.622-53.409 66.339-9.158 10.429-21.235 18.671-30.98 28.691-10.837 11.164-18.598 24.327-22.724 38.542-1.393 4.849-2.341 10.148-.126 14.867 1.92 4.073 5.924 7.152 9.955 9.88 14.972 10.11 33.579 19.092 38.888 34.738 4.897 14.433-1.731 33.482 12.627 42.175 8.643 5.234 20.276 3.131 30.098.35 20.255-5.736 39.913-13.5 61.121-15.953 15.182-1.746 31.769-.226 45.25 5.939 5.423 2.438 10.295 5.714 14.367 9.662 6.38 6.256 11.743 14.83 21.209 16.085 4.103.546 8.216-.491 12.001-1.835 14.267-5.074 25.706-14.507 39.16-20.971a67.111 67.111 0 0114.666-5.069c10.197-2.228 20.948-1.831 29.509 3.399 5.015 3.067 9.051 7.655 14.924 9.126 9.938 2.509 19.567-1.158 28.195-7.083 10.682-7.333 19.859-18.151 26.302-25.136l.648-.694c8.345-8.909 19.74-15.059 32.052-20.141 13.267-5.512 27.551-9.767 40.225-14.961 1.191-.486 2.366-.983 3.526-1.488a193.323 193.323 0 0025.904-13.695c11.54-7.275 22.072-15.652 31.402-24.977a164.189 164.189 0 0013.2-14.873 199.969 199.969 0 003.504-4.616c6.689-9.011 12.913-18.343 21.525-25.995l1.889-1.627c10.619-8.826 24.014-15.667 30.623-27.028 2.997-5.173 4.353-11.439 1.675-16.866-1.494-3.023-4.123-5.565-7.114-7.614z" fill="#BFDBD1"/><path d="M174.553 826.131s17.21-84.695-15.702-142.905c-13.959-24.323-19.822-52.7-16.707-80.869a226.327 226.327 0 018.289-39.442" stroke="#7FB7A2" stroke-width="1.491" stroke-miterlimit="10"/><path d="M129.894 526.144c.794 10.118 20.951 37.836 20.951 37.836s15.618-30.951 14.759-41.062a18.658 18.658 0 00-1.9-6.895 18.111 18.111 0 00-4.33-5.604 17.623 17.623 0 00-6.102-3.459 17.438 17.438 0 00-6.944-.789 17.689 17.689 0 00-6.731 2.003 18.229 18.229 0 00-5.491 4.489 18.719 18.719 0 00-3.416 6.291 18.894 18.894 0 00-.82 7.137l.024.053zM104.788 584.857c6.032 8.01 37.702 19.921 37.702 19.921s-3.264-34.536-9.299-42.53a17.854 17.854 0 00-5.256-4.686 17.472 17.472 0 00-6.619-2.251 17.484 17.484 0 00-6.973.528c-2.271.644-4.4 1.74-6.265 3.226a18.455 18.455 0 00-4.605 5.432 18.854 18.854 0 00-1.782 13.968 18.441 18.441 0 003.094 6.409l.003-.017zM113.597 680.499c9.092 3.746 42.477-2.431 42.477-2.431s-19.783-27.978-28.969-31.737a17.483 17.483 0 00-13.708.193c-4.378 1.927-7.843 5.556-9.635 10.087a18.842 18.842 0 00.083 14.073c1.845 4.48 5.353 8.011 9.752 9.815zM136.153 751.202c8.407 5.298 42.214 4.967 42.214 4.967s-14.841-31.052-23.306-36.275a17.506 17.506 0 00-6.579-2.626 17.47 17.47 0 00-7.076.205 17.846 17.846 0 00-6.466 3.003 18.409 18.409 0 00-4.848 5.332 18.853 18.853 0 00-2.179 14.085 18.435 18.435 0 003.008 6.553 17.881 17.881 0 005.255 4.826l-.023-.07zM180.12 603.391c-6.513 7.697-38.892 17.973-38.892 17.973s5.428-34.309 11.957-42.004c3.131-3.692 7.553-5.966 12.293-6.323a17.499 17.499 0 0112.981 4.419c3.571 3.187 5.753 7.709 6.065 12.573a18.828 18.828 0 01-4.404 13.362zM205.479 686.363c-8.448 5.396-42.267 5.247-42.267 5.247s15.164-31.148 23.623-36.508a17.738 17.738 0 016.563-2.519 17.457 17.457 0 0113.323 3.215 18.004 18.004 0 014.731 5.244 18.561 18.561 0 012.404 6.719 18.89 18.89 0 01-.292 7.172 18.79 18.79 0 01-2.941 6.532 18.324 18.324 0 01-5.144 4.898zM219.299 770.629c-7.452 6.74-40.843 12.504-40.843 12.504s9.829-33.223 17.305-40.025c3.581-3.235 8.256-4.886 12.997-4.591 4.74.296 9.158 2.513 12.281 6.165 3.123 3.652 4.695 8.44 4.371 13.309-.323 4.87-2.517 9.422-6.098 12.657l-.013-.019z" fill="#7FB7A2"/><path d="M574.151 469.686c.609.843.58 2.197 1.396 2.796.816.598 2.156-.067 2.891-.987 1.217-1.517 1.775-3.493 2.244-5.441.47-1.949.939-3.925 2.004-5.57 1.066-1.646 2.926-2.884 4.689-2.484 1.164.266 2.08 1.169 2.989 1.983a30.865 30.865 0 009.18 5.711c.976.382 2.026.719 3.049.437a2.452 2.452 0 001.318-.973 2.23 2.23 0 00.355-1.547c2.543-.051 4.838 2.432 4.766 5.216-.022.867-.238 1.73-.285 2.604-.146 2.714 1.603 5.359 4 6.025.457.147.948.159 1.404.034.727-.242 1.231-.95 1.686-1.618 1.902-2.782 3.835-5.634 4.799-8.934.495-1.891.823-3.821.981-5.77.259-2.385.509-4.87-.213-7.095-1.101-3.43-4.248-5.449-7.192-7.121a197.7 197.7 0 00-9.115-4.86 46.617 46.617 0 00-9.042-3.665c-5.524-1.387-11.334-1.019-16.505 1.046a16.59 16.59 0 00-5.863 3.631c-1.764 1.741-2.831 4.004-3.027 6.423-.098 1.889.453 3.719.554 5.593.158 3.053-.884 6.058-1.807 8.971a8.194 8.194 0 00-.555 3.621c.185 1.259 1.018 2.343 2.188 1.974 1.112-.281 2.162-1.305 3.111 0z" fill="#006F46"/></svg>