<svg width="1386" height="812" fill="none" xmlns="http://www.w3.org/2000/svg"><path d="M1361.19 158.264c-32.44-19.228-74.87-14.756-108.72-31.606a107.342 107.342 0 01-12.7-7.576c-17.52-11.945-32.17-27.93-50.4-39.097-34.16-20.958-73.73-22.183-113.99-16.224-30.42 4.54-61.17 13.235-90.135 20.72-73.777 19.034-154.376 28.3-228.014 3.496-49.099-16.545-91.769-47.104-139.175-67.803-47.406-20.7-105.656-30.416-148.19-4.748-45.657 27.546-58.388 86.185-100.348 118.314-45.033 34.475-113.745 31.242-161.019 63.124-60.065 40.506-65.902 121.54-103.495 181.237-18.048 28.667-43.601 52.439-63.148 80.201-21.731 30.926-35.649 66.234-40.75 103.383-1.708 12.669-2.234 26.381 4.436 37.89 5.775 9.929 16.097 16.849 26.37 22.865 38.147 22.298 84.416 40.885 101.78 79.506 16.019 35.628 6.616 85.665 42.881 104.494 21.828 11.339 48.301 3.302 70.329-6.042 45.432-19.273 88.823-43.571 137.524-54.704 34.864-7.943 74.045-7.891 107.46 4.704 13.426 4.957 25.837 12.179 36.592 21.294 16.876 14.462 32.117 35.061 54.6 36.078 9.746.443 19.012-3.144 27.414-7.439 31.672-16.207 55.356-42.864 84.69-62.422 10.027-6.728 20.983-12.202 32.603-16.288 23.081-8.022 48.29-9.488 69.926 1.86 12.678 6.654 23.553 17.409 37.723 19.801 23.983 4.099 45.282-7.455 63.526-24.532 22.588-21.134 40.555-50.797 53.365-70.067l1.29-1.918c16.636-24.609 41.263-42.895 68.375-58.672 29.19-17.093 61.17-31.219 89.08-47.365 2.62-1.513 5.21-3.047 7.75-4.602 19.89-12.155 38.64-25.813 56.08-40.843 24.61-21.183 46.51-44.941 65.32-70.838a397.486 397.486 0 0026.06-40.915c2.29-4.152 4.53-8.339 6.71-12.561 12.73-24.488 24.28-49.687 41.94-71.156 1.3-1.523 2.6-3.055 3.89-4.579 21.97-24.923 51.04-45.43 62.84-75.882 5.35-13.865 6.52-30.133-1.46-43.338-4.44-7.352-11.38-13.22-19.01-17.75z" fill="#EDEDED"/><path d="M703.026 212.515c-17.869-7.333-39.309-2.869-57.75-8.995a58.65 58.65 0 01-6.998-2.895c-9.751-4.701-18.299-11.478-28.362-15.771-18.864-8.059-39.216-6.456-59.453-1.405-15.284 3.834-30.471 9.658-44.822 14.81-36.555 13.106-77.24 21.954-116.577 14.249-26.229-5.141-50.077-17.287-75.709-24.492-25.632-7.206-56.104-8.601-76.222 5.929-21.596 15.593-24.3 44.124-43.704 61.687-20.825 18.848-56.235 21.107-78.376 38.847-28.133 22.539-25.849 61.317-41.22 91.722-7.38 14.601-18.923 27.293-27.13 41.547-9.118 15.877-13.95 33.401-14.145 51.311-.05 6.107.573 12.643 4.739 17.737 3.604 4.393 9.343 7.107 14.997 9.395 20.993 8.475 45.904 14.741 57.313 32.11 10.525 16.023 8.966 40.288 28.769 47.221 11.92 4.176 24.958-1.1 35.634-6.751 22.019-11.654 42.665-25.581 66.888-33.553 17.343-5.695 37.418-7.834 55.355-3.702 7.2 1.612 14.028 4.354 20.131 8.085 9.586 5.932 18.735 14.866 30.318 14.107 5.022-.328 9.535-2.542 13.56-5.044 15.169-9.44 25.567-23.398 39.32-34.299 4.699-3.747 9.955-6.949 15.642-9.53 11.301-5.081 24.12-7.169 35.942-2.979 6.927 2.459 13.199 6.962 20.613 7.314 12.553.622 22.711-6.038 30.946-15.149 10.195-11.277 17.469-26.345 22.776-36.198l.536-.981c6.921-12.597 18.346-22.635 31.206-31.619 13.845-9.723 29.303-18.192 42.552-27.396 1.246-.863 2.47-1.733 3.672-2.612 9.397-6.866 18.113-14.383 26.068-22.478 11.227-11.412 20.902-23.896 28.848-37.224a181.146 181.146 0 0010.688-20.855 223.508 223.508 0 002.618-6.331c4.931-12.325 9.209-24.921 16.856-36.084l1.695-2.388c9.63-13.04 23.189-24.377 27.253-39.48 1.836-6.875 1.377-14.66-3.568-20.486-2.757-3.244-6.695-5.645-10.899-7.374z" fill="#B2CDC4"/><path d="M299.575 414.14s15.314-73.584-13.095-124.134c-12.055-21.132-17.043-45.788-14.216-70.264a196.758 196.758 0 017.352-34.239" stroke="#7FB7A2" stroke-width="1.317" stroke-miterlimit="10"/><path d="M261.901 153.538c.654 8.788 18.082 32.858 18.082 32.858s13.657-26.898 13.002-35.687c-.366-4.177-2.325-8.017-5.451-10.691a15.187 15.187 0 00-11.257-3.594c-4.086.37-7.886 2.371-10.578 5.572a16.402 16.402 0 00-3.806 11.529l.008.013zM239.813 204.55c5.216 6.929 32.736 17.288 32.736 17.288s-2.712-30-7.922-36.949a15.455 15.455 0 00-4.542-4.214 15.167 15.167 0 00-5.803-2.061 15.27 15.27 0 00-6.157.416 15.68 15.68 0 00-5.548 2.827 16.147 16.147 0 00-4.072 4.796 16.415 16.415 0 00-1.959 6.015 16.3 16.3 0 00.46 6.294 15.867 15.867 0 002.807 5.588zM247.103 287.64c7.958 3.257 36.984-2.122 36.984-2.122s-17.139-24.305-25.086-27.605c-3.801-1.453-8.024-1.317-11.766.378-3.743 1.696-6.708 4.816-8.261 8.695a16.343 16.343 0 00-.05 12.058c1.521 3.852 4.461 6.922 8.19 8.553l-.011.043zM266.454 349.049c7.29 4.601 36.724 4.304 36.724 4.304s-12.846-26.967-20.134-31.578a15.182 15.182 0 00-11.873-2.099 15.638 15.638 0 00-5.641 2.608 16.138 16.138 0 00-4.242 4.63 16.419 16.419 0 00-1.964 12.233 15.927 15.927 0 002.585 5.695 15.44 15.44 0 004.547 4.197l-.002.01zM305.33 220.554c-5.708 6.677-33.926 15.626-33.926 15.626s4.865-29.803 10.565-36.494a15.927 15.927 0 014.842-3.836c1.84-.944 3.84-1.51 5.884-1.665a15.16 15.16 0 016.028.762 15.244 15.244 0 015.257 3.072 15.644 15.644 0 013.683 4.913 16.158 16.158 0 011.551 6.009 16.415 16.415 0 01-3.884 11.613zM327.053 292.707c-7.376 4.654-36.806 4.566-36.806 4.566s13.322-27.059 20.698-31.713c3.537-2.154 7.742-2.807 11.706-1.819 3.964.989 7.371 3.539 9.485 7.102 2.114 3.563 2.766 7.852 1.815 11.943-.951 4.09-3.428 7.654-6.898 9.921zM338.75 365.905c-6.51 5.849-35.601 10.86-35.601 10.86s8.696-28.93 15.224-34.808a15.76 15.76 0 015.297-3.206 15.34 15.34 0 016.068-.886c2.055.118 4.062.652 5.904 1.571a15.368 15.368 0 014.831 3.786 15.828 15.828 0 013.013 5.417c.643 1.997.892 4.109.733 6.215a16.443 16.443 0 01-1.662 6.056 16.208 16.208 0 01-3.799 4.963l-.008.032z" fill="#7FB7A2"/><path d="M191.868 526.102s4.07-75.05-31.62-120.751c-15.096-19.078-23.737-42.703-24.623-67.326a196.758 196.758 0 012.117-34.955" stroke="#7FB7A2" stroke-width="1.317" stroke-miterlimit="10"/><path d="M115.42 274.133c1.969 8.59 22.819 29.764 22.819 29.764s9.456-28.647 7.486-37.236c-.99-4.075-3.504-7.577-6.998-9.75a15.184 15.184 0 00-11.669-1.86c-3.984.98-7.439 3.531-9.619 7.099a16.404 16.404 0 00-2.029 11.971l.01.012zM101.258 327.888c6.198 6.064 34.964 12.166 34.964 12.166s-7.194-29.25-13.391-35.337a15.451 15.451 0 00-5.124-3.483 15.162 15.162 0 00-6.046-1.164c-2.073.03-4.122.484-6.025 1.337a15.689 15.689 0 00-5.06 3.629 16.172 16.172 0 00-3.304 5.354 16.436 16.436 0 00-1.032 6.242c.063 2.128.54 4.22 1.401 6.153a15.875 15.875 0 003.617 5.103zM120.964 408.935c8.357 2.022 36.244-7.661 36.244-7.661s-20.6-21.451-28.954-23.517c-3.975-.865-8.13-.096-11.575 2.143-3.445 2.239-5.907 5.771-6.859 9.838-.952 4.068-.319 8.35 1.765 11.929 2.083 3.579 5.451 6.172 9.383 7.224l-.004.044zM149.332 466.735c7.899 3.451 36.954-1.27 36.954-1.27s-16.757-24.727-24.655-28.19a15.19 15.19 0 00-12.055-.289 15.631 15.631 0 00-5.183 3.427 16.126 16.126 0 00-3.498 5.215 16.407 16.407 0 00-.101 12.389 15.913 15.913 0 003.411 5.241 15.465 15.465 0 005.128 3.466l-.001.011zM168.437 333.853c-4.639 7.46-31.19 20.552-31.19 20.552s.326-30.196 4.955-37.668a15.937 15.937 0 014.21-4.521 15.457 15.457 0 015.566-2.531 15.181 15.181 0 0111.733 2.093 15.632 15.632 0 014.381 4.303 16.143 16.143 0 012.437 5.707c.439 2.05.479 4.17.121 6.24a16.335 16.335 0 01-2.213 5.825zM200.766 401.918c-6.592 5.71-35.7 10.051-35.7 10.051s9.099-28.756 15.692-34.466c3.173-2.661 7.231-3.94 11.299-3.559 4.068.381 7.82 2.39 10.446 5.594 2.625 3.204 3.915 7.347 3.59 11.534-.325 4.186-2.238 8.082-5.327 10.846zM223.341 472.523c-5.556 6.761-33.563 16.092-33.563 16.092s4.246-29.909 9.815-36.702a15.77 15.77 0 014.755-3.967 15.337 15.337 0 015.866-1.788 15.149 15.149 0 016.073.665 15.376 15.376 0 015.345 3.016 15.818 15.818 0 013.794 4.902 16.27 16.27 0 011.659 6.034 16.448 16.448 0 01-.731 6.237 16.25 16.25 0 01-3.01 5.478l-.003.033z" fill="#7FB7A2"/><path d="M406.014 532.107c1.773 6.156 5.615 11.499 10.841 15.079 5.226 3.579 11.497 5.162 17.695 4.465 6.199-.696 11.922-3.626 16.151-8.267 4.229-4.642 6.688-10.693 6.94-17.077a27.742 27.742 0 00-5.564-17.779c-3.844-5.096-9.312-8.655-15.428-10.044a25.68 25.68 0 00-17.968 2.459c-5.485 2.977-9.731 7.865-11.981 13.795-2.096 5.526-2.338 11.632-.686 17.369z" fill="#BFDBD1"/><path d="M413.454 516.138l2.9 10.078M434.84 519.931l-8.24 9.893M420.154 507.422l13.466 1.707M445.16 518.902l3.86 15.866M442.965 541.608l-15.508-3.059M420.804 541.679l2.519 8.757M413.854 536.398l-6.664-.989M440.771 506.096l-2.559-7.195M447.143 513.484l7.927.041" stroke="#7FB7A2" stroke-width=".658" stroke-miterlimit="10"/><path d="M432.01 508.907l8.459-4.046 8.265 8.156-2.55 9.019-11.083-2.385-3.091-10.744zM414.985 513.199c-.759.877-1.404 1.765-1.757 2.568l-6.081-1.271c2.254-5.676 6.371-10.347 11.649-13.217l2.569 6.057-.111.087a62.113 62.113 0 00-3.432 2.909c-.973.889-1.988 1.886-2.837 2.867zM416.361 526.65l11.175 1.903 3.152 10.955-9.115 4.242-8.336-7.647 3.124-9.453zM455.946 533.755a26.292 26.292 0 01-4.857 8.665 25.572 25.572 0 01-7.666 6.153l-2.229-7.748 7.308-7.958 7.444.888z" fill="#7FB7A2" stroke="#7FB7A2" stroke-width=".658"/></svg>