<svg width="1411" height="1038" fill="none" xmlns="http://www.w3.org/2000/svg"><path d="M37.18 652.761c29.836 21.774 71.324 20.767 102.733 40.288a104.347 104.347 0 0111.674 8.572c15.982 13.313 28.852 30.416 45.585 43.011 31.362 23.636 69.613 28.068 109.131 25.405 29.855-2.05 60.383-8.209 89.081-13.308 73.09-12.958 151.978-15.638 221.279 15.031 46.206 20.457 85.013 54.34 129.233 78.793 44.219 24.454 99.863 38.856 143.227 16.758 46.547-23.713 63.776-81.051 107.121-109.627 46.526-30.662 112.846-21.864 161.326-49.763 61.59-35.444 74-115.635 115.41-172.007 19.89-27.071 46.63-48.659 67.89-74.708a238.632 238.632 0 0048.12-99.602c2.71-12.473 4.36-26.08-1.14-38.078-4.77-10.353-14.2-18.079-23.65-24.902-35.11-25.293-78.41-47.551-92.01-87.406-12.56-36.766.73-85.811-32.85-107.498-20.21-13.06-46.54-7.209-68.67.305-45.64 15.496-89.72 36.16-137.84 43.288-34.457 5.076-72.426 1.844-103.761-13.406-12.599-6.025-24.025-14.222-33.689-24.169-15.15-15.766-28.203-37.508-49.909-40.345-9.408-1.233-18.689 1.586-27.19 5.179-32.047 13.562-57.225 38.174-87.285 55.261-10.279 5.884-21.354 10.443-32.957 13.566-23.038 6.112-47.593 5.525-67.616-7.528-11.732-7.653-21.376-19.241-34.909-22.773-22.903-6.028-44.509 3.745-63.615 19.262-23.653 19.204-43.541 47.273-57.563 65.415l-1.41 1.804c-18.176 23.146-43.569 39.35-71.157 52.854-29.724 14.644-61.887 26.11-90.289 39.916a348.048 348.048 0 00-7.898 3.951 415.756 415.756 0 00-57.754 36.104c-25.617 19.088-48.829 40.96-69.21 65.212a397.483 397.483 0 00-28.671 38.612 503.418 503.418 0 00-7.548 11.959c-14.387 23.342-27.684 47.489-46.587 67.426l-4.152 4.242c-23.366 23.027-53.255 41.079-67.233 70.434-6.338 13.367-8.83 29.467-2.2 43.258 3.696 7.68 9.935 14.085 16.953 19.214z" fill="#EDEDED"/><path d="M1112.03 732.816c-5.03-.999-9.31-4.343-13.25-7.694-5.02-4.24-9.9-8.637-14.64-13.192-1.28-1.22-2.61-2.587-2.88-4.332-.25-1.57.42-3.136 1.08-4.586a706.33 706.33 0 019.97-21.128 48.748 48.748 0 014.37-7.636 48.316 48.316 0 015.14-5.561 784.836 784.836 0 0116.65-15.684c5.2-4.746 7.16-12.276 10.65-18.393.32-.677.79-1.266 1.39-1.715.78-.391 1.67-.53 2.54-.396 3.81.206 7.54 1.179 10.97 2.861 2.37 1.159 4.78 2.983 5.12 5.627.37 2.845-1.85 5.301-3.91 7.321a29.802 29.802 0 01-4.69 4.04c-2.35 1.511-5.07 2.327-7.5 3.716a36.76 36.76 0 00-5.53 4.181c-2.51 2.165-5.04 4.358-6.87 7.12-1.66 2.509-2.67 5.382-3.66 8.218l-5.57 15.926-3.05 8.727c-.19.365-.23.791-.11 1.185.13.394.4.724.76.918a33.514 33.514 0 016.46 8.213 9.433 9.433 0 011.33 3.586c.06 1.239-.09 2.478-.45 3.665-1.27 5.17-2.73 9.944-4.32 15.013zM1174.7 710.639c-.01.509-.12 1.01-.32 1.477a3.7 3.7 0 01-1.01 1.14 24.536 24.536 0 01-5.76 3.641c-.42.146-.8.394-1.1.721-.18.275-.31.584-.36.908-1.28 5.491.45 11.253 2.95 16.325a42.11 42.11 0 005.78 8.847 33.59 33.59 0 006.94 6.033c4.32 2.822 9.4 4.641 14.56 4.612 5.16-.028 10.39-2.103 13.8-5.976 3.99-4.536 5.11-10.87 5.77-16.876.4-3.579.7-7.316-.64-10.673a6.875 6.875 0 00-2.14-3.048c-1.42-1.068-3.34-1.285-4.77-2.34a4.977 4.977 0 01-1.44-1.711 4.966 4.966 0 01-.54-2.17c0-.641.08-1.275-.32-1.762a2.07 2.07 0 00-1.09-.548l-12.25-3.319c-4.43-1.19-8.94-2.395-13.55-2.481-1.53-.026-3.74-.393-4.35 1.319-.61 1.712-.01 4.137-.16 5.881z" fill="#BFDBD1"/><path d="M1160.1 941.604c-2.21 3.045-5.31 5.332-7.62 8.298-1.41 1.789-2.54 4.144-1.86 6.327.57 1.825 2.27 3.061 3.92 3.996a29.856 29.856 0 0014.79 3.768c.94.015 1.88-.093 2.8-.32 2.94-.813 4.94-3.527 6.32-6.242a15.216 15.216 0 011.76-3.006c1.41-1.654 3.56-2.428 5.47-3.438 1.9-1.009 3.86-2.565 4.1-4.736.02-.951-.05-1.902-.22-2.838-.16-1.741.22-3.482.35-5.221a19.12 19.12 0 00-.48-5.936 3.157 3.157 0 00-.8-1.636 3.229 3.229 0 00-1.33-.623 38.183 38.183 0 00-18.14-.614c-1.19.251-3.44.438-4.38 1.22-.78.656-.8 1.598-1.01 2.565a23.982 23.982 0 01-3.67 8.436zM1202.45 934.706c-1.56 6.522-3.12 13.076-5.78 19.229-.46 1.065-.96 2.242-.6 3.342.25.602.64 1.134 1.14 1.547 4.18 3.97 10.52 4.73 16.23 3.985a38.15 38.15 0 009.56-2.543c.35-.121.66-.309.94-.551.31-.337.54-.744.67-1.186a34.163 34.163 0 00-.58-24.5 10.087 10.087 0 00-2.03-3.353c-1.29-1.298-3.07-1.932-4.8-2.528-3.96-1.364-8.03-3.207-12.1-4.119-1.5 3.102-1.85 7.309-2.65 10.677z" fill="#006F46"/><path d="M1185.05 853.644c9.31 1.226 18.26 4.495 27.59 5.607 4.44.525 9.13.502 13-1.691 3.14-1.776 5.36-4.776 7.48-7.696 1.71-2.338 3.42-4.713 4.52-7.397 1.93-4.722 1.79-10.003 1.46-15.097-.26-3.965-.73-8.264-3.47-11.145-1.65-1.738-3.91-2.726-6.12-3.62-10.5-4.22-21.49-7.269-32.44-10.288-3.25-.904-6.51-1.803-9.83-2.386a52.537 52.537 0 00-24.41 1.494c-3.55 1.095-7.1 2.652-9.59 5.401-2.95 3.251-4.07 7.826-3.97 12.211.09 4.385 1.29 8.652 2.48 12.873l3.82 13.642c.81 2.875 1.01 7.906 4.35 8.856 3.19.911 8.44-1.008 11.75-1.201a86.05 86.05 0 0113.38.437z" fill="#409374"/><path d="M1191.32 717.144c14.06 1.357 26.57-8.947 27.92-23.014 1.36-14.068-8.94-26.571-23.01-27.928-14.07-1.358-26.57 8.946-27.93 23.013-1.35 14.068 8.95 26.572 23.02 27.929z" fill="#BFDBD1"/><path d="M1190.44 745.551l-9.84-13.665a38.627 38.627 0 00-2.82-3.608c-1.43-1.543-3.16-2.916-3.95-4.873-1.24-3.051.15-6.496.61-9.692.06-.307.03-.623-.09-.913-.11-.291-.3-.545-.55-.734-.69-.483-1.27-.046-1.89.177-1.48.537-3.19-.18-4.68.293-1.09.344-1.89 1.248-2.8 1.95-.9.702-2.16 1.228-3.17.695-.53-.282-.89-.805-1.4-1.11-1.25-.763-2.85.064-4.3-.076-1.27-.122-2.37-.972-3.54-1.521a15.614 15.614 0 00-4.03-1.031l-12.43-2.065c-1.13 9.226-.1 18.596 1.26 27.787 1.38 9.359 2.8 18.843 6.57 27.522 1.65 3.784 3.75 7.418 4 11.729.06 1.242-.1 2.484-.47 3.669-.13.52-.4.994-.78 1.369-1.01 4.239-.57 9.023 1.67 12.761 1.22 2.042 2.84 3.796 3.92 5.921 1.07 2.125 1.45 4.831.07 6.77 3.81 1.65 8.12-.07 12.22-.714 9.12-1.43 18.15 2.655 25.87 7.667 2.6 1.681 5.23 3.526 8.28 4.007 5.47.893 10.57-2.696 15.97-3.94 9.08-2.088 18.15 2.534 27.09 5.142 1.28.373 2.7.697 3.9.107 1.2-.59 1.85-2.035 2.12-3.388 1.02-5.035-1.28-10.062-2.26-15.103a29.83 29.83 0 014.26-21.506 19.722 19.722 0 003.23-12.103c-.02-.258-.03-.516-.05-.768l-1.17-20.887a35.456 35.456 0 00-.91-7.254c-1.44-5.342-5.34-9.754-9.91-12.871-4.57-3.116-9.77-5.093-14.99-7.014a93.597 93.597 0 00-13.15-4.124c-.63-.132-1.41-.226-1.87.23-.26.3-.42.676-.45 1.073-.41 2.527.34 5.063.21 7.597-.19 3.613-2.15 6.895-4.39 9.739-4.29 5.425-9.13 9.745-15.36 12.755z" fill="#409374"/><path d="M1138.29 712.394c-1.24-1.711-3.39-2.438-5.4-3.088l-5.3-1.659c-.99-.352-2.02-.592-3.07-.713-.76-.074-1.54.006-2.3-.081a11.641 11.641 0 01-3.33-1.059l-9.24-3.991c2.75 4.719 2.58 10.514 2.1 15.942a60.561 60.561 0 01-.92 6.968c-.49 2.467-1.24 4.929-1.13 7.449.13 2.919 1.33 6.184-.4 8.539-.91 1.24-2.43 1.857-3.88 2.365a83.113 83.113 0 0125.88 13.493c1.84 1.423 3.66 2.952 5.82 3.828 1.41.515 2.86.885 4.35 1.105l4.69.87c1.9-11.192-.52-22.608-2.93-33.702-.63-2.891-1.26-5.787-2.09-8.633-.74-2.56-1.3-5.469-2.85-7.633zM1189.06 815.383c-12.56-6.101-27.24-9.397-40.56-5.196-2.29.729-4.82 2.018-5.28 4.38-.2 1.09.09 2.208.2 3.31.38 3.475-.95 6.882-1.51 10.337-.57 3.455-.09 7.563 2.84 9.501.31 13.888 2.22 27.205 6.93 40.272.82 1.98 1.4 4.048 1.75 6.162.25 2.141-.06 4.306-.17 6.457-.36 6.554 1.03 13.065 2.4 19.479.26 1.391.64 2.757 1.14 4.081 1.16 2.806 3.36 5.065 4.79 7.725 1.44 2.661 2.09 6.232.14 8.559-1.15 1.365 2.31 2.629 4.08 2.832 7.76.895 15.57 1.336 23.38 1.319.31.056.62.051.93-.015.3-.067.59-.193.85-.373.26-.179.47-.408.64-.673.17-.264.28-.56.33-.868 1.02-2.629 2.05-5.454 1.43-8.202-.33-1.457-1.13-2.862-.96-4.347.12-1.272 1.02-2.391 1.44-3.627 1.31-3.806-1.67-7.578-3.8-10.992-4.45-7.139-5.65-15.789-6.7-24.147a3000.917 3000.917 0 01-3.95-32.742c1.82 1.741 1.36 4.301 3.1 6.124 2.05 2.123 5.91 1.29 7.82-.977 1.91-2.267 2.34-5.407 2.56-8.37.73-9.854-1.28-20.455-3.82-30.009zM1205.99 820.654c3.89-7.414 11.84-12.774 20.21-12.686 8.36.089 16.55 6.178 18.23 14.373.35 1.96.51 3.947.48 5.936.3 19.918-1.64 40.165-8.4 58.933-1.39 3.87-2.99 7.693-3.74 11.727-.75 4.034-.56 8.408 1.45 11.99.55 1.002 1.29 1.972 1.49 3.108.24 1.306-.21 2.597-.66 3.836l-5.66 15.616a6.26 6.26 0 01-1.54 2.687c-1.33 1.155-3.31 1.022-5.07.673a38.196 38.196 0 01-13.04-5.217c-3.62-2.319-7.21-6.06-6.57-10.335.16-1.068.58-2.15.31-3.178a6.947 6.947 0 00-1.32-2.052c-1.99-2.694-2.15-6.398-1.23-9.613.92-3.216 2.8-6.069 4.65-8.855 1.84-2.786.31-6.816.11-10.062-.67-11.241 4.03-22.516 1.96-33.584-2.48 1.769-6.21 2.782-8.35.625-1.92-1.929-1.36-5.109-.67-7.763 2.31-8.766 3.16-18.134 7.36-26.159z" fill="#409374"/><path d="M1106.47 657.895c-1.26-.218-1.53-1.976-.91-3.059.61-1.082 1.75-1.755 2.59-2.688 2.35-2.571 2.03-6.483 2.17-9.959.22-5.24 1.8-10.324 3.36-15.331.79-2.529 1.61-5.119 3.26-7.211a11.179 11.179 0 013.55-2.98 11.218 11.218 0 014.44-1.298 6.184 6.184 0 011.65-2.93 6.195 6.195 0 012.95-1.618c2.34-.4 4.74-.068 6.88.952.3.161.63.24.96.228.37-.1.71-.301.97-.581a6.304 6.304 0 017.99.129c3.35-12.72 6.84-25.273 10.46-37.915.61-2.11 1.54-4.291 3.13-5.819 1.29-1.255 3-2.276 4.79-2.059.72.123 1.41.347 2.07.668 1.49.657 3.07 1.438 3.87 2.85.46.894.72 1.875.77 2.877.25 2.535.15 5.093-.3 7.6-.73 3.998-1.41 7.91-1.83 11.955-.79 7.111-3.27 13.896-5.04 20.835-2.07 8.204-3.11 16.778-6.84 24.361-3.41 7.004-9 12.958-11.26 20.42-1.1 3.628-1.16 8.042 1.54 10.689-.19 1.06-1.67.95-2.73.84l-5.72-.552a65.272 65.272 0 01-7.77-1.115c-8.79-1.989-16.15-7.769-25-9.289z" fill="#006F46"/><path d="M1252.72 774.006c.22 3.798.27 7.624.16 11.445-.12 2.584-.38 5.134-.48 7.723-.37 9.631 1.51 19.34.46 28.838-1.53-1.736-3.3-2.661-5.12-2.67.72-2.818-.19-6.262-1.63-7.94-1.43-1.678-3.22-2.039-4.95-2.245-4.81-.573-9.7-.352-14.37 2.19a.49.49 0 01-.32.144.49.49 0 01-.33-.13c-.25-.306-.18-.987-.14-1.522.44-4.631-2-8.522-2.27-13.175-.18-3.356.79-6.555 1.56-9.663 2.92-11.685 3.32-24.735 4.96-37.177.93-7.041 2.54-14.472 6-18.264 1.58-1.587 3.38-2.354 5.18-2.212 1.8.141 3.54 1.184 5.01 3.011 6.76 8.325 5.75 28.808 6.28 41.647z" fill="#409374"/><path d="M1173.44 684.488c.72.866.78 2.329 1.7 2.916.93.588 2.32-.223 3.05-1.267 1.21-1.721 1.67-3.89 2.04-6.024.37-2.134.73-4.298 1.77-6.147 1.03-1.849 2.95-3.314 4.88-3.007 1.27.205 2.32 1.114 3.36 1.928a33.35 33.35 0 0010.3 5.511c1.08.344 2.23.634 3.32.257a2.661 2.661 0 001.35-1.142c.3-.515.39-1.112.27-1.692 2.74-.234 5.39 2.282 5.51 5.288.04.937-.14 1.883-.12 2.828.03 2.936 2.1 5.666 4.73 6.215.5.126 1.03.104 1.52-.063.76-.312 1.26-1.11 1.7-1.862 1.86-3.133 3.74-6.345 4.55-9.97.4-2.074.62-4.178.65-6.29.11-2.59.21-5.287-.73-7.635-1.43-3.62-4.96-5.576-8.25-7.172a215.215 215.215 0 00-10.17-4.598 50.402 50.402 0 00-10.01-3.316c-6.05-1.108-12.29-.302-17.72 2.288a18.014 18.014 0 00-6.07 4.327c-1.78 2.001-2.77 4.516-2.81 7.138.03 2.044.75 3.978.99 5.991.39 3.281-.53 6.594-1.32 9.799a8.922 8.922 0 00-.34 3.943c.29 1.345 1.26 2.455 2.5 1.975 1.18-.382 2.24-1.559 3.35-.219z" fill="#006F46"/><path d="M398.306 890.02l13.817 25.637s3.794 9.454.653 15.7c-3.14 6.247-1.765 18.864-1.765 18.864s-5.935 20.805-11.058 30.609c-5.123 9.804-1.145 23.69-1.145 23.69l-21.955 3.53s7.778-17.362 4.756-29.911c-3.022-12.548 5.731-36.051 5.404-43.921-.073-1.745 1.89-5.764-2.598-11.251-4.489-5.487-21.201-19.214-21.147-27.522l35.038-5.425zM285.596 888.593s-7.664 11.934-8.143 23.261a48.447 48.447 0 01-1.565 10.458 21.712 21.712 0 00.184 12.122 55.493 55.493 0 012.062 9.669 64.23 64.23 0 005.101 18.29c4.292 9.659 9.951 22.848 10.363 25.534.611 4.344 3.163 14.723 3.163 14.723l17.244 5.84s-5.618-12.44-6.125-24.652c-.508-12.211 2.378-24.563-7.841-44.244 0 0-.647-5.216 2.45-13.208 3.098-7.993 15.374-29.041 15.374-29.041l-32.267-8.752z" fill="#BFDBD1"/><g opacity=".1" fill="#000"><path opacity=".1" d="M309.935 830.345c-.301 3.096-11.185 27.561-15.265 31.658-3.744 3.763-10.184 29.02-11.214 33.113-.762.186-1.514.392-2.263.649 0 0 7.271-29.578 11.35-33.684 4.08-4.107 14.962-28.592 15.265-31.658.055-.609 2.531-.927 6.438-1.028-2.634.161-4.252.454-4.311.95zM341.851 881.883c5.954-1.121 18.402 13.214 23.509 23.487.295.594.588 1.137.889 1.649 2.841 4.816 5.885 6.128 7.966 6.381-1.357.313-5.97.721-10.093-6.293a26.465 26.465 0 01-.888-1.649c-4.683-9.426-15.577-22.254-21.908-23.45l.525-.125zM313.641 902.136l-.073-.069c-1.41-.969-12.322-7.711-23.971-7.668 12.411-.959 24.594 6.522 26.098 7.58l.073.068c1.285 1.324-3.799 9.41-5.05 11.312-.786.218-1.584.385-2.39.5 0 0 6.776-10.221 5.313-11.723z"/></g><path d="M413.025 661.323s-1.106-26.608-18.133-27.216c-17.027-.607-22.636 8.805-19.156 9.534 3.481.729 18.112 6.237 18.112 6.237l10.006 15.753 9.171-4.308zM259.65 673.821s-1.107-26.608 15.811-28.628c16.918-2.019 23.289 6.895 19.881 7.91-3.408 1.016-17.531 7.72-17.531 7.72l-8.663 16.529-9.498-3.531zM337.608 698.104s-.553 17.498 10.477 27.092c11.03 9.594-23.666 23.701-23.666 23.701l-16.503-18.535s12.403-8.38 5.102-21.624l24.59-10.634z" fill="#BFDBD1"/><path d="M341.84 717.622l.18.229-.18-.229z" fill="#D39999"/><path d="M319.628 720.491c11.485-.478 20.398-10.435 19.907-22.24-.491-11.805-10.2-20.987-21.685-20.51-11.485.478-20.398 10.435-19.907 22.24.491 11.805 10.2 20.987 21.685 20.51z" fill="#BFDBD1"/><path d="M318.106 686.087c.269 2.158.515 4.46-.373 6.43a11.588 11.588 0 01-1.887 2.71l-4.221 4.811a11.814 11.814 0 00-2.917 4.644c-1.079 4.363 2.813 8.487 2.881 12.997a5.716 5.716 0 01-2.718 2.45 5.536 5.536 0 01-3.61.26 10.879 10.879 0 01-2.749-1.418l-4.326-2.77c-3.339-2.143-6.836-4.465-8.616-8.07-1.868-3.798-1.475-8.296-1.732-12.541a67.34 67.34 0 01-.433-7.763 23.37 23.37 0 011.701-7.205c1.693-4.571 4.613-8.553 8.423-11.483a17.363 17.363 0 016.386-3.037 17.165 17.165 0 017.039-.225c.755.21 1.533.319 2.314.326 1.508-.063 2.763-1.143 4.125-1.806a8.415 8.415 0 015.518-.491 8.635 8.635 0 014.68 3.058c.974 1.296 1.569 2.864 2.582 4.117 1.507 1.87 3.885 2.994 4.945 5.16 1.06 2.166.516 4.717.825 7.089a19.963 19.963 0 002.141 6.027c-2.392-.743-3.65-3.343-5.222-5.313a13.324 13.324 0 00-4.485-3.434 12.97 12.97 0 00-5.46-1.23c-1.3-.007-3.711-.01-4.697 1.049-1.265 1.327-.35 4.075-.114 5.658z" fill="#006F46"/><g opacity=".1" fill="#000"><path opacity=".1" d="M342.009 717.833a3.882 3.882 0 01-.191-.239l.191.239zM268.237 674.921a5.38 5.38 0 003.724-1.614l-.336 1.782a5.845 5.845 0 01-3.388-.168zM345.477 719.949c11.33 16.335-12.56 18.552-12.56 18.552a12.879 12.879 0 01-5.467-.174c1.11.088 2.225.042 3.324-.138 0 0 25.604-2.37 11.236-20.327a6.902 6.902 0 003.467 2.087zM302.025 721.438a17.446 17.446 0 01-5.128-.414c.996.136 2.003.159 3.003.071a27.158 27.158 0 017.891.483 24.346 24.346 0 00-5.766-.14zM247.955 699.211l10.629-30.591a22.14 22.14 0 001.617 1.855l-10.103 29.038c-4.565 12.864 2.405 16.943 2.405 16.943l36.601 31.69c13.796 4.668 16.636 32.078 16.636 32.078 5.956 10.237-.35 52.89-.35 52.89 5.75 9.372 13.407 13.834 21.545 15.469-8.92-1.181-17.425-5.628-23.66-15.823 0 0 6.307-42.643.35-52.89 0 0-2.84-27.41-16.636-32.079l-36.629-31.637s-6.97-4.078-2.405-16.943zM399.374 660.143c.885.309 1.795.536 2.718.679 4.827 4.003 7.838 38.642 7.838 38.642l-21.628 11.385s-22.064.917-31.173 6.981c-4.457 2.971-7.703 3.054-9.902 2.375 2.002.04 4.545-.611 7.718-2.716 9.099-6.063 31.173-6.981 31.173-6.981l21.628-11.385s-3.208-37.447-8.372-38.98zM403.118 660.954c3.243.296 7.656-.37 9.233-5.719l1.112 2.677c-2.617 4.18-7.74 3.643-10.345 3.042z"/></g><path d="M291.234 583.199c.353 8.785 3.73 17.163 9.529 23.641 5.799 6.478 13.643 10.634 22.133 11.728 8.491 1.094 17.077-.946 24.228-5.755s12.403-12.076 14.818-20.504a38.08 38.08 0 00-1.629-25.518c-3.467-8.046-9.599-14.572-17.302-18.414-7.703-3.842-16.478-4.752-24.759-2.566-8.282 2.186-15.532 7.325-20.46 14.501-4.582 6.672-6.887 14.718-6.558 22.887z" fill="#BFDBD1"/><path d="M306.33 564.324l.599 14.386M333.612 576.317l-14.194 10.521M318.089 554.882l17.407 6.636M347.715 578.29l-.008 22.409M337.424 607.85l-19.69-9.1M307.846 600.765l.519 12.488M300.298 591.466l-8.565-3.478M346.006 559.797l-1.074-10.43M352.112 571.714l10.55 2.624" stroke="#7FB7A2" stroke-width=".284" stroke-miterlimit="10"/><path d="M354.908 571.595l-8.675-14.05-13.275 2.793.664 15.977 14.616 7.081 6.67-11.801zM297.791 560.27l8.549 4.054c2.636-3.954 13.951-8.907 13.951-8.907l-1.606-9.77c-8.461 2.116-15.883 7.31-20.894 14.623zM321.528 585.144l-14.909-6.421-7.595 12.158 8.968 13.39 14.214-2.832-.678-16.295zM334.848 606.035l.492 11.811a35.54 35.54 0 0012.914-5.929 36.586 36.586 0 009.691-10.584l-10.372-3.875-12.725 8.577z" fill="#7FB7A2"/><path d="M250.36 716.154l36.602 31.689c13.795 4.669 16.636 32.079 16.636 32.079 5.956 10.237-.351 52.89-.351 52.89 21.456 34.941 69.395 2.356 69.395 2.356s.048-1.256.116-3.469c.059-1.935.138-4.61.216-7.79.108-4.116.222-9.086.298-14.475.18-11.777.219-25.492-.231-36.328-.998-23.991 13.878-34.221 13.878-34.221l25.732-17.784 8.575-5.928c9.171-4.319 10.032-14.397 10.032-14.397l-18.896-45.532c-2.436 8.263-11.648 5.367-12.845 4.954 5.088 2.111 8.29 38.932 8.29 38.932l-21.629 11.385s-22.063.917-31.172 6.981c-7.786 5.155-11.844 1.623-12.893.443 14.187 17.913-11.33 20.218-11.33 20.218-13.505 2.309-17.206-15.011-17.206-15.011s-7.346-2.779-13.687-2.052c-6.34.726-19.354-5.363-19.354-5.363l-14.122-12.518 5.554-29.949c-5.772 5.483-13.376-4.686-13.376-4.686l-10.628 30.591c-4.574 12.906 2.396 16.985 2.396 16.985z" fill="#409374"/><path d="M313.641 902.137c1.463 1.501-5.322 11.734-5.322 11.734s10.995-1.331 11.517-9.216a9.99 9.99 0 01.35-1.937c2.227-7.998 14.102-19.706 19.539-20.734 5.954-1.122 18.402 13.214 23.509 23.486.295.595.588 1.138.889 1.649 4.918 8.348 10.488 6.184 10.488 6.184-3.153-3.672-3.897-6.653-3.059-9.124 3.322-9.564 31.148-10.444 31.148-10.444s-13.981-29.568-19.218-32.845c-5.237-3.277-14.392-29.118-14.392-29.118s-60.981-4.454-61.274-1.389c-.292 3.066-11.185 27.562-15.265 31.658s-11.35 33.684-11.35 33.684c14.245-4.961 30.604 5.059 32.356 6.302l.084.11z" fill="#409374"/><path d="M397.458 997.331l12.515 19.799s5.739 5.01 9.946 3.96c4.206-1.05 8.994 11.86-8.517 9.96-17.51-1.89-38.276-10.64-38.276-10.64s-2.642-17.59 6.951-21.873l17.381-1.206zM294.467 994.623l-8.208 22.407s-2.29 6.27-7.382 6.48c-5.091.21-6.335 11.19 10.146 8.76 16.48-2.44 28.227-16.47 28.227-16.47s-2.148-20.884-9.841-21.88a31.748 31.748 0 00-12.942.703z" fill="#006F46"/></svg>