<svg width="271" height="271" fill="none" xmlns="http://www.w3.org/2000/svg">
<circle cx="131.5" cy="131.5" r="127.5" fill="#BFDBD1" stroke="#7FB7A2" stroke-width="8"/>
<mask id="path-2-inside-1" fill="white">
<path fill-rule="evenodd" clip-rule="evenodd" d="M162.508 152.681L197.23 187.403C199.931 190.104 199.94 194.474 197.207 197.207C194.493 199.921 190.055 199.882 187.403 197.23L152.681 162.508C130.873 179.481 99.3274 177.944 79.282 157.899C57.5727 136.189 57.5727 100.991 79.282 79.282C100.991 57.5727 136.189 57.5727 157.899 79.282C177.944 99.3274 179.481 130.873 162.508 152.681ZM148.072 148.072C164.354 131.79 164.354 105.391 148.072 89.1091C131.79 72.8271 105.391 72.8271 89.1091 89.1091C72.8271 105.391 72.8271 131.79 89.1091 148.072C105.391 164.354 131.79 164.354 148.072 148.072Z"/>
</mask>
<path fill-rule="evenodd" clip-rule="evenodd" d="M162.508 152.681L197.23 187.403C199.931 190.104 199.94 194.474 197.207 197.207C194.493 199.921 190.055 199.882 187.403 197.23L152.681 162.508C130.873 179.481 99.3274 177.944 79.282 157.899C57.5727 136.189 57.5727 100.991 79.282 79.282C100.991 57.5727 136.189 57.5727 157.899 79.282C177.944 99.3274 179.481 130.873 162.508 152.681ZM148.072 148.072C164.354 131.79 164.354 105.391 148.072 89.1091C131.79 72.8271 105.391 72.8271 89.1091 89.1091C72.8271 105.391 72.8271 131.79 89.1091 148.072C105.391 164.354 131.79 164.354 148.072 148.072Z" fill="#006F46" stroke="#BFDBD1" stroke-width="2" mask="url(#path-2-inside-1)"/>
</svg>
