<svg width="1440" height="795" viewBox="0 0 1440 795" fill="none" xmlns="http://www.w3.org/2000/svg">
<rect width="1440" height="795" fill="#E5E5E5"/>
<g clip-path="url(#clip0)">
<rect y="-75" width="1440" height="1267" fill="white"/>
<rect y="-75" width="1440" height="1246" fill="#FBFBFB"/>
<path d="M1859.08 61.7258C1804.12 31.6289 1732.25 38.6283 1674.89 12.2542C1667.41 8.74893 1660.22 4.78537 1653.38 0.395355C1623.7 -18.3017 1598.87 -43.3238 1568 -60.8019C1510.12 -93.6073 1443.08 -95.5249 1374.87 -86.1969C1323.34 -79.0914 1271.24 -65.4809 1222.17 -53.7649C1097.18 -23.9711 960.633 -9.46733 835.877 -48.2916C752.695 -74.19 680.404 -122.022 600.091 -154.422C519.777 -186.822 421.092 -202.032 349.032 -161.854C271.681 -118.738 250.113 -26.9517 179.026 23.3389C102.732 77.3027 -13.6781 72.2409 -93.7683 122.145C-195.528 185.548 -205.416 312.389 -269.105 405.83C-299.682 450.703 -342.973 487.911 -376.089 531.367C-412.905 579.775 -436.483 635.042 -445.128 693.188C-448.02 713.019 -448.911 734.482 -437.611 752.498C-427.828 768.039 -410.339 778.87 -392.936 788.288C-328.308 823.189 -249.921 852.283 -220.504 912.736C-193.365 968.503 -209.295 1046.82 -147.856 1076.3C-110.875 1094.05 -66.0262 1081.47 -28.7062 1066.84C48.2635 1036.67 121.775 998.64 204.282 981.214C263.347 968.781 329.727 968.861 386.337 988.576C409.083 996.335 430.109 1007.64 448.331 1021.91C476.921 1044.54 502.742 1076.79 540.831 1078.38C557.343 1079.07 573.042 1073.46 587.276 1066.73C640.933 1041.37 681.059 999.641 730.755 969.027C747.742 958.496 766.303 949.928 785.99 943.533C825.093 930.976 867.802 928.682 904.457 946.443C925.935 956.86 944.36 973.693 968.366 977.437C1009 983.854 1045.08 965.768 1075.99 939.038C1114.26 905.958 1144.7 859.528 1166.4 829.364L1168.58 826.363C1196.77 787.843 1238.49 759.219 1284.42 734.524C1333.88 707.77 1388.05 685.659 1435.34 660.386C1439.79 658.017 1444.16 655.616 1448.48 653.183C1482.17 634.156 1513.94 612.778 1543.48 589.253C1585.17 556.095 1622.28 518.907 1654.13 478.371C1670.29 457.817 1685.04 436.435 1698.29 414.328C1702.17 407.829 1705.96 401.275 1709.65 394.667C1731.23 356.337 1750.8 316.893 1780.71 283.288C1782.91 280.904 1785.11 278.506 1787.31 276.122C1824.52 237.109 1873.78 205.011 1893.77 157.345C1902.83 135.643 1904.81 110.178 1891.3 89.5097C1883.77 78.0018 1872.01 68.8172 1859.08 61.7258Z" fill="#EDEDED"/>
<g clip-path="url(#clip1)">
<path d="M1221.31 648.755C1370.26 648.755 1491 606.31 1491 553.951C1491 501.593 1370.26 459.148 1221.31 459.148C1072.37 459.148 951.623 501.593 951.623 553.951C951.623 606.31 1072.37 648.755 1221.31 648.755Z" fill="#B2CDC4"/>
<path d="M939.831 70.0657C933.625 69.8502 927.265 70.0657 921.444 72.2371C905.606 78.1428 898.098 97.4617 900.539 114.193C902.98 130.925 913.021 145.455 923.439 158.768C933.856 172.081 945.144 185.224 950.858 201.117C953.707 209.055 955.039 217.948 952.144 225.871C947.678 238.091 934.211 244.921 921.283 246.338C908.355 247.754 895.373 244.99 882.399 244.028C876.955 243.643 871.357 243.596 866.229 245.383C860.6 247.331 855.911 251.304 851.599 255.446C834.775 271.693 821.308 293.869 823.487 317.153C825.951 343.548 847.927 364.414 871.996 375.602C879.965 379.313 888.397 382.316 895.411 387.614C913.891 401.581 918.041 427.753 916.201 450.86C914.361 473.967 908.093 497.097 911.581 520.004C915.685 546.646 933.849 570.708 958.35 581.949C980.179 591.959 1007.5 591.335 1026.88 577.175C1036.33 570.246 1043.47 560.69 1049.68 550.78C1059.06 535.83 1066.67 519.841 1072.36 503.134C1075.06 495.196 1077.6 486.656 1083.91 481.136C1087.76 477.74 1092.75 475.838 1097.69 474.36C1112.56 469.909 1128.23 468.685 1143.25 464.727C1158.26 460.77 1173.37 453.393 1181.53 440.203C1193.08 421.485 1187.69 397.547 1187.74 375.525C1187.83 325.353 1217.86 280.432 1228.94 231.539C1232.56 215.554 1233.9 197.867 1225.82 183.615C1220.32 173.89 1211.06 166.96 1201.32 161.57C1179.91 149.682 1155.58 144.392 1131.64 139.241C1098.37 132.095 1057.97 131.171 1032.18 108.057C1007.44 85.8812 973.58 70.0657 939.831 70.0657Z" fill="#B2CDC4"/>
<g opacity="0.5">
<path opacity="0.5" d="M1060.52 264.263C1060.52 252.17 1058.62 240.151 1054.91 228.643L1045.67 199.992C1045.67 199.515 1045.67 199.045 1045.67 198.576C1045.95 180.212 1031.64 171.049 1026.12 172.042C1020.48 173.058 1004.82 165.205 1004.82 165.205V165.42C1003.74 164.184 1002.78 162.86 1001.92 161.463C1004.63 159.492 1006.91 157 1008.64 154.134C1010.37 151.267 1011.51 148.084 1011.99 144.771C1012.47 141.459 1012.29 138.083 1011.45 134.843C1010.6 131.603 1009.12 128.564 1007.09 125.905C1008.78 124.633 1010.07 122.901 1010.81 120.915C1012.09 117.32 1011.11 113.216 1009.03 110.012C1008.15 108.675 1007.11 107.443 1005.95 106.34C1004.19 104.595 1002.27 103.022 1000.21 101.643C995.07 98.0854 989.426 95.0286 983.266 93.9429C982.2 93.6912 981.09 93.6912 980.024 93.9429C979.099 94.3162 978.219 94.7914 977.399 95.3596C973.179 97.762 967.928 96.7225 963.062 96.4684C958.195 96.2143 952.282 97.5772 950.742 102.143C950.265 103.552 950.295 105.077 949.972 106.524C949.202 110.066 946.469 112.815 944.359 115.764C942.249 118.713 940.671 122.694 942.426 125.897C943.027 126.975 943.966 127.968 943.966 129.2C943.966 130.086 943.443 130.879 943.196 131.726C942.665 133.651 943.666 135.576 945.206 136.969C945.869 137.685 946.651 138.281 947.516 138.733C949.957 139.98 952.767 140.365 955.254 141.52C956.496 142.103 957.634 142.883 958.627 143.83C959.842 145.102 960.792 146.604 961.421 148.247C962.051 149.89 962.346 151.642 962.292 153.401L962.808 153.455C962.808 153.609 962.808 153.755 962.808 153.909C963.347 153.971 963.916 154.025 964.479 154.048C965.287 155.353 966.212 156.582 967.243 157.72C967.068 158.377 966.871 159.045 966.65 159.722C964.84 160.977 950.041 170.833 933.21 168.462C915.246 165.928 904.974 244.467 904.974 244.467C904.309 248.958 903.984 253.493 904.004 258.034C903.927 269.583 906.353 284.698 919.866 282.473L927.05 280.109V318.955C927.05 318.955 928.074 329.596 924.486 336.664C920.898 343.733 935.781 341.222 935.781 341.222C935.781 341.222 936.351 341.815 937.398 342.824L937.067 343.756L937.506 344.202C935.549 350.894 932.909 357.368 929.629 363.521L930.053 363.737C929.783 364.253 929.629 364.507 929.629 364.507C929.629 364.507 935.158 367.332 942.765 370.974C948.879 391.641 962.261 439.503 957.857 448.619L957.98 448.881C958.804 450.591 963.408 460.67 962.477 469.902C961.637 478.156 973.064 515.662 977.33 529.283L975.312 529.691L982.496 555.531L980.956 572.255C980.956 572.255 972.232 595.563 992.76 591.004C1013.29 586.446 1007.64 567.697 1007.64 567.697L1008.16 529.691C1008.16 529.691 1006.18 528.59 1003.74 527.535C1002.06 523 998.404 512.281 998.404 504.866C998.404 495.242 991.728 453.686 991.728 453.686V453.601V453.439V453.393L991.69 452.839V452.746C991.69 452.231 991.605 451.522 991.543 450.66V450.614C990.773 439.38 988.463 401.212 990.15 381.315C991.633 380.304 993.175 379.384 994.77 378.559C999.767 391.186 1012.65 425.304 1011.82 439.618C1010.8 457.328 1011.57 443.422 1011.82 441.158C1011.9 440.458 1011.96 441.305 1011.98 443.206C1011.98 443.553 1011.98 443.938 1011.98 444.346C1011.98 444.754 1011.98 445.208 1011.98 445.678C1011.98 446.148 1011.98 446.656 1011.98 447.218C1011.98 447.485 1011.98 447.757 1011.98 448.034C1011.98 448.589 1011.98 449.169 1011.98 449.774C1011.98 450.077 1011.98 450.385 1011.98 450.698C1011.98 452.238 1011.98 453.948 1011.92 455.726C1011.92 456.081 1011.92 456.44 1011.92 456.804C1011.92 457.89 1011.92 458.999 1011.87 460.123C1011.87 461.663 1011.81 463.157 1011.78 464.704C1011.7 468.169 1011.6 471.673 1011.48 474.953C1011.48 475.317 1011.47 475.679 1011.44 476.038C1011.41 476.757 1011.39 477.46 1011.35 478.148C1011.32 478.836 1011.29 479.508 1011.26 480.166C1011.23 480.817 1011.2 481.451 1011.16 482.067C1011.12 482.791 1011.08 483.484 1011.04 484.146L1008.25 483.746L1007.66 490.152C1006.73 500.323 1008.04 510.575 1011.51 520.181C1012.46 522.815 1013.2 524.994 1013.36 525.771C1013.88 528.305 1013.36 546.561 1013.36 546.561C1013.36 546.561 1016.44 570.377 1030.82 565.811C1037.29 563.755 1040.43 557.502 1041.93 551.235C1043.6 543.969 1042.98 536.366 1040.15 529.467C1038.11 524.339 1036.03 517.148 1037.5 511.588C1040.06 501.964 1040.06 488.281 1040.06 488.281L1038.47 488.058C1038.87 487.306 1039.23 486.535 1039.54 485.748C1039.54 485.748 1039.03 450.783 1043.65 446.225C1046.19 443.715 1045.96 437.686 1045.19 432.758C1044.09 425.626 1043.83 418.39 1044.42 411.198C1044.73 407.495 1045.19 404.268 1045.72 403.121C1047.07 400.442 1048.43 373.431 1042.43 360.433L1043.66 360.048L1043.47 359.094L1043.66 359.032C1044.57 361.447 1045.6 363.814 1046.74 366.124C1047.05 366.361 1047.39 366.534 1047.77 366.632C1064.39 363.714 1065.06 348.198 1064.14 339.729C1064.84 340.067 1065.22 340.283 1065.22 340.283L1066.76 317.954C1068.34 314.389 1068.93 309.838 1068.89 304.918C1068.96 287.331 1060.52 264.263 1060.52 264.263ZM1042.19 327.732C1041.05 318.007 1039.47 308.852 1039.47 308.852L1031.77 281.487V271.524L1043.99 317.107L1042.19 327.732Z" fill="url(#paint0_linear)"/>
</g>
<path d="M1007.57 477.209L1007 483.469C1006.11 493.415 1007.38 503.438 1010.74 512.844C1011.66 515.423 1012.37 517.548 1012.53 518.31C1013.02 520.79 1012.53 538.615 1012.53 538.615C1012.53 538.615 1015.5 561.891 1029.36 557.433C1035.6 555.431 1038.6 549.31 1040.08 543.188C1041.69 536.089 1041.08 528.67 1038.36 521.922C1036.39 516.909 1034.37 509.864 1035.79 504.451C1038.27 495.042 1038.27 481.675 1038.27 481.675L1007.57 477.209Z" fill="#409374"/>
<path d="M992.721 369.75C992.721 369.75 1012.03 416.796 1011.04 434.121C1010.05 451.445 1010.79 437.832 1011.04 435.607C1011.48 431.641 1011.04 478.726 1009.55 484.116C1009.55 484.116 1029.86 498.968 1037.78 479.164C1037.78 479.164 1037.29 445 1041.74 440.542C1044.19 438.094 1043.95 432.196 1043.22 427.383C1042.16 420.422 1041.9 413.36 1042.45 406.34C1042.75 402.721 1043.17 399.533 1043.71 398.447C1045.2 395.475 1046.68 361.804 1037.77 352.395L992.721 369.75Z" fill="#006F46"/>
<path d="M975.882 522.268L982.812 547.523L981.326 563.862C981.326 563.862 972.91 586.639 992.714 582.18C1012.52 577.722 1007.07 559.404 1007.07 559.404L1007.57 522.268C1007.57 522.268 999.644 517.81 996.179 518.31C992.714 518.811 975.882 522.268 975.882 522.268Z" fill="#409374"/>
<path d="M941.718 357.869C941.718 357.869 964.494 431.649 959.05 443.037C959.05 443.037 964.494 453.932 963.508 463.826C962.523 473.721 979.354 526.711 979.354 526.711L1004.12 522.253C1004.12 522.253 998.173 507.4 998.173 497.991C998.173 488.581 991.736 447.942 991.736 447.942C991.736 447.942 986.292 373.662 992.729 365.739L941.718 357.869Z" fill="#006F46"/>
<g opacity="0.1">
<path opacity="0.1" d="M990.804 371.775C986.7 388.592 991.235 450.475 991.235 450.475C991.235 450.475 997.672 491.076 997.672 500.524C997.672 507.708 1001.13 518.056 1002.77 522.553L1004.11 522.314C1004.11 522.314 998.165 507.461 998.165 498.052C998.165 488.643 991.728 448.003 991.728 448.003C991.728 448.003 987.585 391.448 990.804 371.775Z" fill="black"/>
<path opacity="0.1" d="M959.05 443.037L959.173 443.291C959.212 443.037 959.25 442.768 959.273 442.521C959.208 442.697 959.133 442.869 959.05 443.037Z" fill="black"/>
<path opacity="0.1" d="M991.605 368.172C991.83 367.318 992.208 366.511 992.721 365.792L941.718 357.869C941.718 357.869 942.018 358.832 942.534 360.549L991.605 368.172Z" fill="black"/>
</g>
<path d="M1060.56 331.128C1060.56 331.128 1067.99 358.847 1045.7 362.82C1045.34 362.726 1045 362.559 1044.71 362.328C1044.71 362.328 1031.84 337.072 1041.74 327.17L1060.56 331.128Z" fill="#A1616A"/>
<path d="M969.445 146.941C969.445 146.941 970.931 167.73 954.592 177.64C938.253 187.549 989.241 214.776 989.241 214.776L1015.98 172.188C1015.98 172.188 1004.6 173.659 997.672 153.871L969.445 146.941Z" fill="#BFDBD1"/>
<path d="M958.55 178.117C958.55 178.117 983.805 230.607 1006.58 181.089L1041.74 355.39C1041.74 355.39 987.262 372.23 986.777 380.153C986.292 388.076 931.823 359.848 931.823 359.848C931.823 359.848 943.704 338.058 940.74 324.691C937.775 311.324 958.55 178.117 958.55 178.117Z" fill="#7FB7A2"/>
<path d="M983.312 536.135C983.312 536.135 976.875 521.775 991.728 521.775C1006.58 521.775 1004.11 534.649 1004.11 534.649L983.312 536.135Z" fill="#409374"/>
<path d="M1016.98 498.991C1016.98 498.991 1011.04 483.638 1025.9 483.145C1040.76 482.652 1033.33 497.005 1033.33 497.005L1016.98 498.991Z" fill="#409374"/>
<path opacity="0.1" d="M1004.36 166.96C1004.36 166.96 1019.46 174.66 1024.91 173.644C1030.36 172.627 1044.71 182.059 1043.72 200.878L1052.67 228.951C1056.25 240.208 1058.07 251.95 1058.06 263.762C1058.06 263.762 1070.94 299.412 1064.01 315.259L1062.52 337.049C1062.52 337.049 1051.13 330.612 1039.24 332.591L1042.24 314.797L1028.84 264.278L1006.56 210.302L1004.36 166.96Z" fill="black"/>
<path d="M1004.36 165.982C1004.36 165.982 1019.46 173.682 1024.91 172.666C1030.36 171.649 1044.71 181.082 1043.72 199.9L1052.67 227.973C1056.25 239.23 1058.07 250.972 1058.06 262.784C1058.06 262.784 1070.94 298.434 1064.01 314.281L1062.52 336.071C1062.52 336.071 1051.13 329.634 1039.24 331.613L1042.22 313.788L1028.84 263.285L1006.58 209.309L1004.36 165.982Z" fill="#409374"/>
<path d="M1030.38 223.677V279.632L1037.81 306.373C1037.81 306.373 1042.76 335.586 1041.28 344.502C1039.79 353.419 1016.02 355.398 1009.58 347.967C1003.15 340.537 1006.61 277.129 1006.61 277.129L1005.37 184.285L1030.38 223.677Z" fill="#409374"/>
<path d="M929.336 267.743V316.252C929.336 316.252 930.329 326.654 926.857 333.584C923.384 340.514 937.752 338.042 937.752 338.042C937.752 338.042 972.909 375.179 995.193 357.353C995.193 357.353 997.672 281.587 992.713 263.762C987.755 245.937 963.993 185.994 963.993 185.994L959.042 170.148L932.801 185.001L929.336 267.743Z" fill="#409374"/>
<path d="M959.935 245.729C959.935 245.729 975.389 225.41 986.769 235.165C998.149 244.921 964.016 262.8 964.016 262.8L959.935 245.729Z" fill="#BFDBD1"/>
<path d="M967.712 160.539C967.712 160.539 952.613 171.68 935.281 169.201C917.948 166.721 908.046 243.481 908.046 243.481C908.046 243.481 901.609 283.096 922.407 279.632L968.459 264.278C968.459 264.278 958.557 253.876 960.043 240.509L937.752 249.425L938.753 206.838L964.009 186.048L967.712 160.539Z" fill="#409374"/>
<path opacity="0.1" d="M996.163 131.718C1001.91 130.74 1008.22 128.192 1010.15 122.694C1011.38 119.175 1010.44 115.171 1008.43 112.037C1006.42 108.904 1003.46 106.494 1000.41 104.338C995.462 100.857 990.003 97.8698 984.044 96.8226C983.016 96.5769 981.945 96.5769 980.917 96.8226C980.024 97.1884 979.174 97.6533 978.384 98.2086C974.311 100.557 969.244 99.5406 964.524 99.2942C959.805 99.0478 954.145 100.38 952.659 104.838C952.197 106.216 952.228 107.702 951.889 109.119C951.119 112.584 948.509 115.279 946.499 118.166C944.49 121.054 942.942 124.958 944.636 128.068C945.213 129.123 946.176 130.093 946.176 131.295C946.027 132.148 945.768 132.979 945.406 133.766C944.705 136.323 946.746 138.902 949.102 140.119C951.458 141.335 954.168 141.712 956.571 142.844C958.819 143.954 960.702 145.686 961.994 147.834C963.287 149.983 963.935 152.458 963.862 154.964C966.049 155.218 968.598 155.349 970.076 153.716C970.738 152.985 971.062 152.007 971.662 151.229C972.432 150.213 973.633 149.612 974.619 148.796C979.801 144.538 976.12 138.656 979.054 134.067C980.594 131.703 983.043 132.427 985.522 132.465C989.084 132.548 992.647 132.298 996.163 131.718Z" fill="black"/>
<path d="M1075.91 458.306C1076.22 458.306 1076.51 458.184 1076.73 457.967C1076.94 457.751 1077.07 457.457 1077.07 457.151C1077.07 456.844 1076.94 456.551 1076.73 456.334C1076.51 456.117 1076.22 455.996 1075.91 455.996C1075.6 455.996 1075.31 456.117 1075.09 456.334C1074.88 456.551 1074.76 456.844 1074.76 457.151C1074.76 457.457 1074.88 457.751 1075.09 457.967C1075.31 458.184 1075.6 458.306 1075.91 458.306Z" fill="black"/>
<path d="M1424.29 566.527H1017.74V324.752L1221.01 168.446L1424.29 324.752V566.527Z" fill="#BFDBD1"/>
<path d="M1409.66 552.197H1032.37V327.825L1221.01 182.768L1409.66 327.825V552.197Z" fill="#7FB7A2"/>
<path d="M1285.01 179.415L1054.86 239.75L1131.6 532.462L1361.75 472.127L1285.01 179.415Z" fill="#409374"/>
<path d="M1341.13 223.885H1103.21V526.488H1341.13V223.885Z" fill="#E3FBF2"/>
<path d="M1019.66 325.137L1222.94 446.025L1019.66 566.912V325.137Z" fill="#7FB7A2"/>
<path d="M1018.12 325.137L1221.4 446.025L1018.12 566.912V325.137Z" fill="#BFDBD1"/>
<path d="M1423.13 325.137L1219.86 446.025L1423.13 566.912V325.137Z" fill="#7FB7A2"/>
<path d="M1424.67 325.137L1221.4 446.025L1424.67 566.912V325.137Z" fill="#BFDBD1"/>
<path d="M1018.12 563.062L1221.4 404.446L1424.67 563.062H1018.12Z" fill="#8CB7A7"/>
<path d="M1018.12 566.912L1221.4 408.295L1424.67 566.912H1018.12Z" fill="#BFDBD1"/>
<path opacity="0.5" d="M1212.54 243.904H1117.07V251.604H1212.54V243.904Z" fill="#A9C3B9"/>
<path opacity="0.5" d="M1323.42 268.544H1117.07V276.244H1323.42V268.544Z" fill="#A9C3B9"/>
<path opacity="0.5" d="M1323.42 288.563H1117.07V296.263H1323.42V288.563Z" fill="#A9C3B9"/>
<path opacity="0.4" d="M1323.42 308.583H1117.07V316.283H1323.42V308.583Z" fill="#A9C3B9"/>
<path opacity="0.4" d="M1323.42 328.602H1117.07V336.302H1323.42V328.602Z" fill="#A9C3B9"/>
<path opacity="0.3" d="M1234.87 348.622H1117.07V356.322H1234.87V348.622Z" fill="#A9C3B9"/>
<path opacity="0.3" d="M1277.99 368.641H1117.07V376.341H1277.99V368.641Z" fill="#A9C3B9"/>
<path d="M986.777 167.23C1000.45 167.23 1011.54 156.143 1011.54 142.467C1011.54 128.791 1000.45 117.704 986.777 117.704C973.101 117.704 962.014 128.791 962.014 142.467C962.014 156.143 973.101 167.23 986.777 167.23Z" fill="#BFDBD1"/>
<path d="M995.67 131.225C1001.41 130.248 1007.73 127.699 1009.65 122.201C1010.88 118.682 1009.95 114.678 1007.94 111.545C1005.93 108.411 1002.97 106.001 999.92 103.845C994.969 100.365 989.51 97.377 983.551 96.3298C982.523 96.0842 981.452 96.0842 980.424 96.3298C979.531 96.6956 978.681 97.1605 977.891 97.7158C973.818 100.064 968.752 99.0479 964.032 98.8015C959.312 98.5551 953.652 99.8871 952.166 104.345C951.704 105.724 951.735 107.21 951.396 108.626C950.626 112.091 948.016 114.786 946.006 117.674C943.997 120.561 942.449 124.465 944.143 127.576C944.72 128.631 945.683 129.601 945.683 130.802C945.534 131.656 945.276 132.486 944.913 133.274C944.212 135.83 946.253 138.409 948.609 139.626C950.965 140.842 953.675 141.22 956.078 142.352C958.335 143.46 960.226 145.195 961.523 147.35C962.82 149.505 963.469 151.988 963.392 154.502C965.579 154.756 968.128 154.887 969.606 153.255C970.268 152.523 970.592 151.545 971.192 150.768C971.962 149.751 973.164 149.151 974.149 148.334C979.331 144.076 975.651 138.194 978.584 133.605C980.124 131.241 982.573 131.965 985.052 132.003C988.608 132.075 992.163 131.814 995.67 131.225Z" fill="#006F46"/>
<circle cx="1353.39" cy="265.964" r="45.8139" fill="#409374"/>
<path d="M1345.04 284.194C1346.03 285.104 1347.39 285.504 1348.71 285.38C1350.02 285.256 1351.28 284.556 1352.09 283.529L1375.83 252.767C1377.44 250.661 1377.04 247.634 1374.93 246.037C1372.82 244.44 1369.78 244.833 1368.17 246.939L1347.6 273.599L1336.13 263.428C1334.16 261.66 1331.1 261.842 1329.32 263.806C1327.54 265.77 1327.72 268.816 1329.69 270.585L1345.04 284.194Z" fill="#E3FBF2"/>
<path d="M1118.75 710.295C1121.44 719.639 1127.27 727.75 1135.21 733.183C1143.14 738.616 1152.66 741.018 1162.07 739.961C1171.47 738.904 1180.16 734.457 1186.58 727.412C1193 720.367 1196.73 711.181 1197.12 701.492C1197.5 691.803 1194.51 682.239 1188.67 674.505C1182.83 666.77 1174.54 661.368 1165.25 659.259C1155.97 657.151 1146.3 658.474 1137.98 662.992C1129.65 667.511 1123.21 674.931 1119.79 683.932C1116.61 692.318 1116.25 701.588 1118.75 710.295Z" fill="#BFDBD1"/>
<path d="M1130.05 686.056L1134.45 701.353" stroke="#7FB7A2" stroke-width="0.658252" stroke-miterlimit="10"/>
<path d="M1162.51 691.814L1150 706.83" stroke="#7FB7A2" stroke-width="0.658252" stroke-miterlimit="10"/>
<path d="M1140.21 672.826L1160.65 675.417" stroke="#7FB7A2" stroke-width="0.658252" stroke-miterlimit="10"/>
<path d="M1178.17 690.252L1184.03 714.334" stroke="#7FB7A2" stroke-width="0.658252" stroke-miterlimit="10"/>
<path d="M1174.84 724.717L1151.3 720.072" stroke="#7FB7A2" stroke-width="0.658252" stroke-miterlimit="10"/>
<path d="M1141.2 724.825L1145.03 738.116" stroke="#7FB7A2" stroke-width="0.658252" stroke-miterlimit="10"/>
<path d="M1130.65 716.809L1120.54 715.307" stroke="#7FB7A2" stroke-width="0.658252" stroke-miterlimit="10"/>
<path d="M1171.51 670.814L1167.63 659.893" stroke="#7FB7A2" stroke-width="0.658252" stroke-miterlimit="10"/>
<path d="M1181.18 682.028L1193.21 682.09" stroke="#7FB7A2" stroke-width="0.658252" stroke-miterlimit="10"/>
<path d="M1158.01 674.988L1171.09 668.733L1183.79 681.269L1179.85 695.209L1162.77 691.533L1158.01 674.988Z" fill="#7FB7A2" stroke="#7FB7A2" stroke-width="0.658252"/>
<path d="M1132.5 681.707C1131.31 683.083 1130.32 684.462 1129.8 685.688L1120.24 683.689C1123.68 674.893 1130.05 667.663 1138.24 663.264L1142.26 672.749C1142.19 672.806 1142.1 672.877 1141.99 672.961C1141.69 673.199 1141.26 673.543 1140.73 673.971C1139.68 674.827 1138.27 676.02 1136.79 677.369C1135.32 678.717 1133.78 680.224 1132.5 681.707Z" fill="#7FB7A2" stroke="#7FB7A2" stroke-width="0.658252"/>
<path d="M1134.34 701.819L1151.55 704.751L1156.41 721.622L1142.34 728.17L1129.52 716.412L1134.34 701.819Z" fill="#7FB7A2" stroke="#7FB7A2" stroke-width="0.658252"/>
<path d="M1194.77 712.652C1193.15 717.583 1190.62 722.135 1187.3 726.058C1183.99 729.979 1179.95 733.197 1175.43 735.536L1171.96 723.482L1183.18 711.27L1194.77 712.652Z" fill="#7FB7A2" stroke="#7FB7A2" stroke-width="0.658252"/>
</g>
<g filter="url(#filter0_d)">
<rect y="-75" width="1440" height="75" fill="white"/>
</g>
</g>
<defs>
<filter id="filter0_d" x="-6.25" y="-75" width="1452.5" height="87.5" filterUnits="userSpaceOnUse" color-interpolation-filters="sRGB">
<feFlood flood-opacity="0" result="BackgroundImageFix"/>
<feColorMatrix in="SourceAlpha" type="matrix" values="0 0 0 0 0 0 0 0 0 0 0 0 0 0 0 0 0 0 127 0"/>
<feOffset dy="6.25"/>
<feGaussianBlur stdDeviation="3.125"/>
<feColorMatrix type="matrix" values="0 0 0 0 0 0 0 0 0 0 0 0 0 0 0 0 0 0 0.25 0"/>
<feBlend mode="normal" in2="BackgroundImageFix" result="effect1_dropShadow"/>
<feBlend mode="normal" in="SourceGraphic" in2="effect1_dropShadow" result="shape"/>
</filter>
<linearGradient id="paint0_linear" x1="904.012" y1="342.716" x2="1068.8" y2="342.716" gradientUnits="userSpaceOnUse">
<stop stop-color="#808080" stop-opacity="0.25"/>
<stop offset="0.54" stop-color="#808080" stop-opacity="0.12"/>
<stop offset="1" stop-color="#808080" stop-opacity="0.1"/>
</linearGradient>
<clipPath id="clip0">
<rect y="-75" width="1440" height="1267" fill="white"/>
</clipPath>
<clipPath id="clip1">
<rect x="823.255" y="70" width="667.745" height="679.731" fill="white"/>
</clipPath>
</defs>
</svg>
