<?xml version="1.0" encoding="UTF-8" standalone="no"?>
<svg
   xmlns:dc="http://purl.org/dc/elements/1.1/"
   xmlns:cc="http://creativecommons.org/ns#"
   xmlns:rdf="http://www.w3.org/1999/02/22-rdf-syntax-ns#"
   xmlns:svg="http://www.w3.org/2000/svg"
   xmlns="http://www.w3.org/2000/svg"
   xmlns:sodipodi="http://sodipodi.sourceforge.net/DTD/sodipodi-0.dtd"
   xmlns:inkscape="http://www.inkscape.org/namespaces/inkscape"
   sodipodi:docname="treiner_horizontal_lockup.svg"
   inkscape:version="1.0 (4035a4f, 2020-05-01)"
   id="svg8"
   version="1.1"
   viewBox="0 0 99.483116 26.766308"
   height="26.766308mm"
   width="99.483116mm">
  <defs
     id="defs2">
    <clipPath
       clipPathUnits="userSpaceOnUse"
       id="clipPath621">
      <path
         d="M 0,0 H 1920 V 1080 H 0 Z"
         id="path619" />
    </clipPath>
    <clipPath
       clipPathUnits="userSpaceOnUse"
       id="clipPath641">
      <path
         d="M 0,0 H 1920 V 1080 H 0 Z"
         id="path639" />
    </clipPath>
  </defs>
  <sodipodi:namedview
     inkscape:window-maximized="1"
     inkscape:window-y="23"
     inkscape:window-x="0"
     inkscape:window-height="799"
     inkscape:window-width="1440"
     showgrid="false"
     inkscape:document-rotation="0"
     inkscape:current-layer="layer1"
     inkscape:document-units="mm"
     inkscape:cy="89.655407"
     inkscape:cx="195.54984"
     inkscape:zoom="2.0957915"
     inkscape:pageshadow="2"
     inkscape:pageopacity="0.0"
     borderopacity="1.0"
     bordercolor="#666666"
     pagecolor="#ffffff"
     id="base" />
  <metadata
     id="metadata5">
    <rdf:RDF>
      <cc:Work
         rdf:about="">
        <dc:format>image/svg+xml</dc:format>
        <dc:type
           rdf:resource="http://purl.org/dc/dcmitype/StillImage" />
        <dc:title></dc:title>
      </cc:Work>
    </rdf:RDF>
  </metadata>
  <g
     transform="translate(-49.288199,-117.39661)"
     id="layer1"
     inkscape:groupmode="layer"
     inkscape:label="Layer 1">
    <g
       id="g599"
       transform="matrix(0.35277777,0,0,-0.35277777,128.73753,125.02991)">
      <path
         d="m 0,0 v -32.758 h -7.98 l -13.346,20.205 v -20.205 h -7.979 V 0 h 7.979 L -7.98,-20.299 V 0 Z"
         style="fill:#1a4c2e;fill-opacity:1;fill-rule:nonzero;stroke:none"
         id="path601" />
    </g>
    <g
       id="g603"
       transform="matrix(0.35277777,0,0,-0.35277777,116.37553,125.02991)">
      <path
         d="M 0,0 H -7.98 V -32.757 L 0,-31.698 Z"
         style="fill:#1a4c2e;fill-opacity:1;fill-rule:nonzero;stroke:none"
         id="path605" />
    </g>
    <g
       id="g607"
       transform="matrix(0.35277777,0,0,-0.35277777,104.65512,125.02991)">
      <path
         d="m 0,0 v -32.758 h 20.066 v 6.393 H 7.98 v 7.186 h 10.686 v 6.159 H 7.98 v 6.627 H 19.202 L 20.051,0 Z"
         style="fill:#1a4c2e;fill-opacity:1;fill-rule:nonzero;stroke:none"
         id="path609" />
    </g>
    <g
       id="g611"
       transform="matrix(0.35277777,0,0,-0.35277777,130.7955,125.02991)">
      <path
         d="m 0,0 v -32.758 h 20.066 v 6.393 H 7.98 v 7.186 h 10.686 v 6.159 H 7.98 v 6.627 H 19.215 L 20.064,0 Z"
         style="fill:#1a4c2e;fill-opacity:1;fill-rule:nonzero;stroke:none"
         id="path613" />
    </g>
    <g
       transform="matrix(0.35277777,0,0,-0.35277777,-124.10211,367.14087)"
       id="g615">
      <g
         id="g617"
         clip-path="url(#clipPath621)">
        <g
           id="g623"
           transform="translate(631.415,686.4595)">
          <path
             d="m 0,0 c 8.026,0 12.039,-4.62 12.039,-10.313 0,-4.106 -2.239,-7.979 -7.279,-9.473 l 7.56,-12.972 H 3.313 L -3.5,-20.392 h -1.913 v -12.366 h -7.98 V 0 Z m -0.467,-6.626 h -4.946 v -8.12 h 4.946 c 2.987,0 4.387,1.54 4.387,4.107 0,2.426 -1.4,4.013 -4.387,4.013"
             style="fill:#1a4c2e;fill-opacity:1;fill-rule:nonzero;stroke:none"
             id="path625" />
        </g>
        <g
           id="g627"
           transform="translate(761.1805,686.4595)">
          <path
             d="m 0,0 c 8.026,0 12.039,-4.62 12.039,-10.313 0,-4.106 -2.239,-7.979 -7.279,-9.473 l 7.559,-12.972 H 3.313 L -3.5,-20.392 h -1.913 v -12.366 h -7.98 V 0 Z m -0.467,-6.626 h -4.946 v -8.12 h 4.946 c 2.987,0 4.387,1.54 4.387,4.107 0,2.426 -1.4,4.013 -4.387,4.013"
             style="fill:#1a4c2e;fill-opacity:1;fill-rule:nonzero;stroke:none"
             id="path629" />
        </g>
      </g>
    </g>
    <g
       id="g631"
       transform="matrix(0.35277777,0,0,-0.35277777,83.57915,124.97321)">
      <path
         d="m 0,0 0.849,-6.393 h 7.799 v -26.365 h 7.979 v 26.365 h 7.802 L 25.278,0 Z"
         style="fill:#1a4c2e;fill-opacity:1;fill-rule:nonzero;stroke:none"
         id="path633" />
    </g>
    <g
       transform="matrix(0.35277777,0,0,-0.35277777,-124.10211,367.14087)"
       id="g635">
      <g
         id="g637"
         clip-path="url(#clipPath641)">
        <g
           id="g643"
           transform="translate(491.5001,707.9365)">
          <path
             d="m 0,0 c 0.291,-11.773 2.131,-27.147 8.482,-40.528 12.342,-26.003 34.803,-35.345 34.803,-35.345 0,0 22.461,9.342 34.803,35.345 6.35,13.381 8.191,28.755 8.482,40.528 z"
             style="fill:#1a4c2e;fill-opacity:1;fill-rule:nonzero;stroke:none"
             id="path645" />
        </g>
        <g
           id="g647"
           transform="translate(534.785,635.8408)">
          <path
             d="m 0,0 -0.209,0.087 c -0.207,0.086 -5.151,2.169 -11.523,7.142 -3.738,2.917 -7.183,6.225 -10.24,9.831 -3.821,4.509 -7.042,9.5 -9.575,14.836 -2.598,5.475 -4.568,11.785 -5.855,18.754 -1.019,5.518 -1.613,11.45 -1.766,17.63 l -0.014,0.556 H 39.182 L 39.168,68.28 C 39.016,62.1 38.421,56.168 37.403,50.65 36.115,43.681 34.145,37.371 31.547,31.896 29.014,26.56 25.793,21.569 21.972,17.06 18.915,13.454 15.47,10.146 11.732,7.229 5.36,2.256 0.416,0.173 0.209,0.087 Z m -38.067,67.75 c 0.282,-9.655 1.832,-23.442 7.502,-35.389 C -24.93,20.487 -16.867,12.619 -11.096,8.11 -5.556,3.781 -1.009,1.633 0,1.181 c 1.009,0.452 5.556,2.6 11.096,6.929 5.771,4.509 13.834,12.377 19.469,24.251 5.67,11.947 7.22,25.734 7.502,35.389 z"
             style="fill:#e5e5e5;fill-opacity:1;fill-rule:nonzero;stroke:none"
             id="path649" />
        </g>
        <g
           id="g651"
           transform="translate(532.5258,653.8354)">
          <path
             d="m 0,0 c 0,-0.639 -0.107,-1.253 -0.303,-1.825 -0.758,-2.208 -2.851,-3.795 -5.316,-3.795 -2.464,0 -4.557,1.587 -5.315,3.795 -0.196,0.572 -0.303,1.186 -0.303,1.825 0,0.639 0.107,1.252 0.303,1.824 0.543,1.582 1.772,2.846 3.334,3.434 0.616,0.233 1.284,0.36 1.981,0.36 0.698,0 1.366,-0.127 1.982,-0.36 C -2.075,4.67 -0.846,3.406 -0.303,1.824 -0.107,1.252 0,0.639 0,0"
             style="fill:#e1681c;fill-opacity:1;fill-rule:nonzero;stroke:none"
             id="path653" />
        </g>
      </g>
    </g>
    <g
       id="g655"
       transform="matrix(0.35277777,0,0,-0.35277777,76.17385,120.23089)">
      <path
         d="m 0,0 -0.941,-7.093 -0.471,-3.539 h -18.285 v -43.847 l -10.633,-8.14 v 55.526 h -5.158 V -37.265 H -46.12 v 26.633 H -64.44 L -64.91,-7.093 -65.853,0 Z"
         style="fill:#e5e5e5;fill-opacity:1;fill-rule:nonzero;stroke:none"
         id="path657" />
    </g>
  </g>
</svg>
