<?xml version="1.0" encoding="UTF-8" standalone="no"?>
<svg
   xmlns:dc="http://purl.org/dc/elements/1.1/"
   xmlns:cc="http://creativecommons.org/ns#"
   xmlns:rdf="http://www.w3.org/1999/02/22-rdf-syntax-ns#"
   xmlns:svg="http://www.w3.org/2000/svg"
   xmlns="http://www.w3.org/2000/svg"
   xmlns:sodipodi="http://sodipodi.sourceforge.net/DTD/sodipodi-0.dtd"
   xmlns:inkscape="http://www.inkscape.org/namespaces/inkscape"
   width="73.687508mm"
   height="29.660185mm"
   viewBox="0 0 73.687507 29.660185"
   version="1.1"
   id="svg4329"
   inkscape:version="0.92.2 5c3e80d, 2017-08-06"
   sodipodi:docname="logo-black.svg">
  <defs
     id="defs4323" />
  <sodipodi:namedview
     id="base"
     pagecolor="#ffffff"
     bordercolor="#666666"
     borderopacity="1.0"
     inkscape:pageopacity="0.0"
     inkscape:pageshadow="2"
     inkscape:zoom="2.8"
     inkscape:cx="114.90091"
     inkscape:cy="27.092559"
     inkscape:document-units="mm"
     inkscape:current-layer="layer1"
     showgrid="false"
     inkscape:window-width="1440"
     inkscape:window-height="790"
     inkscape:window-x="0"
     inkscape:window-y="1"
     inkscape:window-maximized="1" />
  <metadata
     id="metadata4326">
    <rdf:RDF>
      <cc:Work
         rdf:about="">
        <dc:format>image/svg+xml</dc:format>
        <dc:type
           rdf:resource="http://purl.org/dc/dcmitype/StillImage" />
        <dc:title></dc:title>
      </cc:Work>
    </rdf:RDF>
  </metadata>
  <g
     inkscape:label="Layer 1"
     inkscape:groupmode="layer"
     id="layer1"
     transform="translate(-48.974136,-211.86763)">
    <path
       inkscape:connector-curvature="0"
       id="path3795"
       style="fill:#000000;fill-opacity:1;fill-rule:nonzero;stroke:none;stroke-width:0.9130463"
       d="m 81.813503,224.08356 v 6.02154 h -2.006877 v -6.02154 h -1.648963 v -1.70009 h 5.3048 v 1.70009 z" />
    <path
       inkscape:connector-curvature="0"
       id="path3807"
       style="fill:#000000;fill-opacity:1;fill-rule:nonzero;stroke:none;stroke-width:0.9130463"
       d="m 86.360015,225.83386 h 0.378912 c 0.396263,0 0.700308,-0.0813 0.911222,-0.24562 0.212747,-0.16357 0.317739,-0.39899 0.317739,-0.7067 0,-0.30677 -0.105002,-0.54235 -0.317739,-0.70579 -0.210909,-0.16435 -0.514959,-0.24639 -0.911222,-0.24639 h -0.378912 z m 4.413664,4.27124 h -2.498095 l -1.915569,-2.97015 v 2.97015 h -2.006877 v -7.72165 h 3.123532 c 0.42913,0 0.804393,0.0629 1.1267,0.18997 0.320479,0.12501 0.585261,0.29857 0.792524,0.5168 0.209097,0.21819 0.366132,0.47113 0.472044,0.75691 0.105002,0.2876 0.158862,0.59531 0.158862,0.92219 0,0.58801 -0.142427,1.06368 -0.425479,1.42799 -0.283044,0.36613 -0.701221,0.61358 -1.254526,0.74322 z" />
    <path
       inkscape:connector-curvature="0"
       id="path3811"
       style="fill:#000000;fill-opacity:1;fill-rule:nonzero;stroke:none;stroke-width:0.9130463"
       d="m 96.006714,224.08356 h -2.385789 v 1.29015 h 2.252483 v 1.69915 h -2.252483 v 1.33123 h 2.385789 v 1.70101 h -4.39358 v -7.72163 h 4.39358 z" />
    <path
       inkscape:connector-curvature="0"
       id="path3813"
       style="fill:#000000;fill-opacity:1;fill-rule:nonzero;stroke:none;stroke-width:0.9130463"
       d="m 99.45739,230.10492 h -2.006877 v -7.72163 h 2.006877 z" />
    <path
       inkscape:connector-curvature="0"
       id="path3817"
       style="fill:#000000;fill-opacity:1;fill-rule:nonzero;stroke:none;stroke-width:0.9130463"
       d="m 101.07485,230.10482 v -7.72163 h 2.00779 l 3.70697,4.72135 v -4.72135 h 1.99684 v 7.72163 h -1.99684 l -3.70697,-4.72135 v 4.72135 z" />
    <path
       inkscape:connector-curvature="0"
       id="path3821"
       style="fill:#000000;fill-opacity:1;fill-rule:nonzero;stroke:none;stroke-width:0.9130463"
       d="m 114.79731,224.08356 h -2.3858 v 1.29015 h 2.25249 v 1.69915 h -2.25249 v 1.33123 h 2.3858 v 1.70101 h -4.39358 v -7.72163 h 4.39358 z" />
    <path
       inkscape:connector-curvature="0"
       id="path3825"
       style="fill:#000000;fill-opacity:1;fill-rule:nonzero;stroke:none;stroke-width:0.9130463"
       d="m 118.24798,225.83386 h 0.37891 c 0.39626,0 0.70031,-0.0813 0.91122,-0.24562 0.21182,-0.16357 0.31774,-0.39899 0.31774,-0.7067 0,-0.30677 -0.10591,-0.54235 -0.31774,-0.70579 -0.21091,-0.16435 -0.51496,-0.24639 -0.91122,-0.24639 h -0.37891 z m 4.41366,4.27124 h -2.49809 l -1.91557,-2.97015 v 2.97015 h -2.00688 v -7.72165 h 3.12353 c 0.42914,0 0.8044,0.0629 1.12579,0.18997 0.32139,0.12501 0.58618,0.29857 0.79344,0.5168 0.20909,0.21819 0.36613,0.47113 0.47204,0.75691 0.105,0.2876 0.15886,0.59531 0.15886,0.92219 0,0.58801 -0.14336,1.06368 -0.42548,1.42799 -0.28395,0.36613 -0.70213,0.61358 -1.25452,0.74322 z" />
    <path
       inkscape:connector-curvature="0"
       id="path3829"
       style="fill:#000000;fill-opacity:1;fill-rule:nonzero;stroke:none;stroke-width:0.35277775"
       d="m 67.694547,234.53837 c -1.666875,2.30187 -3.789538,4.24815 -6.309783,5.78414 l -0.152047,0.0928 -0.1524,-0.0928 c -2.546703,-1.55222 -4.669719,-3.49849 -6.310489,-5.7852 -1.884539,-2.62749 -3.210277,-5.71712 -3.96875,-9.23537 h 10.30605 v 15.02057 h 0.250825 V 225.30194 H 71.67 c -0.757061,3.53483 -2.085269,6.62481 -3.975453,9.23643 m -17.64806,-17.17428 0.0018,-0.24695 0.244122,-0.0392 c 1.689804,-0.27269 3.378552,-0.72354 5.162549,-1.37936 1.726494,-0.63429 3.62338,-1.5113 5.637741,-2.60561 l 0.01446,-0.008 v 11.96587 H 50.74922 c -0.490714,-2.37314 -0.726722,-4.93854 -0.702733,-7.68703 m 16.948855,-1.66547 c 1.751541,0.64418 3.493558,1.10773 5.177366,1.37936 l 0.244123,0.0392 0.0021,0.24695 c 0.02328,2.75343 -0.210608,5.31848 -0.697441,7.68703 H 61.357953 v -11.96587 l 0.01446,0.008 c 2.035175,1.10595 3.926769,1.98225 5.622924,2.60561 m 6.48335,0.94827 v 3.4e-4 c -0.006,-0.26528 -0.192611,-0.48295 -0.443436,-0.51717 -1.921934,-0.26388 -3.7973,-0.72778 -5.574947,-1.37865 -1.887362,-0.69144 -3.896432,-1.63547 -5.971823,-2.80634 -0.182386,-0.10301 -0.330553,-0.10337 -0.511528,-3.5e-4 -2.069394,1.1751 -4.07423,2.11948 -5.958064,2.8067 -1.787525,0.65193 -3.657599,1.11583 -5.558719,1.37865 -0.244828,0.0339 -0.438503,0.25153 -0.47378,0.53093 -0.172861,7.49018 1.483783,13.7033 4.924777,18.46792 1.877131,2.59926 4.254147,4.7251 7.065433,6.3193 l 0.02893,0.0187 c 0.118886,0.0875 0.3429,0.0797 0.509411,-0.0169 2.821164,-1.639 5.189361,-3.76554 7.039328,-6.32142 3.434644,-4.74592 5.091288,-10.96433 4.924425,-18.48167" />
    <path
       inkscape:connector-curvature="0"
       id="path3833"
       style="fill:#000000;fill-opacity:1;fill-rule:nonzero;stroke:none;stroke-width:0.35277775"
       d="m 67.199141,232.35076 c -0.152752,0.10689 -0.3048,0.16263 -0.440972,0.16263 h -0.01482 l -0.09948,-0.003 0.05927,-0.0801 c 0.191558,-0.26 0.386997,-0.47731 0.58173,-0.64594 0.156634,-0.13511 0.300567,-0.22436 0.427214,-0.26493 l 0.107245,-0.0342 -0.04304,0.10407 c -0.132292,0.32103 -0.3429,0.59866 -0.577145,0.76164 m -0.689327,-0.0515 -0.04233,0.0924 -0.05045,-0.0885 c -0.06315,-0.11077 -0.104069,-0.25823 -0.121708,-0.4385 -0.01976,-0.21272 -0.0078,-0.44026 0.03634,-0.67521 l 0.01623,-0.0871 0.06809,0.0561 c 0.105127,0.0868 0.174977,0.2166 0.207786,0.38629 l 7.14e-4,0.005 c 0.04304,0.22507 0.0014,0.49812 -0.114653,0.74965 m -0.366183,1.23331 c 0.196144,-0.0603 0.36195,-0.0829 0.492478,-0.067 l 0.10795,0.013 -0.07761,0.0762 c -0.25012,0.24518 -0.553156,0.41663 -0.831498,0.4699 -0.06879,0.0134 -0.134761,0.0201 -0.196497,0.0201 -0.108303,0 -0.204964,-0.0205 -0.284339,-0.061 l -0.08608,-0.0441 0.08361,-0.048 c 0.287866,-0.1658 0.546805,-0.28328 0.791986,-0.35913 m -0.985308,0.22508 -0.0092,-0.10407 c -0.01094,-0.12877 0.01305,-0.28187 0.07056,-0.45614 0.06844,-0.20532 0.170039,-0.40887 0.301625,-0.60502 l 0.05186,-0.0776 0.03916,0.0843 c 0.05609,0.12206 0.06668,0.27235 0.03104,0.43427 l -0.0032,0.0123 c -0.04974,0.2219 -0.197555,0.45826 -0.40393,0.64241 z m -0.778934,0.91122 c 0.207786,0.0286 0.370064,0.079 0.482248,0.14923 l 0.09172,0.0572 -0.1016,0.0363 c -0.208492,0.0748 -0.425097,0.11253 -0.629003,0.11253 -0.122061,0 -0.239536,-0.0138 -0.347133,-0.0416 -0.198261,-0.0508 -0.344664,-0.13405 -0.434975,-0.24729 l -0.06279,-0.079 0.100542,-0.006 c 0.36195,-0.0219 0.648405,-0.0159 0.900994,0.0183 m -0.987442,-0.31853 c 0.04727,-0.11994 0.138995,-0.24835 0.272345,-0.38241 0.155928,-0.15487 0.340078,-0.29739 0.548216,-0.42298 l 0.07902,-0.048 3.44e-4,0.0924 c 3.44e-4,0.13653 -0.05398,0.2794 -0.157339,0.4124 l -0.0078,0.01 c -0.149578,0.18838 -0.394406,0.3369 -0.6731,0.40852 l -0.09913,0.0251 z m 3.653014,-3.79201 c -0.104775,-0.0741 -0.204611,-0.19155 -0.295275,-0.34925 -0.104422,-0.18168 -0.189794,-0.39581 -0.252589,-0.63676 l -0.02293,-0.0871 0.08678,0.0233 c 0.0085,0.002 0.01658,0.005 0.02469,0.007 0.123472,0.0402 0.238478,0.13018 0.331611,0.26 l 0.0042,0.006 c 0.135467,0.18944 0.210256,0.45684 0.20567,0.73483 l -0.0018,0.0988 z m -0.110772,-2.09373 c -0.135467,-0.16545 -0.276931,-0.3676 -0.432506,-0.61666 -0.150283,-0.24306 -0.280105,-0.47307 -0.384175,-0.68403 l -0.08573,-0.17216 0.160867,0.10478 c 0.230011,0.15028 0.436033,0.36195 0.580319,0.59584 0.140759,0.22542 0.233187,0.49318 0.254,0.73483 l 0.01411,0.16793 z m 0.423333,2.08421 c 0.07056,-0.31821 0.159809,-0.59937 0.264584,-0.83503 0.08643,-0.19261 0.179563,-0.33725 0.277283,-0.42862 l 0.08184,-0.0765 0.006,0.11183 c 0.01976,0.35172 -0.05503,0.69744 -0.205317,0.94756 -0.09984,0.16686 -0.221897,0.28469 -0.353131,0.34008 l -0.09313,0.0395 z m 0.695325,0.87842 c 0.0074,-0.0279 0.0035,-0.0579 -0.01129,-0.0829 -0.01517,-0.0243 -0.03986,-0.042 -0.06809,-0.0476 -0.224367,-0.0466 -0.486128,0.0508 -0.777875,0.29033 l -0.144639,0.11854 0.06209,-0.17639 c 0.07444,-0.21061 0.133702,-0.42616 0.176741,-0.641 l 0.0074,-0.037 0.03775,-0.005 c 0.235303,-0.0275 0.46355,-0.19932 0.625828,-0.47166 0.212725,-0.35384 0.289277,-0.84702 0.205669,-1.31833 -0.0049,-0.0282 -0.02152,-0.0533 -0.04551,-0.0691 -0.02364,-0.0155 -0.05327,-0.0208 -0.08114,-0.0141 -0.225425,0.0526 -0.415925,0.24941 -0.582789,0.60113 l -0.08008,0.16898 -0.01905,-0.18627 c -0.0254,-0.24906 -0.07373,-0.49918 -0.142875,-0.74224 l -0.0039,-0.0127 0.0028,-0.0127 c 0.07691,-0.36901 -0.02187,-0.82021 -0.263878,-1.20756 -0.250825,-0.40605 -0.661458,-0.73766 -1.072091,-0.86607 -0.0381,-0.0116 -0.08043,-7.1e-4 -0.107598,0.0286 -0.02716,0.0296 -0.03493,0.0723 -0.02046,0.10971 0.127705,0.3228 0.321028,0.69392 0.574675,1.10349 v 3.5e-4 c 0.246592,0.39476 0.461433,0.67839 0.676275,0.89147 l 0.0099,0.01 0.0039,0.013 c 0.06562,0.23071 0.111478,0.46813 0.135467,0.7052 l 0.01834,0.17886 -0.111125,-0.14147 c -0.19297,-0.24412 -0.463903,-0.36477 -0.724606,-0.32314 -0.02787,0.005 -0.05292,0.0208 -0.06914,0.0437 -0.01587,0.0233 -0.02222,0.0526 -0.01658,0.0801 0.0695,0.34466 0.1778,0.64664 0.321734,0.89747 0.141816,0.24518 0.304447,0.40992 0.484011,0.48859 l 0.03845,0.0169 -0.0085,0.0413 c -0.04057,0.20073 -0.09666,0.40182 -0.165806,0.59831 l -0.05856,0.16652 -0.04128,-0.17181 c -0.07232,-0.29951 -0.259997,-0.51294 -0.515055,-0.5849 -0.02681,-0.008 -0.05609,-0.004 -0.08043,0.01 -0.02399,0.0141 -0.04198,0.0377 -0.04868,0.0649 -0.08431,0.32914 -0.112889,0.64629 -0.08502,0.94227 0.02716,0.27763 0.109714,0.50235 0.239184,0.64981 l 0.02752,0.0314 -0.02469,0.0339 -0.04833,-0.0219 0.04304,0.03 c -0.116064,0.16405 -0.243416,0.32244 -0.378883,0.4699 l -0.121708,0.133 0.03175,-0.1778 c 0.05539,-0.30586 -0.02752,-0.57997 -0.227189,-0.75177 -0.02187,-0.0187 -0.05045,-0.0275 -0.07867,-0.025 -0.02858,0.003 -0.05468,0.0173 -0.07197,0.0399 -0.207081,0.26741 -0.360187,0.54822 -0.456495,0.83573 -0.09102,0.27517 -0.10795,0.51082 -0.04939,0.70027 l 0.01164,0.0395 -0.03528,0.0208 c -0.179564,0.10724 -0.367947,0.20108 -0.560211,0.27975 l -0.167569,0.0688 0.10548,-0.14781 c 0.182739,-0.25471 0.224367,-0.54152 0.113947,-0.78564 -0.01164,-0.0261 -0.03422,-0.0466 -0.06103,-0.0557 -0.02681,-0.009 -0.05715,-0.007 -0.08255,0.006 -0.302331,0.15875 -0.564445,0.34819 -0.779639,0.56233 -0.207433,0.20849 -0.329494,0.41204 -0.361597,0.60466 l -0.0067,0.0409 -0.06209,0.004 c -0.01411,0.001 -0.02858,0.002 -0.04304,0.003 -0.02752,0.001 -0.05362,0.0134 -0.07197,0.0339 -0.0187,0.0205 -0.02822,0.0473 -0.02716,0.0751 0.0021,0.043 0.03105,0.0808 0.07232,0.0942 0.01199,0.004 0.02505,0.006 0.03704,0.005 0.02152,-7.2e-4 0.04269,-0.002 0.06385,-0.004 l 0.05256,-0.004 0.01411,0.0353 c 0.08184,0.20108 0.277636,0.36124 0.55245,0.45049 0.02822,0.009 0.05715,0.0176 0.08714,0.025 0.401461,0.10443 0.897467,0.0399 1.325386,-0.17286 0.0254,-0.0127 0.04445,-0.0353 0.05327,-0.0621 0.0081,-0.0268 0.0053,-0.0564 -0.0081,-0.0811 -0.109714,-0.20249 -0.354894,-0.33619 -0.729544,-0.39687 l -0.183798,-0.03 0.172861,-0.0702 c 0.208139,-0.0847 0.412398,-0.18627 0.606778,-0.30233 l 0.03316,-0.0201 0.02893,0.0265 c 0.06632,0.0607 0.146403,0.10618 0.238478,0.13617 0.148872,0.0483 0.326319,0.0547 0.513291,0.018 0.392289,-0.0751 0.805392,-0.34008 1.1049,-0.70873 0.01799,-0.0219 0.02575,-0.0505 0.02223,-0.0783 -0.0032,-0.0282 -0.01834,-0.0543 -0.04128,-0.0709 -0.183797,-0.13688 -0.459316,-0.15593 -0.818444,-0.0554 l -0.177447,0.0494 0.124883,-0.13511 c 0.144992,-0.15734 0.281517,-0.32632 0.405695,-0.50236 l 0.03281,-0.0473 0.03669,0.012 c 0.159103,0.0512 0.419453,0.0632 0.753886,-0.17074 0.331611,-0.23037 0.606425,-0.63959 0.734483,-1.09467" />
    <path
       inkscape:connector-curvature="0"
       id="path3837"
       style="fill:#000000;fill-opacity:1;fill-rule:nonzero;stroke:none;stroke-width:0.35277775"
       d="m 55.435166,219.06783 h -0.599369 v 0.35948 h 0.58173 v 0.21202 h -0.58173 v 0.49988 h 0.599369 v 0.21202 h -0.825147 v -1.49542 h 0.825147 z" />
    <path
       inkscape:connector-curvature="0"
       id="path3841"
       style="fill:#000000;fill-opacity:1;fill-rule:nonzero;stroke:none;stroke-width:0.35277775"
       d="m 56.238229,219.56874 -0.180269,0.0956 c -0.02858,-0.0582 -0.0635,-0.0871 -0.105833,-0.0871 -0.01976,0 -0.03704,0.007 -0.05115,0.0201 -0.01411,0.013 -0.02152,0.03 -0.02152,0.0508 0,0.036 0.04233,0.072 0.126294,0.10725 0.115358,0.0501 0.193322,0.096 0.233186,0.13793 0.04022,0.0416 0.06032,0.0981 0.06032,0.16934 0,0.091 -0.03387,0.16721 -0.100894,0.2286 -0.06526,0.0582 -0.143934,0.0871 -0.236361,0.0871 -0.158045,0 -0.270228,-0.0773 -0.335845,-0.23142 l 0.185914,-0.0861 c 0.02575,0.0448 0.04551,0.0737 0.05891,0.0861 0.02646,0.0243 0.05821,0.0367 0.09525,0.0367 0.07338,0 0.110067,-0.0339 0.110067,-0.10054 0,-0.0388 -0.02822,-0.0751 -0.08502,-0.10866 -0.02222,-0.0109 -0.0441,-0.0215 -0.06632,-0.0318 -0.02152,-0.0106 -0.0441,-0.0212 -0.06632,-0.0321 -0.0635,-0.0311 -0.10795,-0.0621 -0.133702,-0.0931 -0.03316,-0.0392 -0.04974,-0.09 -0.04974,-0.15205 0,-0.0819 0.02822,-0.14958 0.08467,-0.20355 0.0575,-0.0533 0.127,-0.0801 0.208844,-0.0801 0.12065,0 0.210609,0.0621 0.269522,0.18697" />
    <path
       inkscape:connector-curvature="0"
       id="path3845"
       style="fill:#000000;fill-opacity:1;fill-rule:nonzero;stroke:none;stroke-width:0.35277775"
       d="m 56.719488,219.61114 v 0.74013 h -0.218017 v -0.74013 h -0.09313 v -0.2032 h 0.09313 v -0.34607 h 0.218017 v 0.34607 h 0.169333 v 0.2032 z" />
    <path
       inkscape:connector-curvature="0"
       id="path3849"
       style="fill:#000000;fill-opacity:1;fill-rule:nonzero;stroke:none;stroke-width:0.35277775"
       d="m 57.070892,220.24261 c 0,-0.0363 0.01341,-0.067 0.03986,-0.0938 0.02611,-0.0265 0.05785,-0.0399 0.0949,-0.0399 0.03669,0 0.06844,0.0134 0.0949,0.0399 0.02646,0.0268 0.03986,0.0579 0.03986,0.0949 0,0.0374 -0.01341,0.0695 -0.03986,0.096 -0.02575,0.0261 -0.0575,0.0388 -0.0949,0.0388 -0.0381,0 -0.06985,-0.0127 -0.09595,-0.0388 -0.02575,-0.0258 -0.03881,-0.0582 -0.03881,-0.097" />
    <path
       inkscape:connector-curvature="0"
       id="path3853"
       style="fill:#000000;fill-opacity:1;fill-rule:nonzero;stroke:none;stroke-width:0.35277775"
       d="m 52.331498,222.73171 0.31503,-1.60796 0.513292,1.16205 0.531283,-1.16205 0.282928,1.60796 h -0.231422 l -0.144286,-0.90311 -0.442736,0.97155 -0.430037,-0.97226 -0.160866,0.90382 z" />
    <path
       inkscape:connector-curvature="0"
       id="path3857"
       style="fill:#000000;fill-opacity:1;fill-rule:nonzero;stroke:none;stroke-width:0.35277775"
       d="m 54.238331,222.73171 0.315031,-1.60796 0.513292,1.16205 0.531636,-1.16205 0.282575,1.60796 h -0.23107 l -0.144286,-0.90311 -0.442736,0.97155 -0.430036,-0.97226 -0.160867,0.90382 z" />
    <path
       inkscape:connector-curvature="0"
       id="path3861"
       style="fill:#000000;fill-opacity:1;fill-rule:nonzero;stroke:none;stroke-width:0.35277775"
       d="m 56.510716,221.94999 -0.411692,-0.71367 h 0.256822 l 0.285398,0.50623 0.300566,-0.50623 h 0.258586 l -0.431447,0.71367 0.452614,0.78175 h -0.252589 l -0.331611,-0.57256 -0.340431,0.57256 h -0.256116 z" />
    <path
       inkscape:connector-curvature="0"
       id="path3865"
       style="fill:#000000;fill-opacity:1;fill-rule:nonzero;stroke:none;stroke-width:0.35277775"
       d="m 57.498421,221.23618 0.413809,1.03646 0.4191,-1.03646 h 0.247297 l -0.671336,1.60796 -0.655461,-1.60796 z" />
    <path
       inkscape:connector-curvature="0"
       id="path3867"
       style="fill:#000000;fill-opacity:1;fill-rule:nonzero;stroke:none;stroke-width:0.35277775"
       d="m 58.990107,222.73167 h -0.225778 v -1.49542 h 0.225778 z" />
    <path
       inkscape:connector-curvature="0"
       id="path3871"
       style="fill:#000000;fill-opacity:1;fill-rule:nonzero;stroke:none;stroke-width:0.35277775"
       d="m 59.400812,235.21637 c -0.02011,0.0388 -0.04374,0.0646 -0.06526,0.0808 l -1.162053,-1.50036 c 0.287513,-0.19086 0.576086,-0.17145 0.748947,-0.13018 0.04127,0.0215 0.08361,0.0363 0.126294,0.0483 0.04727,0.1083 0.0956,0.21837 0.14605,0.33302 0.32385,0.73484 0.268111,1.0474 0.206022,1.1684 m -5.548136,-6.24804 0.17392,-0.13406 5.106811,6.59553 -0.165806,0.14429 z m 2.025298,-1.56775 c 0.214841,-0.13652 0.714375,-0.36971 0.831497,-0.19085 0.03528,0.0536 0.0695,0.10795 0.105128,0.16404 0.1905,0.30021 0.406752,0.641 0.795513,0.99625 0.18027,0.1651 0.403225,0.31397 0.609953,0.43532 -0.06244,0.42298 -0.335844,2.31634 -0.313619,2.89313 0.01728,0.45615 0.293511,1.25131 0.690739,1.70216 -0.175684,0.013 -0.37465,0.0681 -0.571853,0.20425 l -3.808236,-4.91842 z m 2.655358,3.40149 c -0.242358,0.871 -0.03457,1.6069 0.362655,2.55693 -0.385938,-0.32773 -0.729544,-1.16946 -0.748594,-1.66935 -0.01976,-0.51611 0.218722,-2.21227 0.298097,-2.75801 0.134056,0.0709 0.247297,0.12488 0.316089,0.15628 0.0039,0.21872 -0.0039,0.9084 -0.228247,1.71415 m 0.882297,3.14889 c -0.624769,-1.4164 -0.912989,-2.13889 -0.650169,-3.08398 0.282927,-1.01459 0.236361,-1.83163 0.234244,-1.86549 l -0.0042,-0.0741 -0.06844,-0.0293 c -0.0071,-0.003 -0.727075,-0.31539 -1.154288,-0.70591 -0.364773,-0.33338 -0.563034,-0.64594 -0.754592,-0.94791 -0.03563,-0.0568 -0.07126,-0.11219 -0.106892,-0.16652 -0.280458,-0.42933 -1.077736,0.0646 -1.168047,0.12242 l -1.76918,1.36948 -0.45967,0.35595 0.382058,0.49319 -0.385586,0.29915 0.147814,0.1905 0.385586,-0.2988 0.611717,0.78987 -0.386292,0.29845 0.147814,0.19085 0.385939,-0.29845 1.415697,1.8281 -0.385939,0.2988 0.147814,0.19085 0.385586,-0.29915 0.505884,0.65334 -0.385939,0.29916 0.147814,0.1905 0.385939,-0.29881 0.560211,0.7232 -0.386292,0.2988 0.147814,0.1905 0.385939,-0.29845 0.591608,0.76377 -0.386292,0.2988 0.147814,0.19085 0.386292,-0.2988 0.465667,0.60148 0.423332,-0.36759 c 0.06032,-0.019 0.172509,-0.072 0.251531,-0.21519 0.154869,-0.28117 0.09031,-0.74895 -0.192264,-1.3896" />
    <path
       inkscape:connector-curvature="0"
       id="path3875"
       style="fill:#000000;fill-opacity:1;fill-rule:nonzero;stroke:none;stroke-width:0.35277775"
       d="m 68.780432,222.62453 -0.61207,-1.18639 0.331964,-0.2607 0.745067,0.28222 0.172861,0.33444 c -0.157339,0.31608 -0.375708,0.60042 -0.637822,0.83043 m -0.543278,0.37113 c -0.124883,0.0639 -0.257175,0.11924 -0.394758,0.16474 l -0.625828,-1.2132 0.758472,-0.38876 0.109714,0.21308 0.514703,0.99801 c -0.116417,0.0861 -0.237773,0.16192 -0.362303,0.22613 m -1.664053,0.26634 -0.172508,-0.33478 0.0127,-0.048 0.01834,0.005 0.194381,-0.74083 0.379236,-0.11078 0.614539,1.19098 c -0.342194,0.0818 -0.693208,0.0949 -1.046692,0.0388 m -0.286805,-0.061 c -0.738364,-0.19791 -1.351139,-0.68827 -1.704269,-1.37266 -0.352778,-0.68403 -0.397228,-1.46826 -0.130528,-2.1844 l 0.08784,0.17075 0.140406,0.0533 -0.276225,0.7306 0.386292,0.48895 0.485069,0.94015 0.174625,0.59867 0.744008,0.19544 -0.03493,0.13229 z m -1.080558,-4.65631 0.577497,1.11901 -0.3175,0.25118 -0.703086,-0.266 -0.0025,0.007 -0.05891,-0.0222 -0.13335,-0.25859 c 0.157339,-0.31609 0.375709,-0.60007 0.637823,-0.83008 m 0.543277,-0.37113 c 0.124531,-0.0642 0.256823,-0.11923 0.394406,-0.16474 l 0.589491,1.14264 -0.757061,0.39053 -0.195086,-0.37783 -0.394405,-0.76482 c 0.117122,-0.0864 0.23883,-0.16228 0.362655,-0.22578 m 1.664053,-0.26634 0.132997,0.25788 -0.205669,0.78458 -0.39617,0.11535 -0.57785,-1.11971 c 0.342195,-0.0811 0.692856,-0.0945 1.046692,-0.0381 m 1.143353,1.35325 0.390525,0.75706 -3.517195,1.81469 -0.390525,-0.75741 z m -3.895372,1.29822 0.231422,-0.61065 0.606778,0.22965 0.0067,-0.005 0.01305,0.005 0.489694,-0.38664 0.939447,-0.48471 0.599017,-0.17428 0.169333,-0.64629 0.638175,0.16757 0.115358,0.39617 -1.776236,0.91652 -1.776589,0.91652 z m 3.786363,0.35596 -0.489655,0.38699 -0.939447,0.48472 -0.599017,0.17463 -0.168275,0.64099 -0.619478,-0.16263 -0.115358,-0.39581 3.552472,-1.83339 0.25647,0.32385 -0.233539,0.61701 -0.62477,-0.23636 -0.006,0.005 z m -0.747509,-2.94675 c 0.738011,0.19755 1.351492,0.68827 1.704623,1.37266 0.352777,0.68439 0.397227,1.46826 0.130527,2.1844 l -0.127705,-0.2466 -0.105834,-0.0406 0.281164,-0.74365 -0.386644,-0.48895 -0.48507,-0.94051 -0.174272,-0.59831 -0.78105,-0.20496 0.03246,-0.12277 z m 1.906059,1.26859 c -0.413456,-0.80116 -1.156053,-1.35608 -2.041878,-1.53176 l -0.0011,-0.002 -0.05503,-0.01 -0.226483,-0.0409 0.0056,0.0109 c -0.345017,-0.0349 -0.69462,-0.009 -1.027289,0.0762 l -0.0011,-0.002 -0.08996,0.0265 c -3.44e-4,0 -3.44e-4,0 -7.14e-4,3.4e-4 l -0.131234,0.0381 0.0028,0.006 c -0.136525,0.0469 -0.269875,0.0998 -0.394759,0.16404 -0.124178,0.0639 -0.244828,0.14182 -0.362303,0.22649 l -0.0032,-0.006 -0.107597,0.085 -0.07373,0.0582 0.0011,0.002 c -0.262114,0.22119 -0.486128,0.49072 -0.657225,0.79234 l -0.0053,-0.0109 -0.09843,0.20814 -0.02399,0.0508 0.0011,0.002 c -0.37077,0.82444 -0.348545,1.75083 0.06491,2.55199 0.413103,0.80151 1.1557,1.35643 2.041525,1.53211 l 0.0011,0.002 0.05574,0.01 0.225778,0.0402 -0.0056,-0.0109 c 0.09984,0.0102 0.199673,0.0169 0.299861,0.0169 0.245887,0 0.490714,-0.0325 0.727428,-0.0935 l 0.0014,0.003 0.0889,-0.0261 h 0.0011 l 0.131939,-0.0392 -0.0028,-0.005 c 0.136172,-0.0469 0.269875,-0.0998 0.394758,-0.16404 0.124178,-0.0646 0.244828,-0.14217 0.362303,-0.22683 l 0.0028,0.006 0.108303,-0.0854 0.07373,-0.0579 -0.0014,-0.002 c 0.262114,-0.2212 0.485775,-0.49107 0.657225,-0.79234 l 0.0056,0.0102 0.09807,-0.20779 0.02364,-0.0505 -7.14e-4,-0.002 c 0.370416,-0.82408 0.348544,-1.75083 -0.06491,-2.55199" />
  </g>
</svg>
