<svg width="28" height="36" viewBox="0 0 28 36" fill="none" xmlns="http://www.w3.org/2000/svg">
<path fill-rule="evenodd" clip-rule="evenodd" d="M24.276 18.0929C24.8008 16.7965 25.0898 15.3794 25.0898 13.8948C25.0898 7.7119 20.0776 2.69971 13.8948 2.69971C7.7119 2.69971 2.69971 7.7119 2.69971 13.8948C2.69971 15.3794 2.98869 16.7965 3.51347 18.0929H2.98761L4.19317 19.485C4.90833 20.7234 5.85382 21.8121 6.9711 22.6926L13.8947 30.6873L20.8181 22.6929C21.9356 21.8123 22.8813 20.7233 23.5965 19.4846L24.8018 18.0929H24.276Z" fill="white"/>
<path fill-rule="evenodd" clip-rule="evenodd" d="M13.9947 33.4861L4.45291 20.9218C2.93559 18.9396 2 16.5006 2 13.8252C2 7.29473 7.37062 2 13.9947 2C20.6203 2 25.9894 7.29473 25.9894 13.8252C25.9894 16.5006 25.0553 18.9396 23.5365 20.9218L13.9947 33.4861ZM22.7034 20.2835C24.1481 18.398 24.9398 16.1689 24.9398 13.8252C24.9398 7.87721 20.0434 3.04954 13.9947 3.04954C7.94695 3.04954 3.04954 7.87774 3.04954 13.8252C3.04954 16.1674 3.84171 18.3967 5.28874 20.287L13.9947 31.7507L22.7034 20.2835Z" fill="#006F46" stroke="#006F46" stroke-width="2.04076"/>
<path fill-rule="evenodd" clip-rule="evenodd" d="M13.9946 18.4928C11.5108 18.4928 9.49658 16.4783 9.49658 13.9941C9.49658 11.51 11.5108 9.49683 13.9946 9.49683C16.4797 9.49683 18.4926 11.51 18.4926 13.9941C18.4926 16.4783 16.4797 18.4928 13.9946 18.4928ZM13.9946 17.4433C15.8995 17.4433 17.4431 15.8992 17.4431 13.9941C17.4431 12.0894 15.8999 10.5464 13.9946 10.5464C12.0902 10.5464 10.5461 12.09 10.5461 13.9941C10.5461 15.8987 12.0905 17.4433 13.9946 17.4433Z" fill="#006F46" stroke="#006F46" stroke-width="2.04076"/>
</svg>
