<svg width="429" height="264" viewBox="0 0 429 264" fill="none" xmlns="http://www.w3.org/2000/svg">
<path d="M6.36743 224.161C15.0848 227.869 27.5595 227.822 36.775 231.16C37.9746 231.602 39.1144 232.09 40.1852 232.62C44.8362 234.88 48.5098 237.762 53.3945 239.906C62.5494 243.928 73.9903 244.776 85.8916 244.448C94.8833 244.194 104.123 243.259 112.802 242.494C134.905 240.551 158.633 240.335 179.106 245.637C192.756 249.174 204.032 254.922 217.04 259.117C230.048 263.313 246.602 265.87 259.877 262.321C274.128 258.512 279.949 249.026 293.292 244.4C307.613 239.436 327.438 241.092 342.315 236.593C361.217 230.877 365.849 217.576 378.925 208.321C385.203 203.877 393.482 200.364 400.162 196.094C407.59 191.336 412.91 185.726 415.738 179.668C416.693 177.602 417.343 175.344 415.825 173.332C414.509 171.597 411.764 170.284 409.001 169.122C398.738 164.813 385.983 160.986 382.344 154.318C378.987 148.166 383.531 140.048 373.688 136.344C367.764 134.113 359.789 135.01 353.057 136.195C339.172 138.639 325.698 141.948 311.159 142.993C300.753 143.737 289.383 143.089 280.142 140.462C276.425 139.423 273.085 138.027 270.293 136.345C265.92 133.678 262.244 130.024 255.755 129.489C252.943 129.257 250.123 129.699 247.529 130.272C237.749 132.434 229.908 136.454 220.685 139.209C217.531 140.157 214.153 140.883 210.632 141.369C203.642 142.319 196.273 142.149 190.405 139.92C186.967 138.613 184.2 136.658 180.174 136.031C173.362 134.962 166.762 136.525 160.847 139.05C153.525 142.175 147.235 146.785 142.818 149.762L142.374 150.058C136.653 153.855 128.842 156.476 120.403 158.641C111.308 160.99 101.517 162.804 92.8296 165.017C92.0132 165.225 91.2076 165.436 90.4126 165.652C84.1998 167.336 78.2621 169.288 72.6562 171.488C64.7457 174.588 57.5262 178.158 51.1304 182.133C47.8856 184.148 44.8646 186.264 42.0823 188.471C41.2659 189.12 40.4652 189.776 39.68 190.438C35.0951 194.278 30.8285 198.255 24.9255 201.516C24.4946 201.747 24.0612 201.979 23.6303 202.21C16.3515 205.971 7.16936 208.887 2.63939 213.728C0.584855 215.933 -0.344874 218.603 1.4911 220.916C2.51496 222.204 4.31698 223.288 6.36743 224.161Z" fill="#B2CDC4"/>
<path d="M428.494 206.152C428.494 194.238 422.4 184.58 414.883 184.58C410.158 184.58 405.997 188.397 403.557 194.19C402.732 193.85 401.848 193.674 400.956 193.672C398.68 193.672 396.577 194.828 394.861 196.786C392.661 189.563 387.996 184.58 382.597 184.58C377.549 184.58 373.146 188.939 370.796 195.41C369.49 194.317 367.845 193.703 366.138 193.672C360.369 193.672 355.692 201.084 355.692 210.228C355.668 213.276 356.227 216.301 357.338 219.142H425.749C427.471 215.529 428.494 211.03 428.494 206.152Z" fill="#409374"/>
<path d="M379.897 80.6356C369.172 57.4977 348.183 37.7593 322.827 34.5422C316.123 33.6916 309.123 34.0328 302.903 36.6678C294.738 40.1267 288.721 47.1084 282.639 53.5489C269.762 67.1814 255.351 79.288 239.694 89.6289C231.966 94.7313 223.677 99.4919 214.502 100.797C196.105 103.415 177.909 90.9039 169.519 74.3683C164.278 64.0389 161.856 51.9114 157.62 41.1675C152.741 41.1581 146.927 41.1599 140.673 41.1887C123.386 41.2681 109.315 41.5229 109.315 41.5229C109.315 41.5229 126.04 19.4282 140.61 27.6141C145.267 30.2301 150.143 32.5645 154.625 34.531C152.079 29.6467 148.867 25.2519 144.449 21.7185C135.737 14.7512 123.938 12.7969 112.782 13.3157C101.069 13.8606 89.2473 16.9881 79.7289 23.8187C62.7726 35.9867 55.7703 57.4046 49.7773 77.3619L64.2633 84.6041C70.4768 79.2469 79.5629 73.9475 87.9377 78.6528C102.508 86.8387 119.245 92.2738 119.245 92.2738C119.245 92.2738 105.288 92.1479 88.0005 92.2274C85.097 92.2407 82.2878 92.2591 79.6172 92.2803L240.446 172.686C293.492 173.431 333.489 170.57 383.895 172.686C386.523 172.796 392.436 159.054 392.456 155.437C392.595 129.947 390.622 103.773 379.897 80.6356ZM328.389 87.5705C311.102 87.65 297.031 87.9047 297.031 87.9047C297.031 87.9047 313.757 65.8101 328.327 73.996C342.897 82.1819 359.634 87.617 359.634 87.617C359.634 87.617 345.677 87.4911 328.389 87.5705L328.389 87.5705Z" fill="#B2CDC4"/>
<path d="M373.341 163.416C373.341 154.798 367.925 147.811 361.243 147.811C357.043 147.811 353.344 150.572 351.175 154.762C350.43 154.515 349.649 154.388 348.863 154.388C346.83 154.422 344.889 155.229 343.446 156.641C341.49 151.416 337.344 147.811 332.545 147.811C328.057 147.811 324.143 150.964 322.055 155.645C320.83 154.835 319.39 154.398 317.914 154.388C312.786 154.388 308.629 159.75 308.629 166.364C308.614 168.596 309.114 170.801 310.092 172.813H370.901C372.532 169.944 373.373 166.705 373.341 163.416Z" fill="#409374"/>
<path d="M183.615 105.024C183.615 105.024 185.989 88.1054 189.946 92.7197C193.903 97.334 189.946 104.255 189.946 104.255L186.781 108.101L183.615 105.794V105.024Z" fill="#BFDBD1"/>
<path d="M174.244 110.243C174.244 110.243 182.226 101.567 183.822 103.145C185.419 104.722 190.208 105.511 189.41 108.666C188.611 111.82 171.85 122.073 171.85 122.073L174.244 110.243Z" fill="#409374"/>
<path d="M129.981 109.571V115.915C129.981 115.915 129.23 130.188 133.736 129.395C138.242 128.602 135.989 116.708 135.989 116.708L135.238 109.571H129.981Z" fill="#BFDBD1"/>
<path d="M132.027 155.165C132.027 155.165 125.007 166.135 122.667 166.919C120.327 167.702 107.848 174.754 106.288 181.807L95.3691 195.912L100.829 202.964C100.829 202.964 125.787 176.322 132.806 173.971C139.826 171.62 146.845 159.866 146.845 159.866L132.027 155.165Z" fill="#BFDBD1"/>
<path d="M187.63 136.78C187.63 136.78 202.644 139.133 200.274 148.546C197.903 157.959 174.987 177.569 174.987 177.569L174.196 182.276L165.504 183.844L161.553 179.922L162.343 177.569C162.343 177.569 171.826 168.941 172.616 165.803C173.406 162.666 182.099 150.115 186.05 149.331L180.518 146.193L187.63 136.78Z" fill="#BFDBD1"/>
<path d="M97.5556 195.878C97.5556 195.878 100.736 191.248 95.9656 192.02C91.1956 192.792 88.0156 193.563 88.0156 196.65C88.0156 199.736 91.9906 221.342 96.7606 219.799C101.531 218.255 97.5556 211.311 97.5556 211.311C97.5556 211.311 99.9406 205.138 101.531 204.366C103.121 203.594 103.121 199.736 101.531 199.736C99.9406 199.736 96.7606 197.421 97.5556 195.878Z" fill="#006F46"/>
<path d="M164.186 178.265C164.186 178.265 164.186 174.272 161.1 178.265C158.014 182.258 156.471 185.453 159.557 187.849C162.643 190.245 173.443 195.835 173.443 195.835C173.443 195.835 185.014 198.231 183.472 192.64C183.472 192.64 175.757 188.647 175.757 185.453C175.757 182.258 175.757 176.668 173.443 178.265C171.129 179.862 164.186 180.661 164.186 178.265Z" fill="#006F46"/>
<path d="M149.494 119.867C149.494 119.867 138.538 121.422 139.321 136.978C139.321 136.978 125.235 150.979 129.148 155.646C133.06 160.313 141.668 168.869 144.798 166.535C147.928 164.202 157.319 146.312 157.319 146.312C157.319 146.312 179.23 154.09 183.143 150.201C187.055 146.312 190.968 136.978 190.968 136.978L171.405 126.867L149.494 119.867Z" fill="#006F46"/>
<path d="M179.569 75.0084C184.646 75.0084 188.761 70.8929 188.761 65.8162C188.761 60.7395 184.646 56.624 179.569 56.624C174.492 56.624 170.377 60.7395 170.377 65.8162C170.377 70.8929 174.492 75.0084 179.569 75.0084Z" fill="#BFDBD1"/>
<path d="M172.619 66.9189C172.619 66.9189 166.981 75.3598 165.37 76.1271C163.759 76.8945 176.646 84.568 176.646 84.568C176.646 84.568 176.646 74.5924 180.673 72.2904L172.619 66.9189Z" fill="#BFDBD1"/>
<path d="M172.072 75.4795C172.072 75.4795 159.56 71.5703 157.214 77.825C154.869 84.0797 149.395 95.8072 150.177 103.626C150.959 111.444 152.523 109.88 150.177 112.226C147.831 114.571 146.267 113.008 147.049 116.135C147.831 119.262 148.613 119.262 147.831 120.826C147.049 122.39 157.214 127.862 165.816 128.644L174.417 129.426C174.417 129.426 174.417 115.353 175.981 112.226C177.545 109.098 180.673 102.844 180.673 100.498V94.2922C180.673 90.1616 179.595 86.1024 177.545 82.516C177.545 82.516 172.853 75.4795 172.072 75.4795Z" fill="#409374"/>
<path d="M162.72 77.9502C162.72 77.9502 133.459 80.3127 130.296 88.1877C127.133 96.0628 125.551 111.813 128.715 111.813C131.878 111.813 135.832 113.388 136.623 111.813C137.414 110.238 140.577 94.4878 141.368 94.4878C142.159 94.4878 165.883 92.1253 165.883 92.1253C165.883 92.1253 176.164 79.5252 162.72 77.9502Z" fill="#409374"/>
<path d="M179.926 63.3803C179.926 63.3803 182.447 59.1146 185.6 62.8197C188.752 66.5248 193.88 59.7161 193.093 58.2632C192.305 56.8104 189.525 58.3286 184.761 56.8127C179.997 55.2968 170.82 52.2087 169.283 62.2823C167.746 72.3559 171.407 71.2999 171.407 71.2999C171.407 71.2999 173.085 62.3735 174.601 64.9376L176.117 67.5016L177.433 67.8167L179.926 63.3803Z" fill="#006F46"/>
<path d="M268.549 39.7102C274.844 39.7102 279.947 34.607 279.947 28.3119C279.947 22.0168 274.844 16.9136 268.549 16.9136C262.254 16.9136 257.15 22.0168 257.15 28.3119C257.15 34.607 262.254 39.7102 268.549 39.7102Z" fill="#006F46"/>
<path d="M265.189 36.7693C265.189 36.7693 265.766 47.2584 264.613 47.2584C263.46 47.2584 271.818 52.2116 271.818 52.2116L277.005 49.2979V45.8016C277.005 45.8016 270.089 44.9275 272.971 37.352C275.853 29.7766 265.189 36.7693 265.189 36.7693Z" fill="#BFDBD1"/>
<path d="M239.713 153.694L238.768 162.385L241.919 163.254L244.44 160.936L245.386 153.694H239.713Z" fill="#BFDBD1"/>
<path d="M282.891 158.351L284.296 164.173L288.233 166.931L292.451 164.479L287.67 155.9L282.891 158.351Z" fill="#BFDBD1"/>
<path d="M267.816 41.1812C272.487 41.1812 276.273 37.395 276.273 32.7244C276.273 28.0538 272.487 24.2676 267.816 24.2676C263.146 24.2676 259.359 28.0538 259.359 32.7244C259.359 37.395 263.146 41.1812 267.816 41.1812Z" fill="#BFDBD1"/>
<path d="M262.311 64.713L260.255 63.8089C260.255 63.8089 256.731 61.6992 256.437 57.4798C256.143 53.2605 259.374 47.8355 259.374 47.8355L264.074 46.3286L269.596 50.9399L269.655 58.384L262.311 64.713Z" fill="#BFDBD1"/>
<path d="M260.093 48.3992L258.914 47.8011C258.914 47.8011 253.016 47.502 252.427 54.6797C251.837 61.8573 249.773 73.82 249.773 73.82C249.773 73.82 245.055 82.1939 245.35 91.1659L242.991 98.9417C242.991 98.9417 239.747 110.306 243.58 110.306C247.414 110.306 247.119 98.0445 247.119 98.0445C247.119 98.0445 254.196 80.6986 254.786 77.7079C255.375 74.7172 260.388 60.661 258.914 56.7731C257.439 52.8852 260.093 48.3992 260.093 48.3992Z" fill="#BFDBD1"/>
<path d="M265.089 67.6548V70.8904C265.089 70.8904 267.138 73.2437 266.26 74.7144C265.382 76.1852 264.504 79.1266 264.504 79.1266L268.602 85.598L282.359 86.7746L285.094 68.3549L265.089 67.6548Z" fill="#BFDBD1"/>
<path d="M277.742 46.8092L280.114 45.63C280.114 45.63 285.153 42.0924 289.303 41.5028L302.049 32.9535L310.349 13.2019C310.349 13.2019 310.053 2.58902 312.424 3.76822C314.796 4.94742 314.499 14.0863 314.499 14.0863C314.499 14.0863 310.053 32.3639 306.199 37.3755C302.346 42.3872 288.414 50.6416 288.414 50.6416C288.414 50.6416 284.56 55.0636 284.856 57.1272C285.153 59.1908 277.742 46.8092 277.742 46.8092Z" fill="#BFDBD1"/>
<path d="M267.208 78.5556C267.208 78.5556 263.937 76.4675 261.856 80.0472C259.775 83.6268 255.909 84.5218 253.531 95.2608C251.152 106 245.503 123.003 244.016 124.196C242.529 125.39 236.285 137.919 239.853 155.519H245.8L250.855 130.163C250.855 130.163 267.208 109.878 268.398 101.525L273.75 132.847C273.75 132.847 274.047 144.78 278.507 150.447L283.264 161.783L289.509 158.8L282.372 130.163C282.372 130.163 285.94 101.227 283.562 93.1726L283.22 82.6133C283.22 82.6133 273.452 83.0302 267.208 78.5556Z" fill="#006F46"/>
<path d="M242.399 161.042H238.858C238.268 161.042 233.545 164.941 235.611 167.04C237.677 169.139 240.924 173.037 240.924 173.037C240.924 173.037 252.434 174.524 252.729 172.425C253.024 170.326 247.712 165.84 247.712 165.84L246.236 161.042C246.236 161.042 243.285 157.744 242.399 161.042Z" fill="#006F46"/>
<path d="M289.403 163.548C289.403 163.548 284.425 163.249 283.546 162.95C282.668 162.651 280.911 170.721 283.546 171.319C286.182 171.917 297.016 172.813 297.016 172.813C297.016 172.813 305.508 172.514 304.922 170.123C304.336 167.732 292.916 162.95 292.916 162.95C292.916 162.95 291.452 159.961 289.403 163.548Z" fill="#006F46"/>
<path d="M265.519 46.6128L264.012 45.7353L262.203 47.1977C262.203 47.1977 267.629 50.7075 266.423 53.9247C265.217 57.142 260.094 63.869 260.094 63.869C260.094 63.869 264.615 68.8412 264.615 70.5961C264.615 70.5961 276.369 66.5014 285.109 70.5961C285.109 70.5961 285.109 64.7465 286.315 63.5766C287.52 62.4067 288.123 58.312 285.109 54.8022C282.986 52.2196 281.071 49.4817 279.383 46.6128L276.369 44.8579L274.817 45.3358C274.817 45.3358 277.876 48.6601 274.862 48.9526C271.848 49.2451 267.026 48.3676 265.519 46.6128Z" fill="#409374"/>
<path d="M277.007 8.82471C276.01 9.84626 274.644 10.5029 273.161 10.6737C270.597 11.0098 272.612 14.7077 272.612 14.7077C272.612 14.7077 271.879 13.363 273.344 12.1864C274.809 11.0098 277.007 10.3375 277.007 8.82471Z" fill="#006F46"/>
<path d="M271.861 19.1199C273.486 19.1199 274.803 17.6383 274.803 15.8107C274.803 13.983 273.486 12.5015 271.861 12.5015C270.237 12.5015 268.92 13.983 268.92 15.8107C268.92 17.6383 270.237 19.1199 271.861 19.1199Z" fill="#006F46"/>
<path d="M275.701 19.1198C273.228 17.8307 268.973 16.8167 266.713 16.8892L267.285 14.7075C269.286 16.0643 273.518 17.0972 276.273 16.9381L275.701 19.1198Z" fill="#009688"/>
<path d="M270.388 19.1196C270.388 19.1196 266.542 24.2252 258.851 25.3598C251.159 26.4944 257.202 38.9748 257.202 38.9748C257.202 38.9748 255.005 34.4365 259.4 30.4654C263.795 26.4944 270.388 24.2252 270.388 19.1196Z" fill="#006F46"/>
<path d="M270.6 19.1196C270.6 19.1196 272.785 26.9039 276.061 28.0159C279.338 29.1279 277.7 40.8042 272.239 41.9163C272.239 41.9163 276.88 35.5221 274.15 30.518C271.419 25.5138 269.781 21.6217 270.6 19.1196Z" fill="#006F46"/>
<path d="M323.337 5.88281H302.746V8.08894H323.337V5.88281Z" fill="#006F46"/>
<path d="M322.969 13.9721C323.985 13.9721 324.808 10.8444 324.808 6.98607C324.808 3.12777 323.985 0 322.969 0C321.954 0 321.131 3.12777 321.131 6.98607C321.131 10.8444 321.954 13.9721 322.969 13.9721Z" fill="#006F46"/>
<path d="M302.378 13.9721C303.393 13.9721 304.216 10.8444 304.216 6.98607C304.216 3.12777 303.393 0 302.378 0C301.362 0 300.539 3.12777 300.539 6.98607C300.539 10.8444 301.362 13.9721 302.378 13.9721Z" fill="#006F46"/>
<path d="M97.5745 163.416C97.5745 154.798 92.2195 147.811 85.6137 147.811C81.4618 147.811 77.8051 150.572 75.6605 154.762C74.924 154.515 74.152 154.388 73.3747 154.388C71.3646 154.422 69.4455 155.229 68.019 156.641C66.0857 151.416 61.9863 147.811 57.2415 147.811C52.8051 147.811 48.9357 150.964 46.8708 155.645C45.6596 154.835 44.236 154.398 42.7772 154.388C37.7077 154.388 33.598 159.75 33.598 166.364C33.5831 168.596 34.0777 170.801 35.0442 172.813H95.1623C96.7744 169.944 97.606 166.705 97.5745 163.416Z" fill="#409374"/>
<path d="M188.764 204.504C188.764 207.906 189.94 211.198 192.082 213.792C194.223 216.386 197.191 218.114 200.457 218.669C203.723 219.224 207.074 218.569 209.914 216.822C212.754 215.074 214.898 212.346 215.964 209.126C217.03 205.905 216.948 202.4 215.735 199.234C214.521 196.069 212.253 193.45 209.336 191.843C206.418 190.236 203.041 189.746 199.804 190.459C196.568 191.173 193.683 193.045 191.664 195.741C189.783 198.253 188.763 201.334 188.764 204.504Z" fill="#BFDBD1"/>
<path d="M194.902 197.447V203.016" stroke="#7FB7A2" stroke-width="0.283582" stroke-miterlimit="10"/>
<path d="M205.258 202.523L199.6 206.362" stroke="#7FB7A2" stroke-width="0.283582" stroke-miterlimit="10"/>
<path d="M199.6 193.982L206.221 196.831" stroke="#7FB7A2" stroke-width="0.283582" stroke-miterlimit="10"/>
<path d="M210.678 203.514L210.318 212.178" stroke="#7FB7A2" stroke-width="0.283582" stroke-miterlimit="10"/>
<path d="M206.222 214.779L198.756 210.94" stroke="#7FB7A2" stroke-width="0.283582" stroke-miterlimit="10"/>
<path d="M194.902 211.562V216.401" stroke="#7FB7A2" stroke-width="0.283582" stroke-miterlimit="10"/>
<path d="M192.131 207.846L188.875 206.362" stroke="#7FB7A2" stroke-width="0.283582" stroke-miterlimit="10"/>
<path d="M210.315 196.333L210.066 192.285" stroke="#7FB7A2" stroke-width="0.283582" stroke-miterlimit="10"/>
<path d="M212.486 201.04L216.526 202.225" stroke="#7FB7A2" stroke-width="0.283582" stroke-miterlimit="10"/>
<path d="M213.569 201.039L210.438 195.465L205.26 196.333V202.523L210.803 205.494L213.569 201.039Z" fill="#7FB7A2"/>
<path d="M191.66 195.74L194.888 197.446C195.972 195.963 200.422 194.228 200.422 194.228L199.96 190.437C196.662 191.118 193.714 193.002 191.66 195.74Z" fill="#7FB7A2"/>
<path d="M200.441 205.741L194.783 203.016L191.652 207.599L194.903 212.922L200.441 212.054V205.741Z" fill="#7FB7A2"/>
<path d="M205.26 214.022V218.614C207.073 218.272 208.802 217.564 210.348 216.532C211.893 215.5 213.225 214.163 214.266 212.6L210.318 210.936L205.26 214.022Z" fill="#7FB7A2"/>
</svg>
