<svg width="398" height="285" viewBox="0 0 398 285" fill="none" xmlns="http://www.w3.org/2000/svg">
<path d="M0.240138 24.6851C1.53132 35.9619 10.5869 44.8913 12.7354 56.029C13.0047 57.4892 13.1694 58.9677 13.2283 60.4527C13.5372 66.8492 12.305 73.3777 12.9402 79.7849C14.1238 91.8002 21.2287 101.19 30.2496 109.327C37.0734 115.467 44.994 120.868 52.2795 126.094C70.828 139.412 88.2242 156.225 95.8428 178.123C100.921 192.724 101.31 208.593 105.037 223.619C108.765 238.645 117.255 254.021 131.604 258.812C147.004 263.956 163.973 255.38 179.821 258.769C196.829 262.408 208.89 278.929 225.672 283.595C246.994 289.525 268.243 274.955 290.13 271.919C300.64 270.46 311.338 271.698 321.903 270.763C333.664 269.712 345.053 265.993 355.248 259.875C358.719 257.781 362.228 255.209 363.842 251.406C365.23 248.12 365.019 244.374 364.592 240.818C362.995 227.618 358.955 213.27 365.31 201.668C371.173 190.966 385.379 183.31 383.272 171.227C382.005 163.953 375.05 159.411 368.601 156.154C355.3 149.436 341.132 144.178 329.244 135.106C320.74 128.606 313.417 119.537 310.293 109.338C309.012 105.26 308.485 100.972 308.738 96.6948C309.175 89.9522 311.445 82.382 307.488 76.9844C305.774 74.6441 303.146 73.2064 300.505 72.1077C290.543 67.9694 279.478 67.7304 269.121 64.7907C265.57 63.7944 262.157 62.3366 258.965 60.4527C252.648 56.6926 247.563 51.1523 246.334 43.921C245.616 39.6828 246.255 35.0558 244.196 31.3099C240.725 24.9598 233.864 22.3056 226.2 21.4422C216.714 20.372 205.971 22.0451 198.78 22.8692L198.061 22.9477C188.825 23.9359 179.665 21.8347 170.665 18.6667C160.947 15.274 151.447 10.6577 142.204 7.37563C141.336 7.06645 140.471 6.77035 139.608 6.48733C132.86 4.2774 125.952 2.62516 118.949 1.54636C109.072 0.0183315 99.0608 -0.378899 89.0989 0.361954C84.0466 0.736112 79.0194 1.4079 74.0421 2.37402C72.5797 2.65941 71.1196 2.96503 69.6618 3.29086C61.1858 5.15665 52.755 7.43628 44.1089 7.57184C43.4877 7.57184 42.8629 7.57184 42.2416 7.57184C31.9295 7.3899 21.3849 4.69645 11.6004 7.95C7.15072 9.43764 2.88497 12.363 1.09398 16.8009C0.0978306 19.2732 -0.0618309 22.0309 0.240138 24.6851Z" fill="#B2CDC4"/>
<path d="M13.2282 60.4527H22.138C22.2709 58.085 23.0763 55.8092 24.4544 53.907C25.8326 52.0048 27.7231 50.5597 29.892 49.7502C28.2729 48.834 26.9962 47.3904 26.263 45.6466C25.5297 43.9028 25.3815 41.9579 25.8417 40.1181C26.3019 38.2782 27.3444 36.6479 28.8049 35.4838C30.2655 34.3197 32.0613 33.6879 33.9096 33.6879C35.7578 33.6879 37.5536 34.3197 39.0142 35.4838C40.4748 36.6479 41.5172 38.2782 41.9774 40.1181C42.4376 41.9579 42.2894 43.9028 41.5561 45.6466C40.8229 47.3904 39.5462 48.834 37.9271 49.7502C40.0961 50.5597 41.9865 52.0048 43.3647 53.907C44.7429 55.8092 45.5482 58.085 45.6811 60.4527H45.7575C45.9535 58.1502 46.7855 55.9531 48.1555 54.1202C49.5256 52.2873 51.3766 50.8949 53.4907 50.107C52.2602 49.4108 51.221 48.4061 50.4697 47.1863C49.7183 45.9665 49.2793 44.5712 49.1934 43.1303C49.1074 41.6893 49.3774 40.2494 49.9781 38.9444C50.5789 37.6394 51.491 36.5118 52.6295 35.6663C53.768 34.8208 55.0961 34.285 56.4902 34.1086C57.8842 33.9322 59.2991 34.121 60.6031 34.6574C61.9072 35.1939 63.0581 36.0605 63.9488 37.1767C64.8396 38.293 65.4412 39.6226 65.6979 41.042C66.7186 40.1858 67.8719 39.5117 69.1098 39.0478C67.4907 38.1316 66.214 36.688 65.4808 34.9442C64.7475 33.2004 64.5993 31.2555 65.0595 29.4156C65.5197 27.5757 66.5622 25.9454 68.0227 24.7813C69.4833 23.6172 71.2791 22.9855 73.1273 22.9855C74.9756 22.9855 76.7714 23.6172 78.232 24.7813C79.6926 25.9454 80.735 27.5757 81.1952 29.4156C81.6554 31.2555 81.5072 33.2004 80.7739 34.9442C80.0407 36.688 78.764 38.1316 77.1449 39.0478C79.4267 39.8973 81.3981 41.4493 82.7906 43.4921C84.1831 45.535 84.929 47.9694 84.9267 50.4637V60.4527H88.7447V52.6042C88.7424 50.1099 89.4883 47.6755 90.8808 45.6326C92.2733 43.5898 94.2448 42.0378 96.5265 41.1883C94.9074 40.2721 93.6307 38.8285 92.8975 37.0847C92.1642 35.3409 92.016 33.3959 92.4762 31.5561C92.9364 29.7162 93.9789 28.0859 95.4394 26.9218C96.9 25.7577 98.6958 25.1259 100.544 25.1259C102.392 25.1259 104.188 25.7577 105.649 26.9218C107.109 28.0859 108.152 29.7162 108.612 31.5561C109.072 33.3959 108.924 35.3409 108.191 37.0847C107.457 38.8285 106.181 40.2721 104.562 41.1883C106.07 41.7531 107.452 42.6276 108.621 43.7586C109.791 44.8895 110.724 46.2532 111.365 47.7667C112.761 45.7269 114.734 44.1776 117.015 43.3288C115.396 42.4126 114.119 40.9689 113.386 39.2251C112.653 37.4814 112.505 35.5364 112.965 33.6966C113.425 31.8567 114.468 30.2264 115.928 29.0623C117.389 27.8982 119.185 27.2664 121.033 27.2664C122.881 27.2664 124.677 27.8982 126.137 29.0623C127.598 30.2264 128.64 31.8567 129.101 33.6966C129.561 35.5364 129.413 37.4814 128.679 39.2251C127.946 40.9689 126.67 42.4126 125.05 43.3288C127.566 44.2696 129.698 46.0591 131.097 48.4053V46.8963C131.094 44.4019 131.84 41.9675 133.233 39.9246C134.625 37.8818 136.597 36.3299 138.879 35.4803C137.259 34.5641 135.983 33.1205 135.249 31.3767C134.516 29.6329 134.368 27.688 134.828 25.8481C135.288 24.0083 136.331 22.3779 137.791 21.2138C139.252 20.0497 141.048 19.418 142.896 19.418C144.744 19.418 146.54 20.0497 148.001 21.2138C149.461 22.3779 150.504 24.0083 150.964 25.8481C151.424 27.688 151.276 29.6329 150.543 31.3767C149.809 33.1205 148.533 34.5641 146.914 35.4803C149.195 36.3299 151.167 37.8818 152.559 39.9246C153.952 41.9675 154.698 44.4019 154.695 46.8963V60.4527H158.861C159.509 58.9754 160.439 57.6463 161.595 56.5435C162.751 55.4408 164.109 54.5866 165.591 54.0312C163.972 53.115 162.695 51.6714 161.962 49.9276C161.228 48.1838 161.08 46.2389 161.54 44.399C162.001 42.5592 163.043 40.9289 164.504 39.7648C165.964 38.6007 167.76 37.9689 169.608 37.9689C171.456 37.9689 173.252 38.6007 174.713 39.7648C176.173 40.9289 177.216 42.5592 177.676 44.399C178.136 46.2389 177.988 48.1838 177.255 49.9276C176.522 51.6714 175.245 53.115 173.626 54.0312C174.449 54.3386 175.236 54.7394 175.972 55.2263C176.265 53.0343 177.136 50.9664 178.491 49.2465C179.845 47.5267 181.632 46.2205 183.657 45.4693C182.038 44.5531 180.761 43.1094 180.028 41.3656C179.294 39.6218 179.146 37.6769 179.606 35.8371C180.067 33.9972 181.109 32.3669 182.57 31.2028C184.03 30.0387 185.826 29.4069 187.674 29.4069C189.523 29.4069 191.318 30.0387 192.779 31.2028C194.239 32.3669 195.282 33.9972 195.742 35.8371C196.202 37.6769 196.054 39.6218 195.321 41.3656C194.588 43.1094 193.311 44.5531 191.692 45.4693C193.43 46.122 194.996 47.1851 196.262 48.5731C197.528 49.961 198.459 51.635 198.981 53.4604C200.283 51.9498 201.932 50.7972 203.778 50.107C202.158 49.1908 200.882 47.7472 200.149 46.0034C199.415 44.2596 199.267 42.3147 199.727 40.4748C200.187 38.6349 201.23 37.0046 202.69 35.8405C204.151 34.6764 205.947 34.0447 207.795 34.0447C209.643 34.0447 211.439 34.6764 212.9 35.8405C214.36 37.0046 215.403 38.6349 215.863 40.4748C216.323 42.3147 216.175 44.2596 215.442 46.0034C214.708 47.7472 213.432 49.1908 211.813 50.107C213.086 50.5846 214.27 51.2846 215.311 52.1761C215.946 50.6319 216.883 49.239 218.066 48.0849C219.249 46.9307 220.65 46.0402 222.184 45.4693C220.565 44.5531 219.288 43.1094 218.555 41.3656C217.822 39.6218 217.673 37.6769 218.133 35.8371C218.594 33.9972 219.636 32.3669 221.097 31.2028C222.557 30.0387 224.353 29.4069 226.201 29.4069C228.05 29.4069 229.845 30.0387 231.306 31.2028C232.767 32.3669 233.809 33.9972 234.269 35.8371C234.729 37.6769 234.581 39.6218 233.848 41.3656C233.115 43.1094 231.838 44.5531 230.219 45.4693C232.501 46.3188 234.472 47.8707 235.865 49.9136C237.257 51.9564 238.003 54.3909 238.001 56.8852V60.4527H258.965C262.156 62.3351 265.568 63.7917 269.117 64.7872C279.475 67.7268 290.54 67.9658 300.501 72.1041C303.143 73.2029 305.77 74.6406 307.485 76.9809C311.442 82.3785 309.172 89.9487 308.734 96.6912C308.479 100.965 309.002 105.251 310.279 109.327H30.2495C21.2251 101.208 14.1236 91.8002 12.9401 79.7849C12.3222 73.3813 13.5371 66.8528 13.2282 60.4527Z" fill="#409374"/>
<path d="M345.078 27.4605V165.875L338.136 161.238V27.4605H333.971L332.236 156.6L325.641 151.605L330.153 25.6768" stroke="#BFDBD1" stroke-width="0.283582" stroke-miterlimit="10"/>
<path d="M353.759 37.4492L325.644 39.0546" stroke="#BFDBD1" stroke-width="0.283582" stroke-miterlimit="10"/>
<path d="M352.023 44.584L325.644 45.6542" stroke="#BFDBD1" stroke-width="0.283582" stroke-miterlimit="10"/>
<path d="M352.023 53.1465L325.644 53.86" stroke="#BFDBD1" stroke-width="0.283582" stroke-miterlimit="10"/>
<path d="M352.023 60.9946L325.644 62.0649" stroke="#BFDBD1" stroke-width="0.283582" stroke-miterlimit="10"/>
<path d="M352.023 69.9136H324.603" stroke="#BFDBD1" stroke-width="0.283582" stroke-miterlimit="10"/>
<path d="M352.024 78.8325L323.909 77.7622" stroke="#BFDBD1" stroke-width="0.283582" stroke-miterlimit="10"/>
<path d="M352.024 87.0373L323.909 85.6104" stroke="#BFDBD1" stroke-width="0.283582" stroke-miterlimit="10"/>
<path d="M352.024 95.9564L323.909 93.8159" stroke="#BFDBD1" stroke-width="0.283582" stroke-miterlimit="10"/>
<path d="M352.717 103.805L322.868 100.951" stroke="#BFDBD1" stroke-width="0.283582" stroke-miterlimit="10"/>
<path d="M352.717 112.723L322.868 108.085" stroke="#BFDBD1" stroke-width="0.283582" stroke-miterlimit="10"/>
<path d="M352.717 123.069L321.826 117.361" stroke="#BFDBD1" stroke-width="0.283582" stroke-miterlimit="10"/>
<path d="M352.717 134.842L321.826 125.566" stroke="#BFDBD1" stroke-width="0.283582" stroke-miterlimit="10"/>
<path d="M353.412 146.971L320.785 133.771" stroke="#BFDBD1" stroke-width="0.283582" stroke-miterlimit="10"/>
<path d="M353.412 158.031L320.785 141.62" stroke="#BFDBD1" stroke-width="0.283582" stroke-miterlimit="10"/>
<path d="M318.005 27.1038L312.452 148.751H305.163L309.675 27.1038H301.692L296.485 148.751H288.502L293.015 27.1038H283.296L279.825 148.751H271.148L274.966 28.174H265.941L263.859 148.751H255.876L258.305 27.1038H250.322L248.587 148.751H240.951L242.686 27.1038H233.662V148.751H224.638V27.1038H216.307L217.696 148.751H210.407L208.324 27.1038H199.994L202.771 148.751H195.482L192.011 27.1038H184.722L187.499 148.751H180.904L175.698 27.1038H168.756L174.309 148.751H167.368L159.732 27.1038H151.401L161.12 148.751H154.525L145.154 27.1038H138.559L148.278 148.751H140.989L131.617 25.6768H125.023L135.782 148.751H128.841L117.734 25.6768" stroke="#BFDBD1" stroke-width="0.283582" stroke-miterlimit="10"/>
<path d="M102.115 27.4605L112.527 150.892L107.321 155.173L99.3378 27.4605H93.7844L99.3378 159.811L91.3547 165.162L88.2344 25.6768" stroke="#BFDBD1" stroke-width="0.283582" stroke-miterlimit="10"/>
<path d="M80.5986 41.3735H112.531" stroke="#BFDBD1" stroke-width="0.283582" stroke-miterlimit="10"/>
<path d="M80.5986 50.2925H112.531" stroke="#BFDBD1" stroke-width="0.283582" stroke-miterlimit="10"/>
<path d="M80.5986 60.2812L112.531 59.2109" stroke="#BFDBD1" stroke-width="0.283582" stroke-miterlimit="10"/>
<path d="M80.5986 68.8433L113.919 67.0596" stroke="#BFDBD1" stroke-width="0.283582" stroke-miterlimit="10"/>
<path d="M80.5986 78.4758L113.919 77.0488" stroke="#BFDBD1" stroke-width="0.283582" stroke-miterlimit="10"/>
<path d="M80.5986 88.8213L115.308 87.0376" stroke="#BFDBD1" stroke-width="0.283582" stroke-miterlimit="10"/>
<path d="M80.5986 98.8102L115.308 95.2427" stroke="#BFDBD1" stroke-width="0.283582" stroke-miterlimit="10"/>
<path d="M80.5986 110.226L115.308 101.664" stroke="#BFDBD1" stroke-width="0.283582" stroke-miterlimit="10"/>
<path d="M80.5986 120.215L116.696 107.729" stroke="#BFDBD1" stroke-width="0.283582" stroke-miterlimit="10"/>
<path d="M80.5986 130.561L116.696 116.291" stroke="#BFDBD1" stroke-width="0.283582" stroke-miterlimit="10"/>
<path d="M79.5571 140.55L115.491 125.049" stroke="#BFDBD1" stroke-width="0.283582" stroke-miterlimit="10"/>
<path d="M79.5571 151.966L116.696 132.701" stroke="#BFDBD1" stroke-width="0.283582" stroke-miterlimit="10"/>
<path d="M79.5571 162.311L117.737 140.55" stroke="#BFDBD1" stroke-width="0.283582" stroke-miterlimit="10"/>
<path d="M325.645 37.4492L112.531 39.233" stroke="#BFDBD1" stroke-width="0.283582" stroke-miterlimit="10"/>
<path d="M325.471 43.8711L112.357 45.6548" stroke="#BFDBD1" stroke-width="0.283582" stroke-miterlimit="10"/>
<path d="M325.298 50.2925L112.184 52.0762" stroke="#BFDBD1" stroke-width="0.283582" stroke-miterlimit="10"/>
<path d="M325.124 56.7144L112.01 58.4981" stroke="#BFDBD1" stroke-width="0.283582" stroke-miterlimit="10"/>
<path d="M324.95 63.1357L111.836 64.9195" stroke="#BFDBD1" stroke-width="0.283582" stroke-miterlimit="10"/>
<path d="M324.777 69.5571L114.44 71.3409" stroke="#BFDBD1" stroke-width="0.283582" stroke-miterlimit="10"/>
<path d="M324.603 75.9785L114.266 77.7623" stroke="#BFDBD1" stroke-width="0.283582" stroke-miterlimit="10"/>
<path d="M324.43 82.3999L114.093 84.1836" stroke="#BFDBD1" stroke-width="0.283582" stroke-miterlimit="10"/>
<path d="M324.256 88.8213L113.919 90.605" stroke="#BFDBD1" stroke-width="0.283582" stroke-miterlimit="10"/>
<path d="M324.082 95.2427L115.828 97.0264" stroke="#BFDBD1" stroke-width="0.283582" stroke-miterlimit="10"/>
<path d="M323.909 101.664L115.655 103.448" stroke="#BFDBD1" stroke-width="0.283582" stroke-miterlimit="10"/>
<path d="M323.735 108.085L115.481 109.869" stroke="#BFDBD1" stroke-width="0.283582" stroke-miterlimit="10"/>
<path d="M323.562 114.507L116.696 116.291" stroke="#BFDBD1" stroke-width="0.283582" stroke-miterlimit="10"/>
<path d="M323.389 120.929L116.522 122.712" stroke="#BFDBD1" stroke-width="0.283582" stroke-miterlimit="10"/>
<path d="M323.215 127.35L117.39 129.134" stroke="#BFDBD1" stroke-width="0.283582" stroke-miterlimit="10"/>
<path d="M323.041 133.771L117.217 135.555" stroke="#BFDBD1" stroke-width="0.283582" stroke-miterlimit="10"/>
<path d="M322.868 140.193L117.043 141.977" stroke="#BFDBD1" stroke-width="0.283582" stroke-miterlimit="10"/>
<path d="M353.409 171.94L321.823 148.751H116.693L80.5986 171.94" stroke="#BFDBD1" stroke-width="0.850746" stroke-miterlimit="10"/>
<path d="M355.37 146.85C355.37 146.85 356.171 122.499 368.986 108.746C374.399 103.011 377.856 95.6247 378.836 87.6978C379.274 83.9325 379.375 80.1339 379.138 76.3496" stroke="#7FB7A2" stroke-width="0.567164" stroke-miterlimit="10"/>
<path d="M387.163 67.6337C386.285 70.3521 378.954 76.6023 378.954 76.6023C378.954 76.6023 376.709 67.0843 377.587 64.3659C378.022 63.078 378.932 62.0179 380.122 61.4147C381.311 60.8116 382.684 60.7139 383.943 61.1429C385.201 61.5719 386.246 62.493 386.849 63.707C387.452 64.921 387.566 66.3303 387.166 67.6301L387.163 67.6337Z" fill="#7FB7A2"/>
<path d="M390.221 85.393C388.048 87.1767 378.586 88.3362 378.586 88.3362C378.586 88.3362 381.735 79.0928 383.907 77.3019C384.422 76.8585 385.018 76.5251 385.66 76.3215C386.302 76.1179 386.977 76.048 387.646 76.1161C388.314 76.1841 388.963 76.3887 389.554 76.7178C390.144 77.0469 390.665 77.4939 391.085 78.0326C391.506 78.5713 391.817 79.1908 392.001 79.8548C392.186 80.5188 392.239 81.214 392.159 81.8996C392.078 82.5851 391.865 83.2473 391.533 83.8471C391.2 84.447 390.754 84.9726 390.221 85.393Z" fill="#7FB7A2"/>
<path d="M381.571 111.011C378.816 111.428 370.083 107.515 370.083 107.515C370.083 107.515 377.34 101.168 380.096 100.736C381.405 100.569 382.725 100.935 383.774 101.755C384.823 102.575 385.519 103.785 385.712 105.126C385.904 106.466 385.579 107.831 384.805 108.928C384.032 110.025 382.871 110.768 381.571 110.997V111.011Z" fill="#7FB7A2"/>
<path d="M370.78 128.877C368.132 129.769 358.882 127.425 358.882 127.425C358.882 127.425 364.991 119.912 367.639 119.016C368.273 118.789 368.944 118.694 369.614 118.736C370.284 118.778 370.939 118.957 371.54 119.263C372.142 119.569 372.678 119.995 373.118 120.516C373.557 121.037 373.891 121.643 374.1 122.299C374.309 122.954 374.389 123.646 374.334 124.333C374.28 125.021 374.093 125.69 373.784 126.303C373.474 126.915 373.05 127.457 372.534 127.899C372.018 128.34 371.422 128.672 370.78 128.873V128.877Z" fill="#7FB7A2"/>
<path d="M368.358 85.4249C369.645 87.965 377.851 92.9416 377.851 92.9416C377.851 92.9416 378.597 83.181 377.312 80.6374C377.007 80.033 376.588 79.4965 376.08 79.0585C375.573 78.6204 374.986 78.2894 374.354 78.0844C373.722 77.8793 373.057 77.8042 372.397 77.8633C371.737 77.9225 371.094 78.1147 370.506 78.4291C369.918 78.7435 369.396 79.1738 368.97 79.6955C368.544 80.2172 368.222 80.82 368.022 81.4697C367.823 82.1193 367.75 82.8029 367.807 83.4816C367.865 84.1602 368.052 84.8206 368.358 85.4249Z" fill="#7FB7A2"/>
<path d="M355.998 106.494C357.966 108.524 367.244 110.747 367.244 110.747C367.244 110.747 365.116 101.204 363.148 99.1737C362.198 98.2247 360.924 97.6974 359.599 97.7057C358.275 97.7139 357.006 98.257 356.068 99.2177C355.13 100.178 354.596 101.48 354.583 102.841C354.57 104.202 355.078 105.514 355.998 106.494Z" fill="#7FB7A2"/>
<path d="M346.716 128.66C348.32 131 357.101 134.803 357.101 134.803C357.101 134.803 356.574 125.024 354.967 122.673C354.588 122.11 354.104 121.629 353.543 121.258C352.982 120.888 352.356 120.635 351.699 120.515C351.043 120.395 350.37 120.41 349.719 120.559C349.069 120.708 348.453 120.987 347.908 121.382C347.363 121.777 346.9 122.278 346.544 122.858C346.189 123.438 345.949 124.084 345.838 124.76C345.728 125.436 345.748 126.127 345.899 126.795C346.05 127.462 346.328 128.092 346.716 128.649V128.66Z" fill="#7FB7A2"/>
<path d="M360.576 168.612C360.576 168.612 361.378 144.26 374.192 130.508C379.606 124.772 383.062 117.386 384.043 109.459C384.48 105.694 384.582 101.896 384.345 98.1113" stroke="#7FB7A2" stroke-width="0.567164" stroke-miterlimit="10"/>
<path d="M392.369 89.3959C391.491 92.1143 384.161 98.3645 384.161 98.3645C384.161 98.3645 381.915 88.8465 382.793 86.1281C383.228 84.8402 384.138 83.7801 385.328 83.1769C386.517 82.5738 387.89 82.4761 389.149 82.9051C390.408 83.3341 391.452 84.2552 392.055 85.4692C392.658 86.6832 392.773 88.0925 392.373 89.3923L392.369 89.3959Z" fill="#7FB7A2"/>
<path d="M395.427 107.155C393.255 108.938 383.793 110.098 383.793 110.098C383.793 110.098 386.941 100.855 389.114 99.0636C389.629 98.6202 390.225 98.2868 390.867 98.0832C391.509 97.8796 392.184 97.8097 392.852 97.8778C393.521 97.9458 394.17 98.1504 394.76 98.4795C395.351 98.8086 395.872 99.2556 396.292 99.7943C396.712 100.333 397.024 100.952 397.208 101.617C397.392 102.281 397.446 102.976 397.365 103.661C397.285 104.347 397.072 105.009 396.739 105.609C396.406 106.209 395.96 106.734 395.427 107.155Z" fill="#7FB7A2"/>
<path d="M386.778 132.773C384.022 133.19 375.289 129.277 375.289 129.277C375.289 129.277 382.547 122.93 385.303 122.499C386.611 122.331 387.931 122.697 388.98 123.517C390.03 124.338 390.725 125.547 390.918 126.888C391.111 128.228 390.785 129.593 390.012 130.69C389.238 131.788 388.077 132.53 386.778 132.759V132.773Z" fill="#7FB7A2"/>
<path d="M375.987 150.639C373.339 151.531 364.089 149.187 364.089 149.187C364.089 149.187 370.197 141.674 372.846 140.778C373.479 140.551 374.151 140.455 374.82 140.498C375.49 140.54 376.145 140.719 376.747 141.025C377.348 141.33 377.885 141.756 378.324 142.277C378.764 142.799 379.098 143.405 379.307 144.06C379.515 144.716 379.595 145.408 379.541 146.095C379.486 146.783 379.299 147.452 378.99 148.064C378.681 148.676 378.256 149.219 377.74 149.661C377.225 150.102 376.629 150.433 375.987 150.635V150.639Z" fill="#7FB7A2"/>
<path d="M373.564 107.187C374.852 109.727 383.057 114.704 383.057 114.704C383.057 114.704 383.803 104.943 382.519 102.4C381.901 101.179 380.837 100.261 379.561 99.8466C378.284 99.4324 376.9 99.5564 375.712 100.191C374.525 100.826 373.631 101.92 373.228 103.232C372.826 104.544 372.946 105.967 373.564 107.187Z" fill="#7FB7A2"/>
<path d="M361.204 128.256C363.172 130.286 372.45 132.508 372.45 132.508C372.45 132.508 370.322 122.965 368.354 120.935C367.405 119.986 366.13 119.459 364.806 119.467C363.481 119.476 362.213 120.019 361.274 120.979C360.336 121.94 359.803 123.242 359.79 124.603C359.776 125.964 360.284 127.276 361.204 128.256Z" fill="#7FB7A2"/>
<path d="M351.923 150.421C353.526 152.761 362.308 156.564 362.308 156.564C362.308 156.564 361.78 146.786 360.173 144.435C359.794 143.871 359.31 143.39 358.749 143.02C358.189 142.65 357.562 142.397 356.906 142.277C356.249 142.157 355.576 142.172 354.926 142.321C354.275 142.469 353.659 142.749 353.114 143.144C352.569 143.538 352.106 144.04 351.751 144.62C351.396 145.2 351.156 145.846 351.045 146.522C350.934 147.198 350.955 147.889 351.105 148.556C351.256 149.224 351.534 149.854 351.923 150.411V150.421Z" fill="#7FB7A2"/>
<path d="M75.562 38.4595C75.7321 31.5564 80.3831 25.4917 86.9466 24.0112L87.134 23.9719C87.3991 23.9176 87.6689 23.8913 87.9393 23.8934H347.702C349.621 23.8774 351.51 24.3724 353.187 25.3302C354.864 26.288 356.271 27.676 357.271 29.3588L357.337 29.4766C357.719 30.1652 357.925 30.9422 357.934 31.7348L360.347 171.937H352.016L349.24 34.9455C349.24 34.9455 349.24 31.0213 345.769 30.6645C345.238 30.611 338.796 30.5718 328.272 30.5468L322.17 149.109H318.699L325.485 30.5432C279.218 30.4505 165.972 30.5682 113.412 30.6324L120.153 148.395H116.682L110.629 30.636L90.6223 30.661C89.1553 30.6619 87.7141 31.0576 86.4421 31.8087C85.17 32.5597 84.1114 33.6399 83.3716 34.9419L80.5948 171.933H72.2646L75.562 38.4595Z" fill="#7FB7A2"/>
<path d="M84.9261 174.826C84.9261 174.826 83.8015 155.968 92.7113 144.381C96.479 139.546 98.6189 133.585 98.8097 127.393C98.877 124.451 98.6818 121.508 98.2266 118.603" stroke="#7FB7A2" stroke-width="0.567164" stroke-miterlimit="10"/>
<path d="M103.8 111.275C103.318 113.44 98.1047 118.82 98.1047 118.82C98.1047 118.82 95.675 111.642 96.1714 109.481C96.2853 108.965 96.4969 108.478 96.7941 108.047C97.0912 107.615 97.4681 107.249 97.9032 106.967C98.3383 106.685 98.8231 106.495 99.33 106.406C99.8368 106.317 100.356 106.331 100.857 106.448C101.358 106.565 101.833 106.783 102.252 107.088C102.672 107.394 103.029 107.781 103.303 108.228C103.577 108.675 103.762 109.174 103.849 109.695C103.935 110.216 103.921 110.749 103.807 111.264L103.8 111.275Z" fill="#7FB7A2"/>
<path d="M107.431 124.753C105.88 126.301 98.6602 127.906 98.6602 127.906C98.6602 127.906 100.427 120.532 101.978 118.988C102.347 118.62 102.782 118.33 103.26 118.135C103.737 117.94 104.247 117.843 104.761 117.851C105.275 117.859 105.782 117.97 106.254 118.179C106.726 118.388 107.153 118.691 107.511 119.07C107.869 119.449 108.151 119.896 108.341 120.387C108.53 120.878 108.624 121.402 108.617 121.93C108.609 122.458 108.501 122.979 108.297 123.464C108.094 123.949 107.8 124.388 107.431 124.756V124.753Z" fill="#7FB7A2"/>
<path d="M102.589 145.181C100.506 145.712 93.4707 143.351 93.4707 143.351C93.4707 143.351 98.6111 137.903 100.714 137.371C101.722 137.116 102.787 137.282 103.675 137.834C104.563 138.386 105.202 139.277 105.451 140.313C105.699 141.348 105.537 142.443 105.001 143.356C104.464 144.269 103.596 144.925 102.589 145.181Z" fill="#7FB7A2"/>
<path d="M95.5362 159.79C93.5543 160.678 86.248 159.568 86.248 159.568C86.248 159.568 90.4131 153.304 92.4054 152.433C92.8782 152.21 93.3897 152.085 93.9099 152.067C94.4301 152.049 94.9485 152.138 95.4348 152.329C95.9212 152.519 96.3656 152.808 96.7421 153.177C97.1186 153.546 97.4196 153.989 97.6275 154.48C97.8354 154.97 97.9459 155.498 97.9527 156.033C97.9594 156.568 97.8623 157.099 97.6668 157.595C97.4714 158.091 97.1817 158.542 96.8147 158.921C96.4476 159.3 96.0106 159.6 95.5293 159.804L95.5362 159.79Z" fill="#7FB7A2"/>
<path d="M90.5593 126.451C91.7324 128.317 98.4244 131.535 98.4244 131.535C98.4244 131.535 98.3029 123.943 97.1262 122.077C96.5619 121.182 95.6748 120.554 94.66 120.331C93.6453 120.109 92.5859 120.309 91.7151 120.889C90.8443 121.469 90.2333 122.381 90.0165 123.424C89.7997 124.467 89.995 125.556 90.5593 126.451Z" fill="#7FB7A2"/>
<path d="M82.5238 143.629C84.1864 145.056 91.51 146.062 91.51 146.062C91.51 146.062 89.1845 138.856 87.5184 137.436C87.1228 137.099 86.6664 136.845 86.1754 136.689C85.6844 136.533 85.1683 136.479 84.6567 136.528C84.145 136.577 83.6478 136.729 83.1934 136.976C82.739 137.223 82.3363 137.559 82.0084 137.966C81.6804 138.372 81.4336 138.841 81.282 139.346C81.1304 139.851 81.0771 140.381 81.1249 140.907C81.1728 141.433 81.321 141.944 81.561 142.411C81.801 142.878 82.1282 143.292 82.5238 143.629Z" fill="#7FB7A2"/>
<path d="M76.9462 161.441C78.3519 163.128 85.4013 165.401 85.4013 165.401C85.4013 165.401 84.2941 157.909 82.8849 156.207C82.2092 155.398 81.2482 154.897 80.2132 154.815C79.1783 154.733 78.1542 155.078 77.3662 155.772C76.5782 156.467 76.0909 157.454 76.0115 158.518C75.9321 159.582 76.267 160.635 76.9427 161.444L76.9462 161.441Z" fill="#7FB7A2"/>
<g opacity="0.1">
<path opacity="0.1" d="M132.763 102.317C132.721 102.264 132.7 102.228 132.7 102.228L132.763 102.317Z" fill="url(#paint0_linear)"/>
</g>
<path d="M241.708 172.946L246.133 182.043C246.133 182.043 247.313 185.379 246.133 187.502C244.953 189.624 245.248 194.023 245.248 194.023C245.248 194.023 242.888 201.158 240.968 204.486C239.049 207.815 240.229 212.692 240.229 212.692L232.558 213.601C232.558 213.601 235.509 207.686 234.641 203.288C233.773 198.889 237.15 190.859 237.15 188.122C237.15 187.516 237.89 186.15 236.411 184.18C234.933 182.211 229.33 177.206 229.469 174.323L241.708 172.946Z" fill="#BFDBD1"/>
<path d="M202.611 170.824C202.611 170.824 199.779 174.855 199.449 178.779C199.35 180.004 199.117 181.214 198.755 182.386C198.32 183.748 198.281 185.211 198.644 186.596C198.936 187.704 199.129 188.837 199.22 189.981C199.402 192.188 199.91 194.353 200.727 196.403C202.077 199.817 203.851 204.476 203.955 205.414C204.104 206.93 204.84 210.569 204.84 210.569L210.74 212.845C210.74 212.845 208.97 208.446 208.97 204.201C208.97 199.956 210.15 195.711 206.888 188.733C206.888 188.733 206.738 186.913 207.929 184.184C209.119 181.455 213.684 174.327 213.684 174.327L202.611 170.824Z" fill="#BFDBD1"/>
<g opacity="0.1">
<path opacity="0.1" d="M211.899 150.96C211.75 152.03 207.62 160.363 206.145 161.726C204.791 162.978 202.191 171.651 201.775 173.057C201.508 173.11 201.244 173.171 200.98 173.249C200.98 173.249 203.93 163.089 205.405 161.723C206.881 160.356 211.011 152.016 211.16 150.956C211.188 150.746 212.052 150.671 213.409 150.692C212.493 150.71 211.927 150.788 211.899 150.96Z" fill="black"/>
<path opacity="0.1" d="M222.232 169.307C224.315 169.004 228.428 174.159 230.052 177.798C230.146 178.008 230.24 178.201 230.337 178.383C231.253 180.095 232.291 180.595 233.009 180.712C232.534 180.802 230.927 180.877 229.598 178.383C229.5 178.201 229.407 178.008 229.313 177.798C227.824 174.459 224.228 169.849 222.048 169.343L222.232 169.307Z" fill="black"/>
<path opacity="0.1" d="M212.149 175.929L212.125 175.904C211.649 175.547 207.96 173.05 203.916 172.896C208.238 172.743 212.358 175.515 212.864 175.904L212.889 175.929C213.315 176.407 211.434 179.139 210.973 179.782C210.697 179.846 210.418 179.892 210.136 179.921C210.136 179.921 212.635 176.471 212.149 175.929Z" fill="black"/>
</g>
<path d="M250.118 93.7875C250.118 93.7875 250.118 84.537 244.217 84.0803C238.317 83.6237 236.234 86.8095 237.432 87.1127C238.629 87.4159 243.627 89.5386 243.627 89.5386L246.872 95.1502L250.118 93.7875Z" fill="#BFDBD1"/>
<path d="M196.707 95.9105C196.707 95.9105 196.707 86.66 202.608 86.2034C208.508 85.7467 210.591 88.9325 209.393 89.2357C208.196 89.539 203.198 91.6616 203.198 91.6616L199.953 97.2733L196.707 95.9105Z" fill="#BFDBD1"/>
<path d="M223.413 105.464C223.413 105.464 222.968 111.529 226.658 115.018C230.347 118.507 218.102 122.902 218.102 122.902L212.642 116.231C212.642 116.231 217.068 113.501 214.725 108.799L223.413 105.464Z" fill="#BFDBD1"/>
<path d="M224.6 112.299L224.659 112.381L224.6 112.299Z" fill="#D39999"/>
<path d="M216.849 112.973C220.842 112.973 224.079 109.646 224.079 105.542C224.079 101.438 220.842 98.1113 216.849 98.1113C212.856 98.1113 209.619 101.438 209.619 105.542C209.619 109.646 212.856 112.973 216.849 112.973Z" fill="#BFDBD1"/>
<path d="M216.818 101.012C216.88 101.764 216.932 102.567 216.596 103.238C216.408 103.575 216.174 103.882 215.901 104.151L214.367 105.76C213.891 106.188 213.521 106.726 213.288 107.33C212.85 108.828 214.142 110.316 214.1 111.882C213.869 112.255 213.525 112.539 213.121 112.693C212.718 112.846 212.276 112.859 211.865 112.731C211.531 112.599 211.217 112.42 210.931 112.199L209.47 111.175C208.342 110.383 207.162 109.527 206.596 108.25C206.002 106.905 206.204 105.35 206.176 103.873C206.111 102.974 206.098 102.072 206.138 101.172C206.237 100.314 206.471 99.4773 206.832 98.6963C207.486 97.1341 208.557 95.7945 209.921 94.8327C210.604 94.3591 211.373 94.0319 212.181 93.8707C212.99 93.7095 213.822 93.7175 214.628 93.8944C214.886 93.978 215.155 94.0272 215.426 94.0407C215.95 94.0407 216.401 93.6839 216.884 93.4735C217.497 93.2271 218.173 93.1953 218.806 93.3829C219.439 93.5706 219.994 93.9672 220.386 94.5116C220.705 94.9754 220.889 95.5283 221.222 95.9778C221.719 96.6485 222.527 97.0731 222.864 97.8401C223.201 98.6071 222.975 99.4847 223.048 100.312C223.152 101.052 223.373 101.769 223.704 102.435C222.885 102.142 222.486 101.222 221.969 100.516C221.559 99.9914 221.045 99.5631 220.462 99.2591C219.878 98.9552 219.238 98.7828 218.584 98.7533C218.133 98.7319 217.297 98.6963 216.939 99.0494C216.481 99.4918 216.759 100.459 216.818 101.012Z" fill="#006F46"/>
<g opacity="0.1">
<path opacity="0.1" d="M224.655 112.375C224.613 112.321 224.592 112.289 224.592 112.289L224.655 112.375Z" fill="black"/>
<path opacity="0.1" d="M199.672 96.4167C200.157 96.4269 200.628 96.2457 200.987 95.9102L200.845 96.5238C200.452 96.6048 200.045 96.5677 199.672 96.4167Z" fill="black"/>
<path opacity="0.1" d="M225.828 113.159C229.525 118.992 221.201 119.416 221.201 119.416C220.567 119.506 219.922 119.459 219.306 119.277C219.69 119.324 220.078 119.324 220.462 119.277C220.462 119.277 229.382 118.824 224.655 112.385C224.963 112.756 225.371 113.026 225.828 113.159Z" fill="black"/>
<path opacity="0.1" d="M210.726 113.049C210.128 113.064 209.531 112.991 208.953 112.831C209.296 112.892 209.645 112.915 209.994 112.899C210.913 112.859 211.833 112.954 212.726 113.181C212.066 113.057 211.395 113.013 210.726 113.049Z" fill="black"/>
<path opacity="0.1" d="M192.282 104.554L196.412 94.0908C196.578 94.3232 196.757 94.546 196.947 94.7579L193.021 104.69C191.251 109.089 193.611 110.605 193.611 110.605L205.857 122.131C210.577 123.951 211.167 133.504 211.167 133.504C213.086 137.143 210.282 151.856 210.282 151.856C212.142 155.191 214.735 156.85 217.536 157.535C214.457 156.996 211.57 155.33 209.553 151.702C209.553 151.702 212.358 136.993 210.438 133.351C210.438 133.351 209.848 123.797 205.128 121.978L192.872 110.469C192.872 110.469 190.512 108.953 192.282 104.554Z" fill="black"/>
<path opacity="0.1" d="M245.397 93.1812C245.7 93.301 246.012 93.3929 246.331 93.4559C247.948 94.915 248.493 106.98 248.493 106.98L240.822 110.619C240.822 110.619 233.152 110.619 229.903 112.592C228.313 113.559 227.185 113.541 226.432 113.273C227.126 113.316 228.018 113.127 229.15 112.442C232.395 110.469 240.069 110.469 240.069 110.469L247.74 106.83C247.74 106.83 247.167 93.7876 245.397 93.1812Z" fill="black"/>
<path opacity="0.1" d="M246.685 93.5166C247.806 93.6664 249.347 93.4987 249.972 91.665L250.319 92.6104C249.35 94.0232 247.58 93.7627 246.685 93.5166Z" fill="black"/>
</g>
<path d="M208.498 64.9154C208.497 68.0846 209.59 71.1514 211.584 73.5693C213.577 75.9872 216.341 77.5992 219.383 78.1181C222.424 78.637 225.547 78.0291 228.193 76.4027C230.84 74.7763 232.838 72.2371 233.833 69.2373C234.828 66.2376 234.755 62.9722 233.626 60.023C232.497 57.0738 230.386 54.6322 227.67 53.1333C224.953 51.6344 221.806 51.1755 218.791 51.8384C215.776 52.5013 213.088 54.2429 211.205 56.753C209.451 59.092 208.499 61.962 208.498 64.9154Z" fill="url(#paint1_linear)"/>
<path d="M208.977 64.9154C208.973 67.9695 210.024 70.926 211.943 73.2579C213.862 75.5897 216.524 77.1454 219.455 77.6476C222.386 78.1499 225.395 77.566 227.947 76.0002C230.498 74.4343 232.425 71.9882 233.385 69.0978C234.345 66.2074 234.275 63.0605 233.188 60.2181C232.101 57.3757 230.067 55.0224 227.449 53.5777C224.831 52.133 221.799 51.6907 218.893 52.3297C215.988 52.9688 213.397 54.6476 211.583 57.0669C209.897 59.3163 208.981 62.0754 208.977 64.9154Z" fill="#BFDBD1"/>
<path d="M214.489 58.583V63.5846" stroke="#7FB7A2" stroke-width="0.283582" stroke-miterlimit="10"/>
<path d="M223.784 63.1392L218.706 66.5854" stroke="#7FB7A2" stroke-width="0.283582" stroke-miterlimit="10"/>
<path d="M218.706 55.4756L224.652 58.0299" stroke="#7FB7A2" stroke-width="0.283582" stroke-miterlimit="10"/>
<path d="M228.65 64.0273L228.324 71.8045" stroke="#7FB7A2" stroke-width="0.283582" stroke-miterlimit="10"/>
<path d="M224.652 74.1379L217.949 70.6953" stroke="#7FB7A2" stroke-width="0.283582" stroke-miterlimit="10"/>
<path d="M214.489 71.252V75.5936" stroke="#7FB7A2" stroke-width="0.283582" stroke-miterlimit="10"/>
<path d="M212.004 67.9156L209.081 66.585" stroke="#7FB7A2" stroke-width="0.283582" stroke-miterlimit="10"/>
<path d="M228.324 57.5845L228.102 53.9492" stroke="#7FB7A2" stroke-width="0.283582" stroke-miterlimit="10"/>
<path d="M230.271 61.8086L233.895 62.8717" stroke="#7FB7A2" stroke-width="0.283582" stroke-miterlimit="10"/>
<path d="M231.243 61.8078L228.435 56.8062L223.788 57.5839V63.1384L228.758 65.8069L231.243 61.8078Z" fill="#7FB7A2"/>
<path d="M211.583 57.0526L214.492 58.583C215.464 57.2488 219.462 55.6934 219.462 55.6934L219.046 52.2793C216.079 52.8914 213.428 54.5871 211.583 57.0526Z" fill="#7FB7A2"/>
<path d="M219.463 66.0282L214.381 63.5845L211.57 67.6942L214.489 72.4711L219.463 71.6934V66.0282Z" fill="#7FB7A2"/>
<path d="M223.784 73.4706V77.5768C225.412 77.2689 226.964 76.6329 228.352 75.7052C229.739 74.7776 230.934 73.5768 231.868 72.172L228.324 70.6772L223.784 73.4706Z" fill="#7FB7A2"/>
<path d="M38.1665 159.668C38.1671 162.229 39.0522 164.706 40.6641 166.659C42.276 168.611 44.51 169.913 46.9681 170.33C49.4262 170.748 51.9487 170.255 54.0862 168.939C56.2238 167.624 57.8375 165.571 58.6399 163.147C59.4423 160.722 59.3812 158.084 58.4676 155.702C57.554 153.319 55.8471 151.348 53.6512 150.138C51.4552 148.928 48.9127 148.559 46.4768 149.097C44.0408 149.634 41.8695 151.043 40.3497 153.072C38.9336 154.963 38.1659 157.282 38.1665 159.668Z" fill="#BFDBD1"/>
<path d="M42.79 154.356V158.551" stroke="#7FB7A2" stroke-width="0.283582" stroke-miterlimit="10"/>
<path d="M50.5855 158.177L46.3232 161.066" stroke="#7FB7A2" stroke-width="0.283582" stroke-miterlimit="10"/>
<path d="M46.3232 151.748L51.3109 153.892" stroke="#7FB7A2" stroke-width="0.283582" stroke-miterlimit="10"/>
<path d="M54.6638 158.923L54.3931 165.448" stroke="#7FB7A2" stroke-width="0.283582" stroke-miterlimit="10"/>
<path d="M51.3109 167.402L45.688 164.513" stroke="#7FB7A2" stroke-width="0.283582" stroke-miterlimit="10"/>
<path d="M42.79 164.98V168.622" stroke="#535461" stroke-width="0.283582" stroke-miterlimit="10"/>
<path d="M40.7039 162.183L38.2534 161.066" stroke="#7FB7A2" stroke-width="0.283582" stroke-miterlimit="10"/>
<path d="M54.393 153.518L54.2056 150.471" stroke="#7FB7A2" stroke-width="0.283582" stroke-miterlimit="10"/>
<path d="M56.0244 157.06L59.0649 157.952" stroke="#7FB7A2" stroke-width="0.283582" stroke-miterlimit="10"/>
<path d="M56.8405 157.06L54.4838 152.868L50.5859 153.517V158.177L54.7545 160.413L56.8405 157.06Z" fill="#7FB7A2"/>
<path d="M40.3496 153.072L42.7792 154.356C43.5949 153.239 46.9443 151.934 46.9443 151.934L46.5972 149.08C44.1146 149.593 41.8958 151.01 40.3496 153.072Z" fill="#7FB7A2"/>
<path d="M46.9584 160.599L42.6996 158.551L40.3394 161.997L42.7898 166.004L46.9584 165.351V160.599Z" fill="#7FB7A2"/>
<path d="M50.5859 166.842V170.299C51.9511 170.041 53.253 169.507 54.4165 168.729C55.5799 167.951 56.5819 166.943 57.3646 165.765L54.3935 164.513L50.5859 166.842Z" fill="#7FB7A2"/>
<path d="M30.1489 173.156C30.1495 175.717 31.0346 178.195 32.6465 180.147C34.2584 182.1 36.4924 183.401 38.9505 183.818C41.4086 184.236 43.9311 183.743 46.0686 182.428C48.2062 181.112 49.8199 179.059 50.6223 176.635C51.4247 174.211 51.3636 171.572 50.45 169.19C49.5364 166.808 47.8296 164.836 45.6336 163.626C43.4376 162.417 40.8952 162.048 38.4592 162.585C36.0232 163.122 33.8519 164.531 32.3321 166.56C30.916 168.451 30.1484 170.77 30.1489 173.156Z" fill="#BFDBD1"/>
<path d="M34.7725 167.845V172.037" stroke="#7FB7A2" stroke-width="0.283582" stroke-miterlimit="10"/>
<path d="M42.5679 171.666L38.3091 174.555" stroke="#7FB7A2" stroke-width="0.283582" stroke-miterlimit="10"/>
<path d="M38.3091 165.237L43.2933 167.381" stroke="#7FB7A2" stroke-width="0.283582" stroke-miterlimit="10"/>
<path d="M46.6462 172.411L46.3755 178.932" stroke="#7FB7A2" stroke-width="0.283582" stroke-miterlimit="10"/>
<path d="M43.2932 180.891L37.6738 178.001" stroke="#7FB7A2" stroke-width="0.283582" stroke-miterlimit="10"/>
<path d="M34.7725 178.469V182.111" stroke="#7FB7A2" stroke-width="0.283582" stroke-miterlimit="10"/>
<path d="M32.6863 175.672L30.2358 174.555" stroke="#7FB7A2" stroke-width="0.283582" stroke-miterlimit="10"/>
<path d="M46.3754 167.006L46.188 163.959" stroke="#7FB7A2" stroke-width="0.283582" stroke-miterlimit="10"/>
<path d="M48.0068 170.549L51.0474 171.441" stroke="#7FB7A2" stroke-width="0.283582" stroke-miterlimit="10"/>
<path d="M48.8229 170.548L46.4662 166.353L42.5684 167.006V171.665L46.7404 173.902L48.8229 170.548Z" fill="#7FB7A2"/>
<path d="M32.332 166.56L34.7617 167.844C35.5773 166.728 38.9268 165.422 38.9268 165.422L38.5797 162.568C36.097 163.081 33.8783 164.499 32.332 166.56Z" fill="#7FB7A2"/>
<path d="M38.9407 174.088L34.6819 172.037L32.3252 175.486L34.7722 179.493L38.9407 178.84V174.088Z" fill="#7FB7A2"/>
<path d="M42.5684 180.32V183.777C43.933 183.519 45.2345 182.987 46.398 182.21C47.5614 181.433 48.5637 180.427 49.347 179.25L46.3759 177.998L42.5684 180.32Z" fill="#7FB7A2"/>
<path d="M192.872 110.469L205.117 121.995C209.838 123.815 210.428 133.368 210.428 133.368C212.347 137.007 209.543 151.719 209.543 151.719C216.485 164.156 233.593 153.539 233.593 153.539C233.593 153.539 233.627 153.104 233.683 152.337C233.732 151.666 233.798 150.738 233.87 149.636C233.968 148.209 234.079 146.486 234.183 144.617C234.415 140.532 234.627 135.773 234.627 132.006C234.627 123.665 239.938 120.329 239.938 120.329L249.125 114.528L252.186 112.595C255.432 111.228 255.876 107.743 255.876 107.743L249.975 91.668C249.011 94.5006 245.855 93.3625 245.446 93.202C247.181 94.0082 247.761 106.833 247.761 106.833L240.09 110.472C240.09 110.472 232.42 110.472 229.171 112.445C226.394 114.122 225.037 112.837 224.69 112.413C229.355 118.834 220.466 119.266 220.466 119.266C215.745 119.873 214.711 113.808 214.711 113.808C214.711 113.808 212.202 112.738 209.991 112.898C207.78 113.059 203.351 110.758 203.351 110.758L198.63 106.209L200.991 95.8954C198.908 97.7149 196.416 94.076 196.416 94.076L192.285 104.539C190.512 108.952 192.872 110.469 192.872 110.469Z" fill="#409374"/>
<path d="M212.149 175.929C212.635 176.471 210.133 179.924 210.133 179.924C210.133 179.924 213.968 179.621 214.263 176.892C214.291 176.665 214.341 176.442 214.412 176.225C215.301 173.482 219.591 169.589 221.493 169.311C223.576 169.008 227.689 174.163 229.313 177.802C229.407 178.012 229.5 178.205 229.598 178.387C231.184 181.355 233.148 180.684 233.148 180.684C232.107 179.364 231.892 178.319 232.218 177.474C233.509 174.202 243.179 174.298 243.179 174.298C243.179 174.298 238.754 163.835 236.984 162.622C235.214 161.409 232.409 152.309 232.409 152.309C232.409 152.309 211.309 149.883 211.164 150.942C211.018 152.002 206.884 160.346 205.409 161.709C203.934 163.072 200.983 173.235 200.983 173.235C205.999 171.719 211.531 175.433 212.122 175.89L212.149 175.929Z" fill="#409374"/>
<path d="M239.864 210.177L243.922 217.23C243.922 217.23 245.841 219.049 247.317 218.746C248.792 218.443 250.267 222.991 244.217 222.081C238.167 221.172 231.087 217.836 231.087 217.836C231.087 217.836 230.424 211.693 233.815 210.344L239.864 210.177Z" fill="#006F46"/>
<path d="M204.16 207.751L200.987 215.41C200.987 215.41 200.102 217.55 198.332 217.55C196.562 217.55 195.972 221.343 201.726 220.736C207.481 220.13 211.761 215.428 211.761 215.428C211.761 215.428 211.317 208.15 208.661 207.693C207.172 207.402 205.641 207.422 204.16 207.751Z" fill="#006F46"/>
<defs>
<linearGradient id="paint0_linear" x1="132.718" y1="102.317" x2="132.718" y2="102.228" gradientUnits="userSpaceOnUse">
<stop stop-color="#808080" stop-opacity="0.25"/>
<stop offset="0.54" stop-color="#808080" stop-opacity="0.12"/>
<stop offset="1" stop-color="#808080" stop-opacity="0.1"/>
</linearGradient>
<linearGradient id="paint1_linear" x1="13700.8" y1="7275.98" x2="13700.8" y2="5269.27" gradientUnits="userSpaceOnUse">
<stop stop-color="#808080" stop-opacity="0.25"/>
<stop offset="0.54" stop-color="#808080" stop-opacity="0.12"/>
<stop offset="1" stop-color="#808080" stop-opacity="0.1"/>
</linearGradient>
</defs>
</svg>
