<svg width="263" height="263" fill="none" xmlns="http://www.w3.org/2000/svg"><circle cx="131.5" cy="131.5" r="127.5" fill="#BFDBD1" stroke="#7FB7A2" stroke-width="8"/><mask id="a" fill="#fff"><path d="M201.674 152.307a1.2 1.2 0 00.132-.19l-7.365-4.758c.568-.88 2.968-3.958 9.974-6.629 4.912-1.873 10.192-1.962 16.877-2.075 2.437-.041 5.199-.088 8.173-.231a4.382 4.382 0 014.589 4.168 4.383 4.383 0 01-4.167 4.59c-3.11.15-5.946.198-8.446.24-6.054.102-10.428.176-13.903 1.501-4.467 1.703-5.851 3.367-5.864 3.384z"/></mask><path d="M201.674 152.307a1.2 1.2 0 00.132-.19l-7.365-4.758c.568-.88 2.968-3.958 9.974-6.629 4.912-1.873 10.192-1.962 16.877-2.075 2.437-.041 5.199-.088 8.173-.231a4.382 4.382 0 014.589 4.168 4.383 4.383 0 01-4.167 4.59c-3.11.15-5.946.198-8.446.24-6.054.102-10.428.176-13.903 1.501-4.467 1.703-5.851 3.367-5.864 3.384z" fill="#006F46" stroke="#006F46" stroke-width="2" mask="url(#a)"/><mask id="b" fill="#fff"><path d="M99.245 146.165c-5.15 0-10.092-2.464-13.798-6.948a4.385 4.385 0 01.115-5.721c5.743-6.401 6.287-14.615 6.682-20.613.28-4.231.5-7.572 2.49-9.868 2.45-2.826 5.798-4.869 9.676-7.234 2.543-1.55 5.425-3.309 8.609-5.604 2.728-1.967 5.002-3.982 7.2-5.93 4.139-3.666 7.713-6.834 12.349-7.696 11.449-2.129 35.083 2.05 57.539 10.17 3.644.809 9.791-2.112 17.541-5.799 2.884-1.371 6.153-2.926 9.705-4.487a4.386 4.386 0 015.778 2.25 4.386 4.386 0 01-2.25 5.778c-3.432 1.508-6.638 3.033-9.467 4.378-9.848 4.684-16.965 8.07-23.677 6.327a4.139 4.139 0 01-.394-.122c-23.639-8.579-44.643-11.462-53.171-9.875-2.245.418-4.845 2.722-8.138 5.64-2.25 1.994-4.802 4.254-7.887 6.479-3.458 2.492-6.493 4.343-9.171 5.977-3.264 1.991-5.867 3.578-7.443 5.297-.27.823-.425 3.163-.54 4.897-.395 5.984-.966 14.636-6.254 22.491 1.42.951 3.252 1.653 5.421 1.388 5-.615 10.276-6.138 14.894-15.575.556-1.992 2.593-2.884 5.046-3.958a458.122 458.122 0 015.724-2.445c4.137-1.741 8.278-3.448 8.278-3.448a4.384 4.384 0 113.341 8.106c-5.831 2.404-12.27 5.113-14.845 6.268-7.542 15.041-15.744 19.062-21.367 19.754-.664.083-1.327.123-1.986.123z"/></mask><path d="M99.245 146.165c-5.15 0-10.092-2.464-13.798-6.948a4.385 4.385 0 01.115-5.721c5.743-6.401 6.287-14.615 6.682-20.613.28-4.231.5-7.572 2.49-9.868 2.45-2.826 5.798-4.869 9.676-7.234 2.543-1.55 5.425-3.309 8.609-5.604 2.728-1.967 5.002-3.982 7.2-5.93 4.139-3.666 7.713-6.834 12.349-7.696 11.449-2.129 35.083 2.05 57.539 10.17 3.644.809 9.791-2.112 17.541-5.799 2.884-1.371 6.153-2.926 9.705-4.487a4.386 4.386 0 015.778 2.25 4.386 4.386 0 01-2.25 5.778c-3.432 1.508-6.638 3.033-9.467 4.378-9.848 4.684-16.965 8.07-23.677 6.327a4.139 4.139 0 01-.394-.122c-23.639-8.579-44.643-11.462-53.171-9.875-2.245.418-4.845 2.722-8.138 5.64-2.25 1.994-4.802 4.254-7.887 6.479-3.458 2.492-6.493 4.343-9.171 5.977-3.264 1.991-5.867 3.578-7.443 5.297-.27.823-.425 3.163-.54 4.897-.395 5.984-.966 14.636-6.254 22.491 1.42.951 3.252 1.653 5.421 1.388 5-.615 10.276-6.138 14.894-15.575.556-1.992 2.593-2.884 5.046-3.958a458.122 458.122 0 015.724-2.445c4.137-1.741 8.278-3.448 8.278-3.448a4.384 4.384 0 113.341 8.106c-5.831 2.404-12.27 5.113-14.845 6.268-7.542 15.041-15.744 19.062-21.367 19.754-.664.083-1.327.123-1.986.123z" fill="#006F46" stroke="#006F46" stroke-width="2" mask="url(#b)"/><mask id="c" fill="#fff"><path d="M185.487 171.472c-3.708 0-7.94-.6-12.718-1.995-13.057-3.813-21.388-9.414-21.736-9.651a4.383 4.383 0 014.922-7.256c.122.082 7.658 5.099 19.271 8.49 12.157 3.551 19.716.704 21.593-3.442.257-.566.898-2.349-.426-3.685-27.117-3.69-35.974-13.714-43.109-21.791-4.959-5.613-8.876-10.047-18.34-11.868a4.387 4.387 0 01-3.476-5.135 4.39 4.39 0 015.134-3.476c12.398 2.387 17.917 8.634 23.253 14.673 6.912 7.824 14.059 15.913 38.821 19.054.64.081 1.255.302 1.799.648 5.127 3.258 6.908 9.506 4.333 15.196-2.406 5.313-8.708 10.238-19.321 10.238z"/></mask><path d="M185.487 171.472c-3.708 0-7.94-.6-12.718-1.995-13.057-3.813-21.388-9.414-21.736-9.651a4.383 4.383 0 014.922-7.256c.122.082 7.658 5.099 19.271 8.49 12.157 3.551 19.716.704 21.593-3.442.257-.566.898-2.349-.426-3.685-27.117-3.69-35.974-13.714-43.109-21.791-4.959-5.613-8.876-10.047-18.34-11.868a4.387 4.387 0 01-3.476-5.135 4.39 4.39 0 015.134-3.476c12.398 2.387 17.917 8.634 23.253 14.673 6.912 7.824 14.059 15.913 38.821 19.054.64.081 1.255.302 1.799.648 5.127 3.258 6.908 9.506 4.333 15.196-2.406 5.313-8.708 10.238-19.321 10.238z" fill="#006F46" stroke="#006F46" stroke-width="2" mask="url(#c)"/><mask id="d" fill="#fff"><path d="M174.575 189.322c-2.17 0-4.523-.286-7.055-.926-14.817-3.748-26.347-12.095-26.83-12.448a4.384 4.384 0 015.171-7.082c.105.077 10.695 7.712 23.809 11.029 7.257 1.835 11.798-.517 13.628-3.33 1.31-2.013 1.303-4.218-.016-5.9a4.384 4.384 0 016.898-5.413c3.632 4.629 3.816 10.946.469 16.093-2.731 4.201-8.185 7.977-16.074 7.977z"/></mask><path d="M174.575 189.322c-2.17 0-4.523-.286-7.055-.926-14.817-3.748-26.347-12.095-26.83-12.448a4.384 4.384 0 015.171-7.082c.105.077 10.695 7.712 23.809 11.029 7.257 1.835 11.798-.517 13.628-3.33 1.31-2.013 1.303-4.218-.016-5.9a4.384 4.384 0 016.898-5.413c3.632 4.629 3.816 10.946.469 16.093-2.731 4.201-8.185 7.977-16.074 7.977z" fill="#006F46" stroke="#006F46" stroke-width="2" mask="url(#d)"/><mask id="e" fill="#fff"><path d="M158.877 202.71c-1.37 0-2.76-.139-4.15-.422-8.991-1.836-19.864-7.879-20.322-8.136a4.384 4.384 0 014.278-7.654c.1.056 10.154 5.638 17.798 7.199 3.731.762 7.402-.291 9.815-2.814 1.508-1.578 2.257-3.496 1.907-4.89a4.383 4.383 0 013.184-5.32 4.386 4.386 0 015.32 3.184c1.099 4.376-.423 9.268-4.073 13.085-3.574 3.738-8.521 5.768-13.757 5.768z"/></mask><path d="M158.877 202.71c-1.37 0-2.76-.139-4.15-.422-8.991-1.836-19.864-7.879-20.322-8.136a4.384 4.384 0 014.278-7.654c.1.056 10.154 5.638 17.798 7.199 3.731.762 7.402-.291 9.815-2.814 1.508-1.578 2.257-3.496 1.907-4.89a4.383 4.383 0 013.184-5.32 4.386 4.386 0 015.32 3.184c1.099 4.376-.423 9.268-4.073 13.085-3.574 3.738-8.521 5.768-13.757 5.768z" fill="#006F46" stroke="#006F46" stroke-width="2" mask="url(#e)"/><mask id="f" fill="#fff"><path d="M139.016 210c-6.805 0-14.676-2.42-21.431-6.886a4.385 4.385 0 014.838-7.314c7.24 4.787 16.798 6.77 21.763 4.513 1.78-.808 2.69-2.042 2.952-3.999a4.384 4.384 0 118.691 1.164c-.66 4.927-3.506 8.768-8.014 10.818-2.529 1.149-5.543 1.704-8.799 1.704z"/></mask><path d="M139.016 210c-6.805 0-14.676-2.42-21.431-6.886a4.385 4.385 0 014.838-7.314c7.24 4.787 16.798 6.77 21.763 4.513 1.78-.808 2.69-2.042 2.952-3.999a4.384 4.384 0 118.691 1.164c-.66 4.927-3.506 8.768-8.014 10.818-2.529 1.149-5.543 1.704-8.799 1.704z" fill="#006F46" stroke="#006F46" stroke-width="2" mask="url(#f)"/><mask id="g" fill="#fff"><path d="M53.987 157.142a4.37 4.37 0 01-3.184-1.369c-5.386-5.687-10.99-9.445-19.987-13.405a4.384 4.384 0 113.532-8.025c10.03 4.414 16.642 8.876 22.822 15.401a4.385 4.385 0 01-3.183 7.398z"/></mask><path d="M53.987 157.142a4.37 4.37 0 01-3.184-1.369c-5.386-5.687-10.99-9.445-19.987-13.405a4.384 4.384 0 113.532-8.025c10.03 4.414 16.642 8.876 22.822 15.401a4.385 4.385 0 01-3.183 7.398z" fill="#006F46" stroke="#006F46" stroke-width="2" mask="url(#g)"/><mask id="h" fill="#fff"><path d="M82.66 95.434c-8.065 0-17.157-4.918-27.827-11.207a4.384 4.384 0 114.453-7.553c10.257 6.044 19.95 11.337 25.828 9.671 11.339-3.205 31.745-7.98 41.012-3.933a4.384 4.384 0 01-3.509 8.036c-3.587-1.566-14.936-1.37-35.118 4.335-1.572.444-3.184.651-4.838.651z"/></mask><path d="M82.66 95.434c-8.065 0-17.157-4.918-27.827-11.207a4.384 4.384 0 114.453-7.553c10.257 6.044 19.95 11.337 25.828 9.671 11.339-3.205 31.745-7.98 41.012-3.933a4.384 4.384 0 01-3.509 8.036c-3.587-1.566-14.936-1.37-35.118 4.335-1.572.444-3.184.651-4.838.651z" fill="#006F46" stroke="#006F46" stroke-width="2" mask="url(#h)"/><mask id="i" fill="#fff"><path d="M112.423 207.163a17.27 17.27 0 01-1.563-.071c-6.858-.615-12.12-5.024-12.796-10.721a4.385 4.385 0 013.838-4.871 4.39 4.39 0 014.87 3.838c.168 1.415 2.398 2.799 4.871 3.021 1.419.126 4.832.043 5.91-3.476.939-3.065.553-5.846-.982-7.086-1.32-1.066-3.488-.887-5.95.488a4.385 4.385 0 01-4.276-7.655c5.664-3.164 11.546-3.036 15.734.345 4.404 3.555 5.882 9.868 3.859 16.474-1.845 6.022-7.059 9.714-13.515 9.714z"/></mask><path d="M112.423 207.163a17.27 17.27 0 01-1.563-.071c-6.858-.615-12.12-5.024-12.796-10.721a4.385 4.385 0 013.838-4.871 4.39 4.39 0 014.87 3.838c.168 1.415 2.398 2.799 4.871 3.021 1.419.126 4.832.043 5.91-3.476.939-3.065.553-5.846-.982-7.086-1.32-1.066-3.488-.887-5.95.488a4.385 4.385 0 01-4.276-7.655c5.664-3.164 11.546-3.036 15.734.345 4.404 3.555 5.882 9.868 3.859 16.474-1.845 6.022-7.059 9.714-13.515 9.714z" fill="#006F46" stroke="#006F46" stroke-width="2" mask="url(#i)"/><mask id="j" fill="#fff"><path d="M59.262 174.66c-4.61 0-9.203-2.833-11.731-7.246-2.457-4.288-2.456-9.291.003-13.384 3.298-5.487 7.988-8.839 13.94-9.962 5.906-1.114 11.714.946 15.163 5.374 2.973 3.817 3.543 8.695 1.526 13.052l-3.978-1.843 3.978 1.843c-3.59 7.751-10.26 12.072-18.779 12.165l-.122.001zm5.348-22.121c-.48 0-.984.045-1.51.145-3.484.657-6.041 2.52-8.05 5.862-1.056 1.757-.534 3.422.088 4.509.945 1.649 2.674 2.836 4.122 2.836h.028c5.166-.056 8.737-2.373 10.918-7.082.805-1.738.18-3.122-.487-3.978-.887-1.14-2.687-2.292-5.11-2.292z"/></mask><path d="M59.262 174.66c-4.61 0-9.203-2.833-11.731-7.246-2.457-4.288-2.456-9.291.003-13.384 3.298-5.487 7.988-8.839 13.94-9.962 5.906-1.114 11.714.946 15.163 5.374 2.973 3.817 3.543 8.695 1.526 13.052l-3.978-1.843 3.978 1.843c-3.59 7.751-10.26 12.072-18.779 12.165l-.122.001zm5.348-22.121c-.48 0-.984.045-1.51.145-3.484.657-6.041 2.52-8.05 5.862-1.056 1.757-.534 3.422.088 4.509.945 1.649 2.674 2.836 4.122 2.836h.028c5.166-.056 8.737-2.373 10.918-7.082.805-1.738.18-3.122-.487-3.978-.887-1.14-2.687-2.292-5.11-2.292z" fill="#006F46" stroke="#006F46" stroke-width="2" mask="url(#j)"/><mask id="k" fill="#fff"><path d="M93.382 203.036c-3.098 0-6.29-.828-8.999-2.508-5.516-3.424-7.697-9.4-5.834-15.987a4.384 4.384 0 118.437 2.388c-.793 2.802-.132 4.813 2.02 6.149 2.723 1.689 6.53 1.463 7.99.142 3.721-3.369 6.026-7.967 6.852-13.668.337-2.325-.775-4.917-2.644-6.163-1.367-.912-2.818-.886-4.436.082a4.384 4.384 0 11-4.498-7.526c4.549-2.72 9.577-2.665 13.798.148 4.686 3.124 7.281 9.038 6.459 14.717-1.127 7.774-4.373 14.136-9.647 18.911-2.428 2.197-5.898 3.315-9.498 3.315z"/></mask><path d="M93.382 203.036c-3.098 0-6.29-.828-8.999-2.508-5.516-3.424-7.697-9.4-5.834-15.987a4.384 4.384 0 118.437 2.388c-.793 2.802-.132 4.813 2.02 6.149 2.723 1.689 6.53 1.463 7.99.142 3.721-3.369 6.026-7.967 6.852-13.668.337-2.325-.775-4.917-2.644-6.163-1.367-.912-2.818-.886-4.436.082a4.384 4.384 0 11-4.498-7.526c4.549-2.72 9.577-2.665 13.798.148 4.686 3.124 7.281 9.038 6.459 14.717-1.127 7.774-4.373 14.136-9.647 18.911-2.428 2.197-5.898 3.315-9.498 3.315z" fill="#006F46" stroke="#006F46" stroke-width="2" mask="url(#k)"/><mask id="l" fill="#fff"><path d="M76.93 191.82c-3.29 0-6.758-1.182-9.868-3.993-2.694-2.434-4.407-5.671-4.826-9.116-.473-3.889.693-7.783 3.37-11.26 3.899-5.064 7.392-8.857 12.753-12.118 5.439-3.308 12.07-2.551 16.503 1.882 4.684 4.684 5.302 11.669 1.576 17.795l-.383.631c-2.022 3.34-4.791 7.916-9.462 12.331-2.49 2.354-5.963 3.848-9.663 3.848zm5.985-28.996c-4.217 2.566-6.992 5.601-10.36 9.976-3.444 4.472-.576 7.654.385 8.522 1.505 1.36 4.805 2.948 7.63.279 3.807-3.6 6.123-7.426 7.984-10.5l.391-.647c2.37-3.897.382-6.372-.284-7.038-1.228-1.229-3.383-2.029-5.746-.592z"/></mask><path d="M76.93 191.82c-3.29 0-6.758-1.182-9.868-3.993-2.694-2.434-4.407-5.671-4.826-9.116-.473-3.889.693-7.783 3.37-11.26 3.899-5.064 7.392-8.857 12.753-12.118 5.439-3.308 12.07-2.551 16.503 1.882 4.684 4.684 5.302 11.669 1.576 17.795l-.383.631c-2.022 3.34-4.791 7.916-9.462 12.331-2.49 2.354-5.963 3.848-9.663 3.848zm5.985-28.996c-4.217 2.566-6.992 5.601-10.36 9.976-3.444 4.472-.576 7.654.385 8.522 1.505 1.36 4.805 2.948 7.63.279 3.807-3.6 6.123-7.426 7.984-10.5l.391-.647c2.37-3.897.382-6.372-.284-7.038-1.228-1.229-3.383-2.029-5.746-.592z" fill="#006F46" stroke="#006F46" stroke-width="2" mask="url(#l)"/></svg>