<svg width="1440" height="1265" viewBox="0 0 1440 1265" fill="none" xmlns="http://www.w3.org/2000/svg">
<rect width="1440" height="1265" fill="#F1F1F2"/>
<rect width="1440" height="1265" fill="#F1F1F2"/>
<g opacity="0.5">
<path d="M-203.146 184.809C-197.454 234.516 -157.538 273.876 -148.068 322.97C-146.881 329.406 -146.155 335.923 -145.895 342.469C-144.534 370.664 -149.965 399.441 -147.165 427.683C-141.948 480.646 -110.63 522.034 -70.867 557.903C-40.7884 584.966 -5.8752 608.774 26.2382 631.811C107.998 690.513 184.679 764.625 218.261 861.146C240.644 925.509 242.358 995.454 258.789 1061.69C275.221 1127.92 312.643 1195.7 375.891 1216.82C443.774 1239.49 518.573 1201.69 588.43 1216.63C663.397 1232.67 716.562 1305.49 790.535 1326.06C884.519 1352.19 978.182 1287.97 1074.66 1274.59C1120.99 1268.16 1168.14 1273.62 1214.71 1269.5C1266.55 1264.86 1316.75 1248.47 1361.69 1221.5C1376.99 1212.27 1392.46 1200.93 1399.57 1184.17C1405.69 1169.69 1404.76 1153.18 1402.88 1137.5C1395.84 1079.32 1378.03 1016.07 1406.05 964.932C1431.89 917.756 1494.51 884.01 1485.22 830.749C1479.64 798.686 1448.98 778.668 1420.55 764.311C1361.92 734.7 1299.47 711.521 1247.07 671.533C1209.59 642.881 1177.3 602.908 1163.53 557.95C1157.89 539.975 1155.56 521.074 1156.68 502.22C1158.61 472.5 1168.61 439.131 1151.17 415.339C1143.61 405.023 1132.03 398.686 1120.39 393.843C1076.48 375.602 1027.71 374.548 982.053 361.591C966.401 357.199 951.357 350.773 937.287 342.469C909.442 325.895 887.028 301.474 881.612 269.599C878.445 250.918 881.26 230.522 872.188 214.011C856.888 186.02 826.641 174.321 792.86 170.515C751.047 165.798 703.696 173.173 671.995 176.805L668.828 177.151C628.117 181.507 587.741 172.245 548.07 158.281C505.232 143.326 463.357 122.978 422.615 108.511C418.79 107.148 414.976 105.843 411.171 104.595C381.43 94.8543 350.979 87.5714 320.109 82.8162C276.574 76.0808 232.445 74.3299 188.534 77.5955C166.264 79.2447 144.105 82.2059 122.165 86.4644C115.719 87.7224 109.283 89.0695 102.858 90.5058C65.4965 98.73 28.3343 108.778 -9.77655 109.376C-12.5151 109.376 -15.269 109.376 -18.0076 109.376C-63.4621 108.574 -109.942 96.7015 -153.071 111.043C-172.685 117.6 -191.487 130.495 -199.382 150.057C-203.773 160.954 -204.477 173.11 -203.146 184.809Z" fill="#CCCDCD"/>
<path d="M-145.895 342.469H-106.622C-106.036 332.032 -102.486 322.001 -96.411 313.617C-90.3362 305.232 -82.0032 298.862 -72.4428 295.294C-79.5796 291.255 -85.207 284.892 -88.4391 277.205C-91.6711 269.519 -92.3244 260.946 -90.2959 252.836C-88.2674 244.726 -83.6724 237.54 -77.2343 232.409C-70.7962 227.278 -62.8807 224.493 -54.7337 224.493C-46.5868 224.493 -38.6712 227.278 -32.2331 232.409C-25.795 237.54 -21.2001 244.726 -19.1716 252.836C-17.1431 260.946 -17.7963 269.519 -21.0284 277.205C-24.2605 284.892 -29.8879 291.255 -37.0247 295.294C-27.4643 298.862 -19.1312 305.232 -13.0565 313.617C-6.98172 322.001 -3.43178 332.032 -2.84583 342.469H-2.50925C-1.64529 332.32 2.02206 322.635 8.06104 314.556C14.1 306.477 22.2592 300.339 31.5778 296.866C26.154 293.797 21.5732 289.369 18.2614 283.992C14.9496 278.615 13.0144 272.465 12.6356 266.114C12.2568 259.762 13.4468 253.415 16.0949 247.663C18.743 241.911 22.7632 236.94 27.7818 233.213C32.8003 229.487 38.6542 227.125 44.7991 226.347C50.9441 225.57 57.1806 226.402 62.9287 228.766C68.6767 231.131 73.7498 234.951 77.6761 239.871C81.6024 244.791 84.2545 250.652 85.3858 256.909C89.8852 253.135 94.9689 250.163 100.425 248.118C93.2883 244.08 87.6609 237.717 84.4288 230.03C81.1967 222.344 80.5435 213.771 82.572 205.661C84.6005 197.551 89.1954 190.365 95.6336 185.233C102.072 180.102 109.987 177.317 118.134 177.317C126.281 177.317 134.197 180.102 140.635 185.233C147.073 190.365 151.668 197.551 153.696 205.661C155.725 213.771 155.072 222.344 151.839 230.03C148.607 237.717 142.98 244.08 135.843 248.118C145.901 251.863 154.591 258.704 160.729 267.709C166.867 276.713 170.155 287.444 170.144 298.439V342.469H186.974V307.874C186.963 296.879 190.251 286.148 196.389 277.144C202.528 268.139 211.217 261.298 221.275 257.554C214.138 253.515 208.511 247.152 205.279 239.465C202.047 231.779 201.393 223.206 203.422 215.096C205.45 206.986 210.045 199.8 216.483 194.668C222.922 189.537 230.837 186.752 238.984 186.752C247.131 186.752 255.047 189.537 261.485 194.668C267.923 199.8 272.518 206.986 274.546 215.096C276.575 223.206 275.922 231.779 272.689 239.465C269.457 247.152 263.83 253.515 256.693 257.554C263.344 260.043 269.432 263.898 274.587 268.883C279.742 273.868 283.857 279.879 286.68 286.551C292.834 277.559 301.53 270.73 311.587 266.989C304.451 262.95 298.823 256.587 295.591 248.9C292.359 241.214 291.706 232.641 293.734 224.531C295.763 216.421 300.358 209.235 306.796 204.104C313.234 198.972 321.15 196.188 329.296 196.188C337.443 196.188 345.359 198.972 351.797 204.104C358.235 209.235 362.83 216.421 364.859 224.531C366.887 232.641 366.234 241.214 363.002 248.9C359.77 256.587 354.142 262.95 347.005 266.989C358.095 271.136 367.49 279.024 373.657 289.365V282.714C373.647 271.719 376.935 260.988 383.073 251.983C389.211 242.979 397.901 236.138 407.958 232.393C400.821 228.355 395.194 221.991 391.962 214.305C388.73 206.619 388.077 198.046 390.105 189.936C392.134 181.826 396.729 174.64 403.167 169.508C409.605 164.377 417.52 161.592 425.667 161.592C433.814 161.592 441.73 164.377 448.168 169.508C454.606 174.64 459.201 181.826 461.229 189.936C463.258 198.046 462.605 206.619 459.373 214.305C456.141 221.991 450.513 228.355 443.376 232.393C453.434 236.138 462.124 242.979 468.262 251.983C474.4 260.988 477.688 271.719 477.678 282.714V342.469H496.037C498.897 335.957 502.995 330.099 508.089 325.238C513.184 320.377 519.172 316.612 525.702 314.164C518.566 310.125 512.938 303.762 509.706 296.076C506.474 288.389 505.821 279.816 507.849 271.706C509.878 263.596 514.473 256.41 520.911 251.279C527.349 246.148 535.265 243.363 543.412 243.363C551.558 243.363 559.474 246.148 565.912 251.279C572.35 256.41 576.945 263.596 578.974 271.706C581.002 279.816 580.349 288.389 577.117 296.076C573.885 303.762 568.257 310.125 561.121 314.164C564.748 315.519 568.217 317.285 571.463 319.432C572.755 309.769 576.595 300.654 582.565 293.074C588.536 285.493 596.41 279.735 605.336 276.424C598.199 272.385 592.572 266.022 589.34 258.335C586.107 250.649 585.454 242.076 587.483 233.966C589.511 225.856 594.106 218.67 600.544 213.539C606.982 208.407 614.898 205.623 623.045 205.623C631.192 205.623 639.107 208.407 645.545 213.539C651.984 218.67 656.578 225.856 658.607 233.966C660.635 242.076 659.982 250.649 656.75 258.335C653.518 266.022 647.891 272.385 640.754 276.424C648.418 279.301 655.317 283.987 660.898 290.105C666.478 296.223 670.583 303.602 672.883 311.648C678.624 304.989 685.892 299.908 694.026 296.866C686.89 292.828 681.262 286.464 678.03 278.778C674.798 271.091 674.145 262.518 676.173 254.409C678.202 246.299 682.797 239.112 689.235 233.981C695.673 228.85 703.588 226.065 711.735 226.065C719.882 226.065 727.798 228.85 734.236 233.981C740.674 239.112 745.269 246.299 747.298 254.409C749.326 262.518 748.673 271.091 745.441 278.778C742.209 286.464 736.581 292.828 729.444 296.866C735.057 298.972 740.275 302.057 744.866 305.987C747.662 299.18 751.795 293.04 757.008 287.953C762.221 282.866 768.401 278.94 775.159 276.424C768.022 272.385 762.395 266.022 759.163 258.335C755.931 250.649 755.277 242.076 757.306 233.966C759.334 225.856 763.929 218.67 770.368 213.539C776.806 208.407 784.721 205.623 792.868 205.623C801.015 205.623 808.931 208.407 815.369 213.539C821.807 218.67 826.402 225.856 828.43 233.966C830.459 242.076 829.805 250.649 826.573 258.335C823.341 266.022 817.714 272.385 810.577 276.424C820.635 280.168 829.325 287.009 835.463 296.014C841.601 305.018 844.889 315.749 844.878 326.744V342.469H937.287C951.353 350.766 966.391 357.187 982.037 361.575C1027.69 374.533 1076.47 375.586 1120.37 393.827C1132.02 398.671 1143.6 405.008 1151.16 415.323C1168.6 439.116 1158.59 472.484 1156.66 502.205C1155.54 521.045 1157.85 539.935 1163.47 557.903H-70.8669C-110.645 522.113 -141.948 480.646 -147.165 427.683C-149.888 399.457 -144.534 370.68 -145.895 342.469Z" fill="#AAA9A9"/>
<path d="M1316.86 197.043V807.161L1286.27 786.719V197.043H1267.91L1260.26 766.276L1231.19 744.261L1251.08 189.181" stroke="#F1F1F2" stroke-width="1.25" stroke-miterlimit="10"/>
<path d="M1355.13 241.073L1231.2 248.15" stroke="#F1F1F2" stroke-width="1.25" stroke-miterlimit="10"/>
<path d="M1347.48 272.524L1231.2 277.241" stroke="#F1F1F2" stroke-width="1.25" stroke-miterlimit="10"/>
<path d="M1347.48 310.264L1231.2 313.409" stroke="#F1F1F2" stroke-width="1.25" stroke-miterlimit="10"/>
<path d="M1347.48 344.859L1231.2 349.577" stroke="#F1F1F2" stroke-width="1.25" stroke-miterlimit="10"/>
<path d="M1347.48 384.172H1226.61" stroke="#F1F1F2" stroke-width="1.25" stroke-miterlimit="10"/>
<path d="M1347.48 423.485L1223.55 418.767" stroke="#F1F1F2" stroke-width="1.25" stroke-miterlimit="10"/>
<path d="M1347.48 459.653L1223.55 453.363" stroke="#F1F1F2" stroke-width="1.25" stroke-miterlimit="10"/>
<path d="M1347.48 498.965L1223.55 489.53" stroke="#F1F1F2" stroke-width="1.25" stroke-miterlimit="10"/>
<path d="M1350.54 533.561L1218.96 520.98" stroke="#F1F1F2" stroke-width="1.25" stroke-miterlimit="10"/>
<path d="M1350.54 572.874L1218.96 552.431" stroke="#F1F1F2" stroke-width="1.25" stroke-miterlimit="10"/>
<path d="M1350.54 618.476L1214.37 593.316" stroke="#F1F1F2" stroke-width="1.25" stroke-miterlimit="10"/>
<path d="M1350.54 670.369L1214.37 629.484" stroke="#F1F1F2" stroke-width="1.25" stroke-miterlimit="10"/>
<path d="M1353.6 723.834L1209.78 665.651" stroke="#F1F1F2" stroke-width="1.25" stroke-miterlimit="10"/>
<path d="M1353.6 772.582L1209.78 700.247" stroke="#F1F1F2" stroke-width="1.25" stroke-miterlimit="10"/>
<path d="M1197.53 195.471L1173.05 731.681H1140.92L1160.81 195.471H1125.62L1102.67 731.681H1067.48L1087.37 195.471H1044.54L1029.24 731.681H990.988L1007.82 200.188H968.039L958.859 731.681H923.67L934.38 195.471H899.191L891.542 731.681H857.883L865.533 195.471H825.754V731.681H785.976V195.471H749.257L755.377 731.681H723.248L714.069 195.471H677.35L689.59 731.681H657.461L642.161 195.471H610.033L622.272 731.681H593.203L570.254 195.471H539.655L564.135 731.681H533.536L499.877 195.471H463.158L505.997 731.681H476.928L435.62 195.471H406.551L449.389 731.681H417.26L375.952 189.181H346.883L394.311 731.681H363.712L314.754 189.181" stroke="#F1F1F2" stroke-width="1.25" stroke-miterlimit="10"/>
<path d="M245.907 197.043L291.805 741.116L268.856 759.986L233.667 197.043H209.188L233.667 780.429L198.479 804.016L184.725 189.181" stroke="#F1F1F2" stroke-width="1.25" stroke-miterlimit="10"/>
<path d="M151.066 258.371H291.82" stroke="#F1F1F2" stroke-width="1.25" stroke-miterlimit="10"/>
<path d="M151.066 297.684H291.82" stroke="#F1F1F2" stroke-width="1.25" stroke-miterlimit="10"/>
<path d="M151.066 341.714L291.82 336.997" stroke="#F1F1F2" stroke-width="1.25" stroke-miterlimit="10"/>
<path d="M151.066 379.454L297.94 371.592" stroke="#F1F1F2" stroke-width="1.25" stroke-miterlimit="10"/>
<path d="M151.066 421.912L297.94 415.622" stroke="#F1F1F2" stroke-width="1.25" stroke-miterlimit="10"/>
<path d="M151.066 467.515L304.06 459.652" stroke="#F1F1F2" stroke-width="1.25" stroke-miterlimit="10"/>
<path d="M151.066 511.545L304.06 495.82" stroke="#F1F1F2" stroke-width="1.25" stroke-miterlimit="10"/>
<path d="M151.066 561.865L304.06 524.125" stroke="#F1F1F2" stroke-width="1.25" stroke-miterlimit="10"/>
<path d="M151.066 605.896L310.18 550.858" stroke="#F1F1F2" stroke-width="1.25" stroke-miterlimit="10"/>
<path d="M151.066 651.499L310.18 588.598" stroke="#F1F1F2" stroke-width="1.25" stroke-miterlimit="10"/>
<path d="M146.476 695.529L304.871 627.203" stroke="#F1F1F2" stroke-width="1.25" stroke-miterlimit="10"/>
<path d="M146.476 745.849L310.18 660.934" stroke="#F1F1F2" stroke-width="1.25" stroke-miterlimit="10"/>
<path d="M146.476 791.452L314.77 695.529" stroke="#F1F1F2" stroke-width="1.25" stroke-miterlimit="10"/>
<path d="M1231.2 241.073L291.821 248.936" stroke="#F1F1F2" stroke-width="1.25" stroke-miterlimit="10"/>
<path d="M1230.44 269.379L291.056 277.241" stroke="#F1F1F2" stroke-width="1.25" stroke-miterlimit="10"/>
<path d="M1229.67 297.684L290.291 305.547" stroke="#F1F1F2" stroke-width="1.25" stroke-miterlimit="10"/>
<path d="M1228.91 325.989L289.526 333.852" stroke="#F1F1F2" stroke-width="1.25" stroke-miterlimit="10"/>
<path d="M1228.14 354.294L288.761 362.157" stroke="#F1F1F2" stroke-width="1.25" stroke-miterlimit="10"/>
<path d="M1227.38 382.6L300.235 390.462" stroke="#F1F1F2" stroke-width="1.25" stroke-miterlimit="10"/>
<path d="M1226.61 410.905L299.47 418.767" stroke="#F1F1F2" stroke-width="1.25" stroke-miterlimit="10"/>
<path d="M1225.85 439.21L298.705 447.073" stroke="#F1F1F2" stroke-width="1.25" stroke-miterlimit="10"/>
<path d="M1225.08 467.515L297.94 475.378" stroke="#F1F1F2" stroke-width="1.25" stroke-miterlimit="10"/>
<path d="M1224.32 495.82L306.355 503.683" stroke="#F1F1F2" stroke-width="1.25" stroke-miterlimit="10"/>
<path d="M1223.55 524.125L305.59 531.988" stroke="#F1F1F2" stroke-width="1.25" stroke-miterlimit="10"/>
<path d="M1222.79 552.431L304.825 560.293" stroke="#F1F1F2" stroke-width="1.25" stroke-miterlimit="10"/>
<path d="M1222.02 580.736L310.18 588.598" stroke="#F1F1F2" stroke-width="1.25" stroke-miterlimit="10"/>
<path d="M1221.26 609.041L309.415 616.904" stroke="#F1F1F2" stroke-width="1.25" stroke-miterlimit="10"/>
<path d="M1220.49 637.346L313.24 645.209" stroke="#F1F1F2" stroke-width="1.25" stroke-miterlimit="10"/>
<path d="M1219.73 665.651L312.475 673.514" stroke="#F1F1F2" stroke-width="1.25" stroke-miterlimit="10"/>
<path d="M1218.96 693.957L311.71 701.819" stroke="#F1F1F2" stroke-width="1.25" stroke-miterlimit="10"/>
<path d="M1353.58 833.894L1214.36 731.681H310.164L151.066 833.894" stroke="#F1F1F2" stroke-width="3.75" stroke-miterlimit="10"/>
<path d="M1362.23 723.299C1362.23 723.299 1365.76 615.96 1422.25 555.34C1446.11 530.059 1461.34 497.503 1465.67 462.562C1467.6 445.965 1468.04 429.221 1467 412.54" stroke="#B3B3B3" stroke-width="2.5" stroke-miterlimit="10"/>
<path d="M1477.72 565.325C1465.58 567.165 1427.08 549.914 1427.08 549.914C1427.08 549.914 1459.07 521.939 1471.22 520.037C1476.99 519.3 1482.81 520.911 1487.43 524.527C1492.06 528.142 1495.12 533.475 1495.97 539.384C1496.82 545.293 1495.39 551.309 1491.98 556.145C1488.57 560.981 1483.45 564.253 1477.72 565.262V565.325Z" fill="#BBBBBB"/>
<path d="M1430.16 644.077C1418.48 648.008 1377.71 637.677 1377.71 637.677C1377.71 637.677 1404.64 604.56 1416.31 600.613C1419.1 599.61 1422.06 599.189 1425.02 599.376C1427.97 599.562 1430.85 600.352 1433.51 601.699C1436.16 603.047 1438.52 604.924 1440.46 607.221C1442.4 609.519 1443.87 612.19 1444.79 615.08C1445.71 617.969 1446.06 621.018 1445.82 624.049C1445.58 627.079 1444.76 630.03 1443.39 632.729C1442.03 635.427 1440.16 637.82 1437.89 639.765C1435.61 641.711 1432.99 643.172 1430.16 644.061V644.077Z" fill="#BBBBBB"/>
<path d="M1419.48 452.545C1425.15 463.741 1461.32 485.678 1461.32 485.678C1461.32 485.678 1464.61 442.654 1458.95 431.442C1457.6 428.778 1455.76 426.413 1453.52 424.482C1451.28 422.551 1448.7 421.092 1445.91 420.188C1443.12 419.284 1440.19 418.953 1437.28 419.214C1434.37 419.475 1431.54 420.322 1428.95 421.708C1426.36 423.094 1424.06 424.99 1422.18 427.29C1420.3 429.589 1418.88 432.247 1418 435.11C1417.12 437.974 1416.8 440.987 1417.05 443.979C1417.31 446.97 1418.13 449.881 1419.48 452.545Z" fill="#BBBBBB"/>
<path d="M1365 545.417C1373.67 554.365 1414.57 564.162 1414.57 564.162C1414.57 564.162 1405.19 522.097 1396.51 513.149C1392.33 508.966 1386.71 506.642 1380.87 506.678C1375.03 506.715 1369.44 509.109 1365.31 513.343C1361.17 517.578 1358.82 523.315 1358.76 529.315C1358.7 535.315 1360.94 541.099 1365 545.417Z" fill="#BBBBBB"/>
<path d="M1324.09 643.117C1331.15 653.433 1369.86 670.196 1369.86 670.196C1369.86 670.196 1367.54 627.093 1360.45 616.731C1358.78 614.246 1356.65 612.126 1354.18 610.493C1351.7 608.861 1348.94 607.748 1346.05 607.218C1343.16 606.689 1340.19 606.754 1337.32 607.41C1334.45 608.066 1331.74 609.299 1329.34 611.039C1326.94 612.779 1324.89 614.99 1323.33 617.546C1321.76 620.102 1320.7 622.951 1320.22 625.929C1319.73 628.907 1319.82 631.956 1320.48 634.898C1321.15 637.84 1322.37 640.617 1324.09 643.07V643.117Z" fill="#BBBBBB"/>
<path d="M1385.18 819.223C1385.18 819.223 1388.71 711.883 1445.2 651.263C1469.06 625.982 1484.29 593.426 1488.62 558.485C1490.55 541.888 1490.99 525.144 1489.95 508.463" stroke="#B3B3B3" stroke-width="2.5" stroke-miterlimit="10"/>
<path d="M1453.11 740C1441.43 743.931 1400.66 733.599 1400.66 733.599C1400.66 733.599 1427.59 700.482 1439.26 696.535C1442.05 695.532 1445.01 695.112 1447.96 695.298C1450.92 695.485 1453.8 696.275 1456.46 697.622C1459.11 698.969 1461.47 700.847 1463.41 703.144C1465.35 705.442 1466.82 708.113 1467.74 711.003C1468.66 713.892 1469.01 716.941 1468.77 719.972C1468.53 723.002 1467.71 725.953 1466.34 728.652C1464.98 731.35 1463.11 733.742 1460.84 735.688C1458.56 737.634 1455.93 739.094 1453.11 739.984V740Z" fill="#BBBBBB"/>
<path d="M1442.43 548.468C1448.1 559.664 1484.27 581.601 1484.27 581.601C1484.27 581.601 1487.56 538.577 1481.9 527.365C1479.18 521.985 1474.49 517.937 1468.86 516.112C1463.23 514.286 1457.13 514.833 1451.9 517.631C1446.66 520.43 1442.72 525.251 1440.95 531.034C1439.17 536.817 1439.7 543.088 1442.43 548.468Z" fill="#BBBBBB"/>
<path d="M1387.95 641.34C1396.62 650.288 1437.52 660.085 1437.52 660.085C1437.52 660.085 1428.14 618.02 1419.46 609.072C1415.28 604.889 1409.66 602.565 1403.82 602.601C1397.98 602.638 1392.39 605.031 1388.26 609.266C1384.12 613.501 1381.77 619.238 1381.71 625.238C1381.65 631.238 1383.89 637.022 1387.95 641.34Z" fill="#BBBBBB"/>
<path d="M1347.04 739.04C1354.1 749.356 1392.81 766.119 1392.81 766.119C1392.81 766.119 1390.49 723.016 1383.4 712.654C1381.73 710.169 1379.6 708.049 1377.13 706.416C1374.65 704.784 1371.89 703.671 1369 703.142C1366.11 702.612 1363.14 702.678 1360.27 703.333C1357.4 703.989 1354.69 705.222 1352.29 706.962C1349.89 708.702 1347.84 710.913 1346.28 713.469C1344.71 716.025 1343.65 718.874 1343.17 721.852C1342.68 724.831 1342.77 727.879 1343.43 730.821C1344.1 733.763 1345.32 736.54 1347.04 738.993V739.04Z" fill="#BBBBBB"/>
<path d="M128.867 245.524C129.616 215.096 150.118 188.363 179.049 181.837L179.875 181.664C181.043 181.425 182.233 181.309 183.424 181.318H1328.43C1336.89 181.248 1345.22 183.429 1352.61 187.651C1360 191.873 1366.2 197.991 1370.61 205.409L1370.9 205.928C1372.59 208.964 1373.49 212.389 1373.53 215.882L1384.17 833.878H1347.45L1335.21 230.035C1335.21 230.035 1335.21 212.737 1319.91 211.165C1317.57 210.929 1289.17 210.756 1242.79 210.646L1215.89 733.254H1200.59L1230.5 210.63C1026.56 210.221 527.385 210.74 295.707 211.023L325.418 730.109H310.119L283.436 211.039L195.251 211.149C188.784 211.153 182.432 212.897 176.825 216.208C171.218 219.518 166.552 224.28 163.29 230.019L151.051 833.863H114.332L128.867 245.524Z" fill="#E3E3E4"/>
<path d="M114.133 846.616C114.133 846.616 109.176 763.493 148.45 712.418C165.058 691.104 174.49 664.828 175.331 637.535C175.628 624.566 174.767 611.596 172.761 598.788" stroke="#B3B3B3" stroke-width="2.5" stroke-miterlimit="10"/>
<path d="M197.332 566.489C195.205 576.034 172.225 599.747 172.225 599.747C172.225 599.747 161.516 568.109 163.704 558.579C164.206 556.308 165.139 554.16 166.448 552.259C167.758 550.358 169.419 548.741 171.337 547.499C173.255 546.258 175.392 545.417 177.626 545.025C179.86 544.633 182.148 544.697 184.358 545.213C186.568 545.729 188.657 546.688 190.507 548.034C192.357 549.38 193.93 551.088 195.138 553.059C196.345 555.03 197.163 557.227 197.545 559.523C197.927 561.819 197.865 564.17 197.362 566.442L197.332 566.489Z" fill="#BBBBBB"/>
<path d="M213.335 625.898C206.496 632.723 174.673 639.799 174.673 639.799C174.673 639.799 182.46 607.296 189.299 600.487C190.924 598.865 192.843 597.587 194.948 596.728C197.052 595.868 199.301 595.443 201.566 595.476C203.83 595.51 206.066 596.002 208.146 596.923C210.226 597.845 212.108 599.179 213.687 600.848C215.265 602.518 216.508 604.491 217.344 606.654C218.18 608.817 218.594 611.129 218.561 613.456C218.529 615.784 218.05 618.082 217.153 620.219C216.257 622.357 214.959 624.292 213.335 625.914V625.898Z" fill="#BBBBBB"/>
<path d="M191.992 715.94C182.812 718.283 151.8 707.873 151.8 707.873C151.8 707.873 174.459 683.861 183.73 681.518C188.171 680.392 192.866 681.125 196.781 683.557C200.696 685.988 203.511 689.918 204.606 694.483C205.702 699.048 204.988 703.873 202.623 707.897C200.257 711.921 196.433 714.814 191.992 715.94Z" fill="#BBBBBB"/>
<path d="M160.904 780.335C152.168 784.25 119.962 779.36 119.962 779.36C119.962 779.36 138.322 751.746 147.104 747.909C149.188 746.923 151.442 746.375 153.735 746.295C156.028 746.216 158.313 746.608 160.457 747.448C162.601 748.288 164.56 749.56 166.219 751.188C167.879 752.816 169.206 754.768 170.122 756.93C171.038 759.092 171.525 761.42 171.555 763.778C171.585 766.135 171.157 768.476 170.295 770.661C169.434 772.847 168.157 774.834 166.539 776.506C164.921 778.177 162.995 779.501 160.873 780.398L160.904 780.335Z" fill="#BBBBBB"/>
<path d="M138.964 633.383C144.135 641.608 173.632 655.792 173.632 655.792C173.632 655.792 173.097 622.329 167.911 614.104C165.423 610.159 161.513 607.391 157.04 606.409C152.567 605.427 147.897 606.311 144.059 608.868C140.22 611.425 137.527 615.444 136.572 620.041C135.616 624.639 136.477 629.438 138.964 633.383Z" fill="#BBBBBB"/>
<path d="M103.546 709.1C110.875 715.39 143.156 719.824 143.156 719.824C143.156 719.824 132.906 688.06 125.562 681.801C123.818 680.315 121.806 679.197 119.642 678.51C117.478 677.824 115.203 677.582 112.948 677.798C110.692 678.015 108.5 678.687 106.498 679.774C104.495 680.861 102.72 682.344 101.274 684.136C99.8286 685.929 98.7406 687.996 98.0725 690.221C97.4043 692.445 97.169 694.784 97.38 697.102C97.5909 699.42 98.2441 701.672 99.3021 703.731C100.36 705.79 101.802 707.614 103.546 709.1Z" fill="#BBBBBB"/>
<path d="M78.9599 787.615C85.1562 795.053 116.229 805.07 116.229 805.07C116.229 805.07 111.349 772.047 105.137 764.546C102.159 760.976 97.9227 758.769 93.3607 758.409C88.7987 758.049 84.2845 759.567 80.8111 762.628C77.3378 765.689 75.1898 770.043 74.8398 774.732C74.4897 779.421 75.9663 784.061 78.9446 787.631L78.9599 787.615Z" fill="#BBBBBB"/>
<path opacity="0.5" d="M197.332 566.489C195.205 576.034 172.225 599.747 172.225 599.747C172.225 599.747 161.516 568.109 163.704 558.579C164.206 556.308 165.139 554.16 166.448 552.259C167.758 550.358 169.419 548.741 171.337 547.499C173.255 546.258 175.392 545.417 177.626 545.025C179.86 544.633 182.148 544.697 184.358 545.213C186.568 545.729 188.657 546.688 190.507 548.034C192.357 549.38 193.93 551.088 195.138 553.059C196.345 555.03 197.163 557.227 197.545 559.523C197.927 561.819 197.865 564.17 197.362 566.442L197.332 566.489Z" fill="#BBBBBB"/>
<path opacity="0.5" d="M213.335 625.898C206.496 632.723 174.673 639.799 174.673 639.799C174.673 639.799 182.46 607.296 189.299 600.487C190.924 598.865 192.843 597.587 194.948 596.728C197.052 595.868 199.301 595.443 201.566 595.476C203.83 595.51 206.066 596.002 208.146 596.923C210.226 597.845 212.108 599.179 213.687 600.848C215.265 602.518 216.508 604.491 217.344 606.654C218.18 608.817 218.594 611.129 218.561 613.456C218.529 615.784 218.05 618.082 217.153 620.219C216.257 622.357 214.959 624.292 213.335 625.914V625.898Z" fill="#BBBBBB"/>
<path opacity="0.5" d="M191.992 715.94C182.812 718.283 151.8 707.873 151.8 707.873C151.8 707.873 174.459 683.861 183.73 681.518C188.171 680.392 192.866 681.125 196.781 683.557C200.696 685.988 203.511 689.918 204.606 694.483C205.702 699.048 204.988 703.873 202.623 707.897C200.257 711.921 196.433 714.814 191.992 715.94Z" fill="#BBBBBB"/>
<path opacity="0.5" d="M160.904 780.335C152.168 784.25 119.962 779.36 119.962 779.36C119.962 779.36 138.322 751.746 147.104 747.909C149.188 746.923 151.442 746.375 153.735 746.295C156.028 746.216 158.313 746.608 160.457 747.448C162.601 748.288 164.56 749.56 166.219 751.188C167.879 752.816 169.206 754.768 170.122 756.93C171.038 759.092 171.525 761.42 171.555 763.778C171.585 766.135 171.157 768.476 170.295 770.661C169.434 772.847 168.157 774.834 166.539 776.506C164.921 778.177 162.995 779.501 160.873 780.398L160.904 780.335Z" fill="#BBBBBB"/>
<path opacity="0.5" d="M138.964 633.383C144.135 641.608 173.632 655.792 173.632 655.792C173.632 655.792 173.097 622.329 167.911 614.104C165.423 610.159 161.513 607.391 157.04 606.409C152.567 605.427 147.897 606.311 144.059 608.868C140.22 611.425 137.527 615.444 136.572 620.041C135.616 624.639 136.477 629.438 138.964 633.383Z" fill="#BBBBBB"/>
<path opacity="0.5" d="M103.546 709.1C110.875 715.39 143.156 719.824 143.156 719.824C143.156 719.824 132.906 688.06 125.562 681.801C123.818 680.315 121.806 679.197 119.642 678.51C117.478 677.824 115.203 677.582 112.948 677.798C110.692 678.015 108.5 678.687 106.498 679.774C104.495 680.861 102.72 682.344 101.274 684.136C99.8286 685.929 98.7406 687.996 98.0725 690.221C97.4043 692.445 97.169 694.784 97.38 697.102C97.5909 699.42 98.2441 701.672 99.3021 703.731C100.36 705.79 101.802 707.614 103.546 709.1Z" fill="#BBBBBB"/>
<path opacity="0.5" d="M78.9599 787.615C85.1562 795.053 116.229 805.07 116.229 805.07C116.229 805.07 111.349 772.047 105.137 764.546C102.159 760.976 97.9227 758.769 93.3607 758.409C88.7987 758.049 84.2845 759.567 80.8111 762.628C77.3378 765.689 75.1898 770.043 74.8398 774.732C74.4897 779.421 75.9663 784.061 78.9446 787.631L78.9599 787.615Z" fill="#BBBBBB"/>
<g opacity="0.1">
<path opacity="0.1" d="M381.001 527.003C380.817 526.767 380.725 526.61 380.725 526.61L381.001 527.003Z" fill="url(#paint0_linear)"/>
</g>
<path d="M861.218 838.329L880.725 878.428C880.725 878.428 885.927 893.131 880.725 902.487C875.523 911.843 876.824 931.232 876.824 931.232C876.824 931.232 866.42 962.683 857.96 977.354C849.499 992.026 854.701 1013.52 854.701 1013.52L820.889 1017.53C820.889 1017.53 833.894 991.46 830.069 972.071C826.244 952.682 841.13 917.284 841.13 905.223C841.13 902.55 844.389 896.527 837.872 887.847C831.354 879.167 806.661 857.104 807.273 844.398L861.218 838.329Z" fill="#F1F1F2"/>
<path d="M688.886 828.972C688.886 828.972 676.401 846.742 674.948 864.039C674.511 869.44 673.484 874.772 671.888 879.937C669.967 885.941 669.797 892.391 671.399 898.493C672.686 903.377 673.536 908.372 673.938 913.416C674.74 923.143 676.979 932.687 680.578 941.721C686.53 956.77 694.348 977.307 694.807 981.443C695.465 988.126 698.708 1004.17 698.708 1004.17L724.717 1014.2C724.717 1014.2 716.914 994.809 716.914 976.096C716.914 957.383 722.116 938.67 707.735 907.912C707.735 907.912 707.077 899.892 712.324 887.863C717.572 875.833 737.691 844.414 737.691 844.414L688.886 828.972Z" fill="#F1F1F2"/>
<g opacity="0.1">
<path opacity="0.1" d="M729.827 741.415C729.169 746.133 710.963 782.866 704.461 788.873C698.494 794.393 687.035 832.621 685.199 838.816C684.021 839.052 682.858 839.32 681.695 839.665C681.695 839.665 694.7 794.88 701.202 788.858C707.704 782.835 725.91 746.07 726.568 741.399C726.691 740.472 730.5 740.141 736.482 740.236C732.443 740.314 729.949 740.66 729.827 741.415Z" fill="black"/>
<path opacity="0.1" d="M775.373 822.289C784.553 820.952 802.683 843.675 809.843 859.715C810.256 860.643 810.669 861.492 811.097 862.294C815.136 869.842 819.711 872.043 822.878 872.562C820.782 872.955 813.698 873.286 807.839 862.294C807.41 861.492 806.997 860.643 806.584 859.715C800.021 844.996 784.17 824.679 774.562 822.446L775.373 822.289Z" fill="black"/>
<path opacity="0.1" d="M730.928 851.475L730.821 851.365C728.725 849.792 712.462 838.785 694.638 838.109C713.686 837.432 731.847 849.651 734.08 851.365L734.187 851.475C736.069 853.582 727.777 865.627 725.742 868.458C724.527 868.742 723.295 868.947 722.055 869.071C722.055 869.071 733.07 853.865 730.928 851.475Z" fill="black"/>
</g>
<path d="M898.289 489.404C898.289 489.404 898.289 448.629 872.28 446.616C846.271 444.604 837.091 458.646 842.369 459.983C847.648 461.319 869.679 470.676 869.679 470.676L883.984 495.411L898.289 489.404Z" fill="#F1F1F2"/>
<path d="M662.862 498.761C662.862 498.761 662.862 457.986 688.871 455.973C714.88 453.96 724.059 468.003 718.781 469.339C713.503 470.676 691.471 480.032 691.471 480.032L677.167 504.768L662.862 498.761Z" fill="#F1F1F2"/>
<path d="M780.575 540.873C780.575 540.873 778.617 567.605 794.88 582.985C811.143 598.364 757.167 617.737 757.167 617.737L733.101 588.331C733.101 588.331 752.608 576.301 742.281 555.576L780.575 540.873Z" fill="#F1F1F2"/>
<path d="M785.807 571.002L786.068 571.363L785.807 571.002Z" fill="#D39999"/>
<path d="M751.644 573.974C769.245 573.974 783.513 559.309 783.513 541.219C783.513 523.128 769.245 508.463 751.644 508.463C734.043 508.463 719.775 523.128 719.775 541.219C719.775 559.309 734.043 573.974 751.644 573.974Z" fill="#F1F1F2"/>
<path d="M751.506 521.248C751.781 524.566 752.011 528.104 750.527 531.06C749.701 532.547 748.67 533.902 747.467 535.086L740.705 542.178C738.607 544.064 736.977 546.435 735.947 549.097C734.019 555.701 739.71 562.259 739.527 569.162C738.507 570.806 736.992 572.061 735.213 572.737C733.434 573.412 731.489 573.471 729.674 572.905C728.202 572.326 726.817 571.537 725.558 570.562L719.117 566.049C714.145 562.558 708.943 558.784 706.449 553.154C703.833 547.226 704.721 540.369 704.598 533.859C704.313 529.898 704.257 525.923 704.43 521.955C704.866 518.171 705.9 514.485 707.49 511.042C710.371 504.156 715.092 498.251 721.106 494.012C724.116 491.924 727.505 490.482 731.069 489.771C734.634 489.061 738.301 489.096 741.852 489.876C742.993 490.245 744.176 490.461 745.371 490.521C747.681 490.521 749.67 488.948 751.797 488.021C754.502 486.935 757.479 486.794 760.269 487.621C763.059 488.449 765.507 490.197 767.234 492.597C768.641 494.641 769.452 497.078 770.921 499.06C773.109 502.016 776.674 503.887 778.158 507.268C779.642 510.649 778.647 514.517 778.968 518.166C779.426 521.426 780.403 524.588 781.86 527.522C778.249 526.233 776.49 522.175 774.21 519.062C772.405 516.751 770.14 514.863 767.568 513.523C764.995 512.184 762.174 511.424 759.293 511.294C757.305 511.199 753.617 511.042 752.042 512.599C750.022 514.549 751.246 518.81 751.506 521.248Z" fill="#D5D6D7"/>
<g opacity="0.1">
<path opacity="0.1" d="M786.053 571.332C785.869 571.096 785.777 570.955 785.777 570.955L786.053 571.332Z" fill="black"/>
<path opacity="0.1" d="M675.927 500.994C678.067 501.039 680.142 500.24 681.726 498.761L681.098 501.465C679.366 501.823 677.571 501.659 675.927 500.994Z" fill="black"/>
<path opacity="0.1" d="M791.224 574.792C807.517 600.502 770.829 602.374 770.829 602.374C768.034 602.77 765.188 602.561 762.476 601.76C764.168 601.966 765.878 601.966 767.571 601.76C767.571 601.76 806.89 599.763 786.052 571.379C787.41 573.017 789.209 574.205 791.224 574.792Z" fill="black"/>
<path opacity="0.1" d="M724.656 574.304C722.019 574.372 719.385 574.049 716.838 573.345C718.353 573.616 719.892 573.716 721.428 573.644C725.478 573.468 729.533 573.886 733.468 574.886C730.563 574.343 727.605 574.148 724.656 574.304Z" fill="black"/>
<path opacity="0.1" d="M643.355 536.863L661.561 490.741C662.293 491.765 663.079 492.747 663.917 493.682L646.614 537.46C638.811 556.849 649.215 563.532 649.215 563.532L703.191 614.34C723.998 622.36 726.599 664.472 726.599 664.472C735.06 680.511 722.698 745.362 722.698 745.362C730.898 760.065 742.327 767.377 754.673 770.396C741.103 768.022 728.374 760.678 719.485 744.686C719.485 744.686 731.847 679.851 723.386 663.796C723.386 663.796 720.785 621.684 699.978 613.664L645.956 562.935C645.956 562.935 635.552 556.252 643.355 536.863Z" fill="black"/>
<path opacity="0.1" d="M877.482 486.731C878.816 487.259 880.193 487.664 881.597 487.942C888.727 494.373 891.129 547.556 891.129 547.556L857.317 563.595C857.317 563.595 823.505 563.595 809.185 572.291C802.178 576.553 797.206 576.474 793.886 575.295C796.945 575.483 800.877 574.65 805.865 571.631C820.17 562.935 853.997 562.935 853.997 562.935L887.809 546.895C887.809 546.895 885.284 489.404 877.482 486.731Z" fill="black"/>
<path opacity="0.1" d="M883.158 488.209C888.099 488.87 894.892 488.131 897.646 480.048L899.176 484.215C894.908 490.442 887.105 489.294 883.158 488.209Z" fill="black"/>
</g>
<path d="M714.834 362.141C714.828 376.111 719.648 389.629 728.435 400.287C737.222 410.945 749.405 418.05 762.813 420.337C776.221 422.625 789.984 419.945 801.649 412.776C813.314 405.607 822.125 394.414 826.51 381.192C830.896 367.969 830.572 353.576 825.596 340.576C820.621 327.576 811.316 316.814 799.341 310.207C787.365 303.6 773.497 301.577 760.206 304.499C746.915 307.421 735.065 315.098 726.767 326.162C719.034 336.473 714.839 349.123 714.834 362.141Z" fill="url(#paint1_linear)"/>
<path d="M716.945 362.141C716.926 375.603 721.559 388.635 730.018 398.914C738.477 409.192 750.212 416.05 763.132 418.263C776.051 420.477 789.316 417.904 800.562 411.002C811.807 404.099 820.303 393.317 824.534 380.577C828.766 367.836 828.458 353.965 823.666 341.436C818.874 328.907 809.909 318.534 798.369 312.166C786.829 305.797 773.464 303.848 760.656 306.665C747.848 309.482 736.429 316.882 728.435 327.546C721.001 337.461 716.961 349.623 716.945 362.141Z" fill="#D5D6D7"/>
<path d="M741.24 334.229V356.276" stroke="#B3B3B3" stroke-width="1.25" stroke-miterlimit="10"/>
<path d="M782.212 354.31L759.829 369.501" stroke="#B3B3B3" stroke-width="1.25" stroke-miterlimit="10"/>
<path d="M759.829 320.532L786.037 331.792" stroke="#B3B3B3" stroke-width="1.25" stroke-miterlimit="10"/>
<path d="M803.662 358.226L802.224 392.506" stroke="#B3B3B3" stroke-width="1.25" stroke-miterlimit="10"/>
<path d="M786.037 402.79L756.494 387.616" stroke="#B3B3B3" stroke-width="1.25" stroke-miterlimit="10"/>
<path d="M741.24 390.069V409.206" stroke="#B3B3B3" stroke-width="1.25" stroke-miterlimit="10"/>
<path d="M730.286 375.366L717.404 369.5" stroke="#B3B3B3" stroke-width="1.25" stroke-miterlimit="10"/>
<path d="M802.224 329.826L801.245 313.802" stroke="#B3B3B3" stroke-width="1.25" stroke-miterlimit="10"/>
<path d="M810.807 348.445L826.779 353.131" stroke="#B3B3B3" stroke-width="1.25" stroke-miterlimit="10"/>
<path d="M815.091 348.445L802.714 326.398L782.228 329.826V354.31L804.136 366.072L815.091 348.445Z" fill="#BBBBBB"/>
<path d="M728.435 327.483L741.256 334.229C745.539 328.348 763.164 321.492 763.164 321.492L761.328 306.443C748.251 309.141 736.566 316.615 728.435 327.483Z" fill="#BBBBBB"/>
<path d="M763.164 367.047L740.766 356.276L728.374 374.391L741.24 395.447L763.164 392.019V367.047Z" fill="#BBBBBB"/>
<path d="M782.212 399.85V417.949C789.387 416.593 796.23 413.789 802.346 409.7C808.462 405.611 813.729 400.318 817.845 394.126L802.224 387.537L782.212 399.85Z" fill="#BBBBBB"/>
<path d="M-35.9691 779.8C-35.9665 791.088 -32.0651 802.008 -24.96 810.615C-17.855 819.222 -8.00775 824.957 2.82724 826.798C13.6622 828.639 24.7812 826.466 34.2033 820.668C43.6253 814.869 50.7384 805.82 54.2753 795.134C57.8122 784.448 57.5431 772.818 53.516 762.317C49.4889 751.815 41.9653 743.124 32.2857 737.793C22.6061 732.461 11.3992 730.834 0.661598 733.202C-10.076 735.571 -19.6469 741.78 -26.3458 750.725C-32.588 759.059 -35.9716 769.282 -35.9691 779.8Z" fill="#D5D6D7"/>
<path d="M18.772 773.227L-0.015625 785.964" stroke="#B3B3B3" stroke-width="1.25" stroke-miterlimit="10"/>
<path d="M-0.015625 744.89L21.9696 754.341" stroke="#B3B3B3" stroke-width="1.25" stroke-miterlimit="10"/>
<path d="M36.7488 776.513L35.5554 805.275" stroke="#B3B3B3" stroke-width="1.25" stroke-miterlimit="10"/>
<path d="M21.9696 813.892L-2.81543 801.155" stroke="#B3B3B3" stroke-width="1.25" stroke-miterlimit="10"/>
<path d="M35.5555 752.69L34.7293 739.26" stroke="#B3B3B3" stroke-width="1.25" stroke-miterlimit="10"/>
<path d="M42.7463 768.305L56.1485 772.236" stroke="#B3B3B3" stroke-width="1.25" stroke-miterlimit="10"/>
<path d="M46.3417 768.305L35.9534 749.828L18.7722 752.69V773.227L37.1468 783.086L46.3417 768.305Z" fill="#BBBBBB"/>
<path d="M-26.3456 750.724L-15.6361 756.385C-12.0407 751.463 2.72322 745.708 2.72322 745.708L1.19328 733.127C-9.75008 735.389 -19.5301 741.638 -26.3456 750.724Z" fill="#BBBBBB"/>
<path d="M2.7843 783.904L-15.9881 774.878L-26.3917 790.068L-15.5903 807.728L2.7843 804.85V783.904Z" fill="#BBBBBB"/>
<path d="M18.7722 811.423V826.661C24.7898 825.522 30.5284 823.169 35.6568 819.739C40.7852 816.308 45.2018 811.868 48.6519 806.674L35.5557 801.155L18.7722 811.423Z" fill="#BBBBBB"/>
<path d="M-71.3105 839.256C-71.3078 850.544 -67.4064 861.464 -60.3014 870.071C-53.1964 878.678 -43.3491 884.413 -32.5141 886.254C-21.6791 888.095 -10.5601 885.922 -1.13805 880.124C8.28399 874.325 15.3971 865.276 18.934 854.59C22.4708 843.904 22.2017 832.274 18.1746 821.773C14.1475 811.271 6.62393 802.581 -3.05566 797.249C-12.7353 791.917 -23.9422 790.29 -34.6798 792.658C-45.4174 795.027 -54.9882 801.236 -61.6872 810.181C-67.9293 818.515 -71.313 828.738 -71.3105 839.256Z" fill="#D5D6D7"/>
<path d="M1.40746 835.97L0.214111 864.715" stroke="#B3B3B3" stroke-width="1.25" stroke-miterlimit="10"/>
<path d="M0.214097 812.146L-0.612061 798.717" stroke="#B3B3B3" stroke-width="1.25" stroke-miterlimit="10"/>
<path d="M7.40466 827.761L20.807 831.693" stroke="#B3B3B3" stroke-width="1.25" stroke-miterlimit="10"/>
<path d="M11.0001 827.762L0.611782 809.269L-16.5695 812.147V832.683L1.82043 842.543L11.0001 827.762Z" fill="#BBBBBB"/>
<path d="M-16.5695 870.832V886.07C-10.5543 884.935 -4.81719 882.587 0.311052 879.162C5.4393 875.737 9.85727 871.303 13.3103 866.115L0.213984 860.595L-16.5695 870.832Z" fill="#BBBBBB"/>
<path d="M645.956 562.935L699.932 613.743C720.739 621.763 723.34 663.875 723.34 663.875C731.801 679.914 719.439 744.765 719.439 744.765C750.038 799.582 825.448 752.784 825.448 752.784C825.448 752.784 825.601 750.866 825.846 747.485C826.06 744.529 826.351 740.44 826.672 735.581C827.101 729.291 827.59 721.696 828.049 713.456C829.074 695.451 830.008 674.473 830.008 657.868C830.008 621.102 853.416 606.399 853.416 606.399L893.913 580.83L907.407 572.307C921.712 566.285 923.671 550.921 923.671 550.921L897.662 480.064C893.408 492.55 879.501 487.533 877.696 486.826C885.346 490.38 887.901 546.911 887.901 546.911L854.089 562.951C854.089 562.951 820.277 562.951 805.957 571.647C793.717 579.038 787.735 573.377 786.205 571.505C806.768 599.811 767.586 601.713 767.586 601.713C746.779 604.387 742.22 577.654 742.22 577.654C742.22 577.654 731.158 572.936 721.412 573.644C711.667 574.352 692.145 564.209 692.145 564.209L671.338 544.16L681.741 498.698C672.562 506.718 661.577 490.678 661.577 490.678L643.37 536.8C635.552 556.252 645.956 562.935 645.956 562.935Z" fill="#BBBBBB"/>
<path d="M730.929 851.475C733.07 853.865 722.04 869.087 722.04 869.087C722.04 869.087 738.946 867.751 740.246 855.721C740.369 854.72 740.589 853.735 740.904 852.78C744.82 840.688 763.731 823.532 772.115 822.305C781.294 820.968 799.424 843.691 806.584 859.731C806.997 860.658 807.41 861.508 807.839 862.31C814.831 875.393 823.49 872.437 823.49 872.437C818.9 866.618 817.952 862.011 819.39 858.284C825.081 843.864 867.705 844.289 867.705 844.289C867.705 844.289 848.199 798.167 840.396 792.82C832.593 787.474 820.231 747.359 820.231 747.359C820.231 747.359 727.226 736.666 726.584 741.336C725.941 746.007 707.719 782.788 701.217 788.795C694.715 794.802 681.71 839.603 681.71 839.603C703.818 832.919 728.205 849.289 730.806 851.302L730.929 851.475Z" fill="#BBBBBB"/>
<path d="M853.094 1002.44L870.979 1033.52C870.979 1033.52 879.44 1041.54 885.942 1040.21C892.444 1038.87 898.946 1058.92 872.28 1054.91C845.613 1050.9 814.402 1036.2 814.402 1036.2C814.402 1036.2 811.48 1009.12 826.427 1003.17L853.094 1002.44Z" fill="#BBBBBB"/>
<path d="M695.709 991.743L681.726 1025.5C681.726 1025.5 677.824 1034.94 670.022 1034.94C662.219 1034.94 659.618 1051.66 684.984 1048.98C710.351 1046.31 729.215 1025.58 729.215 1025.58C729.215 1025.58 727.257 993.504 715.553 991.491C708.988 990.208 702.241 990.294 695.709 991.743Z" fill="#BBBBBB"/>
</g>
<rect opacity="0.5" width="1440" height="1265" fill="white"/>
<defs>
<linearGradient id="paint0_linear" x1="380.802" y1="527.003" x2="380.802" y2="526.61" gradientUnits="userSpaceOnUse">
<stop stop-color="#808080" stop-opacity="0.25"/>
<stop offset="0.54" stop-color="#808080" stop-opacity="0.12"/>
<stop offset="1" stop-color="#808080" stop-opacity="0.1"/>
</linearGradient>
<linearGradient id="paint1_linear" x1="60187.4" y1="32147.8" x2="60187.4" y2="23302.4" gradientUnits="userSpaceOnUse">
<stop stop-color="#808080" stop-opacity="0.25"/>
<stop offset="0.54" stop-color="#808080" stop-opacity="0.12"/>
<stop offset="1" stop-color="#808080" stop-opacity="0.1"/>
</linearGradient>
</defs>
</svg>
