<svg width="488" height="445" viewBox="0 0 488 445" fill="none" xmlns="http://www.w3.org/2000/svg">
<path d="M165.003 390.219L156.761 392.221" stroke="#7FB7A2" stroke-width="0.658252" stroke-miterlimit="10"/>
<path d="M47.1891 149.845C50.4692 160.541 60.8514 167.568 64.9373 177.975C65.461 179.341 65.8867 180.744 66.2109 182.173C67.661 188.316 67.6415 194.863 69.4098 200.958C72.7185 212.389 81.2932 220.212 91.4993 226.478C99.2168 231.202 107.864 235.014 115.865 238.771C136.236 248.345 156.12 261.515 167.443 281.366C174.991 294.604 178.222 309.911 184.538 323.802C190.854 337.694 201.848 351.07 216.615 353.136C232.465 355.356 247.367 343.999 263.335 344.438C280.472 344.911 295.133 358.755 312.235 360.264C333.965 362.182 351.936 344.248 372.601 337.377C382.524 334.076 393.113 333.355 403.184 330.553C414.393 327.423 424.76 321.775 433.539 314.016C436.526 311.363 439.464 308.241 440.344 304.266C441.098 300.833 440.219 297.241 439.166 293.871C435.244 281.367 428.747 268.188 432.818 255.805C436.574 244.382 448.964 234.413 444.749 223.082C442.212 216.261 434.654 213.109 427.819 211.11C413.721 206.989 399.044 204.437 385.892 197.78C376.481 193.008 367.752 185.535 362.89 176.212C360.915 172.491 359.633 168.43 359.108 164.24C358.319 157.628 359.157 149.884 354.351 145.364C352.269 143.404 349.464 142.483 346.706 141.892C336.308 139.671 325.542 141.426 314.976 140.436C311.355 140.108 307.786 139.309 304.353 138.056C297.555 135.546 291.631 131.091 289.139 124.304C287.68 120.326 287.467 115.728 284.798 112.467C280.292 106.937 273.164 105.597 265.582 106.136C256.197 106.802 246.087 110.352 239.266 112.442L238.584 112.647C229.811 115.263 220.556 114.871 211.265 113.417C201.236 111.874 191.199 109.106 181.651 107.585C180.755 107.441 179.863 107.31 178.975 107.19C172.039 106.26 165.047 105.899 158.066 106.111C148.22 106.404 138.446 107.816 128.926 110.322C124.097 111.592 119.346 113.146 114.696 114.975C113.33 115.514 111.97 116.073 110.616 116.65C102.738 119.98 94.9777 123.702 86.6233 125.386C86.0212 125.498 85.4157 125.61 84.8137 125.721C74.7875 127.396 64.0842 126.679 55.1875 131.589C51.1429 133.829 47.5353 137.43 46.5981 142.052C46.0775 144.626 46.4189 147.327 47.1891 149.845Z" fill="#B2CDC4"/>
<path d="M255.862 293.23C255.862 293.23 260.558 228.177 296.277 192.734C311.357 177.96 321.377 158.566 324.831 137.466C326.396 127.44 327.065 117.29 326.828 107.143" stroke="#7FB7A2" stroke-width="1.3165" stroke-miterlimit="10"/>
<path d="M349.206 84.6717C346.572 91.851 326.309 107.801 326.309 107.801C326.309 107.801 321.3 82.1065 323.934 74.9272C325.232 71.528 327.779 68.7877 331.023 67.299C334.268 65.8104 337.95 65.6931 341.272 66.9725C344.595 68.2518 347.291 70.825 348.777 74.1355C350.264 77.446 350.421 81.2277 349.216 84.6625L349.206 84.6717Z" fill="#7FB7A2"/>
<path d="M355.524 132.495C349.525 137.038 324.095 139.148 324.095 139.148C324.095 139.148 333.485 114.753 339.484 110.191C340.908 109.058 342.537 108.229 344.276 107.752C346.014 107.274 347.827 107.158 349.608 107.41C351.39 107.663 353.103 108.278 354.648 109.22C356.194 110.162 357.54 111.412 358.608 112.897C359.676 114.382 360.444 116.072 360.867 117.867C361.291 119.663 361.361 121.528 361.074 123.353C360.787 125.179 360.148 126.927 359.195 128.497C358.242 130.067 356.994 131.426 355.524 132.495Z" fill="#7FB7A2"/>
<path d="M329.703 200.112C322.288 200.94 299.339 189.557 299.339 189.557C299.339 189.557 319.418 173.341 326.834 172.476C330.351 172.165 333.844 173.282 336.565 175.586C339.286 177.89 341.02 181.198 341.395 184.804C341.77 188.41 340.757 192.027 338.572 194.88C336.387 197.734 333.205 199.598 329.705 200.074L329.703 200.112Z" fill="#7FB7A2"/>
<path d="M298.967 246.77C291.789 248.878 267.293 241.639 267.293 241.639C267.293 241.639 284.42 222.183 291.598 220.066C293.316 219.523 295.122 219.339 296.909 219.522C298.697 219.705 300.43 220.254 302.007 221.134C303.584 222.015 304.974 223.21 306.095 224.65C307.216 226.091 308.046 227.747 308.536 229.522C309.026 231.297 309.166 233.156 308.949 234.989C308.731 236.822 308.16 238.593 307.269 240.199C306.378 241.804 305.185 243.211 303.76 244.338C302.334 245.465 300.705 246.288 298.967 246.761L298.967 246.77Z" fill="#7FB7A2"/>
<path d="M297.04 130.289C300.218 137.218 321.644 151.39 321.644 151.39C321.644 151.39 324.663 125.36 321.495 118.422C320.74 116.773 319.677 115.294 318.365 114.069C317.053 112.844 315.519 111.897 313.85 111.283C312.18 110.668 310.409 110.397 308.637 110.486C306.864 110.575 305.126 111.022 303.52 111.802C301.914 112.581 300.473 113.677 299.278 115.028C298.084 116.379 297.159 117.958 296.557 119.674C295.956 121.391 295.689 123.212 295.771 125.033C295.854 126.855 296.285 128.641 297.04 130.289Z" fill="#7FB7A2"/>
<path d="M261.771 185.352C266.823 190.987 291.406 197.905 291.406 197.905C291.406 197.905 286.715 172.156 281.664 166.52C279.223 163.882 275.869 162.338 272.326 162.221C268.782 162.104 265.333 163.424 262.722 165.896C260.111 168.367 258.548 171.792 258.371 175.432C258.193 179.072 259.414 182.635 261.771 185.352Z" fill="#7FB7A2"/>
<path d="M234.622 243.666C238.666 250.094 261.757 261.187 261.757 261.187C261.757 261.187 261.37 234.975 257.318 228.518C256.363 226.971 255.119 225.634 253.658 224.584C252.197 223.535 250.547 222.794 248.804 222.404C247.061 222.014 245.259 221.983 243.503 222.313C241.747 222.642 240.071 223.326 238.572 224.325C237.073 225.324 235.781 226.617 234.77 228.131C233.759 229.644 233.05 231.348 232.683 233.144C232.315 234.94 232.298 236.791 232.631 238.593C232.964 240.394 233.641 242.108 234.624 243.637L234.622 243.666Z" fill="#7FB7A2"/>
<path d="M202.911 360.272C199.483 354.337 194.115 349.778 187.765 347.409C181.414 345.039 174.494 345.013 168.237 347.335C161.979 349.657 156.791 354.176 153.596 360.086C150.402 365.997 149.408 372.916 150.793 379.61C152.178 386.304 155.85 392.339 161.157 396.639C166.464 400.94 173.06 403.226 179.77 403.091C186.479 402.956 192.867 400.408 197.796 395.902C202.724 391.396 205.872 385.224 206.679 378.486C207.431 372.207 206.107 365.803 202.911 360.272Z" fill="#BFDBD1"/>
<path d="M199.304 378.775L193.693 369.057" stroke="#7FB7A2" stroke-width="0.658252" stroke-miterlimit="10"/>
<path d="M176.117 380.351L182.123 367.952" stroke="#7FB7A2" stroke-width="0.658252" stroke-miterlimit="10"/>
<path d="M194.595 389.554L180.17 391.255" stroke="#7FB7A2" stroke-width="0.658252" stroke-miterlimit="10"/>
<path d="M165.665 384.081L157.564 368.601" stroke="#7FB7A2" stroke-width="0.658252" stroke-miterlimit="10"/>
<path d="M162.088 359.935L178.983 359.113" stroke="#7FB7A2" stroke-width="0.658252" stroke-miterlimit="10"/>
<path d="M185.084 354.146L180.209 345.701" stroke="#7FB7A2" stroke-width="0.658252" stroke-miterlimit="10"/>
<path d="M193.663 357.838L200.839 357.146" stroke="#7FB7A2" stroke-width="0.658252" stroke-miterlimit="10"/>
<path d="M173.526 396.249L178.038 403.061" stroke="#7FB7A2" stroke-width="0.658252" stroke-miterlimit="10"/>
<path d="M181.929 391.076L174.16 397.482L163.447 391.127L163.771 381.069L175.931 380.686L181.929 391.076Z" fill="#7FB7A2" stroke="#7FB7A2" stroke-width="0.658252"/>
<path d="M198.452 382.211C199.017 381.097 199.459 380.005 199.615 379.079L206.304 378.829C205.431 385.329 202.348 391.264 197.585 395.617L193.33 389.956C193.36 389.917 193.395 389.873 193.433 389.823C193.6 389.609 193.837 389.3 194.124 388.917C194.697 388.152 195.465 387.093 196.246 385.918C197.027 384.744 197.824 383.448 198.452 382.211Z" fill="#7FB7A2" stroke="#7FB7A2" stroke-width="0.658252"/>
<path d="M193.595 368.629L181.465 369.537L175.349 358.944L183.749 352.166L194.404 357.972L193.595 368.629Z" fill="#7FB7A2" stroke="#7FB7A2" stroke-width="0.658252"/>
<path d="M150.608 371.465C150.887 367.871 151.842 364.379 153.421 361.178C155 357.979 157.172 355.13 159.821 352.784L164.156 360.292L158.607 370.462L150.608 371.465Z" fill="#7FB7A2" stroke="#7FB7A2" stroke-width="0.658252"/>
<path d="M243.151 367.683L230.378 394.693C230.378 394.693 210.698 410.659 225.071 412.138C239.443 413.617 247.67 407.44 247.67 407.44L259.693 397.619L258.221 371.41L243.151 367.683Z" fill="#409374"/>
<path d="M222.947 353.957L231.346 371.204C231.346 371.204 234.611 378.451 231.858 380.32C229.105 382.19 221.704 392.894 226.896 393.745C227.939 393.889 228.993 393.935 230.044 393.881C234.319 393.713 238.515 392.682 242.38 390.85C246.245 389.018 249.7 386.423 252.536 383.221L256.896 378.343C256.896 378.343 239.027 342.795 239.262 343.053C239.496 343.311 222.947 353.957 222.947 353.957Z" fill="#409374"/>
<path d="M247.971 87.0542C260.401 86.3563 269.947 76.3518 269.294 64.7086C268.64 53.0654 258.033 44.1926 245.604 44.8905C233.174 45.5884 223.627 55.5929 224.281 67.2361C224.935 78.8793 235.541 87.7521 247.971 87.0542Z" fill="#006F46"/>
<path d="M188.637 200.986L183.387 209.283C183.387 209.283 156.357 216.516 167.093 224.487C177.829 232.458 191.716 215.102 191.716 215.102L199.117 204.398L188.637 200.986Z" fill="#BFDBD1"/>
<path d="M213.179 108.727C213.179 108.727 205.771 109.143 204.638 119.495C203.505 129.847 203.715 164.13 203.715 164.13C203.715 164.13 181.544 196.812 185.756 200.576C189.968 204.341 194.943 211.492 197.727 210.192C200.512 208.893 223.125 173.9 223.125 173.9L213.179 108.727Z" fill="#409374"/>
<path d="M234.338 78.3887C234.338 78.3887 235.016 100.642 228.243 102.166C221.469 103.689 224.164 110.968 224.164 110.968C224.164 110.968 247.122 122.825 261.2 108.889L263.665 101.891C263.665 101.891 252.993 95.0601 256.976 84.5481L234.338 78.3887Z" fill="#BFDBD1"/>
<path d="M203.841 217.279C203.841 217.279 173.743 281.843 187.366 300.511C200.989 319.18 222.031 358.009 224.88 357.849C227.729 357.689 243.235 348.816 241.808 343.752C240.38 338.688 221.143 301.473 216.393 298.31C211.643 295.147 213.41 285.903 213.948 285.301C214.486 284.699 231.593 253.445 231.593 253.445C231.593 253.445 233.71 301.339 236.405 308.618C239.1 315.897 239.227 369.047 242.204 371.166C245.181 373.285 258.51 376.538 260.597 372.991C262.684 369.444 266.61 317.21 261.38 305.501L265.32 222.973L203.841 217.279Z" fill="#006F46"/>
<path d="M249.351 91.2636C260.05 90.6629 268.236 81.5025 267.635 70.8033C267.035 60.1042 257.874 51.9178 247.175 52.5186C236.476 53.1193 228.29 62.2797 228.89 72.9788C229.491 83.678 238.651 91.8644 249.351 91.2636Z" fill="#BFDBD1"/>
<path d="M260.893 98.3318L255.246 104.65C255.246 104.65 237.397 112.512 228.467 106.154C228.467 106.154 231.232 99.4256 231.264 99.9954C231.296 100.565 206.719 105.66 205.016 116.044C203.312 126.428 208.293 143.868 208.293 143.868C208.293 143.868 196.562 219.975 202.925 221.332C209.289 222.689 268.776 233.639 267.599 222.845C266.421 212.051 269.053 167.32 269.053 167.32L286.852 128.025C286.852 128.025 283.3 115.65 276.238 112.045C269.177 108.441 260.893 98.3318 260.893 98.3318Z" fill="#409374"/>
<path d="M241.792 211.147L234.641 216.122C234.641 216.122 207.24 237.094 222.246 239.681C237.252 242.268 244.839 224.694 244.839 224.694L250.153 217.537L241.792 211.147Z" fill="#BFDBD1"/>
<path d="M281.436 123.185L286.852 128.025C286.852 128.025 292.958 175.695 286.665 185.765C280.371 195.835 250.505 223.805 248.7 222.191C246.894 220.578 235.589 212.639 237.804 211.371C240.019 210.104 268.544 176.74 268.544 176.74L263.683 132.756L281.436 123.185Z" fill="#409374"/>
<path d="M238.706 44.8235C238.706 44.8235 231.986 42.7986 223.292 48.3914L228.148 49.3198C228.148 49.3198 220.998 50.3219 220.638 59.9508L223.93 59.7659C223.93 59.7659 222.306 68.2648 224.535 70.5418L225.739 67.9218L230.068 75.4859L230.747 71.5442L232.577 72.042L233.421 65.6889C233.421 65.6889 236.667 70.0107 239.078 70.1756L238.86 66.2844C238.86 66.2844 245.865 73.3978 247.943 72.9808L244.715 68.9583L248.956 69.621L246.992 66.7285L257.936 69.1168L255.373 66.2579L262.991 68.2324L266.667 69.5274C266.667 69.5274 271.1 57.5678 263.462 49.8893C255.824 42.2108 245.247 41.0031 238.706 44.8235Z" fill="#006F46"/>
</svg>
