<svg width="1440" height="1127" viewBox="0 0 1440 1127" fill="none" xmlns="http://www.w3.org/2000/svg">
<path d="M1756.78 276.322C1715.42 245.994 1656.63 244.681 1612.95 217.195C1607.27 213.556 1601.86 209.567 1596.77 205.259C1574.69 186.86 1557.16 163.708 1533.97 146.198C1490.53 113.341 1436.55 105.128 1380.49 106.103C1338.14 106.889 1294.67 112.998 1253.83 117.84C1149.82 130.133 1038.02 128.635 941.146 84.1891C876.554 54.5446 822.982 7.83284 761.365 -26.9063C699.749 -61.6454 621.549 -83.9805 559.258 -57.867C492.395 -29.8456 465.68 43.949 403.153 78.5241C336.046 115.623 242.497 99.9307 172.733 133.296C84.0953 175.687 63.2715 279.633 2.35524 350.634C-26.891 384.731 -65.6359 411.231 -96.791 443.905C-131.437 480.31 -156.081 523.697 -168.948 570.942C-173.292 587.06 -176.183 604.727 -168.876 620.746C-162.543 634.569 -149.508 645.257 -136.399 654.767C-87.7103 690.025 -27.316 721.839 -9.66314 774.754C6.62307 823.567 -14.1728 886.781 32.4885 917.233C60.5742 935.569 98.0852 929.596 129.72 921.185C194.965 903.838 258.212 879.642 326.642 873.382C375.626 868.934 429.253 875.562 473 897.464C490.594 906.131 506.44 917.561 519.72 931.164C540.531 952.715 558.132 981.938 588.748 987.019C602.019 989.225 615.273 986.132 627.454 981.978C673.376 966.295 710.02 935.745 753.273 915.333C768.064 908.301 783.929 903.048 800.484 899.704C833.349 893.181 868.091 895.504 895.912 913.819C912.212 924.559 925.397 940.304 944.415 945.774C976.597 955.098 1007.58 943.703 1035.26 924.647C1069.53 901.065 1098.82 865.666 1119.41 842.859L1121.48 840.592C1148.15 811.514 1184.76 791.96 1224.37 776.071C1267.04 758.829 1313.05 745.891 1353.82 729.659C1357.65 728.139 1361.43 726.585 1365.16 724.999C1394.31 712.59 1422.14 698.046 1448.39 681.505C1485.43 658.197 1519.18 631.103 1549.02 600.719C1564.16 585.314 1578.24 569.083 1591.18 552.106C1594.98 547.114 1598.7 542.067 1602.35 536.965C1623.67 507.391 1643.47 476.697 1671.04 451.856C1673.05 450.1 1675.08 448.334 1677.09 446.578C1711.11 417.985 1754.15 396.302 1775.13 358.848C1784.65 341.791 1788.83 320.922 1780 302.49C1775.08 292.226 1766.5 283.466 1756.78 276.322Z" fill="#EDEDED"/>
<path d="M1756.78 276.322C1715.42 245.994 1656.63 244.681 1612.95 217.195C1607.27 213.556 1601.86 209.567 1596.77 205.259C1574.69 186.86 1557.16 163.708 1533.97 146.198C1490.53 113.341 1436.55 105.128 1380.49 106.103C1338.14 106.889 1294.67 112.998 1253.83 117.84C1149.82 130.133 1038.02 128.635 941.146 84.1891C876.554 54.5446 822.982 7.83284 761.365 -26.9063C699.749 -61.6454 621.549 -83.9805 559.258 -57.867C492.395 -29.8456 465.68 43.949 403.153 78.5241C336.046 115.623 242.497 99.9307 172.733 133.296C84.0953 175.687 63.2715 279.633 2.35524 350.634C-26.891 384.731 -65.6359 411.231 -96.791 443.905C-131.437 480.31 -156.081 523.697 -168.948 570.942C-173.292 587.06 -176.183 604.727 -168.876 620.746C-162.543 634.569 -149.508 645.257 -136.399 654.767C-87.7103 690.025 -27.316 721.839 -9.66314 774.754C6.62307 823.567 -14.1728 886.781 32.4885 917.233C60.5742 935.569 98.0852 929.596 129.72 921.185C194.965 903.838 258.212 879.642 326.642 873.382C375.626 868.934 429.253 875.562 473 897.464C490.594 906.131 506.44 917.561 519.72 931.164C540.531 952.715 558.132 981.938 588.748 987.019C602.019 989.225 615.273 986.132 627.454 981.978C673.376 966.295 710.02 935.745 753.273 915.333C768.064 908.301 783.929 903.048 800.484 899.704C833.349 893.181 868.091 895.504 895.912 913.819C912.212 924.559 925.397 940.304 944.415 945.774C976.597 955.098 1007.58 943.703 1035.26 924.647C1069.53 901.065 1098.82 865.666 1119.41 842.859L1121.48 840.592C1148.15 811.514 1184.76 791.96 1224.37 776.071C1267.04 758.829 1313.05 745.891 1353.82 729.659C1357.65 728.139 1361.43 726.585 1365.16 724.999C1394.31 712.59 1422.14 698.046 1448.39 681.505C1485.43 658.197 1519.18 631.103 1549.02 600.719C1564.16 585.314 1578.24 569.083 1591.18 552.106C1594.98 547.114 1598.7 542.067 1602.35 536.965C1623.67 507.391 1643.47 476.697 1671.04 451.856C1673.05 450.1 1675.08 448.334 1677.09 446.578C1711.11 417.985 1754.15 396.302 1775.13 358.848C1784.65 341.791 1788.83 320.922 1780 302.49C1775.08 292.226 1766.5 283.466 1756.78 276.322Z" fill="url(#paint0_linear)"/>
<defs>
<linearGradient id="paint0_linear" x1="867.105" y1="-40.4849" x2="738.505" y2="1010.9" gradientUnits="userSpaceOnUse">
<stop stop-color="white"/>
<stop offset="1" stop-color="white" stop-opacity="0"/>
</linearGradient>
</defs>
</svg>
