<svg width="1440" height="3191" viewBox="0 0 1440 3191" fill="none" xmlns="http://www.w3.org/2000/svg">
<rect width="1440" height="3191" fill="#E5E5E5"/>
<g clip-path="url(#clip0)">
<rect y="-75" width="1440" height="3562" fill="white"/>
<rect y="-75" width="1440" height="3762" fill="#FBFBFB"/>
<path d="M-210.595 1677.18C-165.733 1702.03 -107.257 1695.91 -60.4539 1717.65C-54.3533 1720.54 -48.4843 1723.82 -42.8945 1727.45C-18.6578 1742.91 1.65748 1763.66 26.8655 1778.1C74.1158 1805.2 128.699 1806.52 184.184 1798.47C226.098 1792.34 268.449 1780.79 308.347 1770.82C409.968 1745.48 521.061 1732.84 622.777 1764.68C690.598 1785.93 749.645 1825.49 815.158 1852.16C880.671 1878.84 961.067 1891.11 1019.56 1857.33C1082.34 1821.08 1099.52 1744.51 1157.17 1702.3C1219.05 1657.02 1313.83 1660.76 1378.82 1618.85C1461.39 1565.6 1468.91 1459.85 1520.36 1381.72C1545.07 1344.2 1580.15 1313.02 1606.93 1276.67C1636.69 1236.17 1655.66 1190.02 1662.45 1141.53C1664.72 1124.99 1665.36 1107.1 1656.08 1092.13C1648.05 1079.22 1633.77 1070.27 1619.57 1062.49C1566.81 1033.67 1502.88 1009.74 1478.68 959.483C1456.36 913.12 1469 847.785 1418.86 823.474C1388.68 808.835 1352.23 819.501 1321.91 831.843C1259.38 857.297 1199.7 889.292 1132.61 904.152C1084.58 914.754 1030.54 914.958 984.379 898.76C965.831 892.386 948.668 883.051 933.775 871.236C910.408 852.488 889.254 825.723 858.241 824.553C844.798 824.042 832.041 828.786 820.482 834.446C776.911 855.806 744.422 890.743 704.096 916.458C690.312 925.304 675.238 932.519 659.239 937.929C627.461 948.553 592.705 950.64 562.792 935.988C545.265 927.395 530.196 913.442 510.639 910.42C477.537 905.238 448.24 920.457 423.19 942.859C392.179 970.584 367.594 1009.4 350.054 1034.63L348.288 1037.14C325.506 1069.35 291.662 1093.38 254.38 1114.14C214.225 1136.64 170.227 1155.29 131.834 1176.55C128.226 1178.54 124.672 1180.56 121.173 1182.6C93.8256 1198.6 68.0543 1216.54 44.1052 1236.27C10.3059 1264.07 -19.7488 1295.21 -45.5078 1329.12C-58.5772 1346.32 -70.4885 1364.2 -81.1828 1382.67C-84.3193 1388.11 -87.3753 1393.58 -90.3509 1399.11C-107.757 1431.14 -123.523 1464.09 -147.732 1492.21C-149.507 1494.21 -151.292 1496.22 -153.067 1498.21C-183.196 1530.88 -223.159 1557.83 -239.237 1597.63C-246.519 1615.76 -248.027 1636.99 -236.941 1654.15C-230.761 1663.71 -221.148 1671.32 -210.595 1677.18Z" fill="#EDEDED"/>
<path d="M-211.88 2212.52C-167.152 2184.27 -108.657 2190.84 -61.9717 2166.09C-55.8868 2162.8 -50.0354 2159.08 -44.465 2154.96C-20.3107 2137.41 -0.10355 2113.92 25.0269 2097.51C72.1319 2066.72 126.697 2064.92 182.212 2073.68C224.148 2080.35 266.549 2093.12 306.489 2104.12C408.216 2132.09 519.35 2145.7 620.887 2109.26C688.587 2084.95 747.423 2040.05 812.789 2009.64C878.156 1979.23 958.474 1964.95 1017.12 2002.66C1080.08 2043.13 1097.63 2129.29 1155.49 2176.49C1217.58 2227.14 1312.33 2222.39 1377.51 2269.23C1460.33 2328.75 1468.38 2447.8 1520.21 2535.51C1545.1 2577.63 1580.33 2612.55 1607.29 2653.34C1637.25 2698.78 1656.44 2750.66 1663.48 2805.23C1665.83 2823.85 1666.55 2843.99 1657.36 2860.9C1649.4 2875.49 1635.16 2885.66 1621 2894.5C1568.4 2927.26 1504.6 2954.56 1480.66 3011.31C1458.57 3063.65 1471.54 3137.17 1421.53 3164.83C1391.43 3181.49 1354.93 3169.68 1324.56 3155.95C1261.91 3127.64 1202.08 3091.94 1134.93 3075.58C1086.86 3063.91 1032.83 3063.99 986.76 3082.49C968.247 3089.78 951.135 3100.39 936.304 3113.78C913.035 3135.03 892.02 3165.29 861.02 3166.79C847.581 3167.44 834.804 3162.17 823.219 3155.86C779.548 3132.04 746.891 3092.88 706.444 3064.14C692.618 3054.26 677.511 3046.22 661.489 3040.21C629.664 3028.43 594.903 3026.27 565.07 3042.95C547.59 3052.72 532.594 3068.52 513.056 3072.04C479.987 3078.06 450.619 3061.09 425.462 3036C394.318 3004.95 369.543 2961.36 351.88 2933.05L350.102 2930.24C327.163 2894.08 293.205 2867.21 255.827 2844.03C215.567 2818.92 171.484 2798.17 132.992 2774.44C129.375 2772.22 125.812 2769.97 122.303 2767.68C94.8806 2749.82 69.0246 2729.76 44.9814 2707.68C11.0494 2676.55 -19.1556 2641.65 -45.0795 2603.6C-58.2326 2584.31 -70.2313 2564.24 -81.0161 2543.49C-84.1791 2537.39 -87.262 2531.23 -90.2648 2525.03C-107.828 2489.05 -123.756 2452.03 -148.101 2420.49C-149.886 2418.25 -151.681 2416 -153.466 2413.76C-183.752 2377.14 -223.842 2347.02 -240.116 2302.27C-247.488 2281.9 -249.102 2258 -238.105 2238.6C-231.974 2227.8 -222.402 2219.18 -211.88 2212.52Z" fill="#EDEDED"/>
<path d="M1602.88 228.837C1561.52 198.509 1502.74 197.195 1459.06 169.709C1453.37 166.071 1447.96 162.082 1442.88 157.774C1420.79 139.374 1403.26 116.222 1380.08 98.7123C1336.63 65.8553 1282.66 57.643 1226.6 58.6179C1184.25 59.4032 1140.77 65.513 1099.94 70.3545C995.927 82.647 884.127 81.1493 787.251 36.7036C722.659 7.05916 669.087 -39.6526 607.47 -74.3918C545.854 -109.131 467.654 -131.466 405.363 -105.352C338.5 -77.331 311.785 -3.53647 249.258 31.0386C182.151 68.1374 88.6019 52.4452 18.8384 85.8108C-69.7997 128.201 -90.6235 232.148 -151.54 303.148C-180.786 337.245 -219.531 363.746 -250.686 396.419C-285.332 432.824 -309.976 476.211 -322.843 523.456C-327.187 539.575 -330.078 557.241 -322.771 573.26C-316.438 587.083 -303.403 597.771 -290.294 607.281C-241.605 642.54 -181.211 674.354 -163.558 727.268C-147.272 776.081 -168.068 839.295 -121.407 869.747C-93.3208 888.084 -55.8098 882.11 -24.1748 873.699C41.0702 856.352 104.317 832.157 172.747 825.896C221.731 821.449 275.358 828.076 319.105 849.979C336.699 858.646 352.545 870.075 365.825 883.678C386.636 905.229 404.237 934.453 434.853 939.534C448.124 941.739 461.378 938.646 473.559 934.492C519.481 918.81 556.125 888.26 599.378 867.848C614.169 860.815 630.034 855.563 646.589 852.218C679.454 845.695 714.196 848.019 742.017 866.334C758.317 877.073 771.502 892.819 790.52 898.288C822.702 907.613 853.688 896.218 881.368 877.162C915.634 853.579 944.929 818.18 965.516 795.374L967.586 793.107C994.257 764.028 1030.87 744.474 1070.47 728.585C1113.15 711.343 1159.15 698.406 1199.92 682.174C1203.75 680.653 1207.53 679.1 1211.26 677.513C1240.41 665.104 1268.25 650.56 1294.5 634.019C1331.54 610.712 1365.29 583.618 1395.13 553.233C1410.26 537.828 1424.34 521.598 1437.28 504.621C1441.08 499.628 1444.81 494.581 1448.46 489.48C1469.77 459.906 1489.57 429.212 1517.14 404.37C1519.16 402.614 1521.18 400.849 1523.2 399.093C1557.21 370.5 1600.26 348.816 1621.24 311.363C1630.75 294.306 1634.93 273.437 1626.11 255.004C1621.18 244.74 1612.61 235.98 1602.88 228.837Z" fill="#EDEDED"/>
<path d="M163.948 707.949C163.948 707.949 193.79 561.099 136.724 460.17C112.52 417.997 102.355 368.796 107.756 319.954C110.505 296.772 115.316 273.88 122.128 251.568" stroke="#7FB7A2" stroke-width="1.49058" stroke-miterlimit="10"/>
<path d="M86.5161 187.81C87.8926 205.355 122.843 253.414 122.843 253.414C122.843 253.414 149.921 199.749 148.432 182.217C148.111 178.043 146.992 173.98 145.139 170.262C143.285 166.544 140.734 163.242 137.631 160.546C134.527 157.85 130.932 155.812 127.051 154.548C123.169 153.284 119.078 152.82 115.01 153.181C110.941 153.543 106.976 154.722 103.34 156.654C99.7047 158.585 96.4695 161.229 93.8197 164.436C91.1699 167.644 89.1572 171.35 87.8968 175.345C86.6363 179.34 86.1527 183.544 86.4735 187.719L86.5161 187.81Z" fill="#7FB7A2"/>
<path d="M42.9851 289.613C53.4451 303.501 108.356 324.152 108.356 324.152C108.356 324.152 102.697 264.271 92.2326 250.41C89.7483 247.11 86.6515 244.349 83.1188 242.285C79.5861 240.221 75.6867 238.895 71.6434 238.383C67.6 237.87 63.4918 238.181 59.5534 239.298C55.615 240.415 51.9234 242.315 48.6895 244.891C45.4556 247.467 42.7427 250.668 40.7057 254.311C38.6686 257.954 37.3473 261.967 36.8172 266.123C36.2872 270.278 36.5587 274.494 37.6163 278.529C38.6739 282.564 40.4969 286.34 42.9811 289.641L42.9851 289.613Z" fill="#7FB7A2"/>
<path d="M58.2596 455.443C74.0231 461.937 131.909 451.228 131.909 451.228C131.909 451.228 97.6071 402.717 81.68 396.199C74.0517 393.07 65.5022 393.191 57.9121 396.533C50.322 399.876 44.3132 406.168 41.2074 414.024C38.1017 421.88 38.1534 430.657 41.3513 438.425C44.5492 446.192 50.6314 452.314 58.2596 455.443Z" fill="#7FB7A2"/>
<path d="M97.3689 578.033C111.944 587.217 170.562 586.644 170.562 586.644C170.562 586.644 144.83 532.804 130.153 523.748C126.689 521.464 122.81 519.916 118.745 519.196C114.68 518.475 110.509 518.596 106.477 519.551C102.445 520.506 98.6334 522.276 95.2649 524.757C91.8964 527.238 89.039 530.381 86.86 534.001C84.6811 537.622 83.2245 541.647 82.5755 545.84C81.9265 550.034 82.0981 554.312 83.0804 558.424C84.0627 562.535 85.8359 566.398 88.296 569.786C90.7562 573.174 93.8539 576.018 97.4076 578.153L97.3689 578.033Z" fill="#7FB7A2"/>
<path d="M173.601 321.747C162.309 335.094 106.168 352.91 106.168 352.91C106.168 352.91 115.58 293.423 126.899 280.081C132.328 273.68 139.995 269.736 148.213 269.117C156.431 268.498 164.527 271.254 170.72 276.779C176.913 282.305 180.696 290.146 181.237 298.58C181.777 307.013 179.03 315.346 173.601 321.747Z" fill="#7FB7A2"/>
<path d="M217.57 465.61C202.923 474.965 144.285 474.707 144.285 474.707C144.285 474.707 170.577 420.702 185.244 411.407C188.726 409.2 192.593 407.716 196.623 407.04C200.653 406.363 204.767 406.507 208.731 407.463C212.694 408.42 216.43 410.17 219.724 412.614C223.017 415.057 225.805 418.147 227.928 421.706C230.05 425.265 231.466 429.224 232.094 433.356C232.723 437.489 232.551 441.714 231.589 445.791C230.627 449.868 228.894 453.717 226.489 457.117C224.084 460.518 221.053 463.404 217.57 465.61Z" fill="#7FB7A2"/>
<path d="M241.532 611.716C228.612 623.403 170.716 633.396 170.716 633.396C170.716 633.396 187.758 575.792 200.721 563.998C206.93 558.39 215.036 555.527 223.255 556.039C231.474 556.551 239.134 560.396 244.549 566.728C249.964 573.06 252.69 581.36 252.129 589.803C251.567 598.246 247.764 606.14 241.555 611.748L241.532 611.716Z" fill="#7FB7A2"/>
<path d="M1278.6 1466.95C1278.6 1466.95 1249.67 1324.57 1305 1226.71C1328.46 1185.82 1338.32 1138.11 1333.08 1090.76C1330.42 1068.28 1325.75 1046.08 1319.15 1024.45" stroke="#7FB7A2" stroke-width="1.49058" stroke-miterlimit="10"/>
<path d="M1353.68 962.63C1352.34 979.641 1318.45 1026.24 1318.45 1026.24C1318.45 1026.24 1292.2 974.206 1293.64 957.207C1293.96 953.16 1295.04 949.221 1296.84 945.616C1298.63 942.011 1301.11 938.809 1304.12 936.195C1307.13 933.581 1310.61 931.605 1314.37 930.38C1318.14 929.154 1322.11 928.704 1326.05 929.054C1329.99 929.404 1333.84 930.549 1337.36 932.421C1340.89 934.293 1344.03 936.858 1346.6 939.967C1349.16 943.077 1351.12 946.671 1352.34 950.544C1353.56 954.417 1354.03 958.494 1353.72 962.541L1353.68 962.63Z" fill="#7FB7A2"/>
<path d="M1395.88 1061.34C1385.74 1074.8 1332.5 1094.83 1332.5 1094.83C1332.5 1094.83 1337.99 1036.77 1348.13 1023.33C1350.54 1020.13 1353.55 1017.45 1356.97 1015.45C1360.4 1013.45 1364.18 1012.16 1368.1 1011.66C1372.02 1011.17 1376 1011.47 1379.82 1012.55C1383.64 1013.63 1387.22 1015.48 1390.35 1017.97C1393.49 1020.47 1396.12 1023.58 1398.09 1027.11C1400.07 1030.64 1401.35 1034.53 1401.86 1038.56C1402.38 1042.59 1402.12 1046.68 1401.09 1050.59C1400.06 1054.5 1398.3 1058.16 1395.89 1061.36L1395.88 1061.34Z" fill="#7FB7A2"/>
<path d="M1381.07 1222.12C1365.79 1228.42 1309.66 1218.04 1309.66 1218.04C1309.66 1218.04 1342.92 1171 1358.37 1164.68C1365.76 1161.65 1374.05 1161.76 1381.41 1165.01C1388.77 1168.25 1394.6 1174.35 1397.61 1181.96C1400.62 1189.58 1400.57 1198.09 1397.47 1205.62C1394.37 1213.15 1388.47 1219.09 1381.07 1222.12Z" fill="#7FB7A2"/>
<path d="M1343.15 1340.99C1329.02 1349.89 1272.19 1349.33 1272.19 1349.33C1272.19 1349.33 1297.14 1297.13 1311.37 1288.35C1314.73 1286.14 1318.49 1284.64 1322.43 1283.94C1326.37 1283.24 1330.41 1283.36 1334.32 1284.28C1338.23 1285.21 1341.93 1286.92 1345.19 1289.33C1348.46 1291.74 1351.23 1294.78 1353.34 1298.29C1355.46 1301.8 1356.87 1305.71 1357.5 1309.77C1358.13 1313.84 1357.96 1317.99 1357.01 1321.97C1356.06 1325.96 1354.34 1329.7 1351.95 1332.99C1349.57 1336.27 1346.56 1339.03 1343.12 1341.1L1343.15 1340.99Z" fill="#7FB7A2"/>
<path d="M1269.24 1092.49C1280.19 1105.43 1334.62 1122.71 1334.62 1122.71C1334.62 1122.71 1325.5 1065.03 1314.52 1052.09C1309.26 1045.89 1301.82 1042.06 1293.86 1041.46C1285.89 1040.86 1278.04 1043.54 1272.03 1048.89C1266.03 1054.25 1262.36 1061.85 1261.84 1070.03C1261.31 1078.21 1263.98 1086.29 1269.24 1092.49Z" fill="#7FB7A2"/>
<path d="M1226.61 1231.98C1240.81 1241.05 1297.67 1240.8 1297.67 1240.8C1297.67 1240.8 1272.17 1188.44 1257.95 1179.43C1254.57 1177.29 1250.83 1175.85 1246.92 1175.19C1243.01 1174.54 1239.02 1174.68 1235.18 1175.6C1231.34 1176.53 1227.71 1178.23 1224.52 1180.6C1221.33 1182.97 1218.62 1185.96 1216.57 1189.41C1214.51 1192.86 1213.13 1196.7 1212.53 1200.71C1211.92 1204.72 1212.08 1208.81 1213.02 1212.77C1213.95 1216.72 1215.63 1220.45 1217.96 1223.75C1220.29 1227.04 1223.23 1229.84 1226.61 1231.98Z" fill="#7FB7A2"/>
<path d="M1203.38 1373.64C1215.9 1384.98 1272.04 1394.67 1272.04 1394.67C1272.04 1394.67 1255.51 1338.81 1242.94 1327.38C1236.92 1321.94 1229.07 1319.16 1221.1 1319.66C1213.13 1320.16 1205.7 1323.88 1200.45 1330.02C1195.2 1336.16 1192.56 1344.21 1193.1 1352.4C1193.65 1360.58 1197.33 1368.24 1203.35 1373.68L1203.38 1373.64Z" fill="#7FB7A2"/>
<path d="M163.948 2295.95C163.948 2295.95 193.79 2149.1 136.724 2048.17C112.52 2006 102.355 1956.8 107.756 1907.95C110.505 1884.77 115.316 1861.88 122.128 1839.57" stroke="#7FB7A2" stroke-width="1.49058" stroke-miterlimit="10"/>
<path d="M86.5161 1775.81C87.8926 1793.35 122.843 1841.41 122.843 1841.41C122.843 1841.41 149.921 1787.75 148.432 1770.22C148.111 1766.04 146.992 1761.98 145.139 1758.26C143.285 1754.54 140.734 1751.24 137.631 1748.55C134.527 1745.85 130.932 1743.81 127.051 1742.55C123.169 1741.28 119.078 1740.82 115.01 1741.18C110.941 1741.54 106.976 1742.72 103.34 1744.65C99.7047 1746.58 96.4695 1749.23 93.8197 1752.44C91.1699 1755.64 89.1572 1759.35 87.8968 1763.35C86.6363 1767.34 86.1527 1771.54 86.4735 1775.72L86.5161 1775.81Z" fill="#7FB7A2"/>
<path d="M42.9851 1877.61C53.4451 1891.5 108.356 1912.15 108.356 1912.15C108.356 1912.15 102.697 1852.27 92.2326 1838.41C89.7483 1835.11 86.6515 1832.35 83.1188 1830.28C79.5861 1828.22 75.6867 1826.9 71.6434 1826.38C67.6 1825.87 63.4918 1826.18 59.5534 1827.3C55.615 1828.41 51.9234 1830.31 48.6895 1832.89C45.4556 1835.47 42.7427 1838.67 40.7057 1842.31C38.6686 1845.95 37.3473 1849.97 36.8172 1854.12C36.2872 1858.28 36.5587 1862.49 37.6163 1866.53C38.6739 1870.56 40.4969 1874.34 42.9811 1877.64L42.9851 1877.61Z" fill="#7FB7A2"/>
<path d="M58.2596 2043.44C74.0231 2049.94 131.909 2039.23 131.909 2039.23C131.909 2039.23 97.6071 1990.72 81.68 1984.2C74.0517 1981.07 65.5022 1981.19 57.9121 1984.53C50.322 1987.88 44.3132 1994.17 41.2074 2002.02C38.1017 2009.88 38.1534 2018.66 41.3513 2026.42C44.5492 2034.19 50.6314 2040.31 58.2596 2043.44Z" fill="#7FB7A2"/>
<path d="M97.3689 2166.03C111.944 2175.22 170.562 2174.64 170.562 2174.64C170.562 2174.64 144.83 2120.8 130.153 2111.75C126.689 2109.46 122.81 2107.92 118.745 2107.2C114.68 2106.47 110.509 2106.6 106.477 2107.55C102.445 2108.51 98.6334 2110.28 95.2649 2112.76C91.8964 2115.24 89.039 2118.38 86.86 2122C84.6811 2125.62 83.2245 2129.65 82.5755 2133.84C81.9265 2138.03 82.0981 2142.31 83.0804 2146.42C84.0627 2150.54 85.8359 2154.4 88.296 2157.79C90.7562 2161.17 93.8539 2164.02 97.4076 2166.15L97.3689 2166.03Z" fill="#7FB7A2"/>
<path d="M173.601 1909.75C162.309 1923.09 106.168 1940.91 106.168 1940.91C106.168 1940.91 115.58 1881.42 126.899 1868.08C132.328 1861.68 139.995 1857.74 148.213 1857.12C156.431 1856.5 164.527 1859.25 170.72 1864.78C176.913 1870.3 180.696 1878.15 181.237 1886.58C181.777 1895.01 179.03 1903.35 173.601 1909.75Z" fill="#7FB7A2"/>
<path d="M217.57 2053.61C202.923 2062.97 144.285 2062.71 144.285 2062.71C144.285 2062.71 170.577 2008.7 185.244 1999.41C188.726 1997.2 192.593 1995.72 196.623 1995.04C200.653 1994.36 204.767 1994.51 208.731 1995.46C212.694 1996.42 216.43 1998.17 219.724 2000.61C223.017 2003.06 225.805 2006.15 227.928 2009.71C230.05 2013.27 231.466 2017.22 232.094 2021.36C232.723 2025.49 232.551 2029.71 231.589 2033.79C230.627 2037.87 228.894 2041.72 226.489 2045.12C224.084 2048.52 221.053 2051.4 217.57 2053.61Z" fill="#7FB7A2"/>
<path d="M241.532 2199.72C228.612 2211.4 170.716 2221.4 170.716 2221.4C170.716 2221.4 187.758 2163.79 200.721 2152C206.93 2146.39 215.036 2143.53 223.255 2144.04C231.474 2144.55 239.134 2148.4 244.549 2154.73C249.964 2161.06 252.69 2169.36 252.129 2177.8C251.567 2186.25 247.764 2194.14 241.555 2199.75L241.532 2199.72Z" fill="#7FB7A2"/>
<path d="M1278.6 3144.95C1278.6 3144.95 1249.67 3002.57 1305 2904.71C1328.46 2863.82 1338.32 2816.11 1333.08 2768.76C1330.42 2746.28 1325.75 2724.08 1319.15 2702.45" stroke="#7FB7A2" stroke-width="1.49058" stroke-miterlimit="10"/>
<path d="M1353.68 2640.63C1352.34 2657.64 1318.45 2704.24 1318.45 2704.24C1318.45 2704.24 1292.2 2652.21 1293.64 2635.21C1293.96 2631.16 1295.04 2627.22 1296.84 2623.62C1298.63 2620.01 1301.11 2616.81 1304.12 2614.19C1307.13 2611.58 1310.61 2609.6 1314.37 2608.38C1318.14 2607.15 1322.11 2606.7 1326.05 2607.05C1329.99 2607.4 1333.84 2608.55 1337.36 2610.42C1340.89 2612.29 1344.03 2614.86 1346.6 2617.97C1349.16 2621.08 1351.12 2624.67 1352.34 2628.54C1353.56 2632.42 1354.03 2636.49 1353.72 2640.54L1353.68 2640.63Z" fill="#7FB7A2"/>
<path d="M1395.88 2739.34C1385.74 2752.8 1332.5 2772.83 1332.5 2772.83C1332.5 2772.83 1337.99 2714.76 1348.13 2701.33C1350.54 2698.13 1353.55 2695.45 1356.97 2693.45C1360.4 2691.45 1364.18 2690.16 1368.1 2689.66C1372.02 2689.17 1376 2689.47 1379.82 2690.55C1383.64 2691.63 1387.22 2693.48 1390.35 2695.97C1393.49 2698.47 1396.12 2701.58 1398.09 2705.11C1400.07 2708.64 1401.35 2712.53 1401.86 2716.56C1402.38 2720.59 1402.12 2724.68 1401.09 2728.59C1400.06 2732.5 1398.3 2736.16 1395.89 2739.36L1395.88 2739.34Z" fill="#7FB7A2"/>
<path d="M1381.07 2900.12C1365.79 2906.42 1309.66 2896.04 1309.66 2896.04C1309.66 2896.04 1342.92 2849 1358.37 2842.68C1365.76 2839.65 1374.05 2839.76 1381.41 2843.01C1388.77 2846.25 1394.6 2852.35 1397.61 2859.96C1400.62 2867.58 1400.57 2876.09 1397.47 2883.62C1394.37 2891.15 1388.47 2897.09 1381.07 2900.12Z" fill="#7FB7A2"/>
<path d="M1343.15 3018.98C1329.02 3027.89 1272.19 3027.33 1272.19 3027.33C1272.19 3027.33 1297.14 2975.13 1311.37 2966.35C1314.73 2964.14 1318.49 2962.64 1322.43 2961.94C1326.37 2961.24 1330.41 2961.36 1334.32 2962.28C1338.23 2963.21 1341.93 2964.92 1345.19 2967.33C1348.46 2969.74 1351.23 2972.78 1353.34 2976.29C1355.46 2979.8 1356.87 2983.71 1357.5 2987.77C1358.13 2991.84 1357.96 2995.99 1357.01 2999.97C1356.06 3003.96 1354.34 3007.7 1351.95 3010.99C1349.57 3014.27 1346.56 3017.03 1343.12 3019.1L1343.15 3018.98Z" fill="#7FB7A2"/>
<path d="M1269.24 2770.49C1280.19 2783.43 1334.62 2800.71 1334.62 2800.71C1334.62 2800.71 1325.5 2743.03 1314.52 2730.09C1309.26 2723.89 1301.82 2720.06 1293.86 2719.46C1285.89 2718.86 1278.04 2721.54 1272.03 2726.89C1266.03 2732.25 1262.36 2739.85 1261.84 2748.03C1261.31 2756.21 1263.98 2764.29 1269.24 2770.49Z" fill="#7FB7A2"/>
<path d="M1226.61 2909.98C1240.81 2919.05 1297.67 2918.8 1297.67 2918.8C1297.67 2918.8 1272.17 2866.44 1257.95 2857.43C1254.57 2855.29 1250.83 2853.85 1246.92 2853.19C1243.01 2852.54 1239.02 2852.68 1235.18 2853.6C1231.34 2854.53 1227.71 2856.23 1224.52 2858.6C1221.33 2860.97 1218.62 2863.96 1216.57 2867.41C1214.51 2870.86 1213.13 2874.7 1212.53 2878.71C1211.92 2882.72 1212.08 2886.81 1213.02 2890.77C1213.95 2894.72 1215.63 2898.45 1217.96 2901.75C1220.29 2905.04 1223.23 2907.84 1226.61 2909.98Z" fill="#7FB7A2"/>
<path d="M1203.38 3051.64C1215.9 3062.98 1272.04 3072.66 1272.04 3072.66C1272.04 3072.66 1255.51 3016.81 1242.94 3005.38C1236.92 2999.94 1229.07 2997.16 1221.1 2997.66C1213.13 2998.16 1205.7 3001.88 1200.45 3008.02C1195.2 3014.16 1192.56 3022.21 1193.1 3030.4C1193.65 3038.58 1197.33 3046.24 1203.35 3051.68L1203.38 3051.64Z" fill="#7FB7A2"/>
<path d="M1259.19 704.647C1261.84 713.855 1267.59 721.848 1275.4 727.202C1283.22 732.556 1292.6 734.924 1301.87 733.882C1311.14 732.841 1319.71 728.458 1326.03 721.515C1332.36 714.572 1336.04 705.52 1336.41 695.972C1336.79 686.423 1333.84 676.998 1328.09 669.376C1322.34 661.754 1314.16 656.43 1305.01 654.352C1295.86 652.274 1286.34 653.578 1278.13 658.031C1269.93 662.484 1263.58 669.796 1260.21 678.666C1257.08 686.931 1256.72 696.066 1259.19 704.647Z" fill="#BFDBD1"/>
<path d="M1270.32 680.76L1274.65 695.834" stroke="#7FB7A2" stroke-width="0.658252" stroke-miterlimit="10"/>
<path d="M1302.31 686.434L1289.98 701.232" stroke="#7FB7A2" stroke-width="0.658252" stroke-miterlimit="10"/>
<path d="M1280.34 667.722L1300.48 670.275" stroke="#7FB7A2" stroke-width="0.658252" stroke-miterlimit="10"/>
<path d="M1317.74 684.895L1323.52 708.627" stroke="#7FB7A2" stroke-width="0.658252" stroke-miterlimit="10"/>
<path d="M1314.46 718.86L1291.26 714.282" stroke="#7FB7A2" stroke-width="0.658252" stroke-miterlimit="10"/>
<path d="M1281.31 718.966L1285.08 732.064" stroke="#7FB7A2" stroke-width="0.658252" stroke-miterlimit="10"/>
<path d="M1270.91 711.066L1260.95 709.586" stroke="#7FB7A2" stroke-width="0.658252" stroke-miterlimit="10"/>
<path d="M1311.18 665.739L1307.35 654.977" stroke="#7FB7A2" stroke-width="0.658252" stroke-miterlimit="10"/>
<path d="M1320.71 676.79L1332.57 676.851" stroke="#7FB7A2" stroke-width="0.658252" stroke-miterlimit="10"/>
<path d="M1297.88 669.856L1310.76 663.694L1323.27 676.044L1319.39 689.774L1302.57 686.154L1297.88 669.856Z" fill="#7FB7A2" stroke="#7FB7A2" stroke-width="0.658252"/>
<path d="M1272.73 676.471C1271.56 677.826 1270.58 679.184 1270.08 680.392L1260.66 678.424C1264.05 669.761 1270.33 662.639 1278.39 658.305L1282.35 667.645C1282.28 667.7 1282.19 667.769 1282.09 667.852C1281.79 668.085 1281.36 668.424 1280.84 668.846C1279.81 669.69 1278.41 670.866 1276.96 672.195C1275.51 673.524 1273.99 675.009 1272.73 676.471Z" fill="#7FB7A2" stroke="#7FB7A2" stroke-width="0.658252"/>
<path d="M1274.55 696.3L1291.51 699.188L1296.29 715.807L1282.43 722.256L1269.8 710.674L1274.55 696.3Z" fill="#7FB7A2" stroke="#7FB7A2" stroke-width="0.658252"/>
<path d="M1334.09 706.974C1332.5 711.831 1330 716.314 1326.74 720.178C1323.47 724.041 1319.5 727.21 1315.04 729.514L1311.63 717.644L1322.68 705.612L1334.09 706.974Z" fill="#7FB7A2" stroke="#7FB7A2" stroke-width="0.658252"/>
<path d="M1323.07 766.426C1321.42 775.866 1323.09 785.569 1327.78 793.804C1332.46 802.039 1339.86 808.273 1348.65 811.394C1357.44 814.516 1367.06 814.323 1375.79 810.849C1384.51 807.375 1391.78 800.846 1396.3 792.425C1400.82 784.005 1402.29 774.24 1400.46 764.869C1398.62 755.499 1393.6 747.133 1386.28 741.26C1378.97 735.388 1369.83 732.391 1360.51 732.804C1351.18 733.217 1342.27 737.013 1335.36 743.515C1328.92 749.574 1324.6 757.63 1323.07 766.426Z" fill="#BFDBD1"/>
<path d="M1343.53 749.82L1340.83 765.272" stroke="#7FB7A2" stroke-width="0.658252" stroke-miterlimit="10"/>
<path d="M1369.81 768.922L1352.25 776.833" stroke="#7FB7A2" stroke-width="0.658252" stroke-miterlimit="10"/>
<path d="M1358.25 742.483L1375.24 753.594" stroke="#7FB7A2" stroke-width="0.658252" stroke-miterlimit="10"/>
<path d="M1384.36 774.294L1379.17 798.16" stroke="#7FB7A2" stroke-width="0.658252" stroke-miterlimit="10"/>
<path d="M1366.55 803.396L1347.69 789.128" stroke="#7FB7A2" stroke-width="0.658252" stroke-miterlimit="10"/>
<path d="M1336.69 788.983L1334.35 802.41" stroke="#7FB7A2" stroke-width="0.658252" stroke-miterlimit="10"/>
<path d="M1330.8 777.33L1322.49 771.637" stroke="#7FB7A2" stroke-width="0.658252" stroke-miterlimit="10"/>
<path d="M1386.84 754.197L1388.11 742.845" stroke="#7FB7A2" stroke-width="0.658252" stroke-miterlimit="10"/>
<path d="M1390.58 768.305L1401.21 773.55" stroke="#7FB7A2" stroke-width="0.658252" stroke-miterlimit="10"/>
<path d="M1373.08 752.078L1387.36 752.176L1393.21 768.756L1383.71 779.402L1370.17 768.784L1373.08 752.078Z" fill="#7FB7A2" stroke="#7FB7A2" stroke-width="0.658252"/>
<path d="M1347.58 747.019C1345.93 747.725 1344.46 748.518 1343.47 749.383L1335.87 743.492C1342.71 737.187 1351.47 733.531 1360.61 733.162L1360.09 743.294C1360 743.312 1359.89 743.336 1359.76 743.364C1359.39 743.444 1358.86 743.562 1358.21 743.715C1356.91 744.022 1355.14 744.468 1353.25 745.026C1351.36 745.585 1349.35 746.258 1347.58 747.019Z" fill="#7FB7A2" stroke="#7FB7A2" stroke-width="0.658252"/>
<path d="M1340.54 765.647L1354.52 775.664L1351.54 792.7L1336.26 792.432L1329.98 776.492L1340.54 765.647Z" fill="#7FB7A2" stroke="#7FB7A2" stroke-width="0.658252"/>
<path d="M1389.4 801.303C1385.84 804.972 1381.64 807.91 1377.01 809.955C1372.38 811.999 1367.42 813.111 1362.41 813.232L1364.53 801.064L1379.73 795.082L1389.4 801.303Z" fill="#7FB7A2" stroke="#7FB7A2" stroke-width="0.658252"/>
<path d="M187.49 1180.65C184.838 1189.85 179.091 1197.85 171.274 1203.2C163.457 1208.56 154.077 1210.92 144.805 1209.88C135.533 1208.84 126.972 1204.46 120.646 1197.52C114.321 1190.57 110.642 1181.52 110.265 1171.97C109.888 1162.42 112.837 1153 118.588 1145.38C124.338 1137.75 132.517 1132.43 141.665 1130.35C150.814 1128.27 160.339 1129.58 168.543 1134.03C176.748 1138.48 183.098 1145.8 186.464 1154.67C189.6 1162.93 189.961 1172.07 187.49 1180.65Z" fill="#BFDBD1"/>
<path d="M176.361 1156.76L172.023 1171.83" stroke="#7FB7A2" stroke-width="0.658252" stroke-miterlimit="10"/>
<path d="M144.372 1162.43L156.697 1177.23" stroke="#7FB7A2" stroke-width="0.658252" stroke-miterlimit="10"/>
<path d="M166.34 1143.72L146.197 1146.28" stroke="#7FB7A2" stroke-width="0.658252" stroke-miterlimit="10"/>
<path d="M128.934 1160.89L123.16 1184.63" stroke="#7FB7A2" stroke-width="0.658252" stroke-miterlimit="10"/>
<path d="M132.218 1194.86L155.416 1190.28" stroke="#7FB7A2" stroke-width="0.658252" stroke-miterlimit="10"/>
<path d="M165.367 1194.97L161.598 1208.06" stroke="#7FB7A2" stroke-width="0.658252" stroke-miterlimit="10"/>
<path d="M175.763 1187.07L185.731 1185.59" stroke="#7FB7A2" stroke-width="0.658252" stroke-miterlimit="10"/>
<path d="M135.5 1141.74L139.327 1130.98" stroke="#7FB7A2" stroke-width="0.658252" stroke-miterlimit="10"/>
<path d="M125.969 1152.79L114.111 1152.85" stroke="#7FB7A2" stroke-width="0.658252" stroke-miterlimit="10"/>
<path d="M148.8 1145.86L135.918 1139.69L123.405 1152.04L127.287 1165.77L144.11 1162.15L148.8 1145.86Z" fill="#7FB7A2" stroke="#7FB7A2" stroke-width="0.658252"/>
<path d="M173.948 1152.47C175.12 1153.83 176.097 1155.18 176.603 1156.39L186.018 1154.42C182.627 1145.76 176.351 1138.64 168.29 1134.31L164.328 1143.64C164.399 1143.7 164.488 1143.77 164.592 1143.85C164.89 1144.09 165.316 1144.42 165.833 1144.85C166.866 1145.69 168.264 1146.87 169.717 1148.2C171.17 1149.52 172.684 1151.01 173.948 1152.47Z" fill="#7FB7A2" stroke="#7FB7A2" stroke-width="0.658252"/>
<path d="M172.124 1172.3L155.168 1175.19L150.387 1191.81L164.247 1198.26L176.874 1186.67L172.124 1172.3Z" fill="#7FB7A2" stroke="#7FB7A2" stroke-width="0.658252"/>
<path d="M112.583 1182.97C114.176 1187.83 116.674 1192.31 119.941 1196.18C123.206 1200.04 127.177 1203.21 131.634 1205.51L135.049 1193.64L123.999 1181.61L112.583 1182.97Z" fill="#7FB7A2" stroke="#7FB7A2" stroke-width="0.658252"/>
<path d="M123.609 1242.43C125.255 1251.87 123.586 1261.57 118.901 1269.8C114.216 1278.04 106.818 1284.27 98.0251 1287.39C89.2326 1290.52 79.6165 1290.32 70.8903 1286.85C62.164 1283.37 54.8942 1276.85 50.3762 1268.43C45.8581 1260 44.3853 1250.24 46.22 1240.87C48.0546 1231.5 53.0778 1223.13 60.3944 1217.26C67.7109 1211.39 76.8458 1208.39 86.1714 1208.8C95.497 1209.22 104.408 1213.01 111.316 1219.52C117.753 1225.57 122.075 1233.63 123.609 1242.43Z" fill="#BFDBD1"/>
<path d="M103.148 1225.82L105.845 1241.27" stroke="#7FB7A2" stroke-width="0.658252" stroke-miterlimit="10"/>
<path d="M76.8692 1244.92L94.4281 1252.83" stroke="#7FB7A2" stroke-width="0.658252" stroke-miterlimit="10"/>
<path d="M88.4315 1218.48L71.4378 1229.59" stroke="#7FB7A2" stroke-width="0.658252" stroke-miterlimit="10"/>
<path d="M62.3149 1250.29L67.5097 1274.16" stroke="#7FB7A2" stroke-width="0.658252" stroke-miterlimit="10"/>
<path d="M80.1321 1279.4L98.9874 1265.13" stroke="#7FB7A2" stroke-width="0.658252" stroke-miterlimit="10"/>
<path d="M109.985 1264.98L112.329 1278.41" stroke="#7FB7A2" stroke-width="0.658252" stroke-miterlimit="10"/>
<path d="M115.874 1253.33L124.189 1247.64" stroke="#7FB7A2" stroke-width="0.658252" stroke-miterlimit="10"/>
<path d="M59.8348 1230.2L58.5651 1218.85" stroke="#7FB7A2" stroke-width="0.658252" stroke-miterlimit="10"/>
<path d="M56.1011 1244.31L45.4667 1249.55" stroke="#7FB7A2" stroke-width="0.658252" stroke-miterlimit="10"/>
<path d="M73.5945 1228.08L59.3155 1228.18L53.4692 1244.76L62.9691 1255.4L76.511 1244.78L73.5945 1228.08Z" fill="#7FB7A2" stroke="#7FB7A2" stroke-width="0.658252"/>
<path d="M99.1016 1223.02C100.748 1223.72 102.221 1224.52 103.204 1225.38L110.808 1219.49C103.968 1213.19 95.2086 1209.53 86.0636 1209.16L86.589 1219.29C86.677 1219.31 86.787 1219.34 86.9171 1219.36C87.2867 1219.44 87.8183 1219.56 88.4678 1219.72C89.7663 1220.02 91.5374 1220.47 93.4262 1221.03C95.314 1221.59 97.3251 1222.26 99.1016 1223.02Z" fill="#7FB7A2" stroke="#7FB7A2" stroke-width="0.658252"/>
<path d="M106.139 1241.65L92.1584 1251.66L95.1325 1268.7L110.418 1268.43L116.701 1252.49L106.139 1241.65Z" fill="#7FB7A2" stroke="#7FB7A2" stroke-width="0.658252"/>
<path d="M57.2759 1277.3C60.8339 1280.97 65.0423 1283.91 69.6707 1285.96C74.2972 1288 79.2544 1289.11 84.2705 1289.23L82.1463 1277.06L66.9445 1271.08L57.2759 1277.3Z" fill="#7FB7A2" stroke="#7FB7A2" stroke-width="0.658252"/>
<path d="M1259.19 2031.65C1261.84 2040.85 1267.59 2048.85 1275.4 2054.2C1283.22 2059.56 1292.6 2061.92 1301.87 2060.88C1311.14 2059.84 1319.71 2055.46 1326.03 2048.52C1332.36 2041.57 1336.04 2032.52 1336.41 2022.97C1336.79 2013.42 1333.84 2004 1328.09 1996.38C1322.34 1988.75 1314.16 1983.43 1305.01 1981.35C1295.86 1979.27 1286.34 1980.58 1278.13 1985.03C1269.93 1989.48 1263.58 1996.8 1260.21 2005.67C1257.08 2013.93 1256.72 2023.07 1259.19 2031.65Z" fill="#BFDBD1"/>
<path d="M1270.32 2007.76L1274.65 2022.83" stroke="#7FB7A2" stroke-width="0.658252" stroke-miterlimit="10"/>
<path d="M1302.31 2013.43L1289.98 2028.23" stroke="#7FB7A2" stroke-width="0.658252" stroke-miterlimit="10"/>
<path d="M1280.34 1994.72L1300.48 1997.28" stroke="#7FB7A2" stroke-width="0.658252" stroke-miterlimit="10"/>
<path d="M1317.74 2011.89L1323.52 2035.63" stroke="#7FB7A2" stroke-width="0.658252" stroke-miterlimit="10"/>
<path d="M1314.46 2045.86L1291.26 2041.28" stroke="#7FB7A2" stroke-width="0.658252" stroke-miterlimit="10"/>
<path d="M1281.31 2045.97L1285.08 2059.06" stroke="#7FB7A2" stroke-width="0.658252" stroke-miterlimit="10"/>
<path d="M1270.91 2038.07L1260.95 2036.59" stroke="#7FB7A2" stroke-width="0.658252" stroke-miterlimit="10"/>
<path d="M1311.18 1992.74L1307.35 1981.98" stroke="#7FB7A2" stroke-width="0.658252" stroke-miterlimit="10"/>
<path d="M1320.71 2003.79L1332.57 2003.85" stroke="#7FB7A2" stroke-width="0.658252" stroke-miterlimit="10"/>
<path d="M1297.88 1996.86L1310.76 1990.69L1323.27 2003.04L1319.39 2016.77L1302.57 2013.15L1297.88 1996.86Z" fill="#7FB7A2" stroke="#7FB7A2" stroke-width="0.658252"/>
<path d="M1272.73 2003.47C1271.56 2004.83 1270.58 2006.18 1270.08 2007.39L1260.66 2005.42C1264.05 1996.76 1270.33 1989.64 1278.39 1985.31L1282.35 1994.64C1282.28 1994.7 1282.19 1994.77 1282.09 1994.85C1281.79 1995.09 1281.36 1995.42 1280.84 1995.85C1279.81 1996.69 1278.41 1997.87 1276.96 1999.2C1275.51 2000.52 1273.99 2002.01 1272.73 2003.47Z" fill="#7FB7A2" stroke="#7FB7A2" stroke-width="0.658252"/>
<path d="M1274.55 2023.3L1291.51 2026.19L1296.29 2042.81L1282.43 2049.26L1269.8 2037.67L1274.55 2023.3Z" fill="#7FB7A2" stroke="#7FB7A2" stroke-width="0.658252"/>
<path d="M1334.09 2033.97C1332.5 2038.83 1330 2043.31 1326.74 2047.18C1323.47 2051.04 1319.5 2054.21 1315.04 2056.51L1311.63 2044.64L1322.68 2032.61L1334.09 2033.97Z" fill="#7FB7A2" stroke="#7FB7A2" stroke-width="0.658252"/>
<path d="M1323.07 2093.43C1321.42 2102.87 1323.09 2112.57 1327.78 2120.8C1332.46 2129.04 1339.86 2135.27 1348.65 2138.39C1357.44 2141.52 1367.06 2141.32 1375.79 2137.85C1384.51 2134.37 1391.78 2127.85 1396.3 2119.43C1400.82 2111 1402.29 2101.24 1400.46 2091.87C1398.62 2082.5 1393.6 2074.13 1386.28 2068.26C1378.97 2062.39 1369.83 2059.39 1360.51 2059.8C1351.18 2060.22 1342.27 2064.01 1335.36 2070.52C1328.92 2076.57 1324.6 2084.63 1323.07 2093.43Z" fill="#BFDBD1"/>
<path d="M1343.53 2076.82L1340.83 2092.27" stroke="#7FB7A2" stroke-width="0.658252" stroke-miterlimit="10"/>
<path d="M1369.81 2095.92L1352.25 2103.83" stroke="#7FB7A2" stroke-width="0.658252" stroke-miterlimit="10"/>
<path d="M1358.25 2069.48L1375.24 2080.59" stroke="#7FB7A2" stroke-width="0.658252" stroke-miterlimit="10"/>
<path d="M1384.36 2101.29L1379.17 2125.16" stroke="#7FB7A2" stroke-width="0.658252" stroke-miterlimit="10"/>
<path d="M1366.55 2130.4L1347.69 2116.13" stroke="#7FB7A2" stroke-width="0.658252" stroke-miterlimit="10"/>
<path d="M1336.69 2115.98L1334.35 2129.41" stroke="#7FB7A2" stroke-width="0.658252" stroke-miterlimit="10"/>
<path d="M1330.8 2104.33L1322.49 2098.64" stroke="#7FB7A2" stroke-width="0.658252" stroke-miterlimit="10"/>
<path d="M1386.84 2081.2L1388.11 2069.85" stroke="#7FB7A2" stroke-width="0.658252" stroke-miterlimit="10"/>
<path d="M1390.58 2095.31L1401.21 2100.55" stroke="#7FB7A2" stroke-width="0.658252" stroke-miterlimit="10"/>
<path d="M1373.08 2079.08L1387.36 2079.18L1393.21 2095.76L1383.71 2106.4L1370.17 2095.78L1373.08 2079.08Z" fill="#7FB7A2" stroke="#7FB7A2" stroke-width="0.658252"/>
<path d="M1347.58 2074.02C1345.93 2074.72 1344.46 2075.52 1343.47 2076.38L1335.87 2070.49C1342.71 2064.19 1351.47 2060.53 1360.61 2060.16L1360.09 2070.29C1360 2070.31 1359.89 2070.34 1359.76 2070.36C1359.39 2070.44 1358.86 2070.56 1358.21 2070.72C1356.91 2071.02 1355.14 2071.47 1353.25 2072.03C1351.36 2072.59 1349.35 2073.26 1347.58 2074.02Z" fill="#7FB7A2" stroke="#7FB7A2" stroke-width="0.658252"/>
<path d="M1340.54 2092.65L1354.52 2102.66L1351.54 2119.7L1336.26 2119.43L1329.98 2103.49L1340.54 2092.65Z" fill="#7FB7A2" stroke="#7FB7A2" stroke-width="0.658252"/>
<path d="M1389.4 2128.3C1385.84 2131.97 1381.64 2134.91 1377.01 2136.96C1372.38 2139 1367.42 2140.11 1362.41 2140.23L1364.53 2128.06L1379.73 2122.08L1389.4 2128.3Z" fill="#7FB7A2" stroke="#7FB7A2" stroke-width="0.658252"/>
<path d="M187.49 2507.65C184.838 2516.85 179.091 2524.85 171.274 2530.2C163.457 2535.56 154.077 2537.92 144.805 2536.88C135.533 2535.84 126.972 2531.46 120.646 2524.52C114.321 2517.57 110.642 2508.52 110.265 2498.97C109.888 2489.42 112.837 2480 118.588 2472.38C124.338 2464.75 132.517 2459.43 141.665 2457.35C150.814 2455.27 160.339 2456.58 168.543 2461.03C176.748 2465.48 183.098 2472.8 186.464 2481.67C189.6 2489.93 189.961 2499.07 187.49 2507.65Z" fill="#BFDBD1"/>
<path d="M176.361 2483.76L172.023 2498.83" stroke="#7FB7A2" stroke-width="0.658252" stroke-miterlimit="10"/>
<path d="M144.372 2489.43L156.697 2504.23" stroke="#7FB7A2" stroke-width="0.658252" stroke-miterlimit="10"/>
<path d="M166.34 2470.72L146.197 2473.28" stroke="#7FB7A2" stroke-width="0.658252" stroke-miterlimit="10"/>
<path d="M128.934 2487.89L123.16 2511.63" stroke="#7FB7A2" stroke-width="0.658252" stroke-miterlimit="10"/>
<path d="M132.218 2521.86L155.416 2517.28" stroke="#7FB7A2" stroke-width="0.658252" stroke-miterlimit="10"/>
<path d="M165.367 2521.97L161.598 2535.06" stroke="#7FB7A2" stroke-width="0.658252" stroke-miterlimit="10"/>
<path d="M175.763 2514.07L185.731 2512.59" stroke="#7FB7A2" stroke-width="0.658252" stroke-miterlimit="10"/>
<path d="M135.5 2468.74L139.327 2457.98" stroke="#7FB7A2" stroke-width="0.658252" stroke-miterlimit="10"/>
<path d="M125.969 2479.79L114.111 2479.85" stroke="#7FB7A2" stroke-width="0.658252" stroke-miterlimit="10"/>
<path d="M148.8 2472.86L135.918 2466.69L123.405 2479.04L127.287 2492.77L144.11 2489.15L148.8 2472.86Z" fill="#7FB7A2" stroke="#7FB7A2" stroke-width="0.658252"/>
<path d="M173.948 2479.47C175.12 2480.83 176.097 2482.18 176.603 2483.39L186.018 2481.42C182.627 2472.76 176.351 2465.64 168.29 2461.31L164.328 2470.64C164.399 2470.7 164.488 2470.77 164.592 2470.85C164.89 2471.09 165.316 2471.42 165.833 2471.85C166.866 2472.69 168.264 2473.87 169.717 2475.2C171.17 2476.52 172.684 2478.01 173.948 2479.47Z" fill="#7FB7A2" stroke="#7FB7A2" stroke-width="0.658252"/>
<path d="M172.124 2499.3L155.168 2502.19L150.387 2518.81L164.247 2525.26L176.874 2513.67L172.124 2499.3Z" fill="#7FB7A2" stroke="#7FB7A2" stroke-width="0.658252"/>
<path d="M112.583 2509.97C114.176 2514.83 116.674 2519.31 119.941 2523.18C123.206 2527.04 127.177 2530.21 131.634 2532.51L135.049 2520.64L123.999 2508.61L112.583 2509.97Z" fill="#7FB7A2" stroke="#7FB7A2" stroke-width="0.658252"/>
<path d="M123.609 2569.43C125.255 2578.87 123.586 2588.57 118.901 2596.8C114.216 2605.04 106.818 2611.27 98.0251 2614.39C89.2326 2617.52 79.6165 2617.32 70.8903 2613.85C62.164 2610.37 54.8942 2603.85 50.3762 2595.43C45.8581 2587 44.3853 2577.24 46.22 2567.87C48.0546 2558.5 53.0778 2550.13 60.3944 2544.26C67.7109 2538.39 76.8458 2535.39 86.1714 2535.8C95.497 2536.22 104.408 2540.01 111.316 2546.52C117.753 2552.57 122.075 2560.63 123.609 2569.43Z" fill="#BFDBD1"/>
<path d="M103.148 2552.82L105.845 2568.27" stroke="#7FB7A2" stroke-width="0.658252" stroke-miterlimit="10"/>
<path d="M76.8692 2571.92L94.4281 2579.83" stroke="#7FB7A2" stroke-width="0.658252" stroke-miterlimit="10"/>
<path d="M88.4315 2545.48L71.4378 2556.59" stroke="#7FB7A2" stroke-width="0.658252" stroke-miterlimit="10"/>
<path d="M62.3149 2577.29L67.5097 2601.16" stroke="#7FB7A2" stroke-width="0.658252" stroke-miterlimit="10"/>
<path d="M80.1321 2606.4L98.9874 2592.13" stroke="#7FB7A2" stroke-width="0.658252" stroke-miterlimit="10"/>
<path d="M109.985 2591.98L112.329 2605.41" stroke="#7FB7A2" stroke-width="0.658252" stroke-miterlimit="10"/>
<path d="M115.874 2580.33L124.189 2574.64" stroke="#7FB7A2" stroke-width="0.658252" stroke-miterlimit="10"/>
<path d="M59.8348 2557.2L58.5651 2545.84" stroke="#7FB7A2" stroke-width="0.658252" stroke-miterlimit="10"/>
<path d="M56.1011 2571.31L45.4667 2576.55" stroke="#7FB7A2" stroke-width="0.658252" stroke-miterlimit="10"/>
<path d="M73.5945 2555.08L59.3155 2555.18L53.4692 2571.76L62.9691 2582.4L76.511 2571.78L73.5945 2555.08Z" fill="#7FB7A2" stroke="#7FB7A2" stroke-width="0.658252"/>
<path d="M99.1016 2550.02C100.748 2550.72 102.221 2551.52 103.204 2552.38L110.808 2546.49C103.968 2540.19 95.2086 2536.53 86.0636 2536.16L86.589 2546.29C86.677 2546.31 86.787 2546.34 86.9171 2546.36C87.2867 2546.44 87.8183 2546.56 88.4678 2546.72C89.7663 2547.02 91.5374 2547.47 93.4262 2548.03C95.314 2548.58 97.3251 2549.26 99.1016 2550.02Z" fill="#7FB7A2" stroke="#7FB7A2" stroke-width="0.658252"/>
<path d="M106.139 2568.65L92.1584 2578.66L95.1325 2595.7L110.418 2595.43L116.701 2579.49L106.139 2568.65Z" fill="#7FB7A2" stroke="#7FB7A2" stroke-width="0.658252"/>
<path d="M57.2759 2604.3C60.8339 2607.97 65.0423 2610.91 69.6707 2612.95C74.2972 2615 79.2544 2616.11 84.2705 2616.23L82.1463 2604.06L66.9445 2598.08L57.2759 2604.3Z" fill="#7FB7A2" stroke="#7FB7A2" stroke-width="0.658252"/>
</g>
<defs>
<clipPath id="clip0">
<rect y="-75" width="1440" height="3562" fill="white"/>
</clipPath>
</defs>
</svg>
