<svg width="488" height="445" viewBox="0 0 488 445" fill="none" xmlns="http://www.w3.org/2000/svg">
<path d="M47.1891 295.155C50.4692 284.459 60.8514 277.432 64.9373 267.025C65.461 265.659 65.8867 264.256 66.2109 262.827C67.661 256.684 67.6415 250.137 69.4098 244.042C72.7185 232.611 81.2932 224.788 91.4993 218.522C99.2168 213.798 107.864 209.986 115.865 206.229C136.236 196.655 156.12 183.485 167.443 163.634C174.991 150.396 178.222 135.089 184.538 121.197C190.854 107.306 201.848 93.9305 216.615 91.8638C232.465 89.6436 247.367 101.001 263.335 100.562C280.472 100.089 295.133 86.245 312.235 84.7361C333.965 82.8185 351.936 100.752 372.601 107.623C382.524 110.924 393.113 111.645 403.184 114.447C414.393 117.577 424.76 123.225 433.539 130.984C436.526 133.637 439.464 136.759 440.344 140.734C441.098 144.167 440.219 147.759 439.166 151.129C435.244 163.633 428.747 176.812 432.819 189.195C436.574 200.618 448.964 210.587 444.749 221.918C442.212 228.739 434.654 231.891 427.819 233.89C413.721 238.011 399.044 240.563 385.892 247.22C376.481 251.992 367.752 259.465 362.89 268.788C360.915 272.509 359.633 276.57 359.108 280.76C358.319 287.372 359.157 295.116 354.351 299.636C352.269 301.596 349.464 302.517 346.706 303.108C336.308 305.329 325.542 303.574 314.976 304.564C311.355 304.892 307.786 305.691 304.353 306.944C297.555 309.454 291.631 313.909 289.139 320.696C287.68 324.674 287.467 329.272 284.798 332.533C280.292 338.063 273.164 339.403 265.582 338.864C256.197 338.198 246.087 334.648 239.266 332.558L238.584 332.353C229.811 329.737 220.556 330.129 211.265 331.583C201.236 333.126 191.199 335.894 181.651 337.415C180.755 337.559 179.863 337.69 178.975 337.81C172.039 338.74 165.047 339.101 158.066 338.889C148.22 338.596 138.446 337.184 128.926 334.677C124.097 333.408 119.346 331.854 114.696 330.025C113.33 329.486 111.97 328.927 110.616 328.35C102.738 325.02 94.9777 321.298 86.6233 319.614C86.0212 319.502 85.4157 319.39 84.8136 319.279C74.7875 317.604 64.0842 318.321 55.1874 313.411C51.1429 311.171 47.5353 307.57 46.5981 302.948C46.0775 300.374 46.4189 297.673 47.1891 295.155Z" fill="#B2CDC4"/>
<path d="M219.957 292.843C219.957 292.843 216.583 227.709 181.592 191.547C166.815 176.47 157.192 156.876 154.167 135.71C152.806 125.655 152.344 115.493 152.787 105.353" stroke="#7FB7A2" stroke-width="1.3165" stroke-miterlimit="10"/>
<path d="M130.87 82.4314C133.357 89.6628 153.292 106.021 153.292 106.021C153.292 106.021 158.823 80.4339 156.335 73.2025C155.107 69.7776 152.616 66.9861 149.402 65.4319C146.188 63.8776 142.51 63.6855 139.162 64.8971C135.814 66.1087 133.066 68.6266 131.513 71.9062C129.959 75.1858 129.725 78.9634 130.861 82.4221L130.87 82.4314Z" fill="#7FB7A2"/>
<path d="M123.581 130.116C129.487 134.78 154.869 137.406 154.869 137.406C154.869 137.406 145.977 112.826 140.071 108.143C138.671 106.982 137.059 106.12 135.33 105.607C133.602 105.094 131.792 104.941 130.006 105.157C128.22 105.373 126.494 105.953 124.93 106.864C123.366 107.775 121.995 108.997 120.897 110.46C119.799 111.923 118.996 113.597 118.537 115.383C118.077 117.17 117.969 119.033 118.219 120.864C118.469 122.695 119.072 124.456 119.993 126.045C120.914 127.634 122.134 129.018 123.581 130.116Z" fill="#7FB7A2"/>
<path d="M148.023 198.245C155.42 199.223 178.595 188.308 178.595 188.308C178.595 188.308 158.85 171.688 151.453 170.672C147.943 170.29 144.428 171.335 141.661 173.583C138.894 175.832 137.093 179.105 136.645 182.702C136.197 186.3 137.136 189.936 139.262 192.834C141.388 195.731 144.533 197.659 148.022 198.206L148.023 198.245Z" fill="#7FB7A2"/>
<path d="M177.805 245.517C184.938 247.771 209.576 241.031 209.576 241.031C209.576 241.031 192.848 221.231 185.715 218.968C184.008 218.391 182.206 218.17 180.416 218.317C178.625 218.464 176.881 218.976 175.286 219.825C173.692 220.673 172.278 221.84 171.128 223.257C169.978 224.674 169.114 226.313 168.588 228.078C168.062 229.843 167.884 231.699 168.064 233.536C168.244 235.373 168.779 237.156 169.637 238.779C170.496 240.402 171.66 241.833 173.062 242.988C174.465 244.144 176.077 245 177.805 245.508L177.805 245.517Z" fill="#7FB7A2"/>
<path d="M182.098 129.1C178.78 135.963 157.07 149.696 157.07 149.696C157.07 149.696 154.581 123.61 157.89 116.738C158.678 115.105 159.771 113.648 161.108 112.45C162.444 111.252 163.997 110.336 165.678 109.755C167.36 109.175 169.136 108.94 170.906 109.065C172.676 109.19 174.406 109.672 175.995 110.484C177.585 111.296 179.003 112.421 180.17 113.796C181.337 115.171 182.23 116.768 182.796 118.497C183.363 120.225 183.593 122.051 183.473 123.871C183.353 125.69 182.886 127.467 182.098 129.1Z" fill="#7FB7A2"/>
<path d="M216.241 184.867C211.076 190.399 186.357 196.816 186.357 196.816C186.357 196.816 191.57 171.167 196.735 165.635C199.229 163.047 202.613 161.572 206.159 161.527C209.704 161.482 213.126 162.872 215.686 165.396C218.246 167.92 219.739 171.376 219.842 175.019C219.946 178.662 218.653 182.199 216.241 184.867Z" fill="#7FB7A2"/>
<path d="M242.199 243.721C238.025 250.066 214.714 260.687 214.714 260.687C214.714 260.687 215.633 234.489 219.816 228.116C220.802 226.588 222.073 225.276 223.555 224.257C225.037 223.237 226.702 222.53 228.452 222.175C230.203 221.821 232.005 221.827 233.754 222.192C235.503 222.557 237.165 223.275 238.643 224.304C240.121 225.333 241.387 226.652 242.367 228.186C243.347 229.72 244.022 231.438 244.352 233.241C244.683 235.044 244.663 236.895 244.293 238.689C243.923 240.483 243.211 242.184 242.198 243.693L242.199 243.721Z" fill="#7FB7A2"/>
<path d="M163.759 382.321C165.689 389.02 169.869 394.836 175.557 398.731C181.244 402.626 188.068 404.348 194.814 403.591C201.559 402.833 207.788 399.645 212.39 394.593C216.993 389.542 219.669 382.957 219.944 376.01C220.218 369.063 218.072 362.206 213.888 356.66C209.704 351.115 203.754 347.241 197.098 345.73C190.442 344.218 183.512 345.166 177.543 348.406C171.575 351.646 166.954 356.966 164.506 363.419C162.224 369.432 161.961 376.078 163.759 382.321Z" fill="#BFDBD1"/>
<path d="M171.856 364.942L175.012 375.91" stroke="#7FB7A2" stroke-width="0.658252" stroke-miterlimit="10"/>
<path d="M195.129 369.07L186.162 379.837" stroke="#7FB7A2" stroke-width="0.658252" stroke-miterlimit="10"/>
<path d="M179.147 355.457L193.801 357.314" stroke="#7FB7A2" stroke-width="0.658252" stroke-miterlimit="10"/>
<path d="M206.361 367.951L210.562 385.217" stroke="#7FB7A2" stroke-width="0.658252" stroke-miterlimit="10"/>
<path d="M203.972 392.661L187.094 389.331" stroke="#7FB7A2" stroke-width="0.658252" stroke-miterlimit="10"/>
<path d="M179.854 392.738L182.596 402.268" stroke="#7FB7A2" stroke-width="0.658252" stroke-miterlimit="10"/>
<path d="M172.291 386.991L165.039 385.914" stroke="#7FB7A2" stroke-width="0.658252" stroke-miterlimit="10"/>
<path d="M201.583 354.014L198.8 346.184" stroke="#7FB7A2" stroke-width="0.658252" stroke-miterlimit="10"/>
<path d="M208.518 362.054L217.145 362.099" stroke="#7FB7A2" stroke-width="0.658252" stroke-miterlimit="10"/>
<path d="M192.015 357.057L201.261 352.635L210.283 361.538L207.496 371.395L195.391 368.79L192.015 357.057Z" fill="#7FB7A2" stroke="#7FB7A2" stroke-width="0.658252"/>
<path d="M173.543 361.763C172.712 362.725 172.007 363.696 171.626 364.572L164.953 363.177C167.408 356.969 171.91 351.862 177.684 348.731L180.501 355.372C180.46 355.404 180.414 355.44 180.362 355.481C180.146 355.651 179.835 355.898 179.459 356.205C178.706 356.82 177.688 357.677 176.629 358.645C175.57 359.613 174.466 360.696 173.543 361.763Z" fill="#7FB7A2" stroke="#7FB7A2" stroke-width="0.658252"/>
<path d="M175 376.35L187.204 378.428L190.646 390.391L180.685 395.026L171.586 386.679L175 376.35Z" fill="#7FB7A2" stroke="#7FB7A2" stroke-width="0.658252"/>
<path d="M218.137 384.09C216.98 387.572 215.181 390.788 212.835 393.563C210.491 396.336 207.645 398.616 204.452 400.283L202.012 391.8L209.986 383.118L218.137 384.09Z" fill="#7FB7A2" stroke="#7FB7A2" stroke-width="0.658252"/>
<path d="M213.218 150.288C213.218 150.288 214.214 114.47 204.929 122.788C195.644 131.106 201.081 146.699 201.081 146.699L205.995 155.667L212.961 151.882L213.218 150.288Z" fill="#BFDBD1"/>
<path d="M230.109 163.974C230.109 163.974 217.31 144.136 213.686 146.785C210.061 149.435 200.455 149.505 201 156.057C201.545 162.61 230.982 188.358 230.982 188.358L230.109 163.974Z" fill="#409374"/>
<path d="M319.7 176.832L317.688 189.332C317.688 189.332 314.748 217.711 305.486 214.618C296.224 211.524 304.752 188.853 304.752 188.853L308.601 175.046L319.7 176.832Z" fill="#BFDBD1"/>
<path d="M300.557 266.45C300.557 266.45 311.113 290.739 315.56 293.068C320.007 295.398 342.795 313.588 343.65 328.248L361.027 360.09L347.782 372.481C347.782 372.481 306.256 310.935 292.916 303.947C279.575 296.959 269.272 271.097 269.272 271.097L300.557 266.45Z" fill="#BFDBD1"/>
<path d="M194.948 213.139C194.948 213.139 164.406 213.05 166.081 232.624C167.756 252.197 206.907 298.715 206.907 298.715L206.961 308.375L223.7 314.287L232.8 307.708L231.989 302.751C231.989 302.751 215.954 282.475 215.395 275.951C214.837 269.426 201.631 241.562 194.045 238.733L206.028 234.226L194.948 213.139Z" fill="#BFDBD1"/>
<path d="M356.298 359.145C356.298 359.145 351.569 348.726 360.682 351.802C369.795 354.879 375.786 357.453 374.776 363.729C373.766 370.005 358.891 412.683 350.031 408.037C341.17 403.392 351.247 390.527 351.247 390.527C351.247 390.527 348.585 377.22 345.715 375.149C342.846 373.078 344.108 365.232 347.23 365.735C350.352 366.237 357.353 362.535 356.298 359.145Z" fill="#409374"/>
<path d="M228.967 303.432C228.967 303.432 230.233 295.563 235.221 304.438C240.209 313.313 242.323 320.111 235.309 323.826C228.295 327.54 204.633 335.033 204.633 335.033C204.633 335.033 180.421 335.98 185.321 325.468C185.321 325.468 202.222 320.115 203.235 313.821C204.248 307.526 206.021 296.51 210.205 300.412C214.389 304.315 228.207 308.153 228.967 303.432Z" fill="#409374"/>
<path d="M277.294 191.032C277.294 191.032 298.671 197.663 292.104 228.509C292.104 228.509 315.728 261.024 306.413 269.096C297.099 277.167 277.156 291.505 271.656 285.834C266.156 280.164 253.159 241.384 253.159 241.384C253.159 241.384 206.902 249.891 200.339 240.859C193.777 231.827 188.966 211.911 188.966 211.911L231.286 197.985L277.294 191.032Z" fill="#006F46"/>
<path d="M230.287 91.7257C219.998 90.0698 212.999 80.3864 214.655 70.0971C216.311 59.8078 225.995 52.809 236.284 54.4648C246.573 56.1207 253.572 65.8042 251.916 76.0935C250.26 86.3827 240.577 93.3815 230.287 91.7257Z" fill="#BFDBD1"/>
<path d="M247.602 77.3104C247.602 77.3104 255.76 95.9912 258.622 98.0306C261.484 100.07 234.131 111.457 234.131 111.457C234.131 111.457 237.351 91.4497 230.321 85.5816L247.602 77.3104Z" fill="#BFDBD1"/>
<path d="M246.47 93.9507C246.47 93.9507 272.54 90.0857 275.168 103.405C277.796 116.725 284.855 142.042 280.776 157.507C276.697 172.971 274.102 169.329 277.994 174.792C281.887 180.255 285.493 177.611 282.932 183.647C280.37 189.683 278.819 189.434 279.864 192.826C280.909 196.218 258.983 203.974 241.676 202.801L224.369 201.628C224.369 201.628 228.921 173.343 226.832 166.559C224.743 159.774 220.564 146.205 221.323 141.491L223.33 129.017C224.666 120.715 228.117 112.901 233.341 106.347C233.341 106.347 244.919 93.7012 246.47 93.9507Z" fill="#409374"/>
<path d="M263.489 103.758C263.489 103.758 320.884 117.829 324.644 134.547C328.403 151.265 326.491 183.183 320.204 182.171C313.918 181.159 305.553 183.036 304.487 179.642C303.421 176.247 302.189 143.823 300.617 143.57C299.046 143.317 252.652 131.017 252.652 131.017C252.652 131.017 236.264 102.599 263.489 103.758Z" fill="#409374"/>
<path d="M233.495 68.1577C233.495 68.1577 229.845 58.7514 222.351 65.2055C214.858 71.6595 206.83 56.2911 208.873 53.6161C210.915 50.9411 215.972 54.8936 225.973 53.3691C235.974 51.8446 255.293 48.5691 255.094 69.3637C254.895 90.1583 247.931 86.8542 247.931 86.8542C247.931 86.8542 247.477 68.3265 243.618 73.0065L239.76 77.6865L237.032 77.899L233.495 68.1577Z" fill="#006F46"/>
</svg>
