<svg width="1440" height="1401" viewBox="0 0 1440 1401" fill="none" xmlns="http://www.w3.org/2000/svg">
<g clip-path="url(#clip0)">
<rect y="-75" width="1440" height="1881" fill="white"/>
<rect y="-75" width="1440" height="2013" fill="#FBFBFB"/>
<path d="M-210.595 1677.18C-165.733 1702.03 -107.257 1695.91 -60.4539 1717.65C-54.3533 1720.54 -48.4843 1723.82 -42.8945 1727.45C-18.6578 1742.91 1.65748 1763.66 26.8655 1778.1C74.1158 1805.2 128.699 1806.52 184.184 1798.47C226.098 1792.34 268.449 1780.79 308.347 1770.82C409.968 1745.48 521.061 1732.84 622.777 1764.68C690.598 1785.93 749.645 1825.49 815.158 1852.16C880.671 1878.84 961.067 1891.11 1019.56 1857.33C1082.34 1821.08 1099.52 1744.51 1157.17 1702.3C1219.05 1657.02 1313.83 1660.76 1378.82 1618.85C1461.39 1565.6 1468.91 1459.85 1520.36 1381.72C1545.07 1344.2 1580.15 1313.02 1606.93 1276.67C1636.69 1236.17 1655.66 1190.02 1662.45 1141.53C1664.72 1124.99 1665.36 1107.1 1656.08 1092.13C1648.05 1079.22 1633.77 1070.27 1619.57 1062.49C1566.81 1033.67 1502.88 1009.74 1478.68 959.483C1456.36 913.12 1469 847.785 1418.86 823.474C1388.68 808.835 1352.23 819.501 1321.91 831.843C1259.38 857.297 1199.7 889.292 1132.61 904.152C1084.58 914.754 1030.54 914.958 984.379 898.76C965.831 892.386 948.668 883.051 933.775 871.236C910.408 852.488 889.254 825.723 858.241 824.553C844.798 824.042 832.041 828.786 820.482 834.446C776.911 855.806 744.422 890.743 704.096 916.458C690.312 925.304 675.238 932.519 659.239 937.929C627.461 948.553 592.705 950.64 562.792 935.988C545.265 927.395 530.196 913.442 510.639 910.42C477.537 905.238 448.24 920.457 423.19 942.859C392.179 970.584 367.594 1009.4 350.054 1034.63L348.288 1037.14C325.506 1069.35 291.662 1093.38 254.38 1114.14C214.225 1136.64 170.227 1155.29 131.834 1176.55C128.226 1178.54 124.672 1180.56 121.173 1182.6C93.8256 1198.6 68.0543 1216.54 44.1052 1236.27C10.3059 1264.07 -19.7488 1295.21 -45.5078 1329.12C-58.5772 1346.32 -70.4885 1364.2 -81.1828 1382.67C-84.3193 1388.11 -87.3753 1393.58 -90.3509 1399.11C-107.757 1431.14 -123.523 1464.09 -147.732 1492.21C-149.507 1494.21 -151.292 1496.22 -153.067 1498.21C-183.196 1530.88 -223.159 1557.83 -239.237 1597.63C-246.519 1615.76 -248.027 1636.99 -236.941 1654.15C-230.761 1663.71 -221.148 1671.32 -210.595 1677.18Z" fill="#EDEDED"/>
<path d="M1602.88 228.837C1561.52 198.509 1502.74 197.195 1459.06 169.709C1453.37 166.071 1447.96 162.082 1442.88 157.774C1420.79 139.374 1403.26 116.222 1380.08 98.7123C1336.63 65.8553 1282.66 57.643 1226.6 58.6179C1184.25 59.4032 1140.77 65.513 1099.94 70.3545C995.927 82.647 884.127 81.1493 787.251 36.7036C722.659 7.05916 669.087 -39.6526 607.47 -74.3918C545.854 -109.131 467.654 -131.466 405.363 -105.352C338.5 -77.331 311.785 -3.53647 249.258 31.0386C182.151 68.1374 88.6019 52.4452 18.8384 85.8108C-69.7997 128.201 -90.6235 232.148 -151.54 303.148C-180.786 337.245 -219.531 363.746 -250.686 396.419C-285.332 432.824 -309.976 476.211 -322.843 523.456C-327.187 539.575 -330.078 557.241 -322.771 573.26C-316.438 587.083 -303.403 597.771 -290.294 607.281C-241.605 642.54 -181.211 674.354 -163.558 727.268C-147.272 776.081 -168.068 839.295 -121.407 869.747C-93.3208 888.084 -55.8098 882.11 -24.1748 873.699C41.0702 856.352 104.317 832.157 172.747 825.896C221.731 821.449 275.358 828.076 319.105 849.979C336.699 858.646 352.545 870.075 365.825 883.678C386.636 905.229 404.237 934.453 434.853 939.534C448.124 941.739 461.378 938.646 473.559 934.492C519.481 918.81 556.125 888.26 599.378 867.848C614.169 860.815 630.034 855.563 646.589 852.218C679.454 845.695 714.196 848.019 742.017 866.334C758.317 877.073 771.502 892.819 790.52 898.288C822.702 907.613 853.688 896.218 881.368 877.162C915.634 853.579 944.929 818.18 965.516 795.374L967.586 793.107C994.257 764.028 1030.87 744.474 1070.47 728.585C1113.15 711.343 1159.15 698.406 1199.92 682.174C1203.75 680.653 1207.53 679.1 1211.26 677.513C1240.41 665.104 1268.25 650.56 1294.5 634.019C1331.54 610.712 1365.29 583.618 1395.13 553.233C1410.26 537.828 1424.34 521.598 1437.28 504.621C1441.08 499.628 1444.81 494.581 1448.46 489.48C1469.77 459.906 1489.57 429.212 1517.14 404.37C1519.16 402.614 1521.18 400.849 1523.2 399.093C1557.21 370.5 1600.26 348.816 1621.24 311.363C1630.75 294.306 1634.93 273.437 1626.11 255.004C1621.18 244.74 1612.61 235.98 1602.88 228.837Z" fill="#EDEDED"/>
<path d="M163.948 707.949C163.948 707.949 193.79 561.099 136.724 460.17C112.52 417.997 102.355 368.796 107.756 319.954C110.505 296.772 115.316 273.88 122.128 251.568" stroke="#7FB7A2" stroke-width="1.49058" stroke-miterlimit="10"/>
<path d="M86.5161 187.81C87.8926 205.355 122.843 253.414 122.843 253.414C122.843 253.414 149.921 199.749 148.432 182.217C148.111 178.043 146.992 173.981 145.139 170.262C143.285 166.544 140.734 163.242 137.631 160.546C134.527 157.85 130.932 155.812 127.051 154.548C123.169 153.285 119.078 152.82 115.01 153.181C110.941 153.543 106.976 154.722 103.34 156.654C99.7047 158.585 96.4695 161.229 93.8197 164.437C91.1699 167.644 89.1572 171.35 87.8968 175.345C86.6363 179.34 86.1527 183.544 86.4735 187.719L86.5161 187.81Z" fill="#7FB7A2"/>
<path d="M42.9851 289.613C53.4451 303.501 108.356 324.152 108.356 324.152C108.356 324.152 102.697 264.271 92.2326 250.41C89.7483 247.11 86.6515 244.349 83.1188 242.285C79.5861 240.221 75.6867 238.895 71.6434 238.383C67.6 237.87 63.4918 238.181 59.5534 239.298C55.615 240.415 51.9234 242.315 48.6895 244.891C45.4556 247.467 42.7427 250.668 40.7057 254.311C38.6686 257.954 37.3473 261.967 36.8172 266.123C36.2872 270.278 36.5587 274.494 37.6163 278.529C38.6739 282.564 40.4969 286.34 42.9811 289.641L42.9851 289.613Z" fill="#7FB7A2"/>
<path d="M58.2596 455.443C74.0231 461.937 131.909 451.228 131.909 451.228C131.909 451.228 97.6071 402.717 81.68 396.199C74.0517 393.07 65.5022 393.191 57.9121 396.533C50.322 399.876 44.3132 406.168 41.2074 414.024C38.1017 421.88 38.1534 430.657 41.3513 438.425C44.5492 446.192 50.6314 452.314 58.2596 455.443Z" fill="#7FB7A2"/>
<path d="M97.3689 578.033C111.944 587.217 170.562 586.643 170.562 586.643C170.562 586.643 144.83 532.804 130.153 523.747C126.689 521.464 122.81 519.916 118.745 519.196C114.68 518.475 110.509 518.596 106.477 519.55C102.445 520.505 98.6334 522.275 95.2649 524.757C91.8964 527.238 89.039 530.381 86.86 534.001C84.6811 537.622 83.2245 541.646 82.5755 545.84C81.9265 550.034 82.0981 554.312 83.0804 558.423C84.0627 562.535 85.8359 566.398 88.296 569.786C90.7562 573.174 93.8539 576.018 97.4076 578.152L97.3689 578.033Z" fill="#7FB7A2"/>
<path d="M173.601 321.747C162.309 335.094 106.168 352.91 106.168 352.91C106.168 352.91 115.58 293.423 126.899 280.081C132.328 273.68 139.995 269.736 148.213 269.117C156.431 268.498 164.527 271.254 170.72 276.78C176.913 282.305 180.696 290.146 181.237 298.58C181.777 307.013 179.03 315.346 173.601 321.747Z" fill="#7FB7A2"/>
<path d="M217.57 465.61C202.923 474.965 144.285 474.707 144.285 474.707C144.285 474.707 170.577 420.702 185.244 411.407C188.726 409.2 192.593 407.716 196.623 407.04C200.653 406.363 204.767 406.507 208.731 407.463C212.694 408.42 216.43 410.17 219.724 412.614C223.017 415.057 225.805 418.147 227.928 421.706C230.05 425.265 231.466 429.224 232.094 433.357C232.723 437.489 232.551 441.714 231.589 445.791C230.627 449.868 228.894 453.717 226.489 457.117C224.084 460.518 221.053 463.404 217.57 465.61Z" fill="#7FB7A2"/>
<path d="M241.532 611.716C228.612 623.403 170.716 633.396 170.716 633.396C170.716 633.396 187.758 575.792 200.721 563.998C206.93 558.39 215.036 555.527 223.255 556.039C231.474 556.551 239.134 560.396 244.549 566.728C249.964 573.06 252.69 581.36 252.129 589.803C251.567 598.246 247.764 606.14 241.555 611.748L241.532 611.716Z" fill="#7FB7A2"/>
<path d="M1278.6 1466.95C1278.6 1466.95 1249.67 1324.57 1305 1226.71C1328.46 1185.82 1338.32 1138.11 1333.08 1090.76C1330.42 1068.28 1325.75 1046.08 1319.15 1024.45" stroke="#7FB7A2" stroke-width="1.49058" stroke-miterlimit="10"/>
<path d="M1353.68 962.63C1352.34 979.641 1318.45 1026.24 1318.45 1026.24C1318.45 1026.24 1292.2 974.205 1293.64 957.207C1293.96 953.159 1295.04 949.221 1296.84 945.616C1298.63 942.01 1301.11 938.809 1304.12 936.195C1307.13 933.581 1310.61 931.605 1314.37 930.379C1318.14 929.154 1322.11 928.704 1326.05 929.054C1329.99 929.404 1333.84 930.548 1337.36 932.421C1340.89 934.293 1344.03 936.857 1346.6 939.967C1349.16 943.077 1351.12 946.671 1352.34 950.544C1353.56 954.417 1354.03 958.494 1353.72 962.541L1353.68 962.63Z" fill="#7FB7A2"/>
<path d="M1395.88 1061.34C1385.74 1074.8 1332.5 1094.83 1332.5 1094.83C1332.5 1094.83 1337.99 1036.77 1348.13 1023.33C1350.54 1020.13 1353.55 1017.45 1356.97 1015.45C1360.4 1013.45 1364.18 1012.16 1368.1 1011.66C1372.02 1011.17 1376 1011.47 1379.82 1012.55C1383.64 1013.63 1387.22 1015.48 1390.35 1017.97C1393.49 1020.47 1396.12 1023.58 1398.09 1027.11C1400.07 1030.64 1401.35 1034.53 1401.86 1038.56C1402.38 1042.59 1402.12 1046.68 1401.09 1050.59C1400.06 1054.5 1398.3 1058.16 1395.89 1061.36L1395.88 1061.34Z" fill="#7FB7A2"/>
<path d="M1381.07 1222.12C1365.79 1228.42 1309.66 1218.04 1309.66 1218.04C1309.66 1218.04 1342.92 1171 1358.37 1164.68C1365.76 1161.65 1374.05 1161.76 1381.41 1165.01C1388.77 1168.25 1394.6 1174.35 1397.61 1181.96C1400.62 1189.58 1400.57 1198.09 1397.47 1205.62C1394.37 1213.15 1388.47 1219.09 1381.07 1222.12Z" fill="#7FB7A2"/>
<path d="M1343.15 1340.99C1329.02 1349.89 1272.19 1349.33 1272.19 1349.33C1272.19 1349.33 1297.14 1297.13 1311.37 1288.35C1314.73 1286.14 1318.49 1284.64 1322.43 1283.94C1326.37 1283.24 1330.41 1283.36 1334.32 1284.28C1338.23 1285.21 1341.93 1286.92 1345.19 1289.33C1348.46 1291.74 1351.23 1294.78 1353.34 1298.29C1355.46 1301.8 1356.87 1305.71 1357.5 1309.77C1358.13 1313.84 1357.96 1317.99 1357.01 1321.97C1356.06 1325.96 1354.34 1329.7 1351.95 1332.99C1349.57 1336.27 1346.56 1339.03 1343.12 1341.1L1343.15 1340.99Z" fill="#7FB7A2"/>
<path d="M1269.24 1092.49C1280.19 1105.43 1334.62 1122.71 1334.62 1122.71C1334.62 1122.71 1325.5 1065.03 1314.52 1052.09C1309.26 1045.89 1301.82 1042.06 1293.86 1041.46C1285.89 1040.86 1278.04 1043.54 1272.03 1048.89C1266.03 1054.25 1262.36 1061.85 1261.84 1070.03C1261.31 1078.21 1263.98 1086.29 1269.24 1092.49Z" fill="#7FB7A2"/>
<path d="M1226.61 1231.98C1240.81 1241.05 1297.67 1240.8 1297.67 1240.8C1297.67 1240.8 1272.17 1188.44 1257.95 1179.43C1254.57 1177.29 1250.83 1175.85 1246.92 1175.19C1243.01 1174.54 1239.02 1174.68 1235.18 1175.6C1231.34 1176.53 1227.71 1178.23 1224.52 1180.6C1221.33 1182.97 1218.62 1185.96 1216.57 1189.41C1214.51 1192.86 1213.13 1196.7 1212.53 1200.71C1211.92 1204.72 1212.08 1208.81 1213.02 1212.77C1213.95 1216.72 1215.63 1220.45 1217.96 1223.75C1220.29 1227.04 1223.23 1229.84 1226.61 1231.98Z" fill="#7FB7A2"/>
<path d="M1203.38 1373.64C1215.9 1384.98 1272.04 1394.67 1272.04 1394.67C1272.04 1394.67 1255.51 1338.81 1242.94 1327.38C1236.92 1321.94 1229.07 1319.16 1221.1 1319.66C1213.13 1320.16 1205.7 1323.88 1200.45 1330.02C1195.2 1336.16 1192.56 1344.21 1193.1 1352.4C1193.65 1360.58 1197.33 1368.24 1203.35 1373.68L1203.38 1373.64Z" fill="#7FB7A2"/>
<path d="M1259.19 704.647C1261.84 713.855 1267.59 721.848 1275.4 727.202C1283.22 732.556 1292.6 734.924 1301.87 733.882C1311.14 732.841 1319.71 728.458 1326.03 721.515C1332.36 714.573 1336.04 705.52 1336.41 695.972C1336.79 686.423 1333.84 676.998 1328.09 669.376C1322.34 661.754 1314.16 656.43 1305.01 654.352C1295.86 652.274 1286.34 653.578 1278.13 658.031C1269.93 662.484 1263.58 669.796 1260.21 678.666C1257.08 686.931 1256.72 696.066 1259.19 704.647Z" fill="#BFDBD1"/>
<path d="M1270.32 680.76L1274.65 695.834" stroke="#7FB7A2" stroke-width="0.658252" stroke-miterlimit="10"/>
<path d="M1302.31 686.434L1289.98 701.232" stroke="#7FB7A2" stroke-width="0.658252" stroke-miterlimit="10"/>
<path d="M1280.34 667.722L1300.48 670.275" stroke="#7FB7A2" stroke-width="0.658252" stroke-miterlimit="10"/>
<path d="M1317.74 684.895L1323.52 708.627" stroke="#7FB7A2" stroke-width="0.658252" stroke-miterlimit="10"/>
<path d="M1314.46 718.859L1291.26 714.282" stroke="#7FB7A2" stroke-width="0.658252" stroke-miterlimit="10"/>
<path d="M1281.31 718.966L1285.08 732.064" stroke="#7FB7A2" stroke-width="0.658252" stroke-miterlimit="10"/>
<path d="M1270.91 711.066L1260.95 709.586" stroke="#7FB7A2" stroke-width="0.658252" stroke-miterlimit="10"/>
<path d="M1311.18 665.739L1307.35 654.976" stroke="#7FB7A2" stroke-width="0.658252" stroke-miterlimit="10"/>
<path d="M1320.71 676.79L1332.57 676.851" stroke="#7FB7A2" stroke-width="0.658252" stroke-miterlimit="10"/>
<path d="M1297.88 669.855L1310.76 663.694L1323.27 676.044L1319.39 689.774L1302.57 686.153L1297.88 669.855Z" fill="#7FB7A2" stroke="#7FB7A2" stroke-width="0.658252"/>
<path d="M1272.73 676.471C1271.56 677.826 1270.58 679.184 1270.08 680.392L1260.66 678.424C1264.05 669.761 1270.33 662.639 1278.39 658.305L1282.35 667.645C1282.28 667.7 1282.19 667.769 1282.09 667.852C1281.79 668.085 1281.36 668.424 1280.84 668.846C1279.81 669.69 1278.41 670.866 1276.96 672.195C1275.51 673.524 1273.99 675.009 1272.73 676.471Z" fill="#7FB7A2" stroke="#7FB7A2" stroke-width="0.658252"/>
<path d="M1274.55 696.3L1291.51 699.188L1296.29 715.807L1282.43 722.256L1269.8 710.674L1274.55 696.3Z" fill="#7FB7A2" stroke="#7FB7A2" stroke-width="0.658252"/>
<path d="M1334.09 706.974C1332.5 711.83 1330 716.314 1326.74 720.178C1323.47 724.041 1319.5 727.21 1315.04 729.514L1311.63 717.644L1322.68 705.612L1334.09 706.974Z" fill="#7FB7A2" stroke="#7FB7A2" stroke-width="0.658252"/>
<path d="M1323.07 766.426C1321.42 775.866 1323.09 785.568 1327.78 793.804C1332.46 802.039 1339.86 808.273 1348.65 811.394C1357.44 814.516 1367.06 814.322 1375.79 810.849C1384.51 807.375 1391.78 800.846 1396.3 792.425C1400.82 784.005 1402.29 774.239 1400.46 764.869C1398.62 755.499 1393.6 747.133 1386.28 741.26C1378.97 735.388 1369.83 732.391 1360.51 732.804C1351.18 733.217 1342.27 737.013 1335.36 743.515C1328.92 749.574 1324.6 757.63 1323.07 766.426Z" fill="#BFDBD1"/>
<path d="M1343.53 749.82L1340.83 765.272" stroke="#7FB7A2" stroke-width="0.658252" stroke-miterlimit="10"/>
<path d="M1369.81 768.921L1352.25 776.833" stroke="#7FB7A2" stroke-width="0.658252" stroke-miterlimit="10"/>
<path d="M1358.25 742.483L1375.24 753.594" stroke="#7FB7A2" stroke-width="0.658252" stroke-miterlimit="10"/>
<path d="M1384.36 774.294L1379.17 798.16" stroke="#7FB7A2" stroke-width="0.658252" stroke-miterlimit="10"/>
<path d="M1366.55 803.396L1347.69 789.128" stroke="#7FB7A2" stroke-width="0.658252" stroke-miterlimit="10"/>
<path d="M1336.69 788.983L1334.35 802.41" stroke="#7FB7A2" stroke-width="0.658252" stroke-miterlimit="10"/>
<path d="M1330.8 777.33L1322.49 771.637" stroke="#7FB7A2" stroke-width="0.658252" stroke-miterlimit="10"/>
<path d="M1386.84 754.197L1388.11 742.845" stroke="#7FB7A2" stroke-width="0.658252" stroke-miterlimit="10"/>
<path d="M1390.58 768.305L1401.21 773.55" stroke="#7FB7A2" stroke-width="0.658252" stroke-miterlimit="10"/>
<path d="M1373.08 752.077L1387.36 752.176L1393.21 768.756L1383.71 779.402L1370.17 768.784L1373.08 752.077Z" fill="#7FB7A2" stroke="#7FB7A2" stroke-width="0.658252"/>
<path d="M1347.58 747.019C1345.93 747.725 1344.46 748.517 1343.47 749.383L1335.87 743.492C1342.71 737.187 1351.47 733.531 1360.61 733.162L1360.09 743.294C1360 743.312 1359.89 743.336 1359.76 743.364C1359.39 743.444 1358.86 743.562 1358.21 743.715C1356.91 744.021 1355.14 744.467 1353.25 745.026C1351.36 745.585 1349.35 746.258 1347.58 747.019Z" fill="#7FB7A2" stroke="#7FB7A2" stroke-width="0.658252"/>
<path d="M1340.54 765.646L1354.52 775.664L1351.54 792.7L1336.26 792.432L1329.98 776.492L1340.54 765.646Z" fill="#7FB7A2" stroke="#7FB7A2" stroke-width="0.658252"/>
<path d="M1389.4 801.303C1385.84 804.972 1381.64 807.91 1377.01 809.955C1372.38 811.999 1367.42 813.111 1362.41 813.232L1364.53 801.064L1379.73 795.082L1389.4 801.303Z" fill="#7FB7A2" stroke="#7FB7A2" stroke-width="0.658252"/>
<path d="M187.49 1180.65C184.838 1189.85 179.091 1197.85 171.274 1203.2C163.457 1208.56 154.077 1210.92 144.805 1209.88C135.533 1208.84 126.972 1204.46 120.646 1197.52C114.321 1190.57 110.642 1181.52 110.265 1171.97C109.888 1162.42 112.837 1153 118.588 1145.38C124.338 1137.75 132.517 1132.43 141.665 1130.35C150.814 1128.27 160.339 1129.58 168.543 1134.03C176.748 1138.48 183.098 1145.8 186.464 1154.67C189.6 1162.93 189.961 1172.07 187.49 1180.65Z" fill="#BFDBD1"/>
<path d="M176.361 1156.76L172.023 1171.83" stroke="#7FB7A2" stroke-width="0.658252" stroke-miterlimit="10"/>
<path d="M144.372 1162.43L156.697 1177.23" stroke="#7FB7A2" stroke-width="0.658252" stroke-miterlimit="10"/>
<path d="M166.34 1143.72L146.197 1146.28" stroke="#7FB7A2" stroke-width="0.658252" stroke-miterlimit="10"/>
<path d="M128.934 1160.89L123.16 1184.63" stroke="#7FB7A2" stroke-width="0.658252" stroke-miterlimit="10"/>
<path d="M132.218 1194.86L155.416 1190.28" stroke="#7FB7A2" stroke-width="0.658252" stroke-miterlimit="10"/>
<path d="M165.367 1194.97L161.598 1208.06" stroke="#7FB7A2" stroke-width="0.658252" stroke-miterlimit="10"/>
<path d="M175.763 1187.07L185.731 1185.59" stroke="#7FB7A2" stroke-width="0.658252" stroke-miterlimit="10"/>
<path d="M135.5 1141.74L139.327 1130.98" stroke="#7FB7A2" stroke-width="0.658252" stroke-miterlimit="10"/>
<path d="M125.969 1152.79L114.111 1152.85" stroke="#7FB7A2" stroke-width="0.658252" stroke-miterlimit="10"/>
<path d="M148.8 1145.86L135.918 1139.69L123.405 1152.04L127.287 1165.77L144.11 1162.15L148.8 1145.86Z" fill="#7FB7A2" stroke="#7FB7A2" stroke-width="0.658252"/>
<path d="M173.948 1152.47C175.12 1153.83 176.097 1155.18 176.603 1156.39L186.018 1154.42C182.627 1145.76 176.351 1138.64 168.29 1134.31L164.328 1143.64C164.399 1143.7 164.488 1143.77 164.592 1143.85C164.89 1144.09 165.316 1144.42 165.833 1144.85C166.866 1145.69 168.264 1146.87 169.717 1148.2C171.17 1149.52 172.684 1151.01 173.948 1152.47Z" fill="#7FB7A2" stroke="#7FB7A2" stroke-width="0.658252"/>
<path d="M172.124 1172.3L155.168 1175.19L150.387 1191.81L164.247 1198.26L176.874 1186.67L172.124 1172.3Z" fill="#7FB7A2" stroke="#7FB7A2" stroke-width="0.658252"/>
<path d="M112.583 1182.97C114.176 1187.83 116.674 1192.31 119.941 1196.18C123.206 1200.04 127.177 1203.21 131.634 1205.51L135.049 1193.64L123.999 1181.61L112.583 1182.97Z" fill="#7FB7A2" stroke="#7FB7A2" stroke-width="0.658252"/>
<path d="M123.609 1242.43C125.255 1251.87 123.586 1261.57 118.901 1269.8C114.216 1278.04 106.818 1284.27 98.0251 1287.39C89.2326 1290.52 79.6165 1290.32 70.8903 1286.85C62.164 1283.37 54.8942 1276.85 50.3762 1268.43C45.8581 1260 44.3853 1250.24 46.22 1240.87C48.0546 1231.5 53.0778 1223.13 60.3944 1217.26C67.7109 1211.39 76.8458 1208.39 86.1714 1208.8C95.497 1209.22 104.408 1213.01 111.316 1219.52C117.753 1225.57 122.075 1233.63 123.609 1242.43Z" fill="#BFDBD1"/>
<path d="M103.148 1225.82L105.845 1241.27" stroke="#7FB7A2" stroke-width="0.658252" stroke-miterlimit="10"/>
<path d="M76.8692 1244.92L94.4281 1252.83" stroke="#7FB7A2" stroke-width="0.658252" stroke-miterlimit="10"/>
<path d="M88.4315 1218.48L71.4378 1229.59" stroke="#7FB7A2" stroke-width="0.658252" stroke-miterlimit="10"/>
<path d="M62.3149 1250.29L67.5097 1274.16" stroke="#7FB7A2" stroke-width="0.658252" stroke-miterlimit="10"/>
<path d="M80.1321 1279.4L98.9874 1265.13" stroke="#7FB7A2" stroke-width="0.658252" stroke-miterlimit="10"/>
<path d="M109.985 1264.98L112.329 1278.41" stroke="#7FB7A2" stroke-width="0.658252" stroke-miterlimit="10"/>
<path d="M115.874 1253.33L124.189 1247.64" stroke="#7FB7A2" stroke-width="0.658252" stroke-miterlimit="10"/>
<path d="M59.8348 1230.2L58.5651 1218.85" stroke="#7FB7A2" stroke-width="0.658252" stroke-miterlimit="10"/>
<path d="M56.1011 1244.31L45.4667 1249.55" stroke="#7FB7A2" stroke-width="0.658252" stroke-miterlimit="10"/>
<path d="M73.5945 1228.08L59.3155 1228.18L53.4692 1244.76L62.9691 1255.4L76.511 1244.78L73.5945 1228.08Z" fill="#7FB7A2" stroke="#7FB7A2" stroke-width="0.658252"/>
<path d="M99.1016 1223.02C100.748 1223.72 102.221 1224.52 103.204 1225.38L110.808 1219.49C103.968 1213.19 95.2086 1209.53 86.0636 1209.16L86.589 1219.29C86.677 1219.31 86.787 1219.34 86.9171 1219.36C87.2867 1219.44 87.8183 1219.56 88.4678 1219.72C89.7663 1220.02 91.5374 1220.47 93.4262 1221.03C95.314 1221.58 97.3251 1222.26 99.1016 1223.02Z" fill="#7FB7A2" stroke="#7FB7A2" stroke-width="0.658252"/>
<path d="M106.139 1241.65L92.1584 1251.66L95.1325 1268.7L110.418 1268.43L116.701 1252.49L106.139 1241.65Z" fill="#7FB7A2" stroke="#7FB7A2" stroke-width="0.658252"/>
<path d="M57.2759 1277.3C60.8339 1280.97 65.0423 1283.91 69.6707 1285.95C74.2972 1288 79.2544 1289.11 84.2705 1289.23L82.1463 1277.06L66.9445 1271.08L57.2759 1277.3Z" fill="#7FB7A2" stroke="#7FB7A2" stroke-width="0.658252"/>
</g>
<defs>
<clipPath id="clip0">
<rect y="-75" width="1440" height="1881" fill="white"/>
</clipPath>
</defs>
</svg>
