<svg width="84" height="86" viewBox="0 0 84 86" fill="none" xmlns="http://www.w3.org/2000/svg">
<path d="M19.2289 31.6737L22.9662 44.6623" stroke="#7FB7A2" stroke-width="0.658252" stroke-miterlimit="10"/>
<path d="M46.7912 36.5624L36.1713 49.3133" stroke="#7FB7A2" stroke-width="0.658252" stroke-miterlimit="10"/>
<path d="M27.8634 20.4399L45.219 22.6397" stroke="#7FB7A2" stroke-width="0.658252" stroke-miterlimit="10"/>
<path d="M60.093 35.2364L65.0683 55.6848" stroke="#7FB7A2" stroke-width="0.658252" stroke-miterlimit="10"/>
<path d="M57.2641 64.5016L37.2756 60.5578" stroke="#7FB7A2" stroke-width="0.658252" stroke-miterlimit="10"/>
<path d="M28.701 64.593L31.9485 75.8793" stroke="#7FB7A2" stroke-width="0.658252" stroke-miterlimit="10"/>
<path d="M19.7438 57.7863L11.1553 56.5111" stroke="#7FB7A2" stroke-width="0.658252" stroke-miterlimit="10"/>
<path d="M54.4354 18.7308L51.1384 9.45767" stroke="#7FB7A2" stroke-width="0.658252" stroke-miterlimit="10"/>
<path d="M62.6484 28.2532L72.8649 28.3059" stroke="#7FB7A2" stroke-width="0.658252" stroke-miterlimit="10"/>
<path d="M43.0306 22.3024L54.0664 17.0242L64.8064 27.6237L61.4802 39.387L47.0531 36.2821L43.0306 22.3024Z" fill="#7FB7A2" stroke="#7FB7A2" stroke-width="0.658252"/>
<path d="M21.2732 27.9484C20.2742 29.1037 19.4353 30.2649 18.993 31.3044L10.9701 29.627C13.8861 22.2109 19.261 16.1127 26.1604 12.3895L29.5409 20.3588C29.4848 20.4025 29.4177 20.4549 29.3406 20.5155C29.0843 20.7171 28.7168 21.0094 28.2712 21.3731C27.3802 22.1005 26.1756 23.1144 24.9222 24.2605C23.6697 25.4058 22.364 26.687 21.2732 27.9484Z" fill="#7FB7A2" stroke="#7FB7A2" stroke-width="0.658252"/>
<path d="M22.9106 45.1148L37.4529 47.5917L41.5545 61.8465L29.6746 67.3744L18.8393 57.4347L22.9106 45.1148Z" fill="#7FB7A2" stroke="#7FB7A2" stroke-width="0.658252"/>
<path d="M74.1213 54.2991C72.7497 58.4579 70.6064 62.2973 67.8074 65.6083C65.0097 68.9176 61.6106 71.6356 57.7954 73.6161L54.8749 63.4661L64.3634 53.1354L74.1213 54.2991Z" fill="#7FB7A2" stroke="#7FB7A2" stroke-width="0.658252"/>
</svg>
