<svg width="344" height="519" viewBox="0 0 344 519" fill="none" xmlns="http://www.w3.org/2000/svg">
<path d="M169.503 493.32C169.503 493.32 230.359 379.107 207.828 281.839C198.113 241.091 201.78 197.933 218.277 158.847C226.243 140.356 235.846 122.604 246.967 105.813" stroke="#7FB7A2" stroke-width="1.3165" stroke-miterlimit="10"/>
<path d="M233.131 44.4272C229.968 59.2673 247.142 107.467 247.142 107.467C247.142 107.467 282.708 69.6086 285.871 54.7684C287.283 47.688 285.902 40.3946 282.026 34.4658C278.149 28.537 272.09 24.4493 265.159 23.0869C258.227 21.7245 250.98 23.197 244.985 27.1858C238.99 31.1745 234.73 37.359 233.125 44.4015L233.131 44.4272Z" fill="#7FB7A2"/>
<path d="M171.984 118.064C177.258 132.034 217.735 162.45 217.735 162.45C217.735 162.45 227.745 111.559 222.491 97.5569C221.296 94.1507 219.437 91.0367 217.022 88.3978C214.606 85.759 211.684 83.6483 208.427 82.1894C205.169 80.7306 201.641 79.9529 198.05 79.9022C194.459 79.8514 190.878 80.5287 187.515 81.894C184.152 83.2593 181.077 85.2853 178.468 87.8532C175.86 90.4211 173.771 93.4792 172.324 96.8481C170.878 100.217 170.103 103.829 170.044 107.472C169.986 111.115 170.645 114.717 171.984 118.064Z" fill="#7FB7A2"/>
<path d="M143.894 258.907C155.473 268.133 206.042 273.267 206.042 273.267C206.042 273.267 189.458 224.817 177.917 215.526C172.338 211.288 165.293 209.472 158.289 210.466C151.284 211.46 144.877 215.185 140.436 220.844C135.996 226.504 133.876 233.648 134.529 240.749C135.182 247.85 138.557 254.344 143.932 258.842L143.894 258.907Z" fill="#7FB7A2"/>
<path d="M146.208 369.745C156.034 380.87 204.823 394.599 204.823 394.599C204.823 394.599 196.619 343.825 186.803 332.684C184.49 329.958 181.653 327.739 178.457 326.159C175.262 324.578 171.773 323.667 168.193 323.479C164.614 323.291 161.017 323.83 157.612 325.064C154.207 326.298 151.064 328.203 148.365 330.666C145.666 333.13 143.466 336.103 141.894 339.411C140.322 342.72 139.409 346.298 139.209 349.935C139.009 353.572 139.526 357.197 140.729 360.595C141.933 363.994 143.799 367.099 146.218 369.729L146.208 369.745Z" fill="#7FB7A2"/>
<path d="M272.533 176.162C259.873 184.441 208.915 185.599 208.915 185.599C208.915 185.599 231.351 138.694 244.005 130.39C247.014 128.419 250.363 127.059 253.861 126.388C257.358 125.717 260.935 125.749 264.388 126.48C267.841 127.211 271.101 128.629 273.984 130.651C276.866 132.674 279.314 135.261 281.187 138.267C283.06 141.272 284.322 144.636 284.901 148.167C285.48 151.698 285.365 155.327 284.561 158.846C283.757 162.365 282.281 165.705 280.218 168.676C278.154 171.648 275.543 174.191 272.533 176.162Z" fill="#7FB7A2"/>
<path d="M273.578 305.904C259.139 310.031 210.543 295.67 210.543 295.67C210.543 295.67 245.631 257.384 260.07 253.257C266.957 251.406 274.221 252.357 280.295 255.906C286.37 259.454 290.768 265.316 292.541 272.225C294.313 279.134 293.319 286.538 289.771 292.839C286.223 299.14 280.407 303.832 273.578 305.904Z" fill="#7FB7A2"/>
<path d="M257.548 432.527C243.964 439.048 193.464 433.277 193.464 433.277C193.464 433.277 221.812 389.666 235.44 383.104C238.679 381.514 242.181 380.583 245.744 380.365C249.307 380.147 252.861 380.646 256.2 381.833C259.539 383.02 262.598 384.871 265.198 387.281C267.799 389.69 269.891 392.61 271.353 395.871C272.815 399.132 273.619 402.67 273.717 406.28C273.815 409.891 273.206 413.502 271.925 416.905C270.644 420.309 268.717 423.438 266.254 426.11C263.791 428.783 260.842 430.947 257.577 432.477L257.548 432.527Z" fill="#7FB7A2"/>
</svg>
