<svg width="745" height="596" viewBox="0 0 745 596" fill="none" xmlns="http://www.w3.org/2000/svg">
<path d="M736.473 275.716C720.495 255.782 693.239 250.833 675.871 232.322C673.616 229.879 671.529 227.259 669.627 224.484C661.334 212.605 655.682 198.393 646.783 186.934C630.107 165.435 605.841 156.97 579.606 153.497C559.78 150.901 538.853 151.204 519.292 150.985C469.475 150.408 417.528 141.556 377.209 109.742C350.328 88.5247 330.44 58.5468 305.5 34.6916C280.56 10.8364 246.541 -7.26675 214.665 2.88013C180.451 13.7668 159.971 53.144 127.065 68.0087C91.7491 83.9571 49.853 68.4708 13.7057 82.14C-32.2211 99.506 -53.2367 156.177 -89.3551 191.539C-106.697 208.522 -127.639 220.573 -145.716 236.623C-165.825 254.51 -182.032 277.021 -193.17 302.535C-196.949 311.242 -200.218 320.92 -198.555 330.408C-197.108 338.596 -192.195 345.511 -187.119 351.772C-168.261 374.991 -143.573 397.122 -141.102 427.996C-138.822 456.477 -155.393 490.358 -136.957 510.742C-125.861 523.016 -107.727 522.362 -92.0666 519.923C-59.7682 514.894 -27.6562 505.889 4.92035 507.291C28.2359 508.313 52.511 515.866 70.5186 531.257C77.7762 537.368 83.9184 544.899 88.6281 553.463C95.9834 567.013 101.008 584.627 114.725 589.665C120.671 591.851 127.185 591.07 133.315 589.619C156.426 584.135 176.83 569.668 199.211 561.346C206.87 558.471 214.836 556.669 222.916 555.985C238.945 554.691 254.885 558.481 265.86 570.724C272.289 577.901 276.721 587.657 284.991 592.081C298.976 599.605 314.659 595.45 329.634 586.771C348.172 576.032 365.677 558.324 377.755 547.038L378.966 545.918C394.561 531.559 413.752 523.241 433.942 517.19C455.71 510.601 478.559 506.659 499.329 500.499C501.28 499.923 503.211 499.325 505.122 498.704C520.059 493.85 534.615 487.707 548.65 480.333C568.451 469.947 587.13 457.205 604.343 442.342C613.075 434.807 621.402 426.734 629.282 418.163C631.596 415.641 633.88 413.084 636.137 410.491C649.289 395.471 661.86 379.716 677.413 367.791C678.542 366.953 679.678 366.11 680.807 365.272C699.773 351.711 722.197 342.664 736.051 323.21C742.342 314.348 746.56 302.97 744.451 292.023C743.274 285.927 740.231 280.411 736.473 275.716Z" fill="#B2CDC4"/>
</svg>
