<svg width="393" height="520" viewBox="0 0 393 520" fill="none" xmlns="http://www.w3.org/2000/svg">
<g clip-path="url(#clip0)">
<path d="M329.266 13.1837H0V500.408H329.266V13.1837Z" fill="#BFDBD1"/>
<path d="M239.534 513.015L0 500.408V13.1834L239.534 0.576323V513.015Z" fill="#7FB7A2"/>
<path d="M219.511 283.122C221.149 283.122 222.477 281.794 222.477 280.156C222.477 278.518 221.149 277.19 219.511 277.19C217.872 277.19 216.544 278.518 216.544 280.156C216.544 281.794 217.872 283.122 219.511 283.122Z" fill="#006F46"/>
<path d="M219.511 280.598L221.567 284.16L223.623 287.721H219.511H215.398L217.454 284.16L219.511 280.598Z" fill="#006F46"/>
<path d="M219.511 266.807C224.835 266.807 229.151 262.491 229.151 257.167C229.151 251.842 224.835 247.526 219.511 247.526C214.186 247.526 209.87 251.842 209.87 257.167C209.87 262.491 214.186 266.807 219.511 266.807Z" fill="#006F46"/>
<path opacity="0.21" d="M39.1704 12.4751V502.702" stroke="#006F46" stroke-width="2" stroke-miterlimit="10"/>
<path opacity="0.21" d="M79.2162 9.50877V504.185" stroke="#006F46" stroke-width="2" stroke-miterlimit="10"/>
<path opacity="0.21" d="M119.262 7.284V507.036" stroke="#006F46" stroke-width="2" stroke-miterlimit="10"/>
<path opacity="0.21" d="M159.308 5.05923V510.118" stroke="#006F46" stroke-width="2" stroke-miterlimit="10"/>
<path opacity="0.21" d="M199.354 2.83446V510.744" stroke="#006F46" stroke-width="2" stroke-miterlimit="10"/>
<path d="M343.517 98.6593C359.695 98.6593 372.81 86.3745 372.81 71.2205C372.81 56.0664 359.695 43.7817 343.517 43.7817C327.339 43.7817 314.224 56.0664 314.224 71.2205C314.224 86.3745 327.339 98.6593 343.517 98.6593Z" fill="#006F46"/>
<path d="M258.234 242.157L250.818 252.539C250.818 252.539 215.222 259.955 228.571 271.079C241.919 282.203 261.201 260.697 261.201 260.697L271.583 247.348L258.234 242.157Z" fill="#BFDBD1"/>
<path d="M296.797 124.244C296.797 124.244 287.156 124.244 284.932 137.593C282.707 150.941 280.482 195.437 280.482 195.437C280.482 195.437 249.335 236.224 254.526 241.415C259.718 246.607 265.65 256.247 269.358 254.764C273.066 253.281 304.955 209.527 304.955 209.527L296.797 124.244Z" fill="#409374"/>
<path d="M326.461 86.4231C326.461 86.4231 325.719 115.345 316.82 116.828C307.921 118.311 310.887 127.952 310.887 127.952C310.887 127.952 339.809 145.009 359.091 127.952L362.799 119.053C362.799 119.053 349.45 109.412 355.383 96.0637L326.461 86.4231Z" fill="#BFDBD1"/>
<path d="M276.774 264.405C276.774 264.405 233.02 345.98 249.335 371.194C265.65 396.408 290.123 448.319 293.831 448.319C297.539 448.319 318.303 437.937 316.82 431.262C315.337 424.588 293.089 374.902 287.156 370.452C281.224 366.002 284.19 354.137 284.932 353.395C285.673 352.654 310.146 313.35 310.146 313.35C310.146 313.35 309.404 375.643 312.37 385.284C315.337 394.924 311.629 463.892 315.337 466.859C319.045 469.825 336.101 475.016 339.068 470.567C342.034 466.117 350.933 398.632 345 383.059L356.124 276.27L276.774 264.405Z" fill="#006F46"/>
<path d="M316.82 462.409L298.28 496.522C298.28 496.522 271.583 515.804 290.123 518.77C308.662 521.736 319.786 514.32 319.786 514.32L336.101 502.455V468.342L316.82 462.409Z" fill="#409374"/>
<path d="M291.606 443.128L301.247 466.117C301.247 466.117 304.955 475.758 301.247 477.983C297.539 480.207 287.156 493.556 293.831 495.039C295.173 495.302 296.538 495.438 297.906 495.444C303.464 495.538 308.983 494.506 314.131 492.411C319.28 490.316 323.951 487.201 327.865 483.253L333.877 477.241C333.877 477.241 313.283 429.818 313.568 430.169C313.854 430.521 291.606 443.128 291.606 443.128Z" fill="#409374"/>
<path d="M345 104.221C358.926 104.221 370.215 92.9325 370.215 79.0072C370.215 65.0818 358.926 53.7931 345 53.7931C331.075 53.7931 319.786 65.0818 319.786 79.0072C319.786 92.9325 331.075 104.221 345 104.221Z" fill="#BFDBD1"/>
<path d="M359.461 114.233L351.675 122.019C351.675 122.019 327.944 130.918 316.82 122.019C316.82 122.019 320.899 113.491 320.899 114.233C320.899 114.974 288.64 119.795 285.673 133.143C282.707 146.492 287.898 169.481 287.898 169.481C287.898 169.481 267.133 267.371 275.291 269.596C283.448 271.821 359.832 290.36 359.091 276.27C358.349 262.18 365.023 204.336 365.023 204.336L390.979 154.649C390.979 154.649 387.271 138.334 378.372 133.143C369.473 127.952 359.461 114.233 359.461 114.233Z" fill="#409374"/>
<path d="M326.461 259.214L316.82 265.146C316.82 265.146 279.74 290.36 299.022 294.81C318.303 299.259 329.427 277.012 329.427 277.012L336.843 268.113L326.461 259.214Z" fill="#BFDBD1"/>
<path d="M384.305 147.975L390.979 154.649C390.979 154.649 395.429 216.943 386.529 229.55C377.63 242.157 336.843 276.27 334.618 274.045C332.393 271.821 318.303 260.697 321.27 259.214C324.236 257.73 363.676 216.521 363.676 216.521L360.574 159.099L384.305 147.975Z" fill="#409374"/>
<path d="M334.572 43.1922C334.572 43.1922 326.002 40.0755 314.314 46.6985L320.547 48.2568C320.547 48.2568 311.197 49.036 310.028 61.5028H314.314C314.314 61.5028 311.587 72.4113 314.314 75.528L316.067 72.2165L321.132 82.3458L322.3 77.2811L324.638 78.0603L326.196 69.8789C326.196 69.8789 330.092 75.7228 333.209 76.1124V71.0477C333.209 71.0477 341.78 80.7874 344.507 80.3978L340.611 74.9436L346.065 76.1123L343.728 72.2165L357.753 76.1123L354.636 72.2165L364.376 75.3332L369.051 77.2811C369.051 77.2811 375.674 62.0872 366.324 51.5683C356.974 41.0494 343.338 38.7119 334.572 43.1922Z" fill="#006F46"/>
</g>
<defs>
<clipPath id="clip0">
<rect y="0.529602" width="392.091" height="518.941" fill="white"/>
</clipPath>
</defs>
</svg>
