<?xml version="1.0" encoding="UTF-8" standalone="no"?>
<svg
   xmlns:dc="http://purl.org/dc/elements/1.1/"
   xmlns:cc="http://creativecommons.org/ns#"
   xmlns:rdf="http://www.w3.org/1999/02/22-rdf-syntax-ns#"
   xmlns:svg="http://www.w3.org/2000/svg"
   xmlns="http://www.w3.org/2000/svg"
   xmlns:sodipodi="http://sodipodi.sourceforge.net/DTD/sodipodi-0.dtd"
   xmlns:inkscape="http://www.inkscape.org/namespaces/inkscape"
   sodipodi:docname="treiner_vertical_lockup.svg"
   inkscape:version="1.0 (4035a4f, 2020-05-01)"
   id="svg1100"
   version="1.1"
   viewBox="0 0 79.746567 87.3125"
   height="87.3125mm"
   width="79.746567mm">
  <defs
     id="defs1094">
    <clipPath
       clipPathUnits="userSpaceOnUse"
       id="clipPath354">
      <path
         d="M 0,0 H 1920 V 1080 H 0 Z"
         id="path352" />
    </clipPath>
    <clipPath
       clipPathUnits="userSpaceOnUse"
       id="clipPath382">
      <path
         d="M 0,0 H 1920 V 1080 H 0 Z"
         id="path380" />
    </clipPath>
    <clipPath
       clipPathUnits="userSpaceOnUse"
       id="clipPath402">
      <path
         d="M 0,0 H 1920 V 1080 H 0 Z"
         id="path400" />
    </clipPath>
  </defs>
  <sodipodi:namedview
     inkscape:window-maximized="0"
     inkscape:window-y="23"
     inkscape:window-x="0"
     inkscape:window-height="799"
     inkscape:window-width="1252"
     showgrid="false"
     inkscape:document-rotation="0"
     inkscape:current-layer="layer1"
     inkscape:document-units="mm"
     inkscape:cy="105.10213"
     inkscape:cx="80.539743"
     inkscape:zoom="0.81317127"
     inkscape:pageshadow="2"
     inkscape:pageopacity="0.0"
     borderopacity="1.0"
     bordercolor="#666666"
     pagecolor="#ffffff"
     id="base" />
  <metadata
     id="metadata1097">
    <rdf:RDF>
      <cc:Work
         rdf:about="">
        <dc:format>image/svg+xml</dc:format>
        <dc:type
           rdf:resource="http://purl.org/dc/dcmitype/StillImage" />
        <dc:title></dc:title>
      </cc:Work>
    </rdf:RDF>
  </metadata>
  <g
     transform="translate(-55.376715,-80.319941)"
     id="layer1"
     inkscape:groupmode="layer"
     inkscape:label="Layer 1">
    <g
       style="fill:#ffffff"
       id="g360"
       transform="matrix(0.35277777,0,0,-0.35277777,106.75196,90.124632)">
      <path
         d="m 0,0 v -29.952 h -7.296 l -12.203,18.474 v -18.474 h -7.296 V 0 h 7.296 L -7.296,-18.56 V 0 Z"
         style="fill:#ffffff;fill-opacity:1;fill-rule:nonzero;stroke:none"
         id="path362" />
    </g>
    <g
       style="fill:#ffffff"
       id="g364"
       transform="matrix(0.35277777,0,0,-0.35277777,95.433004,90.124632)">
      <path
         d="M 0,0 H -7.296 V -29.952 L 0,-28.983 Z"
         style="fill:#ffffff;fill-opacity:1;fill-rule:nonzero;stroke:none"
         id="path366" />
    </g>
    <g
       style="fill:#ffffff"
       id="g368"
       transform="matrix(0.35277777,0,0,-0.35277777,84.716533,90.124632)">
      <path
         d="m 0,0 v -29.952 h 18.347 v 5.845 H 7.296 v 6.571 h 9.771 v 5.632 H 7.296 v 6.059 H 17.557 L 18.333,0 Z"
         style="fill:#ffffff;fill-opacity:1;fill-rule:nonzero;stroke:none"
         id="path370" />
    </g>
    <g
       style="fill:#ffffff"
       id="g372"
       transform="matrix(0.35277777,0,0,-0.35277777,108.61785,90.124632)">
      <path
         d="m 0,0 v -29.952 h 18.347 v 5.845 H 7.296 v 6.571 h 9.771 v 5.632 H 7.296 v 6.059 H 17.569 L 18.345,0 Z"
         style="fill:#ffffff;fill-opacity:1;fill-rule:nonzero;stroke:none"
         id="path374" />
    </g>
    <g
       style="fill:#ffffff"
       transform="matrix(0.35277777,0,0,-0.35277777,-259.29168,390.58799)"
       id="g376">
      <g
         style="fill:#ffffff"
         id="g378"
         clip-path="url(#clipPath382)">
        <g
           style="fill:#ffffff"
           id="g384"
           transform="translate(959.5693,851.8541)">
          <path
             d="m 0,0 c 7.339,0 11.008,-4.224 11.008,-9.429 0,-3.755 -2.048,-7.297 -6.656,-8.662 l 6.912,-11.862 H 3.03 l -6.23,11.307 h -1.749 v -11.307 h -7.296 V 0 Z m -0.427,-6.059 h -4.522 v -7.424 h 4.522 c 2.731,0 4.011,1.408 4.011,3.755 0,2.219 -1.28,3.669 -4.011,3.669"
             style="fill:#ffffff;fill-opacity:1;fill-rule:nonzero;stroke:none"
             id="path386" />
        </g>
        <g
           style="fill:#ffffff"
           id="g388"
           transform="translate(1078.2201,851.8541)">
          <path
             d="m 0,0 c 7.339,0 11.008,-4.224 11.008,-9.429 0,-3.755 -2.048,-7.297 -6.656,-8.662 l 6.912,-11.862 H 3.03 l -6.23,11.307 h -1.749 v -11.307 h -7.296 V 0 Z m -0.427,-6.059 h -4.522 v -7.424 h 4.522 c 2.731,0 4.011,1.408 4.011,3.755 0,2.219 -1.28,3.669 -4.011,3.669"
             style="fill:#ffffff;fill-opacity:1;fill-rule:nonzero;stroke:none"
             id="path390" />
        </g>
      </g>
    </g>
    <g
       style="fill:#ffffff"
       id="g392"
       transform="matrix(0.35277777,0,0,-0.35277777,65.445765,90.072809)">
      <path
         d="m 0,0 0.776,-5.845 h 7.131 v -24.108 h 7.296 v 24.108 h 7.134 L 23.113,0 Z"
         style="fill:#ffffff;fill-opacity:1;fill-rule:nonzero;stroke:none"
         id="path394" />
    </g>
    <g
       style="fill:#ffffff"
       transform="matrix(0.35277777,0,0,-0.35277777,-259.29168,390.58799)"
       id="g396">
      <g
         style="fill:#ffffff"
         id="g398"
         clip-path="url(#clipPath402)">
        <g
           style="fill:#ffffff"
           id="g404"
           transform="translate(1005,642.5233)">
          <path
             d="m 0,0 -0.61,0.254 c -0.548,0.228 -13.632,5.74 -30.486,18.892 -9.885,7.714 -18.996,16.462 -27.08,26 -10.106,11.925 -18.625,25.125 -25.322,39.235 -6.696,14.108 -11.817,30.319 -15.221,48.185 -2.719,14.268 -4.356,29.62 -4.866,45.629 -0.867,27.251 1.879,47.269 1.906,47.468 l 0.192,1.368 h 202.974 l 0.192,-1.368 c 0.027,-0.199 2.773,-20.217 1.906,-47.468 -0.51,-16.009 -2.147,-31.361 -4.866,-45.629 C 95.315,114.7 90.194,98.489 83.498,84.381 76.802,70.271 68.282,57.071 58.176,45.146 50.092,35.608 40.981,26.86 31.096,19.146 14.242,5.994 1.158,0.482 0.61,0.254 Z m -98.706,223.855 c -0.588,-4.926 -2.438,-22.675 -1.703,-45.623 0.796,-24.858 4.873,-61.083 19.779,-92.489 C -65.73,54.351 -44.407,33.562 -29.143,21.65 -14.641,10.333 -2.771,4.697 0,3.453 c 2.776,1.249 14.713,6.921 29.234,18.268 15.235,11.905 36.518,32.676 51.396,64.022 14.906,31.406 18.983,67.631 19.779,92.489 0.735,22.948 -1.115,40.697 -1.703,45.623 z"
             style="fill:#ffffff;fill-opacity:1;fill-rule:nonzero;stroke:none"
             id="path406" />
        </g>
        <g
           style="fill:#ffffff"
           id="g408"
           transform="translate(999.2023,689.3234)">
          <path
             d="m 0,0 c 0,-1.64 -0.274,-3.216 -0.776,-4.682 -1.946,-5.667 -7.318,-9.74 -13.643,-9.74 -6.324,0 -11.696,4.073 -13.642,9.74 -0.502,1.466 -0.776,3.042 -0.776,4.682 0,1.64 0.274,3.213 0.776,4.682 1.394,4.059 4.55,7.303 8.556,8.813 1.582,0.597 3.297,0.924 5.086,0.924 1.79,0 3.505,-0.327 5.087,-0.924 4.006,-1.51 7.161,-4.754 8.556,-8.813 C -0.274,3.213 0,1.64 0,0"
             style="fill:#ffffff;fill-opacity:1;fill-rule:nonzero;stroke:none"
             id="path410" />
        </g>
      </g>
    </g>
    <g
       style="fill:#ffffff"
       id="g412"
       transform="matrix(0.35277777,0,0,-0.35277777,125.05911,105.70429)">
      <path
         d="m 0,0 -2.416,-18.203 -1.207,-9.081 h -46.924 v -112.523 l -27.288,-20.891 v 142.495 h -13.238 v -77.43 h -27.284 v 68.349 h -47.014 l -1.207,9.081 L -168.997,0 Z"
         style="fill:#ffffff;fill-opacity:1;fill-rule:nonzero;stroke:none"
         id="path414" />
    </g>
  </g>
</svg>
