<svg width="264" height="264" fill="none" xmlns="http://www.w3.org/2000/svg"><circle cx="132" cy="132" r="128" fill="#BFDBD1" stroke="#7FB7A2" stroke-width="8"/><mask id="a" maskUnits="userSpaceOnUse" x="33" y="47" width="198" height="138" fill="#000"><path fill="#fff" d="M33 47h198v138H33z"/><path d="M225.598 159.257a4.262 4.262 0 00-4.258 4.258v1.575c-8.387-10.133-18.649-23.226-30.655-39.15-27.676-36.638-54.989-75.766-55.351-76.17a4.25 4.25 0 00-3.598-1.768 4.258 4.258 0 00-3.512 2.13 744.106 744.106 0 01-50.752 76.213 371.48 371.48 0 01-34.956 39.959v-2.789a4.26 4.26 0 00-4.258-4.258A4.26 4.26 0 0034 163.515v15.37a4.26 4.26 0 004.258 4.258 4.26 4.26 0 004.258-4.258v-1.277a4.724 4.724 0 001.277-.788 331.114 331.114 0 0032.784-35.616v38.788a4.26 4.26 0 004.258 4.258h40.449a4.255 4.255 0 004.108-3.151c2.448-9.026 4.854-19.777 6.77-28.889 2.129 9.304 4.449 20.182 6.238 28.655a4.256 4.256 0 004.172 3.385c.29.03.583.03.873 0a4.264 4.264 0 002.787-1.843 4.271 4.271 0 00.598-3.288c-3.96-18.287-10.644-48.091-10.644-48.41a4.26 4.26 0 00-8.346.17c0 .256-4.726 25.547-9.728 44.855h-33.02V130.39a763.9 763.9 0 0047.177-70.253c8.387 11.9 29.463 41.47 50.752 69.827v45.77h-25.547a4.258 4.258 0 000 8.516h29.804a4.258 4.258 0 004.258-4.258v-38.809c11.134 14.54 20.586 26.398 28.165 35.254a4.387 4.387 0 001.639 1.171v1.277a4.262 4.262 0 004.258 4.258 4.262 4.262 0 004.258-4.258v-15.37a4.262 4.262 0 00-4.258-4.258z"/></mask><path d="M225.598 159.257a4.262 4.262 0 00-4.258 4.258v1.575c-8.387-10.133-18.649-23.226-30.655-39.15-27.676-36.638-54.989-75.766-55.351-76.17a4.25 4.25 0 00-3.598-1.768 4.258 4.258 0 00-3.512 2.13 744.106 744.106 0 01-50.752 76.213 371.48 371.48 0 01-34.956 39.959v-2.789a4.26 4.26 0 00-4.258-4.258A4.26 4.26 0 0034 163.515v15.37a4.26 4.26 0 004.258 4.258 4.26 4.26 0 004.258-4.258v-1.277a4.724 4.724 0 001.277-.788 331.114 331.114 0 0032.784-35.616v38.788a4.26 4.26 0 004.258 4.258h40.449a4.255 4.255 0 004.108-3.151c2.448-9.026 4.854-19.777 6.77-28.889 2.129 9.304 4.449 20.182 6.238 28.655a4.256 4.256 0 004.172 3.385c.29.03.583.03.873 0a4.264 4.264 0 002.787-1.843 4.271 4.271 0 00.598-3.288c-3.96-18.287-10.644-48.091-10.644-48.41a4.26 4.26 0 00-8.346.17c0 .256-4.726 25.547-9.728 44.855h-33.02V130.39a763.9 763.9 0 0047.177-70.253c8.387 11.9 29.463 41.47 50.752 69.827v45.77h-25.547a4.258 4.258 0 000 8.516h29.804a4.258 4.258 0 004.258-4.258v-38.809c11.134 14.54 20.586 26.398 28.165 35.254a4.387 4.387 0 001.639 1.171v1.277a4.262 4.262 0 004.258 4.258 4.262 4.262 0 004.258-4.258v-15.37a4.262 4.262 0 00-4.258-4.258z" fill="#006F46"/><path d="M225.598 159.257a4.262 4.262 0 00-4.258 4.258v1.575c-8.387-10.133-18.649-23.226-30.655-39.15-27.676-36.638-54.989-75.766-55.351-76.17a4.25 4.25 0 00-3.598-1.768 4.258 4.258 0 00-3.512 2.13 744.106 744.106 0 01-50.752 76.213 371.48 371.48 0 01-34.956 39.959v-2.789a4.26 4.26 0 00-4.258-4.258A4.26 4.26 0 0034 163.515v15.37a4.26 4.26 0 004.258 4.258 4.26 4.26 0 004.258-4.258v-1.277a4.724 4.724 0 001.277-.788 331.114 331.114 0 0032.784-35.616v38.788a4.26 4.26 0 004.258 4.258h40.449a4.255 4.255 0 004.108-3.151c2.448-9.026 4.854-19.777 6.77-28.889 2.129 9.304 4.449 20.182 6.238 28.655a4.256 4.256 0 004.172 3.385c.29.03.583.03.873 0a4.264 4.264 0 002.787-1.843 4.271 4.271 0 00.598-3.288c-3.96-18.287-10.644-48.091-10.644-48.41a4.26 4.26 0 00-8.346.17c0 .256-4.726 25.547-9.728 44.855h-33.02V130.39a763.9 763.9 0 0047.177-70.253c8.387 11.9 29.463 41.47 50.752 69.827v45.77h-25.547a4.258 4.258 0 000 8.516h29.804a4.258 4.258 0 004.258-4.258v-38.809c11.134 14.54 20.586 26.398 28.165 35.254a4.387 4.387 0 001.639 1.171v1.277a4.262 4.262 0 004.258 4.258 4.262 4.262 0 004.258-4.258v-15.37a4.262 4.262 0 00-4.258-4.258z" stroke="#006F46" stroke-width="1.19" mask="url(#a)"/></svg>