<svg width="264" height="264" viewBox="0 0 264 264" fill="none" xmlns="http://www.w3.org/2000/svg">
<circle cx="132" cy="132" r="128" fill="#BFDBD1" stroke="#7FB7A2" stroke-width="8"/>
<rect x="39.5" y="89.5" width="111" height="86" rx="16.5" stroke="#006F46" stroke-width="9"/>
<mask id="path-3-inside-1" fill="white">
<path d="M147 125.736C147 115.717 154.078 107.093 163.905 105.139L204.905 96.9887C217.893 94.4067 230 104.344 230 117.586V147.715C230 160.858 218.064 170.771 205.145 168.358L164.145 160.702C154.206 158.846 147 150.17 147 140.059V125.736Z"/>
</mask>
<path d="M147 125.736C147 115.717 154.078 107.093 163.905 105.139L204.905 96.9887C217.893 94.4067 230 104.344 230 117.586V147.715C230 160.858 218.064 170.771 205.145 168.358L164.145 160.702C154.206 158.846 147 150.17 147 140.059V125.736Z" stroke="#006F46" stroke-width="18" mask="url(#path-3-inside-1)"/>
</svg>
